<svg width="52" height="52" viewBox="0 0 52 52" fill="none" xmlns="http://www.w3.org/2000/svg"><rect width="52" height="52" rx="26" fill="#F6F6F6"/><path d="M19.0936 19.6047C19.5175 19.6047 19.8611 19.2611 19.8611 18.8373C19.8611 18.4134 19.5175 18.0698 19.0936 18.0698C18.6698 18.0698 18.3262 18.4134 18.3262 18.8373C18.3262 19.2611 18.6698 19.6047 19.0936 19.6047Z" fill="#72195A" stroke="#72195A" stroke-width="0.75"/><path d="M21.6522 19.6047C22.0761 19.6047 22.4197 19.2611 22.4197 18.8373C22.4197 18.4134 22.0761 18.0698 21.6522 18.0698C21.2284 18.0698 20.8848 18.4134 20.8848 18.8373C20.8848 19.2611 21.2284 19.6047 21.6522 19.6047Z" fill="#72195A" stroke="#72195A" stroke-width="0.75"/><path d="M24.2089 19.6047C24.6327 19.6047 24.9763 19.2611 24.9763 18.8373C24.9763 18.4134 24.6327 18.0698 24.2089 18.0698C23.785 18.0698 23.4414 18.4134 23.4414 18.8373C23.4414 19.2611 23.785 19.6047 24.2089 19.6047Z" fill="#72195A" stroke="#72195A" stroke-width="0.75"/><path fill-rule="evenodd" clip-rule="evenodd" d="M37.0005 27.0236V18.3255C37.0005 16.4889 35.5116 15 33.675 15H18.3255C16.4889 15 15 16.4889 15 18.3255V33.6745C15 35.5111 16.4889 37 18.3255 37H26C26.4235 37 26.7675 36.6561 26.7675 36.2325C26.7675 35.809 26.4235 35.4651 26 35.4651H18.3255C17.3359 35.4651 16.5349 34.6641 16.5349 33.6745V18.3255C16.5349 17.3359 17.3359 16.5349 18.3255 16.5349H33.6745C34.6641 16.5349 35.4651 17.3359 35.4651 18.3255V27.0231C35.4651 27.4466 35.809 27.7906 36.2325 27.7906C36.6561 27.7906 37.0005 27.4471 37.0005 27.0236Z" fill="#72195A" stroke="#72195A" stroke-width="0.75"/><path fill-rule="evenodd" clip-rule="evenodd" d="M36.233 21.1396H15.7675C15.3439 21.1396 15 21.4835 15 21.907C15 22.3306 15.3439 22.6745 15.7675 22.6745H36.233C36.6566 22.6745 37.0005 22.3306 37.0005 21.907C37.0005 21.4835 36.6566 21.1396 36.233 21.1396Z" fill="#72195A" stroke="#72195A" stroke-width="0.75"/><path fill-rule="evenodd" clip-rule="evenodd" d="M35.6781 35.7927L33.5283 32.7229C33.2856 32.3761 32.8069 32.2912 32.4601 32.5344C32.1133 32.7771 32.0284 33.2558 32.2716 33.6026L34.4204 36.6724C34.6641 37.0192 35.1428 37.1041 35.4896 36.8609C35.8364 36.6182 35.9213 36.1395 35.6781 35.7927Z" fill="#72195A" stroke="#72195A" stroke-width="0.75"/><path fill-rule="evenodd" clip-rule="evenodd" d="M36.3019 30.1791C34.554 29.1704 31.3892 27.3448 29.6812 26.3591C29.2106 26.0881 28.6264 26.1136 28.1813 26.4249C27.7371 26.7362 27.5131 27.2772 27.6071 27.8116C27.9491 29.7537 28.5823 33.3526 28.9324 35.3398C29.0274 35.8852 29.438 36.3231 29.9761 36.454C30.5143 36.5859 31.0794 36.3874 31.417 35.9475L33.2119 33.6082L36.0237 32.7223C36.5527 32.5554 36.9321 32.092 36.9926 31.5414C37.053 30.9907 36.782 30.4559 36.3019 30.1796V30.1791ZM35.2629 31.3519L32.5183 32.2177C32.3677 32.2647 32.2358 32.3568 32.1408 32.4815L30.3891 34.7656L29.1694 27.836L35.2629 31.3519Z" fill="#72195A" stroke="#72195A" stroke-width="0.75"/></svg>
