<svg width="81" height="81" viewBox="0 0 81 81" fill="none" xmlns="http://www.w3.org/2000/svg"><rect width="81" height="81" rx="40.5" fill="#EE3C39"/><path fill-rule="evenodd" clip-rule="evenodd" d="M40 29.7705C40 32.8081 37.5376 35.2705 34.5 35.2705C31.4624 35.2705 29 32.8081 29 29.7705C29 26.7329 31.4624 24.2705 34.5 24.2705C37.5376 24.2705 40 26.7329 40 29.7705Z" stroke="white" stroke-width="4" stroke-linecap="round" stroke-linejoin="round"/><path fill-rule="evenodd" clip-rule="evenodd" d="M45.998 49.2693C45.998 53.6777 41.0738 57.2705 34.9969 57.2705C28.9199 57.2705 23.998 53.6875 23.998 49.2693C23.998 44.8511 28.9223 41.2705 34.9992 41.2705C41.0762 41.2705 45.998 44.8511 45.998 49.2693Z" stroke="white" stroke-width="4" stroke-linecap="round" stroke-linejoin="round"/><path fill-rule="evenodd" clip-rule="evenodd" d="M55 33.7703C55 36.2555 52.9853 38.2703 50.5 38.2703C48.0147 38.2703 46 36.2555 46 33.7703C46 31.285 48.0147 29.2703 50.5 29.2703C51.6935 29.2703 52.8381 29.7444 53.682 30.5883C54.5259 31.4322 55 32.5768 55 33.7703Z" stroke="white" stroke-width="4" stroke-linecap="round" stroke-linejoin="round"/><path d="M49.998 55.2495C53.5324 55.522 56.6471 53.0835 56.998 49.7691C56.6459 46.4556 53.5316 44.0185 49.998 44.2911" stroke="white" stroke-width="4" stroke-linecap="round" stroke-linejoin="round"/></svg>
