<svg width="52" height="52" viewBox="0 0 52 52" fill="none" xmlns="http://www.w3.org/2000/svg"><rect width="52" height="52" rx="26" fill="#F6F6F6"/><path d="M27.8982 29.733C27.311 29.3235 26.684 28.99 26.0283 28.7349C26.901 27.942 27.4797 26.8307 27.5802 25.5869C28.9034 24.2975 30.638 23.5906 32.4976 23.5906C33.949 23.5906 35.3431 24.0279 36.5287 24.8546C36.9533 25.151 37.5376 25.0467 37.834 24.6221C38.13 24.1975 38.0261 23.6132 37.6015 23.3168C37.0144 22.9072 36.3873 22.5737 35.7311 22.3186C36.694 21.4435 37.2995 20.1814 37.2995 18.7812C37.2995 16.1447 35.1548 14 32.5183 14C29.8818 14 27.7371 16.1447 27.7371 18.7812C27.7371 20.1763 28.3374 21.4332 29.2937 22.3083C29.1627 22.3585 29.0325 22.4121 28.9038 22.4689C28.3172 22.7273 27.7657 23.0448 27.2528 23.4173C26.5454 21.6596 24.823 20.4163 22.8154 20.4163C20.1794 20.4163 18.0342 22.561 18.0342 25.1975C18.0342 26.5883 18.6312 27.8425 19.5824 28.7166C17.0394 29.6692 14.9773 31.7157 14.1379 34.3254C13.8594 35.1906 14.0069 36.1085 14.5424 36.8436C15.0778 37.5782 15.9064 37.9995 16.8153 37.9995H24.9714C25.489 37.9995 25.909 37.5796 25.909 37.062C25.909 36.5444 25.489 36.1244 24.9714 36.1244H16.8158C16.5128 36.1244 16.2366 35.984 16.0581 35.7388C15.8796 35.4936 15.8303 35.1878 15.9233 34.899C16.8501 32.0182 19.6759 30.006 22.7952 30.006C24.2466 30.006 25.6407 30.4433 26.8263 31.2699C27.2509 31.5663 27.8352 31.4621 28.1316 31.0374C28.4276 30.6128 28.3238 30.0285 27.8987 29.7321L27.8982 29.733ZM32.5183 15.8756C34.121 15.8756 35.4244 17.179 35.4244 18.7817C35.4244 20.3843 34.121 21.6878 32.5183 21.6878C30.9156 21.6878 29.6122 20.3839 29.6122 18.7817C29.6122 17.1795 30.9161 15.8756 32.5183 15.8756ZM22.8154 22.2914C24.4181 22.2914 25.7215 23.5953 25.7215 25.1975C25.7215 26.7997 24.4181 28.1036 22.8154 28.1036C21.2128 28.1036 19.9093 26.8002 19.9093 25.1975C19.9093 23.5948 21.2128 22.2914 22.8154 22.2914ZM38.0027 33.5471C38.0027 34.0647 37.5827 34.4847 37.0651 34.4847H34.4873V37.0625C34.4873 37.5805 34.0674 38 33.5498 38C33.0322 38 32.6122 37.5801 32.6122 37.0625V34.4847H30.0344C29.5168 34.4847 29.0969 34.0647 29.0969 33.5471C29.0969 33.0295 29.5168 32.6096 30.0344 32.6096H32.6122V30.0318C32.6122 29.5142 33.0322 29.0942 33.5498 29.0942C34.0674 29.0942 34.4873 29.5142 34.4873 30.0318V32.6096H37.0651C37.5832 32.6096 38.0027 33.0295 38.0027 33.5471Z" fill="#72195A" stroke="#72195A" stroke-width="0.75"/></svg>
