<svg width="15" height="18" viewBox="0 0 15 18" fill="none" xmlns="http://www.w3.org/2000/svg">
<path fill-rule="evenodd" clip-rule="evenodd" d="M12.7766 5.23693L10.2695 2.62551V3.7161C10.2695 4.55276 10.9504 5.23443 11.7862 5.23693H12.7766ZM9.53533 0.676453H4.32342H4.30925C2.25675 0.676453 0.549253 2.34145 0.50092 4.40895V13.3231C0.455086 15.4256 2.12842 17.174 4.23009 17.2215H4.32092L11.0034 17.2206C13.0976 17.1356 14.7259 15.4273 14.7109 13.3365V5.69812C14.7109 5.53729 14.6484 5.38145 14.5368 5.26562L10.3159 0.868119C10.1976 0.745619 10.0351 0.676453 9.86509 0.676453H9.75374C9.71827 0.670195 9.68178 0.666931 9.64453 0.666931C9.60728 0.666931 9.57079 0.670195 9.53533 0.676453ZM9.01953 1.92645V3.7161C9.01953 5.23943 10.2595 6.48276 11.7845 6.48693H13.4609V13.3415C13.4709 14.7581 12.3693 15.914 10.9784 15.9715H4.25842C2.84509 15.9398 1.72009 14.764 1.75092 13.3365V4.42395C1.78342 3.04479 2.93009 1.92645 4.31092 1.92645H4.32092H9.01953ZM9.49219 12.4236H4.99219C4.64719 12.4236 4.36719 12.1436 4.36719 11.7986C4.36719 11.4536 4.64719 11.1736 4.99219 11.1736H9.49219C9.83719 11.1736 10.1172 11.4536 10.1172 11.7986C10.1172 12.1436 9.83719 12.4236 9.49219 12.4236ZM4.98828 9.29706H7.78495C8.12995 9.29706 8.40995 9.01706 8.40995 8.67206C8.40995 8.32706 8.12995 8.04706 7.78495 8.04706H4.98828C4.64328 8.04706 4.36328 8.32706 4.36328 8.67206C4.36328 9.01706 4.64328 9.29706 4.98828 9.29706Z" fill="#0A0905" fill-opacity="0.3"/>
</svg>
