<svg width="40" height="40" viewBox="0 0 40 40" fill="none" xmlns="http://www.w3.org/2000/svg">
<path d="M20.006 39.976C14.6045 39.9158 9.58797 37.8352 5.85864 34.107C2.14135 30.3788 0.0601504 25.3638 0 19.9639C0.0601504 14.5761 2.15338 9.56104 5.88271 5.84486C9.61203 2.12868 14.6286 0.0481058 20.0181 0C25.4196 0.0601323 30.4361 2.15274 34.1534 5.88094C37.8707 9.60914 39.9519 14.6242 40 20.0241C39.9398 25.4119 37.8466 30.439 34.1173 34.1551C30.388 37.8713 25.3835 39.9399 19.994 40L20.006 39.976Z" fill="#FF7E01"/>
<path d="M21.0572 15.4317C22.0335 14.4554 23.6164 14.4554 24.5927 15.4317C25.569 16.4081 25.569 17.991 24.5927 18.9673C23.6164 19.9436 22.0335 19.9436 21.0572 18.9673C20.0809 17.991 20.0809 16.4081 21.0572 15.4317ZM23.532 16.4924C23.1415 16.1019 22.5084 16.1019 22.1178 16.4924C21.7273 16.8829 21.7273 17.5161 22.1178 17.9066C22.5084 18.2971 23.1415 18.2971 23.532 17.9066C23.9226 17.5161 23.9226 16.8829 23.532 16.4924ZM29.5086 12.3231C29.2398 11.4583 28.5625 10.7813 27.6976 10.5129L27.0355 10.3074C24.642 9.56458 22.034 10.209 20.2618 11.9811L19.266 12.977C17.8962 11.9484 15.9432 12.0572 14.6968 13.3035L13.4543 14.546C13.1614 14.8389 13.1614 15.3138 13.4543 15.6067L15.0453 17.1977L14.8655 17.3775C14.1821 18.0609 14.1821 19.1689 14.8655 19.8524L15.3608 20.3477L13.9653 21.1437C13.7621 21.2595 13.6247 21.4635 13.5935 21.6953C13.5624 21.9271 13.6411 22.1601 13.8065 22.3255L17.6956 26.2146C17.8609 26.3798 18.0937 26.4586 18.3253 26.4276C18.557 26.3967 18.7609 26.2595 18.877 26.0566L19.6749 24.6618L20.1721 25.1589C20.8555 25.8423 21.9635 25.8423 22.6469 25.1589L22.8237 24.9821L24.4133 26.5717C24.7062 26.8646 25.1811 26.8646 25.474 26.5717L26.7165 25.3292C27.9623 24.0834 28.0716 22.1313 27.0442 20.7617L28.0421 19.7637C29.8149 17.9909 30.4591 15.3816 29.715 12.9874L29.5086 12.3231ZM27.253 11.9455C27.6461 12.0675 27.954 12.3752 28.0762 12.7683L28.2826 13.4326C28.8613 15.2947 28.3603 17.3242 26.9815 18.7031L21.5863 24.0983C21.4886 24.1959 21.3303 24.1959 21.2327 24.0983L15.9261 18.7917C15.8285 18.6941 15.8285 18.5358 15.9261 18.4381L21.3225 13.0418C22.7008 11.6635 24.7293 11.1622 26.5909 11.74L27.253 11.9455ZM25.9641 21.8418C26.4166 22.6075 26.3139 23.6105 25.6558 24.2685L24.9436 24.9807L23.8844 23.9215L25.9641 21.8418ZM15.7575 14.3642C16.416 13.7057 17.42 13.6032 18.186 14.0569L16.1059 16.137L15.0453 15.0764L15.7575 14.3642ZM18.5756 23.5625L18.0623 24.4599L15.5621 21.9597L16.4605 21.4473L18.5756 23.5625ZM14.6899 26.3952C14.9828 26.1023 14.9828 25.6274 14.6899 25.3345C14.397 25.0416 13.9221 25.0416 13.6292 25.3345L11.1543 27.8094C10.8614 28.1023 10.8614 28.5772 11.1543 28.87C11.4472 29.1629 11.9221 29.1629 12.215 28.87L14.6899 26.3952ZM12.7453 23.39C13.0382 23.6829 13.0382 24.1577 12.7453 24.4506L11.6846 25.5113C11.3917 25.8042 10.9169 25.8042 10.624 25.5113C10.3311 25.2184 10.3311 24.7435 10.624 24.4506L11.6846 23.39C11.9775 23.0971 12.4524 23.0971 12.7453 23.39ZM16.6324 28.3418C16.9253 28.0489 16.9253 27.574 16.6324 27.2812C16.3395 26.9883 15.8646 26.9882 15.5717 27.2811L14.5131 28.3397C14.2202 28.6326 14.2202 29.1075 14.5131 29.4004C14.806 29.6933 15.2809 29.6933 15.5738 29.4004L16.6324 28.3418Z" fill="white"/>
</svg>
