<svg width="40" height="40" viewBox="0 0 40 40" fill="none" xmlns="http://www.w3.org/2000/svg">
<path d="M20.006 39.976C14.6045 39.9158 9.58797 37.8352 5.85864 34.107C2.14135 30.3788 0.0601504 25.3638 0 19.9639C0.0601504 14.5761 2.15338 9.56104 5.88271 5.84486C9.61203 2.12868 14.6286 0.0481058 20.0181 0C25.4196 0.0601323 30.4361 2.15274 34.1534 5.88094C37.8707 9.60914 39.9519 14.6242 40 20.0241C39.9398 25.4119 37.8466 30.439 34.1173 34.1551C30.388 37.8713 25.3835 39.9399 19.994 40L20.006 39.976Z" fill="#72195A"/>
<path d="M15.0566 10.4184L16.2236 10.0667C17.5461 9.66804 18.9591 10.3123 19.5254 11.5721L20.4271 13.5778C20.9098 14.6517 20.6554 15.9137 19.7944 16.7166L18.3001 18.1101C18.2564 18.1508 18.2288 18.2058 18.2221 18.2652C18.1778 18.6623 18.447 19.4357 19.0673 20.51C19.5183 21.2913 19.9266 21.8391 20.2741 22.1473C20.5162 22.362 20.6494 22.4084 20.7062 22.3915L22.7165 21.7769C23.8421 21.4328 25.0619 21.8431 25.7506 22.7976L27.0313 24.5726C27.8374 25.6898 27.6925 27.2311 26.6922 28.1784L25.8058 29.0178C24.8494 29.9236 23.4879 30.2611 22.2191 29.907C19.465 29.1383 16.9957 26.8141 14.7838 22.9831C12.5689 19.1467 11.7917 15.8422 12.5082 13.0704C12.836 11.8019 13.8022 10.7966 15.0566 10.4184ZM15.4895 11.8546C14.7368 12.0815 14.1571 12.6847 13.9604 13.4458C13.3578 15.7773 14.0466 18.7062 16.0829 22.2331C18.1164 25.7552 20.3054 27.8155 22.6224 28.4622C23.3836 28.6747 24.2006 28.4722 24.7744 27.9287L25.6608 27.0893C26.1154 26.6587 26.1813 25.9581 25.8149 25.4503L24.5342 23.6753C24.2211 23.2415 23.6667 23.0549 23.155 23.2114L21.1397 23.8275C19.97 24.1762 18.9083 23.2347 17.7682 21.26C16.9999 19.9293 16.6418 18.9006 16.7314 18.0987C16.7778 17.6832 16.9714 17.2981 17.2771 17.013L18.7714 15.6196C19.1628 15.2546 19.2784 14.681 19.059 14.1929L18.1573 12.1871C17.8999 11.6145 17.2576 11.3217 16.6565 11.5029L15.4895 11.8546Z" fill="white"/>
</svg>
