<svg width="52" height="52" viewBox="0 0 52 52" fill="none" xmlns="http://www.w3.org/2000/svg"><rect width="52" height="52" rx="26" fill="#F6F6F6"/><path d="M14 19.1562V16.8125C14 15.2617 15.2617 14 16.8125 14H19.1562C19.674 14 20.0938 14.4197 20.0938 14.9375C20.0938 15.4553 19.674 15.875 19.1562 15.875H16.8125C16.2956 15.875 15.875 16.2956 15.875 16.8125V19.1562C15.875 19.674 15.4553 20.0938 14.9375 20.0938C14.4197 20.0938 14 19.674 14 19.1562ZM19.1562 36.125H16.8125C16.2956 36.125 15.875 35.7044 15.875 35.1875V32.8438C15.875 32.326 15.4553 31.9062 14.9375 31.9062C14.4197 31.9062 14 32.326 14 32.8438V35.1875C14 36.7383 15.2617 38 16.8125 38H19.1562C19.674 38 20.0938 37.5803 20.0938 37.0625C20.0938 36.5447 19.674 36.125 19.1562 36.125ZM35.1875 14H32.8438C32.326 14 31.9062 14.4197 31.9062 14.9375C31.9062 15.4553 32.326 15.875 32.8438 15.875H35.1875C35.7044 15.875 36.125 16.2956 36.125 16.8125V19.1562C36.125 19.674 36.5447 20.0938 37.0625 20.0938C37.5803 20.0938 38 19.674 38 19.1562V16.8125C38 15.2617 36.7383 14 35.1875 14ZM37.0625 31.9062C36.5447 31.9062 36.125 32.326 36.125 32.8438V35.1875C36.125 35.7044 35.7044 36.125 35.1875 36.125H32.8438C32.326 36.125 31.9062 36.5447 31.9062 37.0625C31.9062 37.5803 32.326 38 32.8438 38H35.1875C36.7383 38 38 36.7383 38 35.1875V32.8438C38 32.326 37.5803 31.9062 37.0625 31.9062ZM32.3229 32.1253L26.8717 34.1438C26.5907 34.2479 26.2953 34.2999 26 34.2999C25.7047 34.2999 25.4094 34.2479 25.1284 34.1438L19.6771 32.1253C18.6927 31.7607 18.0312 30.8085 18.0312 29.7558V22.2505C18.0312 21.1977 18.6927 20.2455 19.6771 19.881L25.1283 17.8625C25.6903 17.6543 26.3096 17.6542 26.8717 17.8625L32.3229 19.881C33.3073 20.2454 33.9688 21.1977 33.9688 22.2505V25.1094C33.9688 25.6272 33.549 26.0469 33.0312 26.0469C32.5135 26.0469 32.0938 25.6272 32.0938 25.1094V22.5288L26.9375 24.4032V32.12L31.6718 30.3669C31.9242 30.2735 32.0938 30.0279 32.0938 29.7558C32.0938 29.238 32.5135 28.8183 33.0312 28.8183C33.549 28.8183 33.9688 29.238 33.9688 29.7558C33.9688 30.8085 33.3073 31.7607 32.3229 32.1253ZM21.6554 21.1479L26.0021 22.7482L30.3742 21.1588L26.2206 19.6208C26.0783 19.5681 25.9216 19.5682 25.7794 19.6208L21.6554 21.1479ZM20.3282 30.3669L25.0625 32.12V24.4004L19.9062 22.5019V29.7558C19.9062 30.0279 20.0758 30.2735 20.3282 30.3669Z" fill="#72195A" stroke="#72195A" stroke-width="0.75"/></svg>
