<svg width="81" height="81" viewBox="0 0 81 81" fill="none" xmlns="http://www.w3.org/2000/svg"><rect width="81" height="81" rx="40.5" fill="#72195A"/><path d="M29.7423 30.5391C30.4026 30.5391 30.9378 30.0039 30.9378 29.3436C30.9378 28.6834 30.4026 28.1482 29.7423 28.1482C29.0821 28.1482 28.5469 28.6834 28.5469 29.3436C28.5469 30.0039 29.0821 30.5391 29.7423 30.5391Z" fill="white" stroke="white" stroke-width="1.16827"/><path d="M33.7267 30.5391C34.3869 30.5391 34.9222 30.0039 34.9222 29.3436C34.9222 28.6834 34.3869 28.1482 33.7267 28.1482C33.0665 28.1482 32.5312 28.6834 32.5312 29.3436C32.5312 30.0039 33.0665 30.5391 33.7267 30.5391Z" fill="white" stroke="white" stroke-width="1.16827"/><path d="M37.7091 30.5391C38.3694 30.5391 38.9046 30.0039 38.9046 29.3436C38.9046 28.6834 38.3694 28.1482 37.7091 28.1482C37.0489 28.1482 36.5137 28.6834 36.5137 29.3436C36.5137 30.0039 37.0489 30.5391 37.7091 30.5391Z" fill="white" stroke="white" stroke-width="1.16827"/><path fill-rule="evenodd" clip-rule="evenodd" d="M57.6352 42.0955V28.5465C57.6352 25.6856 55.316 23.3665 52.4551 23.3665H28.5453C25.6844 23.3665 23.3652 25.6856 23.3652 28.5465V52.4556C23.3652 55.3165 25.6844 57.6357 28.5453 57.6357H40.4998C41.1596 57.6357 41.6953 57.1 41.6953 56.4402C41.6953 55.7805 41.1596 55.2448 40.4998 55.2448H28.5453C27.0039 55.2448 25.7561 53.997 25.7561 52.4556V28.5465C25.7561 27.0051 27.0039 25.7574 28.5453 25.7574H52.4544C53.9958 25.7574 55.2436 27.0051 55.2436 28.5465V42.0948C55.2436 42.7545 55.7793 43.2902 56.439 43.2902C57.0988 43.2902 57.6352 42.7553 57.6352 42.0955Z" fill="white" stroke="white" stroke-width="1.16827"/><path fill-rule="evenodd" clip-rule="evenodd" d="M56.4398 32.9302H24.5607C23.9009 32.9302 23.3652 33.4659 23.3652 34.1256C23.3652 34.7854 23.9009 35.3211 24.5607 35.3211H56.4398C57.0995 35.3211 57.6352 34.7854 57.6352 34.1256C57.6352 33.4659 57.0995 32.9302 56.4398 32.9302Z" fill="white" stroke="white" stroke-width="1.16827"/><path fill-rule="evenodd" clip-rule="evenodd" d="M55.5733 55.755L52.2245 50.9732C51.8464 50.433 51.1008 50.3007 50.5606 50.6795C50.0204 51.0576 49.8881 51.8033 50.2669 52.3435L53.6142 57.1253C53.9938 57.6655 54.7394 57.7977 55.2796 57.4189C55.8198 57.0409 55.9521 56.2952 55.5733 55.755Z" fill="white" stroke="white" stroke-width="1.16827"/><path fill-rule="evenodd" clip-rule="evenodd" d="M56.5474 47.011C53.8248 45.4397 48.895 42.596 46.2344 41.0606C45.5014 40.6384 44.5914 40.678 43.898 41.1629C43.2062 41.6478 42.8572 42.4906 43.0037 43.323C43.5364 46.3482 44.5227 51.9542 45.0681 55.0496C45.216 55.8992 45.8556 56.5813 46.6939 56.7853C47.5322 56.9908 48.4124 56.6814 48.9384 55.9963L51.7342 52.3524L56.1141 50.9724C56.9382 50.7124 57.5292 49.9906 57.6234 49.1329C57.7175 48.2752 57.2954 47.4421 56.5474 47.0117V47.011ZM54.9291 48.8378L50.6539 50.1864C50.4192 50.2596 50.2138 50.4031 50.0658 50.5973L47.3372 54.1553L45.4372 43.3611L54.9291 48.8378Z" fill="white" stroke="white" stroke-width="1.16827"/></svg>
