<svg width="52" height="52" viewBox="0 0 52 52" fill="none" xmlns="http://www.w3.org/2000/svg"><rect width="52" height="52" rx="26" fill="#F6F6F6"/><path d="M36.4007 16.0004C34.4163 16.0004 32.8008 17.6158 32.8008 19.6003C32.8008 21.5848 34.4163 23.2003 36.4007 23.2003C38.3852 23.2003 40.0007 21.5848 40.0007 19.6003C40.0007 17.6158 38.3852 16.0004 36.4007 16.0004ZM36.4007 20.8003C35.7385 20.8003 35.2007 20.2618 35.2007 19.6003C35.2007 18.9388 35.7385 18.4003 36.4007 18.4003C37.063 18.4003 37.6007 18.9388 37.6007 19.6003C37.6007 20.2618 37.063 20.8003 36.4007 20.8003Z" fill="#72195A" stroke="#72195A" stroke-width="0.25"/><path d="M32.1997 26.8002H22.5999C20.9454 26.8002 19.5999 25.454 19.5999 23.8003C19.5999 22.1465 20.9454 20.8003 22.5999 20.8003H27.5033L27.1516 21.152C26.6858 21.6178 26.6858 22.3835 27.1516 22.8485C27.6173 23.3135 28.3831 23.3143 28.848 22.8485L31.248 20.4486C31.7175 19.9791 31.7175 19.2208 31.248 18.7521L28.848 16.3521C28.3786 15.8826 27.6203 15.8826 27.1516 16.3521C26.6828 16.8216 26.6821 17.5798 27.1516 18.0486L27.5033 18.4003H22.5999C19.6224 18.4003 17.2 20.8228 17.2 23.8003C17.2 26.7777 19.6224 29.2002 22.5999 29.2002H32.1997C33.8542 29.2002 35.1997 30.5464 35.1997 32.2001C35.1997 33.8538 33.8542 35.2001 32.1997 35.2001H22.9794C22.4829 33.8066 21.1629 32.8001 19.5999 32.8001C17.6155 32.8001 16 34.4156 16 36.4001C16 38.3845 17.6155 40 19.5999 40C21.1622 40 22.4821 38.9935 22.9794 37.6H32.1997C35.1772 37.6 37.5997 35.1776 37.5997 32.2001C37.5997 29.2227 35.1772 26.8002 32.1997 26.8002ZM19.5999 37.6C18.9377 37.6 18.4 37.0615 18.4 36.4001C18.4 35.7386 18.9377 35.2001 19.5999 35.2001C20.2622 35.2001 20.7999 35.7386 20.7999 36.4001C20.7999 37.0615 20.2622 37.6 19.5999 37.6Z" fill="#72195A" stroke="#72195A" stroke-width="0.25"/></svg>
