<svg width="52" height="52" viewBox="0 0 52 52" fill="none" xmlns="http://www.w3.org/2000/svg"><rect width="52" height="52" rx="26" fill="#F6F6F6"/><path d="M30.8438 38H21.75C19.6823 38 18 36.3177 18 34.25V17.75C18 15.6823 19.6823 14 21.75 14H30.8438C32.9114 14 34.5938 15.6823 34.5938 17.75V19.2088C34.5938 19.7267 34.1742 20.1462 33.6562 20.1462C33.1383 20.1462 32.7188 19.7267 32.7188 19.2088V17.75C32.7188 16.7164 31.8773 15.875 30.8438 15.875H21.75C20.7164 15.875 19.875 16.7164 19.875 17.75V34.25C19.875 35.2836 20.7164 36.125 21.75 36.125H30.8438C31.8773 36.125 32.7188 35.2836 32.7188 34.25V32.4744C32.7188 31.9564 33.1383 31.5369 33.6562 31.5369C34.1742 31.5369 34.5938 31.9564 34.5938 32.4744V34.25C34.5938 36.3177 32.9114 38 30.8438 38ZM27.2344 33.74C27.2344 33.222 26.8148 32.8025 26.2969 32.8025C25.7789 32.8025 25.3594 33.222 25.3594 33.74C25.3594 34.258 25.7789 34.6775 26.2969 34.6775C26.8148 34.6775 27.2344 34.258 27.2344 33.74ZM28.1719 18.2713C28.1719 17.7533 27.7523 17.3338 27.2344 17.3338H25.3594C24.8414 17.3338 24.4219 17.7533 24.4219 18.2713C24.4219 18.7892 24.8414 19.2088 25.3594 19.2088H27.2344C27.7523 19.2088 28.1719 18.7892 28.1719 18.2713ZM29.4511 30.6931C29.8767 30.6931 30.2972 30.4128 30.413 30.0064L32.5425 22.5158C32.7136 21.9148 32.258 21.3181 31.628 21.3181C31.2023 21.3181 30.8287 21.5984 30.713 22.0048L28.5834 29.4955C28.4128 30.0964 28.8211 30.6931 29.4511 30.6931ZM27.015 29.5611C27.3478 29.1645 27.2958 28.573 26.8988 28.2402L24.5803 26.2963C24.4833 26.2123 24.4683 26.1078 24.4683 26.0525C24.4683 25.9972 24.4828 25.8922 24.5803 25.8088L26.8988 23.8648C27.2953 23.5325 27.3473 22.9409 27.015 22.5439C26.6827 22.1473 26.0911 22.0953 25.6941 22.4277L23.3728 24.3739C23.3728 24.3739 23.3695 24.3762 23.3681 24.3781C22.8759 24.7962 22.5933 25.4066 22.5933 26.0525C22.5933 26.6984 22.8755 27.3088 23.3681 27.7269C23.3695 27.7283 23.3709 27.7292 23.3728 27.7311L25.6941 29.6773C25.8698 29.8245 26.0831 29.8962 26.2959 29.8962C26.5636 29.8962 26.8294 29.7823 27.015 29.5611ZM35.25 29.6713L37.522 27.7269C38.0142 27.3088 38.2969 26.6984 38.2969 26.0525C38.2969 25.4066 38.0147 24.7962 37.5248 24.3805L35.2505 22.4342C34.8572 22.0977 34.2652 22.1436 33.9286 22.5369C33.592 22.9302 33.638 23.5222 34.0312 23.8588L36.3084 25.8073C36.4073 25.8912 36.4219 25.9972 36.4219 26.0525C36.4219 26.1078 36.4073 26.2137 36.3056 26.3L34.0308 28.2467C33.6375 28.5833 33.5911 29.1748 33.9281 29.5686C34.1137 29.7852 34.3763 29.8967 34.6411 29.8967C34.8567 29.8967 35.0733 29.8227 35.25 29.6717V29.6713Z" fill="#72195A" stroke="#72195A" stroke-width="0.5"/></svg>
