<svg width="40" height="40" viewBox="0 0 40 40" fill="none" xmlns="http://www.w3.org/2000/svg">
<path d="M20.006 39.976C14.6045 39.9158 9.58797 37.8352 5.85864 34.107C2.14135 30.3788 0.0601504 25.3638 0 19.9639C0.0601504 14.5761 2.15338 9.56104 5.88271 5.84486C9.61203 2.12868 14.6286 0.0481058 20.0181 0C25.4196 0.0601323 30.4361 2.15274 34.1534 5.88094C37.8707 9.60914 39.9519 14.6242 40 20.0241C39.9398 25.4119 37.8466 30.439 34.1173 34.1551C30.388 37.8713 25.3835 39.9399 19.994 40L20.006 39.976Z" fill="#E53616"/>
<path d="M20 10.002C24.0041 10.002 27.25 13.2479 27.25 17.252C27.25 19.348 26.3493 21.2717 24.5869 22.9939C24.51 23.0691 24.4504 23.1596 24.4118 23.2592L24.3804 23.3615L23.2493 28.2571C23.0266 29.221 22.2035 29.9193 21.2302 29.9939L21.057 30.0006H18.9433C17.9537 30.0006 17.0879 29.3555 16.7963 28.4238L16.7509 28.2565L15.6213 23.3617C15.589 23.2218 15.5173 23.0941 15.4146 22.9938C13.7352 21.3536 12.8378 19.5307 12.7561 17.5502L12.75 17.252L12.7539 17.0126C12.8801 13.1193 16.076 10.002 20 10.002ZM22.115 26.5H17.884L18.2125 27.9192C18.2831 28.2255 18.5357 28.4514 18.8401 28.4935L18.9433 28.5006H21.057C21.3713 28.5006 21.6481 28.3054 21.7577 28.0183L21.7878 27.9194L22.115 26.5ZM20 11.502C16.8982 11.502 14.3701 13.958 14.2542 17.0314L14.25 17.252L14.2567 17.529C14.3329 19.0923 15.0572 20.5481 16.4626 21.9207C16.7268 22.1787 16.9227 22.497 17.0342 22.8469L17.0829 23.0244L17.538 25H22.461L22.9189 23.0238C23.0019 22.6644 23.1718 22.3319 23.4124 22.0548L23.5386 21.9211C24.9432 20.5485 25.6672 19.0926 25.7433 17.529L25.75 17.252L25.7458 17.0314C25.6299 13.958 23.1018 11.502 20 11.502Z" fill="white"/>
</svg>
