<svg width="52" height="52" viewBox="0 0 52 52" fill="none" xmlns="http://www.w3.org/2000/svg"><rect width="52" height="52" rx="26" fill="#F6F6F6"/><path d="M26.5977 27.2571C26.2695 26.9387 25.7394 26.9387 25.4112 27.2571L22.8868 29.7061C22.5586 30.0244 22.5586 30.5469 22.8868 30.8652C23.2149 31.1836 23.7535 31.1836 24.0817 30.8652L25.1672 29.804V35.1836C25.1672 35.6326 25.5459 35.9999 26.0087 35.9999C26.4715 35.9999 26.8502 35.6326 26.8502 35.1836V29.804L27.9357 30.8652C28.2639 31.1836 28.794 31.1836 29.1222 30.8652C29.4504 30.5469 29.4504 30.0326 29.1222 29.7142L26.5977 27.2652V27.2571Z" fill="#72195A" stroke="#72195A" stroke-width="0.75"/><path d="M33.1445 22.9388C33.1445 19.1102 29.9385 16 25.9919 16C22.0453 16 18.8392 19.1102 18.8392 22.9388C16.0539 23.0531 13.8829 25.3388 14.0007 28.049C14.1185 30.751 16.4746 32.8571 19.2684 32.7347H20.9514C21.4142 32.7347 21.7929 32.3673 21.7929 31.9184C21.7929 31.4694 21.4142 31.102 20.9514 31.102H19.2684C17.4087 31.102 15.9024 29.6327 15.9109 27.8286C15.9193 26.0245 17.4255 24.5633 19.2852 24.5714C19.7396 24.5714 20.194 24.6612 20.6148 24.8408C20.7158 24.8898 20.8336 24.9143 20.9514 24.9143C21.4142 24.9143 21.7844 24.5388 21.7844 24.0898C21.7844 23.7714 21.5909 23.4857 21.288 23.3551C21.0523 23.249 20.7999 23.1673 20.5475 23.102C20.5475 20.1714 22.9962 17.7959 26.0171 17.7959C29.0381 17.7959 31.4868 20.1714 31.4868 23.102C31.2344 23.1673 30.9819 23.249 30.7463 23.3551C30.3256 23.5429 30.1404 24.0245 30.3256 24.4327C30.4602 24.7184 30.7547 24.9061 31.0829 24.9143C31.2007 24.9143 31.3185 24.8898 31.4195 24.8408C33.1277 24.1224 35.1052 24.8816 35.8457 26.5388C36.5862 28.1959 35.8036 30.1143 34.0954 30.8327C33.6663 31.0122 33.2034 31.102 32.7322 31.102H31.0492C30.5864 31.102 30.2077 31.4694 30.2077 31.9184C30.2077 32.3673 30.5864 32.7347 31.0492 32.7347H32.7322C35.5175 32.849 37.8737 30.7429 37.9915 28.0408C38.1093 25.3388 35.9383 23.0531 33.1445 22.9388Z" fill="#72195A" stroke="#72195A" stroke-width="0.75"/></svg>
