<svg width="12" height="16" viewBox="0 0 12 16" fill="none" xmlns="http://www.w3.org/2000/svg">
<path d="M1.5431 9.23276C1.25744 8.93281 0.782707 8.92123 0.482759 9.2069C0.182811 9.49256 0.171232 9.96729 0.456897 10.2672L1.5431 9.23276ZM5.4569 15.5172C5.74256 15.8172 6.21729 15.8288 6.51724 15.5431C6.81719 15.2574 6.82877 14.7827 6.5431 14.4828L5.4569 15.5172ZM5.4569 14.4828C5.17123 14.7827 5.18281 15.2574 5.48276 15.5431C5.78271 15.8288 6.25744 15.8172 6.5431 15.5172L5.4569 14.4828ZM11.5431 10.2672C11.8288 9.96729 11.8172 9.49256 11.5172 9.2069C11.2173 8.92123 10.7426 8.93281 10.4569 9.23276L11.5431 10.2672ZM5.25 15C5.25 15.4142 5.58579 15.75 6 15.75C6.41421 15.75 6.75 15.4142 6.75 15L5.25 15ZM6.75 1C6.75 0.585787 6.41421 0.25 6 0.25C5.58579 0.25 5.25 0.585787 5.25 1L6.75 1ZM0.456897 10.2672L5.4569 15.5172L6.5431 14.4828L1.5431 9.23276L0.456897 10.2672ZM6.5431 15.5172L11.5431 10.2672L10.4569 9.23276L5.4569 14.4828L6.5431 15.5172ZM6.75 15L6.75 1L5.25 1L5.25 15L6.75 15Z" fill="#F89500"/>
</svg>
