<svg width="24" height="24" viewBox="0 0 24 24" fill="none" xmlns="http://www.w3.org/2000/svg">
<rect width="24" height="24" rx="12" fill="#0A0905" fill-opacity="0.3"/>
<path d="M8.77657 14.5803C8.61727 14.5803 8.46756 14.5176 8.3556 14.4037L6.17402 12.1991C6.06206 12.0859 6 11.9346 6 11.7735C6 11.6125 6.06206 11.4612 6.17466 11.348L8.3556 9.1427C8.46756 9.02953 8.61727 8.9668 8.77657 8.9668C9.10476 8.9668 9.37155 9.23648 9.37155 9.56824C9.37155 9.72927 9.30949 9.88061 9.19689 9.99378L7.43627 11.7735L9.19689 13.5533C9.30949 13.6665 9.37091 13.8178 9.37091 13.9788C9.37091 14.3106 9.10413 14.5803 8.77593 14.5803H8.77657Z" fill="white"/>
<path d="M15.1223 14.7807C14.7941 14.7807 14.5273 14.511 14.5273 14.1793C14.5273 14.0183 14.5894 13.8669 14.702 13.7537L16.4626 11.974L14.702 10.1942C14.59 10.081 14.528 9.92971 14.528 9.76868C14.528 9.43692 14.7948 9.16724 15.123 9.16724C15.2823 9.16724 15.432 9.22997 15.5439 9.34379L17.7255 11.5491C17.8381 11.6623 17.8995 11.8136 17.8995 11.9746C17.8995 12.1357 17.8375 12.287 17.7249 12.4002L15.5433 14.6055C15.4313 14.7193 15.2816 14.7814 15.1223 14.7814V14.7807Z" fill="white"/>
<path d="M10.1653 16.3846C9.83709 16.3846 9.57031 16.115 9.57031 15.7832C9.57031 15.7037 9.58567 15.6254 9.61574 15.5517L13.1862 7.53175C13.2797 7.30734 13.4953 7.16248 13.7352 7.16248C14.0634 7.16248 14.3301 7.43216 14.3301 7.76392C14.3301 7.84347 14.3148 7.92172 14.2847 7.99545L10.7148 16.0154C10.6214 16.2398 10.4058 16.3846 10.1659 16.3846H10.1653Z" fill="white"/>
</svg>
