<svg width="52" height="52" viewBox="0 0 52 52" fill="none" xmlns="http://www.w3.org/2000/svg"><rect width="52" height="52" rx="26" fill="#F6F6F6"/><path d="M19.0677 30.4568L19.0666 30.4558L14.7035 26.0465C14.7035 26.0465 14.7035 26.0465 14.7034 26.0465C14.5729 25.9145 14.5 25.7386 14.5 25.5471C14.5 25.3557 14.5728 25.1803 14.7038 25.0487L14.7048 25.0476L19.0667 20.637C19.0667 20.637 19.0667 20.637 19.0667 20.637C19.1971 20.5053 19.3686 20.4336 19.5531 20.4336C19.9283 20.4336 20.2431 20.744 20.2431 21.1365C20.2431 21.3279 20.1703 21.5033 20.0393 21.6349L20.0383 21.6359L16.5171 25.1954L16.1692 25.5471L16.5171 25.8987L20.0383 29.4583L20.0393 29.4593C20.1693 29.5899 20.2418 29.7649 20.2418 29.9577C20.2418 30.35 19.9274 30.6602 19.5525 30.6606C19.3683 30.6604 19.1975 30.5889 19.0677 30.4568Z" fill="#72195A" stroke="#72195A"/><path d="M32.7321 30.8603C32.6131 30.9813 32.4587 31.0513 32.2898 31.0615H32.2466C31.8714 31.0615 31.5566 30.7511 31.5566 30.3586C31.5566 30.1672 31.6295 29.9918 31.7604 29.8601L31.7614 29.8591L35.2827 26.2996L35.6305 25.948L35.2827 25.5963L31.7614 22.0368C31.6309 21.9049 31.5579 21.7289 31.5579 21.5374C31.5579 21.1449 31.8727 20.8345 32.2479 20.8345C32.4323 20.8345 32.6033 20.906 32.7333 21.0382L32.7333 21.0382L32.7343 21.0392L37.0975 25.4498L37.0985 25.4508C37.2285 25.5815 37.301 25.7565 37.301 25.9493C37.301 26.1406 37.2282 26.3161 37.0972 26.4477L37.0962 26.4487L32.7331 30.8593L32.7321 30.8603Z" fill="#72195A" stroke="#72195A"/><path d="M28.8293 17.2669L28.8294 17.2669L28.8341 17.2556C28.9445 16.9904 29.1955 16.825 29.4703 16.825C29.8455 16.825 30.1603 17.1353 30.1603 17.5278C30.1603 17.6198 30.143 17.71 30.109 17.7957L22.9729 33.8274L22.9728 33.8273L22.9681 33.8386C22.8577 34.1039 22.6067 34.2693 22.3319 34.2693H22.3306C21.9554 34.2693 21.6406 33.9589 21.6406 33.5664C21.6406 33.4744 21.6579 33.3842 21.6919 33.2986L28.8293 17.2669Z" fill="#72195A" stroke="#72195A"/></svg>
