<svg width="52" height="52" viewBox="0 0 52 52" fill="none" xmlns="http://www.w3.org/2000/svg"><rect width="52" height="52" rx="26" fill="#F6F6F6"/><path d="M35.1147 30.7511C35.3944 30.2162 35.6255 29.6594 35.8065 29.0861H36.9715C37.5392 29.0861 38 28.6253 38 28.0575V23.9431C38 23.3754 37.5392 22.9145 36.9715 22.9145H35.8065C35.6262 22.3406 35.3951 21.7845 35.1147 21.2496L35.9402 20.424C36.342 20.0221 36.342 19.3714 35.9402 18.9695L33.0309 16.0599C32.6291 15.6581 31.9777 15.6581 31.5766 16.0599L30.751 16.8856C30.2162 16.6058 29.6594 16.3747 29.0862 16.1937V15.0286C29.0862 14.4608 28.6255 14 28.0577 14H23.9437C23.3759 14 22.9151 14.4608 22.9151 15.0286V16.1937C22.3419 16.374 21.7852 16.6051 21.2503 16.8856L20.4248 16.0599C20.2321 15.8673 19.9702 15.7589 19.6973 15.7589C19.4244 15.7589 19.1631 15.8673 18.9698 16.0599L16.0605 18.9695C15.6586 19.3714 15.6586 20.0221 16.0605 20.424L16.8853 21.2496C16.6056 21.7845 16.3745 22.3413 16.1935 22.9145H15.0285C14.4608 22.9145 14 23.3754 14 23.9431V28.0575C14 28.6253 14.4608 29.0861 15.0285 29.0861H16.1935C16.3738 29.6601 16.6049 30.2162 16.8853 30.7511L16.0605 31.576C15.6586 31.9779 15.6586 32.6293 16.0605 33.0305L18.9698 35.9401C19.1624 36.1327 19.4244 36.2411 19.6973 36.2411C19.9702 36.2411 20.2314 36.1327 20.4248 35.9401L21.2503 35.1144C21.7852 35.3942 22.3419 35.6253 22.9151 35.8063V36.9714C22.9151 37.5392 23.3759 38 23.9437 38H28.0577C28.6255 38 29.0862 37.5392 29.0862 36.9714V35.8063C29.6594 35.626 30.2162 35.3949 30.751 35.1144L31.5766 35.9401C31.9784 36.3419 32.6298 36.3419 33.0309 35.9401L35.9402 33.0305C36.342 32.6286 36.342 31.9772 35.9402 31.576L35.1154 30.7511H35.1147ZM34.0169 27.8299C33.8126 28.7296 33.4567 29.5854 32.9603 30.374C32.7045 30.7806 32.7635 31.31 33.1036 31.6494L33.7584 32.3043L32.3041 33.7587L31.6493 33.1039C31.3099 32.7644 30.7798 32.7048 30.3739 32.9612C29.5854 33.4577 28.7297 33.8129 27.8301 34.0179C27.3618 34.1242 27.0299 34.5405 27.0299 35.0212V35.9442H24.9729V35.0212C24.9729 34.5412 24.6403 34.1242 24.172 34.0179C23.2724 33.8136 22.4167 33.4577 21.6281 32.9612C21.2215 32.7055 20.6922 32.7644 20.3528 33.1039L19.698 33.7587L18.2436 32.3043L18.8985 31.6494C19.2379 31.31 19.2975 30.7806 19.0418 30.374C18.5453 29.5854 18.1895 28.7296 17.9851 27.8299C17.8789 27.3615 17.4627 27.0289 16.982 27.0289H16.0591V24.9717H16.982C17.462 24.9717 17.8789 24.6392 17.9851 24.1708C18.1895 23.2711 18.5447 22.4153 19.0418 21.6267C19.2975 21.2201 19.2386 20.6907 18.8985 20.3513L18.2436 19.6964L19.698 18.242L20.3528 18.8968C20.6922 19.2363 21.2222 19.2959 21.6281 19.0401C22.4167 18.5437 23.2724 18.1885 24.172 17.9834C24.6403 17.8771 24.9729 17.4609 24.9729 16.9802V16.0572H27.0299V16.9802C27.0299 17.4602 27.3624 17.8771 27.8308 17.9834C28.7304 18.1878 29.5861 18.543 30.3746 19.0401C30.7812 19.2959 31.3106 19.237 31.65 18.8968L32.3048 18.242L33.7591 19.6964L33.1043 20.3513C32.7649 20.6907 32.7052 21.2201 32.961 21.6267C33.4574 22.4153 33.8133 23.2711 34.0176 24.1708C34.1239 24.6392 34.5401 24.9717 35.0207 24.9717H35.9437V27.0289H35.0207C34.5408 27.0289 34.1239 27.3615 34.0176 27.8292L34.0169 27.8299Z" fill="#72195A" stroke="#72195A" stroke-width="0.25"/><path d="M26 21C23.2432 21 21 23.2432 21 26C21 28.7568 23.2432 31 26 31C28.7568 31 31 28.7568 31 26C31 23.2432 28.7568 21 26 21ZM26 29.4211C24.1137 29.4211 22.5789 27.8863 22.5789 26C22.5789 24.1137 24.1137 22.5789 26 22.5789C27.8863 22.5789 29.4211 24.1137 29.4211 26C29.4211 27.8863 27.8863 29.4211 26 29.4211Z" fill="#72195A" stroke="#72195A" stroke-width="0.75"/></svg>
