<svg width="81" height="81" viewBox="0 0 81 81" fill="none" xmlns="http://www.w3.org/2000/svg"><rect width="81" height="81" rx="40.5" fill="#FF7E01"/><path d="M43.1803 57.1193L43.1803 57.1193C43.1791 57.0775 43.1777 57.0254 43.1795 55.1804L43.1797 55.0463L43.1803 57.1193ZM43.1803 57.1193C43.1822 57.1802 43.147 57.3215 43.0647 57.4963C43.0456 57.5371 43.0252 57.5768 43.0042 57.6146C42.8661 57.3216 42.6869 56.8206 42.5212 55.9886C42.2682 54.7184 42.0495 52.6911 42.0495 49.4828C42.0495 48.5825 41.6305 47.9011 41.0728 47.3663C40.5254 46.8416 39.8277 46.4425 39.2336 46.1027L39.2211 46.0955L39.097 46.3125M43.1803 57.1193L39.097 46.3125M39.097 46.3125L39.2211 46.0955L39.1878 46.0765C38.9775 45.9562 38.6979 45.7964 38.4493 45.6369C38.3183 45.5529 38.2001 45.4716 38.1074 45.3987C38.0509 45.3543 38.0114 45.3187 37.9854 45.2923V43.3985C37.9854 43.1668 37.9607 42.9483 37.9102 42.7422C39.7668 42.5115 40.7182 41.8254 41.4326 41.3088C41.6975 41.1173 41.8715 40.9926 42.0458 40.9108C42.1938 40.8414 42.3464 40.8016 42.5589 40.7947C42.5638 40.8003 42.5693 40.8067 42.5753 40.814C42.6131 40.8597 42.6583 40.9222 42.7078 40.9961C42.8066 41.1433 42.9105 41.3169 42.9914 41.4522L42.9915 41.4522L42.9951 41.4584C43.1277 41.6798 43.282 41.9377 43.4612 42.1964C43.4612 42.1964 43.4612 42.1965 43.4612 42.1965L43.6667 42.0541M39.097 46.3125L48.1739 48.5475C47.5055 49.4816 46.6293 50.3105 45.7874 51.1059L45.9591 51.2877C47.6364 49.703 49.5373 47.9068 49.5373 45.4265C49.5373 45.3486 49.5304 45.3014 49.5252 45.2769M43.6667 42.0541C45.1931 44.2592 47.1845 44.6954 48.5023 44.984L48.5023 44.984L48.5025 44.984C48.8517 45.0605 49.371 45.1742 49.5252 45.2769M43.6667 42.0541C43.4923 41.8022 43.3415 41.5502 43.2082 41.3275L43.206 41.3238L43.6667 42.0541ZM49.5252 45.2769L49.2806 45.3288C49.2817 45.3338 49.2873 45.3634 49.2873 45.4265C49.2873 45.4316 49.2873 45.4367 49.2873 45.4418C49.3467 45.4633 49.377 45.4786 49.3866 45.485L49.4255 45.4265L49.5252 45.2769ZM31.4597 34.26C30.5454 35.1742 30.1336 36.4227 30.2646 37.7103C29.9402 37.6027 29.6174 37.5142 29.3074 37.4293L29.3004 37.4273L29.3004 37.4273C28.9383 37.3281 28.5703 37.227 28.2763 37.1109C28.1295 37.0529 28.0117 36.9951 27.9269 36.9382C27.8381 36.8786 27.8114 36.8371 27.8055 36.8223C27.7884 36.7787 27.7156 36.5295 27.9122 35.8641C28.1078 35.2016 28.5633 34.1513 29.5642 32.5262C29.9486 31.9023 30.3835 31.1157 30.6131 30.2934C30.843 29.4698 30.8748 28.5801 30.4096 27.7803L30.1935 27.906L30.4096 27.7803C30.0566 27.1735 29.517 26.7989 28.926 26.569C32.0175 24.0043 35.9843 22.4607 40.3053 22.4607C42.1598 22.4607 43.9485 22.7458 45.631 23.273C45.3679 23.7831 45.2312 24.3882 45.2312 25.0656C45.2312 26.4223 45.8337 27.6273 46.3865 28.7329L46.3984 28.7568L46.622 28.645L46.3984 28.7568C46.6278 29.2155 46.8441 29.6486 47.004 30.0569C47.1642 30.4663 47.2593 30.8304 47.2593 31.1499C47.2593 31.3565 47.2293 31.4273 47.2047 31.4607C47.1788 31.4958 47.125 31.5366 46.9519 31.5989C46.6507 31.7072 46.2061 31.7624 45.7186 31.7876C45.2874 31.8099 44.8445 31.8081 44.4704 31.8066C44.4262 31.8064 44.3829 31.8063 44.3408 31.8061C44.3407 31.8061 44.3407 31.8061 44.3407 31.8061L44.3298 31.8061C43.3453 31.8028 42.2609 31.7992 41.1206 32.1046C39.9694 32.4129 38.7715 33.0325 37.544 34.26C37.4652 34.3387 37.4165 34.3765 37.375 34.3965C37.3417 34.4125 37.3009 34.4231 37.2267 34.4147C37.0498 34.3946 36.7601 34.2796 36.1771 33.9881L36.0653 34.2117L36.1771 33.9881L36.1648 33.9819C35.6463 33.7227 34.912 33.3555 34.0939 33.2692C33.2514 33.1803 32.3299 33.3897 31.4597 34.26ZM27.0928 31.0039L27.0928 31.0039C26.1066 32.605 25.4554 33.9217 25.1267 35.0343C24.797 36.1502 24.7865 37.0788 25.1052 37.887L25.3378 37.7953L25.1052 37.887C25.7245 39.4574 27.3254 39.8959 28.4946 40.2161L28.5333 40.2267L28.5993 39.9855L28.5333 40.2267C29.0356 40.3643 29.4818 40.4874 29.8412 40.656L29.9474 40.4297L29.8412 40.656C31.9756 41.6578 33.2945 42.3235 34.1284 42.818C34.757 43.1908 35.0032 43.4071 35.0908 43.4976V45.4264C35.0908 46.2689 35.4921 46.9097 36.022 47.4129C36.542 47.9069 37.2047 48.2858 37.7679 48.6079L37.7799 48.6148C37.7799 48.6148 37.7799 48.6148 37.7799 48.6149C38.0124 48.7479 38.3614 48.9476 38.6601 49.1465C38.81 49.2463 38.9407 49.3417 39.0356 49.4248C39.0832 49.4664 39.1169 49.5008 39.1386 49.5274C39.1419 49.5314 39.1447 49.535 39.147 49.5381C39.1503 53.9685 39.5498 56.5808 40.0984 58.1593C30.351 58.0481 22.4554 50.0838 22.4554 40.3106C22.4554 36.0751 23.9386 32.1802 26.4127 29.1159C27.0321 29.1149 27.415 29.156 27.648 29.2029C27.7505 29.2235 27.8202 29.2445 27.8663 29.2617C27.8447 29.462 27.722 29.9825 27.0928 31.0039ZM39.7318 38.9566L39.7318 38.9566C39.3723 39.2166 39.0475 39.4503 38.5808 39.6247C38.1142 39.7991 37.4909 39.919 36.5422 39.919C34.7229 39.919 33.6644 38.8695 33.3047 38.0012C33.1585 37.6484 32.9462 36.8784 33.5122 36.3123C33.591 36.2336 33.6397 36.1958 33.6812 36.1758C33.7145 36.1598 33.7553 36.1492 33.8295 36.1576C34.0064 36.1777 34.2961 36.2927 34.8791 36.5842L34.8913 36.5904C35.4099 36.8496 36.1442 37.2168 36.9623 37.3031C37.8048 37.392 38.7263 37.1826 39.5965 36.3123C40.4125 35.4964 41.1524 35.1004 41.8972 34.9039C42.652 34.7047 43.4245 34.7057 44.3313 34.7086C44.3597 34.7087 44.3882 34.7088 44.4168 34.7089C45.5321 34.7128 46.8574 34.7175 47.9344 34.3301C48.6412 34.0759 49.2016 33.6658 49.5844 33.1192C49.9671 32.5726 50.1621 31.9041 50.1621 31.1498C50.1621 29.7931 49.5596 28.5881 49.0068 27.4825L48.9948 27.4586L48.7712 27.5704L48.9948 27.4586C48.7655 26.9999 48.5492 26.5668 48.3893 26.1585C48.229 25.7491 48.134 25.385 48.134 25.0655C48.134 24.7616 48.1684 24.6478 48.2117 24.5951C48.2417 24.5585 48.3165 24.5067 48.5701 24.4928C54.2632 27.4799 58.1552 33.4495 58.1552 40.3106C58.1552 48.1296 53.1007 54.7906 46.0868 57.1985C46.086 57.1662 46.085 57.135 46.084 57.1052C46.0833 57.0835 46.0826 57.0625 46.082 57.0423C46.0813 56.974 46.0808 56.589 46.0822 55.1833L46.0823 55.0875C46.0881 55.0738 46.0979 55.0527 46.1136 55.0236C46.1576 54.9424 46.2463 54.8021 46.4195 54.5912C46.745 54.1952 47.2392 53.7277 47.7809 53.2159L47.8035 53.1945C49.6177 51.4804 52.19 49.0501 52.19 45.4266C52.19 44.1192 51.5227 43.4063 50.9575 43.0455C50.3871 42.6812 49.7309 42.5375 49.0911 42.3975L49.0699 42.3928C47.901 42.1368 46.7768 41.8863 45.8478 40.5444L45.6422 40.6866L45.8478 40.5443C45.7235 40.3647 45.609 40.1736 45.4825 39.9621C45.4824 39.9621 45.4824 39.9621 45.4824 39.9621L45.4684 39.9386C44.9854 39.1308 44.2439 37.891 42.6264 37.891C41.2057 37.891 40.37 38.4952 39.7365 38.9532L39.7318 38.9566ZM40.3053 19.5581C28.878 19.5581 19.5527 28.8841 19.5527 40.3106C19.5527 45.8325 21.7179 51.0387 25.6476 54.9683C29.5773 58.8979 34.7834 61.0632 40.3053 61.0632C51.7325 61.0632 61.0578 51.7372 61.0578 40.3106C61.0578 28.8834 51.7318 19.5581 40.3053 19.5581Z" fill="white" stroke="white" stroke-width="0.5"/></svg>
