<svg width="100" height="100" viewBox="0 0 100 100" fill="none" xmlns="http://www.w3.org/2000/svg">
<g clip-path="url(#clip0_199_31288)">
<path d="M67.5101 56.5649C67.5101 56.5649 67.5191 56.5241 67.5237 56.506C67.5327 56.4425 67.5418 56.3835 67.5463 56.3201C67.5463 56.2929 67.5463 56.2656 67.5509 56.2384C67.5509 56.184 67.5509 56.1251 67.5509 56.0707C67.5509 56.0344 67.5509 56.0026 67.5463 55.9664C67.5463 55.9165 67.5373 55.8666 67.5282 55.8167C67.5237 55.7759 67.5146 55.7306 67.5055 55.6898C67.4964 55.649 67.4874 55.6036 67.4783 55.5628C67.4647 55.5084 67.4466 55.4585 67.4284 55.4086C67.4148 55.3769 67.4058 55.3451 67.3967 55.3134C67.3604 55.2318 67.3241 55.1502 67.2788 55.0685C63.7872 48.9106 57.2257 45.0835 50.1609 45.0835C43.0961 45.0835 36.5347 48.9106 33.0431 55.0685C32.9977 55.1502 32.9615 55.2318 32.9252 55.3134C32.9116 55.3451 32.9025 55.3769 32.8934 55.4086C32.8753 55.4585 32.8572 55.5129 32.8436 55.5628C32.83 55.6036 32.8254 55.6444 32.8164 55.6898C32.8073 55.7306 32.7982 55.7759 32.7892 55.8167C32.7801 55.8666 32.7755 55.9165 32.7755 55.9664C32.7755 56.0026 32.771 56.0389 32.7665 56.0752C32.7665 56.1296 32.7665 56.184 32.7665 56.243C32.7665 56.2702 32.7665 56.3019 32.771 56.3291C32.7755 56.3881 32.7846 56.4516 32.7937 56.5105C32.7937 56.5332 32.8028 56.5513 32.8073 56.574C32.8209 56.642 32.8345 56.7055 32.8572 56.769C32.8572 56.7826 32.8662 56.7962 32.8708 56.8098C32.8934 56.8823 32.9207 56.9504 32.9479 57.0229C32.9796 57.0909 33.0068 57.159 33.0476 57.227C36.5392 63.3849 43.1007 67.212 50.1655 67.212C57.2303 67.212 63.7917 63.3849 67.2833 57.227C67.3604 57.0955 67.4148 56.9504 67.4602 56.8098C67.4602 56.7962 67.4692 56.7871 67.4738 56.7735C67.4919 56.7055 67.5101 56.642 67.5237 56.574L67.5101 56.5649ZM61.6605 57.6079C61.6605 57.6079 61.6469 57.626 61.6378 57.6351C61.5018 57.7893 61.3612 57.9298 61.2252 58.0795C59.9873 59.3582 58.0102 60.968 55.2532 61.9474C55.1943 61.9701 55.1353 61.9882 55.0764 62.0109C54.8995 62.0698 54.7227 62.1288 54.5413 62.1832C54.505 62.1923 54.4642 62.2059 54.4279 62.215C53.8158 62.3918 53.1673 62.5414 52.4872 62.6457C52.469 62.6457 52.4509 62.6503 52.4327 62.6548C52.2015 62.6911 51.9657 62.7183 51.7253 62.7455C51.7163 62.7455 51.7072 62.7455 51.6981 62.7455C51.2039 62.7954 50.6869 62.8271 50.1564 62.8316C47.0548 62.8316 44.0801 61.8794 41.5861 60.1926C40.117 59.1677 38.743 57.8301 37.5051 56.1387C40.3437 51.9805 45.0823 49.4457 50.1564 49.4457C55.2305 49.4457 59.9691 51.9805 62.8077 56.1387C62.454 56.6556 62.0731 57.1453 61.6696 57.6079H61.6605Z" fill="#0073FF"/>
<path d="M50.1519 49.7949C46.6558 49.7949 43.8081 52.6381 43.8081 56.1387C43.8081 59.6394 46.6513 62.4825 50.1519 62.4825C53.453 62.4825 56.1692 59.9477 56.464 56.7237C56.4821 56.5332 56.4957 56.3382 56.4957 56.1433C56.4957 52.6471 53.6526 49.7995 50.1519 49.7995V49.7949ZM52.0292 56.7191C51.9113 57.1 51.68 57.4265 51.3808 57.6714C51.3581 57.6895 51.3354 57.7122 51.3128 57.7303C51.2629 57.7666 51.2039 57.8029 51.1495 57.8346C51.0996 57.8618 51.0498 57.8891 50.9999 57.9163C50.95 57.9389 50.9046 57.9616 50.8548 57.9797C50.7867 58.007 50.7142 58.0296 50.6416 58.0478C50.6008 58.0568 50.56 58.0704 50.5192 58.0795C50.4013 58.1022 50.2789 58.1158 50.1564 58.1158C50.034 58.1158 49.9116 58.1022 49.7937 58.0795C49.7529 58.0704 49.7121 58.0568 49.6713 58.0478C49.5987 58.0296 49.5261 58.007 49.4581 57.9797C49.4082 57.9616 49.3584 57.9389 49.313 57.9163C49.2631 57.8936 49.2133 57.8618 49.1634 57.8346C49.109 57.8029 49.05 57.7666 49.0001 57.7303C48.9775 57.7122 48.9548 57.6895 48.9321 57.6714C48.6328 57.4265 48.4016 57.1 48.2837 56.7191C48.2247 56.5332 48.1839 56.3428 48.1839 56.1387C48.1839 55.0504 49.0682 54.1617 50.161 54.1617C51.2538 54.1617 52.138 55.0459 52.138 56.1387C52.138 56.3428 52.0972 56.5378 52.0383 56.7191H52.0292Z" fill="#0073FF"/>
<path d="M68.7254 35.1826H63.4472V26.431C63.4472 19.0986 57.4843 13.1357 50.1519 13.1357C42.8196 13.1357 36.8567 19.0986 36.8567 26.431V35.1826H31.5785C28.5449 35.1826 26.0781 37.6494 26.0781 40.683V71.5314C26.0781 74.565 28.5449 77.0318 31.5785 77.0318H68.7299C71.7635 77.0318 74.2303 74.565 74.2303 71.5314V40.683C74.2303 37.6494 71.7635 35.1826 68.7299 35.1826H68.7254ZM41.2235 26.431C41.2235 21.5065 45.2274 17.5025 50.1519 17.5025C55.0764 17.5025 59.0804 21.5065 59.0804 26.431V35.1826H41.2235V26.431ZM69.8636 71.5314C69.8636 72.1572 69.3557 72.6651 68.7299 72.6651H31.5785C30.9527 72.6651 30.4449 72.1572 30.4449 71.5314V40.683C30.4449 40.0573 30.9527 39.5494 31.5785 39.5494H68.7299C69.3557 39.5494 69.8636 40.0573 69.8636 40.683V71.5314Z" fill="#0073FF"/>
<path d="M49.9977 0.000488281C22.4278 0.000488281 0 22.4283 0 49.9982C0 77.5682 22.4278 99.9959 49.9977 99.9959C77.5677 99.9959 99.9955 77.5682 99.9955 49.9982C99.9955 22.4283 77.5677 0.000488281 49.9977 0.000488281ZM94.7354 51.3087C94.5722 56.9496 93.3614 62.3321 91.2892 67.2702C91.1577 67.5831 91.0216 67.8915 90.8856 68.1998C90.8765 68.218 90.8674 68.2406 90.8584 68.2633C90.7269 68.5535 90.5954 68.8437 90.4548 69.1294C90.4367 69.1657 90.4185 69.202 90.4049 69.2382C90.2734 69.5103 90.1374 69.7824 90.0014 70.0544C89.9787 70.1043 89.9515 70.1542 89.9288 70.2041C89.7973 70.4626 89.6613 70.721 89.5252 70.9795C89.4935 71.0384 89.4617 71.0974 89.43 71.1563C89.2985 71.4057 89.1579 71.6506 89.0219 71.8955C88.9856 71.9635 88.9493 72.027 88.9085 72.095C88.7725 72.3308 88.6365 72.5666 88.4959 72.7978C88.4505 72.8704 88.4097 72.9475 88.3644 73.02C88.2283 73.2467 88.0878 73.4735 87.9472 73.6957C87.8973 73.7728 87.852 73.8498 87.8021 73.9269C87.6615 74.1446 87.521 74.3623 87.3804 74.5754C87.326 74.657 87.2716 74.7431 87.2171 74.8248C87.0766 75.0334 86.936 75.2374 86.7909 75.446C86.732 75.5322 86.6685 75.6228 86.6095 75.709C86.469 75.9085 86.3238 76.108 86.1833 76.303C86.1198 76.3937 86.0518 76.4844 85.9883 76.5751C85.8477 76.7701 85.7026 76.9605 85.553 77.151C85.4804 77.2417 85.4124 77.3369 85.3399 77.4276C85.1947 77.6135 85.0496 77.7994 84.9 77.9808C84.8229 78.076 84.7504 78.1667 84.6733 78.2619C84.5282 78.4388 84.3785 78.6156 84.2289 78.7925C84.1473 78.8877 84.0657 78.9829 83.984 79.0782C83.8389 79.2505 83.6893 79.4183 83.5396 79.5906C83.4535 79.6858 83.3673 79.7855 83.2812 79.8808C83.1315 80.0485 82.9819 80.2118 82.8323 80.375C82.7416 80.4748 82.6509 80.57 82.5602 80.6698C82.4106 80.8285 82.2564 80.9872 82.1067 81.1459C82.0115 81.2457 81.9163 81.3409 81.8211 81.4407C81.6669 81.5948 81.5127 81.749 81.3585 81.8986C81.2588 81.9939 81.1636 82.0936 81.0638 82.1888C80.9096 82.3385 80.7554 82.4836 80.5967 82.6332C80.4924 82.7285 80.3927 82.8282 80.2884 82.9234C80.1342 83.0685 79.9755 83.2091 79.8168 83.3497C79.708 83.4449 79.6037 83.5401 79.4948 83.6354C79.3361 83.7714 79.182 83.912 79.0187 84.0435C78.9054 84.1387 78.7965 84.2339 78.6832 84.3291C78.5245 84.4606 78.3657 84.5921 78.207 84.7236C78.0891 84.8189 77.9712 84.9141 77.8533 85.0048C77.6946 85.1318 77.5359 85.2587 77.3727 85.3811C77.2503 85.4764 77.1324 85.5671 77.0099 85.6623C76.8512 85.7847 76.688 85.9026 76.5247 86.0251C76.3978 86.1158 76.2753 86.2064 76.1484 86.3017C75.9851 86.4196 75.8264 86.5329 75.6632 86.6508C75.5362 86.7415 75.4047 86.8322 75.2777 86.9184C75.1145 87.0317 74.9512 87.1406 74.788 87.2494C74.6565 87.3401 74.5205 87.4262 74.389 87.5124C74.2257 87.6212 74.0625 87.7255 73.8947 87.8298C73.7587 87.916 73.6226 88.0021 73.4821 88.0883C73.3188 88.188 73.151 88.2923 72.9878 88.3921C72.8472 88.4782 72.7067 88.5599 72.5616 88.6415C72.3938 88.7367 72.2305 88.8365 72.0628 88.9317C71.9176 89.0133 71.7725 89.0949 71.6274 89.1766C71.4597 89.2673 71.2964 89.3625 71.1286 89.4532C70.979 89.5348 70.8294 89.6119 70.6797 89.689C70.5119 89.7751 70.3442 89.8658 70.1764 89.9474C70.0222 90.0245 69.8726 90.1016 69.7184 90.1742C69.5506 90.2558 69.3828 90.3374 69.2151 90.419C69.0609 90.4916 68.9022 90.5641 68.7435 90.6367C68.5757 90.7138 68.4079 90.7908 68.2356 90.8679C68.0769 90.9405 67.9137 91.0085 67.7549 91.0765C67.5872 91.1491 67.4149 91.2216 67.2471 91.2942C67.0838 91.3622 66.9206 91.4302 66.7574 91.4937C66.585 91.5617 66.4173 91.6343 66.2449 91.6978C66.0772 91.7612 65.9139 91.8247 65.7462 91.8882C65.5738 91.9517 65.4061 92.0197 65.2337 92.0787C65.066 92.1376 64.8937 92.1965 64.7259 92.2555C64.5536 92.3145 64.3813 92.3779 64.2089 92.4369C64.0366 92.4958 63.8643 92.5502 63.692 92.6047C63.5197 92.6591 63.3474 92.718 63.1751 92.7679C62.9982 92.8223 62.8259 92.8722 62.6491 92.9266C62.4768 92.9765 62.3044 93.0309 62.1276 93.0808C61.9507 93.1307 61.7694 93.176 61.5925 93.2259C61.4202 93.2712 61.2479 93.3211 61.071 93.3665C60.8897 93.4118 60.7038 93.4572 60.5224 93.5025C60.3501 93.5433 60.1777 93.5887 60.0054 93.6249C59.8195 93.6657 59.6336 93.7066 59.4477 93.7474C59.2754 93.7836 59.1031 93.8245 58.9262 93.8607C58.7358 93.897 58.5453 93.9333 58.3549 93.9696C58.1826 94.0013 58.0102 94.0376 57.8379 94.0648C57.6429 94.1011 57.448 94.1283 57.253 94.16C57.0807 94.1872 56.9129 94.219 56.7406 94.2416C56.5411 94.2734 56.3461 94.296 56.1465 94.3232C55.9742 94.3459 55.8065 94.3731 55.6342 94.3958C55.4301 94.423 55.226 94.4411 55.022 94.4638C54.8542 94.482 54.6864 94.5046 54.5187 94.5182C54.3055 94.5409 54.0879 94.559 53.8748 94.5772C53.716 94.5908 53.5573 94.6089 53.3986 94.618C53.1719 94.6361 52.9406 94.6497 52.7139 94.6633C52.5643 94.6724 52.4192 94.6815 52.2695 94.6906C52.0247 94.7042 51.7753 94.7087 51.5259 94.7178C51.3944 94.7178 51.2629 94.7314 51.1314 94.7314C50.7505 94.7404 50.3696 94.745 49.9887 94.745C49.6078 94.745 49.2269 94.7404 48.846 94.7314C48.7145 94.7314 48.583 94.7223 48.4515 94.7178C48.2021 94.7087 47.9572 94.7042 47.7078 94.6906C47.5582 94.6815 47.4085 94.6724 47.2634 94.6633C47.0367 94.6497 46.8054 94.6361 46.5787 94.618C46.42 94.6044 46.2613 94.5908 46.1026 94.5772C45.8894 94.559 45.6718 94.5409 45.4587 94.5182C45.2909 94.5001 45.1231 94.482 44.9553 94.4638C44.7513 94.4411 44.5472 94.4185 44.3477 94.3958C44.1754 94.3731 44.0076 94.3504 43.8353 94.3232C43.6358 94.296 43.4408 94.2688 43.2413 94.2416C43.069 94.2144 42.9012 94.1872 42.7289 94.16C42.5339 94.1283 42.3389 94.0965 42.1439 94.0648C41.9716 94.033 41.7993 94.0013 41.627 93.965C41.4365 93.9287 41.2461 93.8925 41.0602 93.8562C40.8879 93.8199 40.711 93.7836 40.5387 93.7428C40.3528 93.702 40.1669 93.6657 39.9809 93.6204C39.8086 93.5796 39.6363 93.5388 39.464 93.498C39.2826 93.4526 39.0967 93.4118 38.9153 93.3619C38.743 93.3166 38.5662 93.2712 38.3939 93.2214C38.217 93.1715 38.0356 93.1261 37.8588 93.0762C37.6819 93.0264 37.5096 92.9765 37.3373 92.9221C37.1605 92.8722 36.9882 92.8178 36.8113 92.7634C36.639 92.709 36.4667 92.6545 36.2944 92.5956C36.1221 92.5412 35.9498 92.4868 35.7774 92.4278C35.6051 92.3689 35.4328 92.3099 35.2605 92.2464C35.0927 92.1875 34.9204 92.1285 34.7526 92.0696C34.5803 92.0061 34.408 91.9426 34.2357 91.8791C34.0679 91.8157 33.9047 91.7522 33.7369 91.6887C33.5646 91.6207 33.3923 91.5527 33.2245 91.4846C33.0613 91.4166 32.898 91.3531 32.7393 91.2851C32.567 91.2126 32.3992 91.14 32.2269 91.0675C32.0682 90.9994 31.9095 90.9314 31.7508 90.8589C31.5785 90.7818 31.4107 90.7047 31.2429 90.6276C31.0842 90.5551 30.93 90.4825 30.7759 90.41C30.6081 90.3283 30.4403 90.2467 30.2725 90.1651C30.1183 90.088 29.9642 90.0154 29.8145 89.9384C29.6468 89.8522 29.479 89.766 29.3112 89.6799C29.1616 89.6028 29.0119 89.5212 28.8623 89.4441C28.6945 89.3534 28.5267 89.2627 28.3635 89.1675C28.2184 89.0859 28.0733 89.0042 27.9282 88.9226C27.7604 88.8274 27.5972 88.7322 27.4294 88.6324C27.2888 88.5508 27.1482 88.4646 27.0031 88.383C26.8353 88.2833 26.6721 88.1835 26.5043 88.0792C26.3683 87.993 26.2323 87.9114 26.0962 87.8253C25.9284 87.721 25.7652 87.6121 25.602 87.5079C25.4705 87.4217 25.3344 87.3355 25.2029 87.2448C25.0397 87.136 24.8719 87.0227 24.7087 86.9093C24.5817 86.8186 24.4502 86.7324 24.3232 86.6418C24.16 86.5284 23.9967 86.4105 23.8335 86.2926C23.7065 86.2019 23.5841 86.1112 23.4571 86.0205C23.2939 85.9026 23.1352 85.7802 22.9719 85.6578C22.8495 85.5671 22.7271 85.4718 22.6092 85.3766C22.4505 85.2496 22.2872 85.1272 22.1285 85.0003C22.0106 84.905 21.8927 84.8143 21.7793 84.7191C21.6206 84.5876 21.4619 84.4561 21.3032 84.3246C21.1899 84.2294 21.081 84.1342 20.9677 84.0389C20.809 83.9029 20.6502 83.7669 20.4915 83.6263C20.3827 83.5311 20.2739 83.4358 20.1696 83.3406C20.0109 83.2 19.8567 83.0595 19.698 82.9144C19.5937 82.8191 19.4894 82.7239 19.3897 82.6242C19.2309 82.4791 19.0768 82.3294 18.9226 82.1798C18.8228 82.0845 18.7231 81.9848 18.6233 81.8896C18.4691 81.7354 18.315 81.5858 18.1608 81.4316C18.0656 81.3364 17.9703 81.2366 17.8751 81.1414C17.7209 80.9827 17.5713 80.824 17.4171 80.6652C17.3264 80.57 17.2358 80.4703 17.1451 80.375C16.9954 80.2118 16.8412 80.0485 16.6916 79.8808C16.6054 79.7855 16.5193 79.6903 16.4331 79.5906C16.2835 79.4183 16.1339 79.2505 15.9842 79.0782C15.9026 78.9829 15.821 78.8877 15.7439 78.7925C15.5942 78.6156 15.4491 78.4388 15.304 78.2619C15.227 78.1667 15.1499 78.0715 15.0773 77.9763C14.9322 77.7949 14.7826 77.609 14.642 77.4231C14.5694 77.3324 14.5014 77.2371 14.4289 77.1465C14.2838 76.956 14.1387 76.7655 13.9936 76.5706C13.9255 76.4799 13.8621 76.3937 13.7986 76.303C13.6535 76.1035 13.5084 75.904 13.3678 75.7045C13.3088 75.6183 13.2499 75.5322 13.1864 75.446C13.0413 75.242 12.9007 75.0334 12.7602 74.8248C12.7058 74.7431 12.6513 74.657 12.5969 74.5754C12.4564 74.3623 12.3158 74.1446 12.1752 73.9269C12.1253 73.8498 12.0755 73.7682 12.0256 73.6911C11.885 73.4689 11.7444 73.2422 11.6084 73.02C11.5631 72.9475 11.5222 72.8704 11.4769 72.7978C11.3363 72.5666 11.2003 72.3308 11.0688 72.095C11.028 72.027 10.9917 71.9589 10.9554 71.8909C10.8194 71.6461 10.6834 71.4057 10.5519 71.1563C10.5201 71.0974 10.4884 71.0339 10.4566 70.975C10.3206 70.721 10.1846 70.4626 10.0531 70.2041C10.0258 70.1542 10.0032 70.1043 9.9805 70.0544C9.84447 69.7824 9.70843 69.5103 9.57693 69.2382C9.55879 69.202 9.54065 69.1657 9.52251 69.1249C9.38648 68.8392 9.25044 68.549 9.12348 68.2588C9.11441 68.2361 9.10534 68.2134 9.09173 68.1908C8.9557 67.8869 8.81966 67.5786 8.69269 67.2702C6.62041 62.3321 5.40969 56.9496 5.24645 51.3087C5.23285 50.8734 5.22378 50.4381 5.22378 49.9982C5.24192 25.3213 25.3208 5.24241 49.9977 5.24241C74.6746 5.24241 94.7581 25.3213 94.7581 50.0028C94.7581 50.4426 94.749 50.8779 94.7354 51.3132V51.3087Z" fill="#0073FF"/>
</g>
<defs>
<clipPath id="clip0_199_31288">
<rect width="100" height="100" fill="white" transform="translate(0 0.000488281)"/>
</clipPath>
</defs>
</svg>
