<svg width="100" height="100" viewBox="0 0 100 100" fill="none" xmlns="http://www.w3.org/2000/svg">
<g clip-path="url(#clip0_199_31382)">
<path d="M49.9977 0.000488281C22.4278 0.000488281 0 22.4283 0 49.9982C0 77.5682 22.4278 99.9959 49.9977 99.9959C77.5677 99.9959 99.9955 77.5682 99.9955 49.9982C99.9955 22.4283 77.5677 0.000488281 49.9977 0.000488281ZM94.7354 51.3087C94.5722 56.9496 93.3614 62.3321 91.2892 67.2702C91.1577 67.5831 91.0216 67.8915 90.8856 68.1998C90.8765 68.218 90.8674 68.2406 90.8584 68.2633C90.7269 68.5535 90.5954 68.8437 90.4548 69.1294C90.4367 69.1657 90.4185 69.202 90.4049 69.2382C90.2734 69.5103 90.1374 69.7824 90.0014 70.0544C89.9787 70.1043 89.9515 70.1542 89.9288 70.2041C89.7973 70.4626 89.6613 70.721 89.5252 70.9795C89.4935 71.0384 89.4617 71.0974 89.43 71.1563C89.2985 71.4057 89.1579 71.6506 89.0219 71.8955C88.9856 71.9635 88.9493 72.027 88.9085 72.095C88.7725 72.3308 88.6365 72.5666 88.4959 72.7978C88.4505 72.8704 88.4097 72.9475 88.3644 73.02C88.2283 73.2467 88.0878 73.4735 87.9472 73.6957C87.8973 73.7728 87.852 73.8498 87.8021 73.9269C87.6615 74.1446 87.521 74.3623 87.3804 74.5754C87.326 74.657 87.2716 74.7431 87.2171 74.8248C87.0766 75.0334 86.936 75.2374 86.7909 75.446C86.732 75.5322 86.6685 75.6228 86.6095 75.709C86.469 75.9085 86.3238 76.108 86.1833 76.303C86.1198 76.3937 86.0518 76.4844 85.9883 76.5751C85.8477 76.7701 85.7026 76.9605 85.553 77.151C85.4804 77.2417 85.4124 77.3369 85.3399 77.4276C85.1947 77.6135 85.0496 77.7994 84.9 77.9808C84.8229 78.076 84.7504 78.1667 84.6733 78.2619C84.5282 78.4388 84.3785 78.6156 84.2289 78.7925C84.1473 78.8877 84.0657 78.9829 83.984 79.0782C83.8389 79.2505 83.6893 79.4183 83.5396 79.5906C83.4535 79.6858 83.3673 79.7855 83.2812 79.8808C83.1315 80.0485 82.9819 80.2118 82.8323 80.375C82.7416 80.4748 82.6509 80.57 82.5602 80.6698C82.4106 80.8285 82.2564 80.9872 82.1067 81.1459C82.0115 81.2457 81.9163 81.3409 81.8211 81.4407C81.6669 81.5948 81.5127 81.749 81.3585 81.8986C81.2588 81.9939 81.1636 82.0936 81.0638 82.1888C80.9096 82.3385 80.7554 82.4836 80.5967 82.6332C80.4924 82.7285 80.3927 82.8282 80.2884 82.9234C80.1342 83.0685 79.9755 83.2091 79.8168 83.3497C79.708 83.4449 79.6037 83.5401 79.4948 83.6354C79.3361 83.7714 79.182 83.912 79.0187 84.0435C78.9054 84.1387 78.7965 84.2339 78.6832 84.3291C78.5245 84.4606 78.3657 84.5921 78.207 84.7236C78.0891 84.8189 77.9712 84.9141 77.8533 85.0048C77.6946 85.1318 77.5359 85.2587 77.3727 85.3811C77.2503 85.4764 77.1324 85.5671 77.0099 85.6623C76.8512 85.7847 76.688 85.9026 76.5247 86.0251C76.3978 86.1158 76.2753 86.2064 76.1484 86.3017C75.9851 86.4196 75.8264 86.5329 75.6632 86.6508C75.5362 86.7415 75.4047 86.8322 75.2777 86.9184C75.1145 87.0317 74.9512 87.1406 74.788 87.2494C74.6565 87.3401 74.5205 87.4262 74.389 87.5124C74.2257 87.6212 74.0625 87.7255 73.8947 87.8298C73.7587 87.916 73.6226 88.0021 73.4821 88.0883C73.3188 88.188 73.151 88.2923 72.9878 88.3921C72.8472 88.4782 72.7067 88.5599 72.5616 88.6415C72.3938 88.7367 72.2305 88.8365 72.0628 88.9317C71.9176 89.0133 71.7725 89.0949 71.6274 89.1766C71.4597 89.2673 71.2964 89.3625 71.1286 89.4532C70.979 89.5348 70.8294 89.6119 70.6797 89.689C70.5119 89.7751 70.3442 89.8658 70.1764 89.9474C70.0222 90.0245 69.8726 90.1016 69.7184 90.1742C69.5506 90.2558 69.3828 90.3374 69.2151 90.419C69.0609 90.4916 68.9022 90.5641 68.7435 90.6367C68.5757 90.7138 68.4079 90.7908 68.2356 90.8679C68.0769 90.9405 67.9137 91.0085 67.7549 91.0765C67.5872 91.1491 67.4149 91.2216 67.2471 91.2942C67.0838 91.3622 66.9206 91.4302 66.7574 91.4937C66.585 91.5617 66.4173 91.6343 66.2449 91.6978C66.0772 91.7612 65.9139 91.8247 65.7462 91.8882C65.5738 91.9517 65.4061 92.0197 65.2337 92.0787C65.066 92.1376 64.8937 92.1965 64.7259 92.2555C64.5536 92.3145 64.3813 92.3779 64.2089 92.4369C64.0366 92.4958 63.8643 92.5502 63.692 92.6047C63.5197 92.6591 63.3474 92.718 63.1751 92.7679C62.9982 92.8223 62.8259 92.8722 62.6491 92.9266C62.4768 92.9765 62.3044 93.0309 62.1276 93.0808C61.9507 93.1307 61.7694 93.176 61.5925 93.2259C61.4202 93.2712 61.2479 93.3211 61.071 93.3665C60.8897 93.4118 60.7038 93.4572 60.5224 93.5025C60.3501 93.5433 60.1777 93.5887 60.0054 93.6249C59.8195 93.6657 59.6336 93.7066 59.4477 93.7474C59.2754 93.7836 59.1031 93.8245 58.9262 93.8607C58.7358 93.897 58.5453 93.9333 58.3549 93.9696C58.1826 94.0013 58.0102 94.0376 57.8379 94.0648C57.6429 94.1011 57.448 94.1283 57.253 94.16C57.0807 94.1872 56.9129 94.219 56.7406 94.2416C56.5411 94.2734 56.3461 94.296 56.1465 94.3232C55.9742 94.3459 55.8065 94.3731 55.6342 94.3958C55.4301 94.423 55.226 94.4411 55.022 94.4638C54.8542 94.482 54.6864 94.5046 54.5187 94.5182C54.3055 94.5409 54.0879 94.559 53.8748 94.5772C53.716 94.5908 53.5573 94.6089 53.3986 94.618C53.1719 94.6361 52.9406 94.6497 52.7139 94.6633C52.5643 94.6724 52.4192 94.6815 52.2695 94.6906C52.0247 94.7042 51.7753 94.7087 51.5259 94.7178C51.3944 94.7178 51.2629 94.7314 51.1314 94.7314C50.7505 94.7404 50.3696 94.745 49.9887 94.745C49.6078 94.745 49.2269 94.7404 48.846 94.7314C48.7145 94.7314 48.583 94.7223 48.4515 94.7178C48.2021 94.7087 47.9572 94.7042 47.7078 94.6906C47.5582 94.6815 47.4085 94.6724 47.2634 94.6633C47.0367 94.6497 46.8054 94.6361 46.5787 94.618C46.42 94.6044 46.2613 94.5908 46.1026 94.5772C45.8894 94.559 45.6718 94.5409 45.4587 94.5182C45.2909 94.5001 45.1231 94.482 44.9553 94.4638C44.7513 94.4411 44.5472 94.4185 44.3477 94.3958C44.1754 94.3731 44.0076 94.3504 43.8353 94.3232C43.6358 94.296 43.4408 94.2688 43.2413 94.2416C43.069 94.2144 42.9012 94.1872 42.7289 94.16C42.5339 94.1283 42.3389 94.0965 42.1439 94.0648C41.9716 94.033 41.7993 94.0013 41.627 93.965C41.4365 93.9287 41.2461 93.8925 41.0602 93.8562C40.8879 93.8199 40.711 93.7836 40.5387 93.7428C40.3528 93.702 40.1669 93.6657 39.9809 93.6204C39.8086 93.5796 39.6363 93.5388 39.464 93.498C39.2826 93.4526 39.0967 93.4118 38.9153 93.3619C38.743 93.3166 38.5662 93.2712 38.3939 93.2214C38.217 93.1715 38.0356 93.1261 37.8588 93.0762C37.6819 93.0264 37.5096 92.9765 37.3373 92.9221C37.1605 92.8722 36.9882 92.8178 36.8113 92.7634C36.639 92.709 36.4667 92.6545 36.2944 92.5956C36.1221 92.5412 35.9498 92.4868 35.7774 92.4278C35.6051 92.3689 35.4328 92.3099 35.2605 92.2464C35.0927 92.1875 34.9204 92.1285 34.7526 92.0696C34.5803 92.0061 34.408 91.9426 34.2357 91.8791C34.0679 91.8157 33.9047 91.7522 33.7369 91.6887C33.5646 91.6207 33.3923 91.5527 33.2245 91.4846C33.0613 91.4166 32.898 91.3531 32.7393 91.2851C32.567 91.2126 32.3992 91.14 32.2269 91.0675C32.0682 90.9994 31.9095 90.9314 31.7508 90.8589C31.5785 90.7818 31.4107 90.7047 31.2429 90.6276C31.0842 90.5551 30.93 90.4825 30.7759 90.41C30.6081 90.3283 30.4403 90.2467 30.2725 90.1651C30.1183 90.088 29.9642 90.0154 29.8145 89.9384C29.6468 89.8522 29.479 89.766 29.3112 89.6799C29.1616 89.6028 29.0119 89.5212 28.8623 89.4441C28.6945 89.3534 28.5267 89.2627 28.3635 89.1675C28.2184 89.0859 28.0733 89.0042 27.9282 88.9226C27.7604 88.8274 27.5972 88.7322 27.4294 88.6324C27.2888 88.5508 27.1482 88.4646 27.0031 88.383C26.8353 88.2833 26.6721 88.1835 26.5043 88.0792C26.3683 87.993 26.2323 87.9114 26.0962 87.8253C25.9284 87.721 25.7652 87.6121 25.602 87.5079C25.4705 87.4217 25.3344 87.3355 25.2029 87.2448C25.0397 87.136 24.8719 87.0227 24.7087 86.9093C24.5817 86.8186 24.4502 86.7324 24.3232 86.6418C24.16 86.5284 23.9967 86.4105 23.8335 86.2926C23.7065 86.2019 23.5841 86.1112 23.4571 86.0205C23.2939 85.9026 23.1352 85.7802 22.9719 85.6578C22.8495 85.5671 22.7271 85.4718 22.6092 85.3766C22.4505 85.2496 22.2872 85.1272 22.1285 85.0003C22.0106 84.905 21.8927 84.8143 21.7793 84.7191C21.6206 84.5876 21.4619 84.4561 21.3032 84.3246C21.1899 84.2294 21.081 84.1342 20.9677 84.0389C20.809 83.9029 20.6502 83.7669 20.4915 83.6263C20.3827 83.5311 20.2739 83.4358 20.1696 83.3406C20.0109 83.2 19.8567 83.0595 19.698 82.9144C19.5937 82.8191 19.4894 82.7239 19.3897 82.6242C19.2309 82.4791 19.0768 82.3294 18.9226 82.1798C18.8228 82.0845 18.7231 81.9848 18.6233 81.8896C18.4691 81.7354 18.315 81.5858 18.1608 81.4316C18.0656 81.3364 17.9703 81.2366 17.8751 81.1414C17.7209 80.9827 17.5713 80.824 17.4171 80.6652C17.3264 80.57 17.2358 80.4703 17.1451 80.375C16.9954 80.2118 16.8412 80.0485 16.6916 79.8808C16.6054 79.7855 16.5193 79.6903 16.4331 79.5906C16.2835 79.4183 16.1339 79.2505 15.9842 79.0782C15.9026 78.9829 15.821 78.8877 15.7439 78.7925C15.5942 78.6156 15.4491 78.4388 15.304 78.2619C15.227 78.1667 15.1499 78.0715 15.0773 77.9763C14.9322 77.7949 14.7826 77.609 14.642 77.4231C14.5694 77.3324 14.5014 77.2371 14.4289 77.1465C14.2838 76.956 14.1387 76.7655 13.9936 76.5706C13.9255 76.4799 13.8621 76.3937 13.7986 76.303C13.6535 76.1035 13.5084 75.904 13.3678 75.7045C13.3088 75.6183 13.2499 75.5322 13.1864 75.446C13.0413 75.242 12.9007 75.0334 12.7602 74.8248C12.7058 74.7431 12.6513 74.657 12.5969 74.5754C12.4564 74.3623 12.3158 74.1446 12.1752 73.9269C12.1253 73.8498 12.0755 73.7682 12.0256 73.6911C11.885 73.4689 11.7444 73.2422 11.6084 73.02C11.5631 72.9475 11.5222 72.8704 11.4769 72.7978C11.3363 72.5666 11.2003 72.3308 11.0688 72.095C11.028 72.027 10.9917 71.9589 10.9554 71.8909C10.8194 71.6461 10.6834 71.4057 10.5519 71.1563C10.5201 71.0974 10.4884 71.0339 10.4566 70.975C10.3206 70.721 10.1846 70.4626 10.0531 70.2041C10.0258 70.1542 10.0032 70.1043 9.9805 70.0544C9.84447 69.7824 9.70843 69.5103 9.57693 69.2382C9.55879 69.202 9.54065 69.1657 9.52251 69.1249C9.38648 68.8392 9.25044 68.549 9.12348 68.2588C9.11441 68.2361 9.10534 68.2134 9.09173 68.1908C8.9557 67.8869 8.81966 67.5786 8.69269 67.2702C6.62041 62.3321 5.40969 56.9496 5.24645 51.3087C5.23285 50.8734 5.22378 50.4381 5.22378 49.9982C5.24192 25.3213 25.3208 5.24241 49.9977 5.24241C74.6746 5.24241 94.7581 25.3213 94.7581 50.0028C94.7581 50.4426 94.749 50.8779 94.7354 51.3132V51.3087Z" fill="#0073FF"/>
<g clip-path="url(#clip1_199_31382)">
<path d="M74.3702 70.7432C73.805 70.4348 73.2154 70.2055 72.6461 69.9801C72.4794 69.9129 72.3127 69.8496 72.1459 69.7824C68.344 68.2366 65.339 66.7421 62.7 65.0816C61.7932 64.5122 60.7481 63.8124 59.8657 62.9506C59.7153 62.8043 59.573 62.6343 59.4185 62.4524C59.3331 62.3496 59.2477 62.2508 59.1623 62.1519C59.0688 62.0452 59.0118 61.9147 58.9874 61.717C59.1867 61.6617 59.3819 61.6063 59.5811 61.551C60.1992 61.381 60.8417 61.207 61.4638 60.9737C63.7531 60.1198 65.3512 58.6688 66.2092 56.6722C66.6686 55.5968 66.8476 54.4819 66.9574 53.5291C66.9818 53.3314 67.0468 53.1772 67.1769 53.0309C67.9211 52.1848 68.2992 51.2201 68.2952 50.1645C68.2952 49.2315 68.2952 48.2944 68.2952 47.3614C68.2952 45.5506 68.2992 43.7399 68.287 41.9291C68.2748 40.1816 67.368 38.8136 65.5098 37.7462L65.4854 37.082C65.4447 35.8959 65.404 34.6742 65.278 33.4644C65.0665 31.4441 64.298 29.4317 62.9887 27.4905C60.5774 23.9124 57.2186 21.6589 53.0059 20.7891C52.6196 20.71 52.2415 20.6665 51.8714 20.627C51.7047 20.6072 51.5339 20.5914 51.3672 20.5677C51.3184 20.5597 51.2696 20.5518 51.2208 20.54L51.1192 20.5202L49.0372 20.5044L48.9152 20.5123C48.7282 20.54 48.5411 20.5637 48.35 20.5874C47.9149 20.6428 47.4676 20.7021 47.0163 20.8009C42.7019 21.7696 39.2985 24.1457 36.9034 27.8621C35.5209 30.0089 34.7889 32.4918 34.667 35.4531C34.6344 36.224 34.6344 37.0029 34.6304 37.7541C33.4308 38.3748 32.5525 39.3553 32.0157 40.6679C31.91 40.9209 31.8572 41.17 31.8572 41.4072V42.024C31.849 44.8587 31.845 47.7884 31.8694 50.6706C31.8734 51.1648 32.0971 51.6076 32.3044 51.9871C33.0933 53.4184 34.1993 54.3119 35.59 54.6519C36.078 54.7705 36.5578 54.8021 37.0213 54.8298C37.1555 54.8377 37.2938 54.8456 37.428 54.8575C38.2046 56.6801 39.4164 58.4355 41.2218 60.353C41.2259 60.357 41.2299 60.3609 41.234 60.3649C41.2218 60.5428 41.2178 60.7207 41.2137 60.8986C41.2096 61.1516 41.2015 61.3889 41.1649 61.5984C41.1324 61.7961 41.047 62.0056 40.9372 62.1598C40.3842 62.9506 39.6034 63.5673 38.839 64.1169C36.757 65.6153 34.362 66.9437 31.0764 68.4263C30.0395 68.8929 28.966 69.3436 27.9291 69.7785C27.3192 70.0354 26.7133 70.2885 26.1074 70.5494C25.1071 70.9804 24.3996 71.6327 23.997 72.4946C23.7815 72.9532 23.6676 73.3407 23.6311 73.7123C23.5701 74.3212 23.5457 74.9696 23.5538 75.701C23.5701 76.8515 24.2654 77.6976 24.7249 78.259C25.4975 79.2 26.5466 79.3462 27.3761 79.37L27.7624 79.3818C28.6367 79.4056 29.5109 79.4293 30.3852 79.457C30.4746 79.457 30.5681 79.4688 30.6576 79.4767L73.5407 79.4925L73.8822 79.2909C73.9636 79.2395 74.0449 79.1921 74.1303 79.1486C74.7646 78.8402 75.3217 78.3737 75.8341 77.7213C76.3952 77.0057 76.4969 76.1913 76.5253 75.5666C76.5375 75.3175 76.5416 75.0724 76.5457 74.8233L76.5538 74.4398C76.5945 72.8188 75.8341 71.5378 74.358 70.7352L74.3702 70.7432ZM71.6255 75.4322C70.2958 75.4638 68.9254 75.4994 67.5795 75.4994C56.873 75.5112 46.1664 75.5112 35.464 75.5073C33.6341 75.5073 31.7758 75.4875 29.9745 75.4717L28.3317 75.4559C28.1528 75.4559 27.9738 75.4401 27.7909 75.4282C27.7705 75.4282 27.7461 75.4282 27.7258 75.4243C27.738 75.017 27.7502 74.6177 27.7787 74.2224C28.2585 74.0207 28.7424 73.823 29.2222 73.6253C30.007 73.3051 30.8162 72.973 31.6091 72.6211C35.7567 70.7827 38.9732 68.9601 41.7342 66.8844C43.0028 65.9316 43.9178 65.0183 44.6172 64.0141C45.0848 63.342 45.3206 62.6105 45.3206 61.8435C45.3206 60.9975 45.3044 60.1158 45.2718 59.1551C45.2596 58.7439 44.9831 58.4276 44.8937 58.3248C44.6456 58.0401 44.3935 57.7634 44.1373 57.4866C43.6169 56.9173 43.1289 56.3836 42.6938 55.8024C42.1571 55.0868 41.726 54.2723 41.2991 53.4342C41.0348 52.9202 41.0226 52.2797 41.0104 51.6076V51.3269C40.9778 50.2594 40.9778 49.1642 40.9819 48.1086V47.9782C40.9819 47.3377 40.9819 46.6972 40.9819 46.0567C40.9819 44.1945 40.9738 42.2652 41.0104 40.3753V40.0788C41.0388 38.8097 41.0632 37.4971 41.295 36.2794C41.8114 33.587 43.4623 31.9185 46.203 31.3176C49.0901 30.685 51.8511 30.7206 54.4169 31.4243C56.9949 32.132 58.4913 33.8242 58.9956 36.5917C59.0606 36.9475 59.0647 37.335 59.0688 37.7699C59.081 42.8463 59.0891 47.9228 59.0891 52.9953C59.0891 53.0072 59.081 53.0467 59.0525 53.106C58.3856 54.6242 57.426 56.0238 56.1126 57.3759C55.9987 57.4945 55.8889 57.6132 55.7791 57.7318C55.6368 57.886 55.4904 58.0441 55.34 58.1904C54.8439 58.2062 54.3641 58.2062 53.9046 58.1904C53.7744 58.0718 53.6525 57.9453 53.5264 57.8187C53.2906 57.5776 53.0506 57.3285 52.7497 57.1071C51.3713 56.0752 49.7163 56.0712 48.3175 57.0913C47.1423 57.9492 46.5405 58.9179 46.4836 60.0407C46.4023 61.5905 47.1464 62.824 48.6916 63.7096C50.0741 64.5004 51.4851 64.4134 52.7701 63.4606C53.197 63.1403 53.5427 62.7647 53.872 62.401L53.9371 62.3259C53.9656 62.2942 53.9859 62.2745 54.0022 62.2587C54.2705 62.2429 54.543 62.2231 54.8154 62.2033C54.8235 62.2626 54.8317 62.3259 54.8398 62.3891C54.9862 63.2708 55.4782 63.9745 55.8889 64.4885C57.0153 65.8921 58.3937 66.9319 59.5933 67.7661C62.3259 69.6638 65.4813 71.3441 69.5191 73.0442C70.3812 73.4079 71.3164 73.7914 72.3858 74.2184V74.2698C72.4102 74.6612 72.4306 75.0368 72.4346 75.4084L71.6214 75.4282L71.6255 75.4322ZM53.929 27.2374C50.9728 26.7314 48.163 26.7828 45.5809 27.3956C43.2956 27.9372 41.4251 28.9612 39.9938 30.4557C40.2134 30.0287 40.4696 29.6136 40.7583 29.2063C42.706 26.4625 45.3654 24.9048 48.6672 24.5806C49.1511 24.5331 49.6309 24.5094 50.0985 24.5094C54.4657 24.5094 58.0318 26.5574 60.0609 30.2738C58.41 28.6726 56.3525 27.6526 53.933 27.2374H53.929ZM63.3953 50.809V41.3044C63.6311 41.344 63.8629 41.3835 64.0906 41.427V41.4665C64.1475 41.8105 64.1923 42.1347 64.1923 42.4431C64.2045 44.8429 64.2004 47.2428 64.1923 49.6426C64.1923 49.7494 64.1801 49.8601 64.1719 49.9668C64.1597 50.121 64.1475 50.2792 64.1475 50.4334C64.1475 50.5006 64.1475 50.5401 63.9686 50.631C63.7978 50.718 63.6027 50.7694 63.3912 50.805L63.3953 50.809ZM36.8302 41.3005C36.8302 43.7755 36.8302 46.2504 36.8262 48.7254V50.7655C36.5944 50.7417 36.3707 50.718 36.1552 50.6745C36.1146 50.6666 36.0902 50.6587 36.0861 50.6587C36.0861 50.6587 36.0698 50.6034 36.0698 50.5401C36.0129 47.3416 35.9763 44.7125 35.9519 42.2652C35.9519 42.0477 36.0088 41.7907 36.078 41.5061C36.1024 41.4112 36.1308 41.3835 36.2284 41.3677C36.4195 41.3361 36.6188 41.3163 36.8302 41.3005Z" fill="#0073FF"/>
</g>
</g>
<defs>
<clipPath id="clip0_199_31382">
<rect width="100" height="100" fill="white" transform="translate(0 0.000488281)"/>
</clipPath>
<clipPath id="clip1_199_31382">
<rect width="53" height="59" fill="white" transform="translate(23.5701 20.5005)"/>
</clipPath>
</defs>
</svg>
