<svg width="518" height="348" viewBox="0 0 518 348" fill="none" xmlns="http://www.w3.org/2000/svg">
<g filter="url(#filter0_d_199_31132)">
<path d="M141.16 86.9905C141.16 88.3405 140.07 89.4305 138.72 89.4305C137.37 89.4305 136.28 88.3405 136.28 86.9905C136.28 85.6405 137.37 84.5505 138.72 84.5505C140.07 84.5505 141.16 85.6405 141.16 86.9905Z" fill="url(#paint0_linear_199_31132)"/>
</g>
<g filter="url(#filter1_d_199_31132)">
<path d="M9.69 248.03C11.0376 248.03 12.13 246.938 12.13 245.59C12.13 244.243 11.0376 243.15 9.69 243.15C8.34243 243.15 7.25 244.243 7.25 245.59C7.25 246.938 8.34243 248.03 9.69 248.03Z" fill="url(#paint1_linear_199_31132)"/>
</g>
<g filter="url(#filter2_d_199_31132)">
<path d="M452.86 290.28C454.208 290.28 455.3 289.188 455.3 287.84C455.3 286.493 454.208 285.4 452.86 285.4C451.512 285.4 450.42 286.493 450.42 287.84C450.42 289.188 451.512 290.28 452.86 290.28Z" fill="url(#paint2_linear_199_31132)"/>
</g>
<g filter="url(#filter3_d_199_31132)">
<path d="M511.48 149.5C511.48 150.85 510.39 151.94 509.04 151.94C507.69 151.94 506.6 150.85 506.6 149.5C506.6 148.15 507.69 147.06 509.04 147.06C510.39 147.06 511.48 148.15 511.48 149.5Z" fill="url(#paint3_linear_199_31132)"/>
</g>
<g filter="url(#filter4_d_199_31132)">
<path d="M260.43 8.4505C260.43 9.8005 259.34 10.8905 257.99 10.8905C256.64 10.8905 255.55 9.8005 255.55 8.4505C255.55 7.1005 256.64 6.0105 257.99 6.0105C259.34 6.0105 260.43 7.1005 260.43 8.4505Z" fill="url(#paint4_linear_199_31132)"/>
</g>
<g filter="url(#filter5_d_199_31132)">
<path d="M275.1 130.71C275.1 131.18 274.72 131.56 274.25 131.56C273.78 131.56 273.4 131.18 273.4 130.71C273.4 130.24 273.78 129.86 274.25 129.86C274.72 129.86 275.1 130.24 275.1 130.71Z" fill="url(#paint5_linear_199_31132)"/>
</g>
<g filter="url(#filter6_d_199_31132)">
<path d="M433.98 46.0705C433.98 46.5405 433.6 46.9205 433.13 46.9205C432.66 46.9205 432.28 46.5405 432.28 46.0705C432.28 45.6005 432.66 45.2205 433.13 45.2205C433.6 45.2205 433.98 45.6005 433.98 46.0705Z" fill="url(#paint6_linear_199_31132)"/>
</g>
<g filter="url(#filter7_d_199_31132)">
<path d="M9.68999 135.011C9.68999 135.481 9.30999 135.861 8.83999 135.861C8.36999 135.861 7.98999 135.481 7.98999 135.011C7.98999 134.541 8.36999 134.161 8.83999 134.161C9.30999 134.161 9.68999 134.541 9.68999 135.011Z" fill="url(#paint7_linear_199_31132)"/>
</g>
<g filter="url(#filter8_d_199_31132)">
<path d="M121.48 198.48C123.391 198.48 124.94 196.931 124.94 195.02C124.94 193.11 123.391 191.56 121.48 191.56C119.569 191.56 118.02 193.11 118.02 195.02C118.02 196.931 119.569 198.48 121.48 198.48Z" fill="url(#paint8_linear_199_31132)"/>
</g>
<g filter="url(#filter9_d_199_31132)">
<path d="M368.37 169.2C370.281 169.2 371.83 167.651 371.83 165.74C371.83 163.83 370.281 162.28 368.37 162.28C366.459 162.28 364.91 163.83 364.91 165.74C364.91 167.651 366.459 169.2 368.37 169.2Z" fill="url(#paint9_linear_199_31132)"/>
</g>
<g filter="url(#filter10_d_199_31132)">
<path d="M141.16 338.86C143.071 338.86 144.62 337.311 144.62 335.4C144.62 333.49 143.071 331.94 141.16 331.94C139.249 331.94 137.7 333.49 137.7 335.4C137.7 337.311 139.249 338.86 141.16 338.86Z" fill="url(#paint10_linear_199_31132)"/>
</g>
<g opacity="0.15" filter="url(#filter11_d_199_31132)">
<path d="M9.69 135.011L138.72 86.9805L274.25 130.701L121.47 195.01L141.15 335.401L7.25 245.59L138.72 86.9905L121.48 195.021L368.37 165.751M368.37 165.751L452.86 287.841L141.16 335.411L509.05 149.51L433.14 46.9305L368.37 165.751ZM368.37 165.751L274.25 130.721L257.99 8.46051C257.99 8.46051 139.12 84.1405 138.92 85.5705C138.72 87.0005 433.13 46.9305 433.13 46.9305" stroke="url(#paint11_linear_199_31132)" stroke-miterlimit="10"/>
</g>
<circle cx="260.43" cy="177.96" r="160.9" fill="url(#paint12_radial_199_31132)"/>
<circle cx="260.43" cy="177.96" r="160.9" fill="url(#paint13_radial_199_31132)"/>
<g filter="url(#filter12_d_199_31132)">
<path d="M269.11 233.786C261.145 224.964 250.932 229.118 239.806 227.56L221.682 180.165C221.682 180.165 228.433 176.536 245.304 174.444C246.562 174.289 247.766 174.202 248.917 174.172C263.175 173.828 269.11 182.587 269.11 182.587V205.767C269.11 205.767 277.074 242.608 269.11 233.786Z" fill="url(#paint14_linear_199_31132)"/>
<path d="M269.11 182.587V197.154C268.945 196.877 268.77 196.465 268.59 195.907C266.177 188.439 254.215 182.16 248.917 174.172C263.175 173.828 269.11 182.587 269.11 182.587Z" fill="url(#paint15_linear_199_31132)"/>
<path d="M319.325 249.217C308.786 261.605 285.612 265.924 284.713 262.096C283.761 258.029 264.409 236.295 262.588 227.041C260.771 217.787 260.368 217.612 261.665 204.729C262.966 191.841 265.472 186.309 262.966 183.023C260.456 179.733 255.522 178.525 250.932 172.299C246.397 166.137 248.893 158.95 250.286 158.474L250.33 158.46C250.966 158.3 254.813 160.687 259.606 163.851C265.225 167.563 272.145 172.338 276.725 175.322C285.209 180.859 282.455 189.375 284.398 199.566C286.267 209.373 304.595 226.599 319.388 244.753C320.456 246.063 320.417 247.931 319.325 249.217Z" fill="url(#paint16_linear_199_31132)"/>
<path d="M263.569 190.608C259.722 200.541 260.252 219.597 261.32 218.709C262.389 217.821 263.569 190.608 263.569 190.608Z" fill="url(#paint17_linear_199_31132)"/>
<path d="M242.521 151.977C235.509 139.385 241.05 118.13 255.959 114.627C256.1 114.593 256.24 114.559 256.386 114.53C255.089 123.352 264.486 138.312 242.521 151.977Z" fill="url(#paint18_linear_199_31132)"/>
<path d="M239.015 144.591C214.913 153.996 208.541 137.516 200.693 133.275C212.373 122.997 233.056 131.315 239.015 144.591Z" fill="url(#paint19_linear_199_31132)"/>
<path d="M219.857 96.2795C233.629 124.817 248.441 171.47 257.309 190.608C266.172 209.746 272.388 218.738 272.388 218.738" stroke="url(#paint20_linear_199_31132)" stroke-width="3" stroke-miterlimit="10" stroke-linecap="round"/>
<path d="M242.521 151.977C240.171 139.588 248.446 121.624 255.959 114.627C256.099 114.593 256.24 114.559 256.386 114.53C255.089 123.352 264.486 138.312 242.521 151.977Z" fill="url(#paint21_linear_199_31132)"/>
<path d="M239.015 144.591C214.913 153.996 208.541 137.516 200.693 133.275C212.072 131.873 224.164 132.717 239.015 144.591Z" fill="url(#paint22_linear_199_31132)"/>
<path d="M232.095 124.992C230.711 120.494 239.802 116.291 233.974 103.951" stroke="url(#paint23_linear_199_31132)" stroke-width="3" stroke-miterlimit="10" stroke-linecap="round"/>
<path d="M233.338 103.951C234.389 103.951 235.242 103.1 235.242 102.049C235.242 100.999 234.389 100.147 233.338 100.147C232.286 100.147 231.434 100.999 231.434 102.049C231.434 103.1 232.286 103.951 233.338 103.951Z" stroke="url(#paint24_linear_199_31132)" stroke-width="3" stroke-miterlimit="10" stroke-linecap="round"/>
<path d="M219.39 96.2795C220.442 96.2795 221.294 95.4278 221.294 94.3773C221.294 93.3267 220.442 92.4751 219.39 92.4751C218.339 92.4751 217.487 93.3267 217.487 94.3773C217.487 95.4278 218.339 96.2795 219.39 96.2795Z" stroke="url(#paint25_linear_199_31132)" stroke-width="3" stroke-miterlimit="10" stroke-linecap="round"/>
<path d="M226.379 110.857C226.379 110.857 219.662 113.807 217.758 111.444C215.855 109.081 213.66 105.276 213.66 105.276" stroke="url(#paint26_linear_199_31132)" stroke-width="3" stroke-miterlimit="10" stroke-linecap="round"/>
<path d="M212.718 105.276C213.769 105.276 214.621 104.424 214.621 103.374C214.621 102.323 213.769 101.472 212.718 101.472C211.666 101.472 210.814 102.323 210.814 103.374C210.814 104.424 211.666 105.276 212.718 105.276Z" stroke="url(#paint27_linear_199_31132)" stroke-width="3" stroke-miterlimit="10" stroke-linecap="round"/>
<path d="M281.746 214.55C280.823 221.048 271.936 229.234 272.397 229.695C272.859 230.156 280.935 225.119 281.746 214.55Z" fill="url(#paint28_linear_199_31132)"/>
<path d="M259.606 163.851C257.358 166.292 252.19 162.876 250.287 158.474L250.33 158.46C250.967 158.3 254.813 160.687 259.606 163.851Z" fill="url(#paint29_linear_199_31132)"/>
<path d="M236.48 182.417C220.293 193.66 217.355 195.3 217.355 195.3C213.436 194.878 210.697 193.131 209.517 190.666C208.293 188.123 208.74 184.804 211.295 181.378C214.777 176.701 229.215 169.771 238.107 165.85C242.031 164.123 244.876 162.978 245.221 162.871C245.571 162.764 246.416 163.516 246.936 164.938C247.139 165.491 247.295 166.141 247.353 166.889C247.625 170.426 245.717 175.997 236.48 182.417Z" fill="url(#paint30_linear_199_31132)"/>
<path d="M236.48 182.417C220.294 193.66 217.355 195.3 217.355 195.3C213.436 194.878 210.697 193.131 209.517 190.666C223.824 188.06 245.921 174.614 247.353 166.889C247.625 170.426 245.717 175.997 236.48 182.417Z" fill="url(#paint31_linear_199_31132)"/>
<path d="M241.749 194.621C226.481 207.077 223.674 208.946 223.674 208.946C220.167 208.839 217.511 207.616 216.001 205.68C214.073 203.191 214.039 199.527 216.559 195.528C219.643 190.637 233.299 182.708 241.88 178.098C245.77 176.007 248.611 174.599 248.956 174.464C249.32 174.318 250.34 175.128 250.966 176.739C251.258 177.487 251.467 178.404 251.481 179.476C251.549 183.019 249.553 188.254 241.749 194.621Z" fill="url(#paint32_linear_199_31132)"/>
<path d="M241.749 194.621C226.481 207.078 223.674 208.946 223.674 208.946C220.167 208.839 217.511 207.616 216.001 205.68C227.287 205.03 247.902 190.225 251.481 179.476C251.549 183.019 249.553 188.254 241.749 194.621Z" fill="url(#paint33_linear_199_31132)"/>
<path d="M247.839 207.005C233.561 218.651 232.07 219.956 232.07 219.956C228.282 219.84 225.257 218.442 223.742 216.229C222.26 214.07 222.212 211.134 224.281 207.849C227.311 203.045 241.244 195.111 249.126 190.928C252.156 189.317 254.293 188.259 254.575 188.148C254.934 188.007 255.968 188.851 256.537 190.511C256.629 190.758 256.702 191.025 256.765 191.312C257.474 194.538 256.357 200.051 247.839 207.005Z" fill="url(#paint34_linear_199_31132)"/>
<path d="M247.839 207.005C233.561 218.651 232.07 219.956 232.07 219.956C228.282 219.84 225.257 218.442 223.742 216.229C236.878 215.763 253.137 200.022 256.765 191.312C257.474 194.538 256.357 200.051 247.839 207.005Z" fill="url(#paint35_linear_199_31132)"/>
<path d="M252.957 216.157C248.373 221.155 245.566 224.168 243.847 225.988C241.491 228.487 237.815 229.389 234.668 228.04C234.639 228.031 234.615 228.016 234.586 228.006C231.657 226.721 230.273 224.003 232.07 219.956C234.027 215.565 244.211 207.456 250.811 202.555C253.929 200.24 256.25 198.644 256.522 198.484C256.77 198.343 257.518 198.741 258.183 199.677C258.338 199.896 258.489 200.148 258.63 200.429C259.936 203.06 260.15 208.315 252.957 216.157Z" fill="url(#paint36_linear_199_31132)"/>
<path d="M252.958 216.157C248.373 221.155 245.566 224.168 243.847 225.988C241.492 228.487 237.815 229.389 234.668 228.04C245.556 226.245 257.828 210.945 258.63 200.43C259.936 203.06 260.15 208.315 252.958 216.157Z" fill="url(#paint37_linear_199_31132)"/>
<path d="M246.936 164.938C246.027 169.334 240.341 170.368 240.341 170.368C240.341 170.368 238.398 168.742 238.107 165.85C242.031 164.123 244.877 162.978 245.221 162.871C245.571 162.764 246.416 163.516 246.936 164.938Z" fill="url(#paint38_linear_199_31132)"/>
<path d="M250.966 176.739C249.194 181.374 244.532 182.475 244.532 182.475L241.88 178.098C245.77 176.007 248.611 174.599 248.956 174.464C249.32 174.318 250.34 175.128 250.966 176.739Z" fill="url(#paint39_linear_199_31132)"/>
<path d="M256.537 190.511C255.434 192.69 252.987 194.417 250.966 195.3C250.131 194.014 249.451 191.996 249.126 190.928C252.156 189.317 254.293 188.259 254.575 188.148C254.934 188.007 255.968 188.851 256.537 190.511Z" fill="url(#paint40_linear_199_31132)"/>
<path d="M258.183 199.677C257.79 204.312 253.875 206.631 253.875 206.631C253.875 206.631 251.768 205.064 250.811 202.555C253.929 200.24 256.25 198.644 256.522 198.484C256.77 198.343 257.518 198.741 258.183 199.677Z" fill="url(#paint41_linear_199_31132)"/>
</g>
<defs>
<filter id="filter0_d_199_31132" x="132.28" y="80.5505" width="12.88" height="12.88" filterUnits="userSpaceOnUse" color-interpolation-filters="sRGB">
<feFlood flood-opacity="0" result="BackgroundImageFix"/>
<feColorMatrix in="SourceAlpha" type="matrix" values="0 0 0 0 0 0 0 0 0 0 0 0 0 0 0 0 0 0 127 0" result="hardAlpha"/>
<feOffset/>
<feGaussianBlur stdDeviation="2"/>
<feColorMatrix type="matrix" values="0 0 0 0 0 0 0 0 0 0.717647 0 0 0 0 1 0 0 0 1 0"/>
<feBlend mode="normal" in2="BackgroundImageFix" result="effect1_dropShadow_199_31132"/>
<feBlend mode="normal" in="SourceGraphic" in2="effect1_dropShadow_199_31132" result="shape"/>
</filter>
<filter id="filter1_d_199_31132" x="3.25" y="239.15" width="12.88" height="12.88" filterUnits="userSpaceOnUse" color-interpolation-filters="sRGB">
<feFlood flood-opacity="0" result="BackgroundImageFix"/>
<feColorMatrix in="SourceAlpha" type="matrix" values="0 0 0 0 0 0 0 0 0 0 0 0 0 0 0 0 0 0 127 0" result="hardAlpha"/>
<feOffset/>
<feGaussianBlur stdDeviation="2"/>
<feColorMatrix type="matrix" values="0 0 0 0 0 0 0 0 0 0.717647 0 0 0 0 1 0 0 0 1 0"/>
<feBlend mode="normal" in2="BackgroundImageFix" result="effect1_dropShadow_199_31132"/>
<feBlend mode="normal" in="SourceGraphic" in2="effect1_dropShadow_199_31132" result="shape"/>
</filter>
<filter id="filter2_d_199_31132" x="446.42" y="281.4" width="12.88" height="12.88" filterUnits="userSpaceOnUse" color-interpolation-filters="sRGB">
<feFlood flood-opacity="0" result="BackgroundImageFix"/>
<feColorMatrix in="SourceAlpha" type="matrix" values="0 0 0 0 0 0 0 0 0 0 0 0 0 0 0 0 0 0 127 0" result="hardAlpha"/>
<feOffset/>
<feGaussianBlur stdDeviation="2"/>
<feColorMatrix type="matrix" values="0 0 0 0 0 0 0 0 0 0.717647 0 0 0 0 1 0 0 0 1 0"/>
<feBlend mode="normal" in2="BackgroundImageFix" result="effect1_dropShadow_199_31132"/>
<feBlend mode="normal" in="SourceGraphic" in2="effect1_dropShadow_199_31132" result="shape"/>
</filter>
<filter id="filter3_d_199_31132" x="502.6" y="143.06" width="12.88" height="12.88" filterUnits="userSpaceOnUse" color-interpolation-filters="sRGB">
<feFlood flood-opacity="0" result="BackgroundImageFix"/>
<feColorMatrix in="SourceAlpha" type="matrix" values="0 0 0 0 0 0 0 0 0 0 0 0 0 0 0 0 0 0 127 0" result="hardAlpha"/>
<feOffset/>
<feGaussianBlur stdDeviation="2"/>
<feColorMatrix type="matrix" values="0 0 0 0 0 0 0 0 0 0.717647 0 0 0 0 1 0 0 0 1 0"/>
<feBlend mode="normal" in2="BackgroundImageFix" result="effect1_dropShadow_199_31132"/>
<feBlend mode="normal" in="SourceGraphic" in2="effect1_dropShadow_199_31132" result="shape"/>
</filter>
<filter id="filter4_d_199_31132" x="251.55" y="2.0105" width="12.88" height="12.88" filterUnits="userSpaceOnUse" color-interpolation-filters="sRGB">
<feFlood flood-opacity="0" result="BackgroundImageFix"/>
<feColorMatrix in="SourceAlpha" type="matrix" values="0 0 0 0 0 0 0 0 0 0 0 0 0 0 0 0 0 0 127 0" result="hardAlpha"/>
<feOffset/>
<feGaussianBlur stdDeviation="2"/>
<feColorMatrix type="matrix" values="0 0 0 0 0 0 0 0 0 0.717647 0 0 0 0 1 0 0 0 1 0"/>
<feBlend mode="normal" in2="BackgroundImageFix" result="effect1_dropShadow_199_31132"/>
<feBlend mode="normal" in="SourceGraphic" in2="effect1_dropShadow_199_31132" result="shape"/>
</filter>
<filter id="filter5_d_199_31132" x="272" y="128.46" width="4.50001" height="4.50001" filterUnits="userSpaceOnUse" color-interpolation-filters="sRGB">
<feFlood flood-opacity="0" result="BackgroundImageFix"/>
<feColorMatrix in="SourceAlpha" type="matrix" values="0 0 0 0 0 0 0 0 0 0 0 0 0 0 0 0 0 0 127 0" result="hardAlpha"/>
<feOffset/>
<feGaussianBlur stdDeviation="0.7"/>
<feColorMatrix type="matrix" values="0 0 0 0 0 0 0 0 0 0.717647 0 0 0 0 1 0 0 0 1 0"/>
<feBlend mode="normal" in2="BackgroundImageFix" result="effect1_dropShadow_199_31132"/>
<feBlend mode="normal" in="SourceGraphic" in2="effect1_dropShadow_199_31132" result="shape"/>
</filter>
<filter id="filter6_d_199_31132" x="430.88" y="43.8205" width="4.49998" height="4.50001" filterUnits="userSpaceOnUse" color-interpolation-filters="sRGB">
<feFlood flood-opacity="0" result="BackgroundImageFix"/>
<feColorMatrix in="SourceAlpha" type="matrix" values="0 0 0 0 0 0 0 0 0 0 0 0 0 0 0 0 0 0 127 0" result="hardAlpha"/>
<feOffset/>
<feGaussianBlur stdDeviation="0.7"/>
<feColorMatrix type="matrix" values="0 0 0 0 0 0 0 0 0 0.717647 0 0 0 0 1 0 0 0 1 0"/>
<feBlend mode="normal" in2="BackgroundImageFix" result="effect1_dropShadow_199_31132"/>
<feBlend mode="normal" in="SourceGraphic" in2="effect1_dropShadow_199_31132" result="shape"/>
</filter>
<filter id="filter7_d_199_31132" x="6.58999" y="132.761" width="4.5" height="4.50001" filterUnits="userSpaceOnUse" color-interpolation-filters="sRGB">
<feFlood flood-opacity="0" result="BackgroundImageFix"/>
<feColorMatrix in="SourceAlpha" type="matrix" values="0 0 0 0 0 0 0 0 0 0 0 0 0 0 0 0 0 0 127 0" result="hardAlpha"/>
<feOffset/>
<feGaussianBlur stdDeviation="0.7"/>
<feColorMatrix type="matrix" values="0 0 0 0 0 0 0 0 0 0.717647 0 0 0 0 1 0 0 0 1 0"/>
<feBlend mode="normal" in2="BackgroundImageFix" result="effect1_dropShadow_199_31132"/>
<feBlend mode="normal" in="SourceGraphic" in2="effect1_dropShadow_199_31132" result="shape"/>
</filter>
<filter id="filter8_d_199_31132" x="112.34" y="185.88" width="18.28" height="18.28" filterUnits="userSpaceOnUse" color-interpolation-filters="sRGB">
<feFlood flood-opacity="0" result="BackgroundImageFix"/>
<feColorMatrix in="SourceAlpha" type="matrix" values="0 0 0 0 0 0 0 0 0 0 0 0 0 0 0 0 0 0 127 0" result="hardAlpha"/>
<feOffset/>
<feGaussianBlur stdDeviation="2.84"/>
<feColorMatrix type="matrix" values="0 0 0 0 0 0 0 0 0 0.717647 0 0 0 0 1 0 0 0 1 0"/>
<feBlend mode="normal" in2="BackgroundImageFix" result="effect1_dropShadow_199_31132"/>
<feBlend mode="normal" in="SourceGraphic" in2="effect1_dropShadow_199_31132" result="shape"/>
</filter>
<filter id="filter9_d_199_31132" x="359.23" y="156.6" width="18.28" height="18.28" filterUnits="userSpaceOnUse" color-interpolation-filters="sRGB">
<feFlood flood-opacity="0" result="BackgroundImageFix"/>
<feColorMatrix in="SourceAlpha" type="matrix" values="0 0 0 0 0 0 0 0 0 0 0 0 0 0 0 0 0 0 127 0" result="hardAlpha"/>
<feOffset/>
<feGaussianBlur stdDeviation="2.84"/>
<feColorMatrix type="matrix" values="0 0 0 0 0 0 0 0 0 0.717647 0 0 0 0 1 0 0 0 1 0"/>
<feBlend mode="normal" in2="BackgroundImageFix" result="effect1_dropShadow_199_31132"/>
<feBlend mode="normal" in="SourceGraphic" in2="effect1_dropShadow_199_31132" result="shape"/>
</filter>
<filter id="filter10_d_199_31132" x="132.02" y="326.26" width="18.28" height="18.28" filterUnits="userSpaceOnUse" color-interpolation-filters="sRGB">
<feFlood flood-opacity="0" result="BackgroundImageFix"/>
<feColorMatrix in="SourceAlpha" type="matrix" values="0 0 0 0 0 0 0 0 0 0 0 0 0 0 0 0 0 0 127 0" result="hardAlpha"/>
<feOffset/>
<feGaussianBlur stdDeviation="2.84"/>
<feColorMatrix type="matrix" values="0 0 0 0 0 0 0 0 0 0.717647 0 0 0 0 1 0 0 0 1 0"/>
<feBlend mode="normal" in2="BackgroundImageFix" result="effect1_dropShadow_199_31132"/>
<feBlend mode="normal" in="SourceGraphic" in2="effect1_dropShadow_199_31132" result="shape"/>
</filter>
<filter id="filter11_d_199_31132" x="2.51187" y="3.61798" width="511.293" height="336.821" filterUnits="userSpaceOnUse" color-interpolation-filters="sRGB">
<feFlood flood-opacity="0" result="BackgroundImageFix"/>
<feColorMatrix in="SourceAlpha" type="matrix" values="0 0 0 0 0 0 0 0 0 0 0 0 0 0 0 0 0 0 127 0" result="hardAlpha"/>
<feOffset/>
<feGaussianBlur stdDeviation="2"/>
<feColorMatrix type="matrix" values="0 0 0 0 0 0 0 0 0 0.717647 0 0 0 0 1 0 0 0 1 0"/>
<feBlend mode="normal" in2="BackgroundImageFix" result="effect1_dropShadow_199_31132"/>
<feBlend mode="normal" in="SourceGraphic" in2="effect1_dropShadow_199_31132" result="shape"/>
</filter>
<filter id="filter12_d_199_31132" x="168.693" y="58.9751" width="183.474" height="236.471" filterUnits="userSpaceOnUse" color-interpolation-filters="sRGB">
<feFlood flood-opacity="0" result="BackgroundImageFix"/>
<feColorMatrix in="SourceAlpha" type="matrix" values="0 0 0 0 0 0 0 0 0 0 0 0 0 0 0 0 0 0 127 0" result="hardAlpha"/>
<feOffset/>
<feGaussianBlur stdDeviation="16"/>
<feColorMatrix type="matrix" values="0 0 0 0 0 0 0 0 0 0.717647 0 0 0 0 1 0 0 0 0.83 0"/>
<feBlend mode="normal" in2="BackgroundImageFix" result="effect1_dropShadow_199_31132"/>
<feBlend mode="normal" in="SourceGraphic" in2="effect1_dropShadow_199_31132" result="shape"/>
</filter>
<linearGradient id="paint0_linear_199_31132" x1="143.17" y1="88.0905" x2="135.32" y2="86.1405" gradientUnits="userSpaceOnUse">
<stop stop-color="#CFFFFF"/>
<stop offset="1" stop-color="#38CDFE"/>
</linearGradient>
<linearGradient id="paint1_linear_199_31132" x1="14.14" y1="246.69" x2="6.29" y2="244.75" gradientUnits="userSpaceOnUse">
<stop stop-color="#CFFFFF"/>
<stop offset="1" stop-color="#38CDFE"/>
</linearGradient>
<linearGradient id="paint2_linear_199_31132" x1="457.31" y1="288.94" x2="449.46" y2="286.99" gradientUnits="userSpaceOnUse">
<stop stop-color="#CFFFFF"/>
<stop offset="1" stop-color="#38CDFE"/>
</linearGradient>
<linearGradient id="paint3_linear_199_31132" x1="513.49" y1="150.6" x2="505.64" y2="148.661" gradientUnits="userSpaceOnUse">
<stop stop-color="#CFFFFF"/>
<stop offset="1" stop-color="#38CDFE"/>
</linearGradient>
<linearGradient id="paint4_linear_199_31132" x1="262.44" y1="9.5505" x2="254.59" y2="7.61049" gradientUnits="userSpaceOnUse">
<stop stop-color="#CFFFFF"/>
<stop offset="1" stop-color="#38CDFE"/>
</linearGradient>
<linearGradient id="paint5_linear_199_31132" x1="275.8" y1="131.09" x2="273.07" y2="130.42" gradientUnits="userSpaceOnUse">
<stop stop-color="#CFFFFF"/>
<stop offset="1" stop-color="#38CDFE"/>
</linearGradient>
<linearGradient id="paint6_linear_199_31132" x1="434.69" y1="46.4605" x2="431.95" y2="45.7805" gradientUnits="userSpaceOnUse">
<stop stop-color="#CFFFFF"/>
<stop offset="1" stop-color="#38CDFE"/>
</linearGradient>
<linearGradient id="paint7_linear_199_31132" x1="10.39" y1="135.401" x2="7.65999" y2="134.721" gradientUnits="userSpaceOnUse">
<stop stop-color="#CFFFFF"/>
<stop offset="1" stop-color="#38CDFE"/>
</linearGradient>
<linearGradient id="paint8_linear_199_31132" x1="127.8" y1="196.59" x2="116.64" y2="193.82" gradientUnits="userSpaceOnUse">
<stop stop-color="#CFFFFF"/>
<stop offset="1" stop-color="#38CDFE"/>
</linearGradient>
<linearGradient id="paint9_linear_199_31132" x1="374.69" y1="167.31" x2="363.53" y2="164.55" gradientUnits="userSpaceOnUse">
<stop stop-color="#CFFFFF"/>
<stop offset="1" stop-color="#38CDFE"/>
</linearGradient>
<linearGradient id="paint10_linear_199_31132" x1="147.48" y1="336.97" x2="136.32" y2="334.21" gradientUnits="userSpaceOnUse">
<stop stop-color="#CFFFFF"/>
<stop offset="1" stop-color="#38CDFE"/>
</linearGradient>
<linearGradient id="paint11_linear_199_31132" x1="487.14" y1="241.121" x2="12.26" y2="123.451" gradientUnits="userSpaceOnUse">
<stop stop-color="#CFFFFF"/>
<stop offset="1" stop-color="#38CDFE"/>
</linearGradient>
<radialGradient id="paint12_radial_199_31132" cx="0" cy="0" r="1" gradientUnits="userSpaceOnUse" gradientTransform="translate(260.43 177.96) rotate(90) scale(160.9)">
<stop stop-color="#003167"/>
<stop offset="0.56" stop-color="#005ABC" stop-opacity="0.442748"/>
<stop offset="1" stop-color="#007AFF" stop-opacity="0"/>
</radialGradient>
<radialGradient id="paint13_radial_199_31132" cx="0" cy="0" r="1" gradientUnits="userSpaceOnUse" gradientTransform="translate(260.43 177.96) rotate(90) scale(160.9)">
<stop stop-color="#003167"/>
<stop offset="0.56" stop-color="#005ABC" stop-opacity="0.442748"/>
<stop offset="1" stop-color="#007AFF" stop-opacity="0"/>
</radialGradient>
<linearGradient id="paint14_linear_199_31132" x1="281.061" y1="214.303" x2="238.602" y2="197.213" gradientUnits="userSpaceOnUse">
<stop stop-color="#CFFFFF"/>
<stop offset="1" stop-color="#38CDFE"/>
</linearGradient>
<linearGradient id="paint15_linear_199_31132" x1="269.294" y1="168.975" x2="263.76" y2="177.976" gradientUnits="userSpaceOnUse">
<stop stop-color="#CFFFFF"/>
<stop offset="1" stop-color="#38CDFE"/>
</linearGradient>
<linearGradient id="paint16_linear_199_31132" x1="237.252" y1="148.313" x2="328.316" y2="296.433" gradientUnits="userSpaceOnUse">
<stop stop-color="#CFFFFF"/>
<stop offset="1" stop-color="#38CDFE"/>
</linearGradient>
<linearGradient id="paint17_linear_199_31132" x1="237.747" y1="158.671" x2="270.901" y2="220.696" gradientUnits="userSpaceOnUse">
<stop stop-color="#CFFFFF"/>
<stop offset="1" stop-color="#38CDFE"/>
</linearGradient>
<linearGradient id="paint18_linear_199_31132" x1="254.308" y1="111.283" x2="240.943" y2="162.716" gradientUnits="userSpaceOnUse">
<stop stop-color="#CFFFFF"/>
<stop offset="1" stop-color="#38CDFE"/>
</linearGradient>
<linearGradient id="paint19_linear_199_31132" x1="222.44" y1="129.01" x2="216.825" y2="150.611" gradientUnits="userSpaceOnUse">
<stop stop-color="#CFFFFF"/>
<stop offset="1" stop-color="#38CDFE"/>
</linearGradient>
<linearGradient id="paint20_linear_199_31132" x1="259.567" y1="105.849" x2="232.712" y2="209.179" gradientUnits="userSpaceOnUse">
<stop stop-color="#CFFFFF"/>
<stop offset="1" stop-color="#38A4FE"/>
</linearGradient>
<linearGradient id="paint21_linear_199_31132" x1="261.82" y1="136.313" x2="242.261" y2="131.463" gradientUnits="userSpaceOnUse">
<stop stop-color="#CFFFFF"/>
<stop offset="1" stop-color="#38CDFE"/>
</linearGradient>
<linearGradient id="paint22_linear_199_31132" x1="217.156" y1="149.851" x2="221.128" y2="133.764" gradientUnits="userSpaceOnUse">
<stop stop-color="#CFFFFF"/>
<stop offset="1" stop-color="#38CDFE"/>
</linearGradient>
<linearGradient id="paint23_linear_199_31132" x1="231.22" y1="114.472" x2="236.669" y2="114.472" gradientUnits="userSpaceOnUse">
<stop stop-color="#CFFFFF"/>
<stop offset="1" stop-color="#38CDFE"/>
</linearGradient>
<linearGradient id="paint24_linear_199_31132" x1="230.706" y1="102.049" x2="235.97" y2="102.049" gradientUnits="userSpaceOnUse">
<stop stop-color="#CFFFFF"/>
<stop offset="1" stop-color="#38CDFE"/>
</linearGradient>
<linearGradient id="paint25_linear_199_31132" x1="216.758" y1="94.3773" x2="222.023" y2="94.3773" gradientUnits="userSpaceOnUse">
<stop stop-color="#CFFFFF"/>
<stop offset="1" stop-color="#38CDFE"/>
</linearGradient>
<linearGradient id="paint26_linear_199_31132" x1="212.931" y1="108.818" x2="227.107" y2="108.818" gradientUnits="userSpaceOnUse">
<stop stop-color="#38CDFE"/>
<stop offset="1" stop-color="#CFFFFF"/>
</linearGradient>
<linearGradient id="paint27_linear_199_31132" x1="210.085" y1="103.374" x2="215.35" y2="103.374" gradientUnits="userSpaceOnUse">
<stop stop-color="#CFFFFF"/>
<stop offset="1" stop-color="#38CDFE"/>
</linearGradient>
<linearGradient id="paint28_linear_199_31132" x1="271.3" y1="201.662" x2="276.658" y2="220.691" gradientUnits="userSpaceOnUse">
<stop stop-color="#CFFFFF"/>
<stop offset="1" stop-color="#38CDFE"/>
</linearGradient>
<linearGradient id="paint29_linear_199_31132" x1="251.316" y1="165.098" x2="257.663" y2="158.212" gradientUnits="userSpaceOnUse">
<stop stop-color="#CFFFFF"/>
<stop offset="1" stop-color="#38CDFE"/>
</linearGradient>
<linearGradient id="paint30_linear_199_31132" x1="221.197" y1="159.091" x2="246.779" y2="227.423" gradientUnits="userSpaceOnUse">
<stop stop-color="#CFFFFF"/>
<stop offset="1" stop-color="#38CDFE"/>
</linearGradient>
<linearGradient id="paint31_linear_199_31132" x1="219.191" y1="165.239" x2="239.677" y2="195.437" gradientUnits="userSpaceOnUse">
<stop stop-color="#CFFFFF"/>
<stop offset="1" stop-color="#38CDFE"/>
</linearGradient>
<linearGradient id="paint32_linear_199_31132" x1="227.617" y1="177.986" x2="248.011" y2="224.869" gradientUnits="userSpaceOnUse">
<stop stop-color="#CFFFFF"/>
<stop offset="1" stop-color="#38CDFE"/>
</linearGradient>
<linearGradient id="paint33_linear_199_31132" x1="218.905" y1="172.882" x2="254.18" y2="219.779" gradientUnits="userSpaceOnUse">
<stop stop-color="#CFFFFF"/>
<stop offset="1" stop-color="#38CDFE"/>
</linearGradient>
<linearGradient id="paint34_linear_199_31132" x1="233.877" y1="190.855" x2="253.583" y2="230.3" gradientUnits="userSpaceOnUse">
<stop stop-color="#CFFFFF"/>
<stop offset="1" stop-color="#38CDFE"/>
</linearGradient>
<linearGradient id="paint35_linear_199_31132" x1="227.175" y1="184.261" x2="250.344" y2="218.871" gradientUnits="userSpaceOnUse">
<stop stop-color="#CFFFFF"/>
<stop offset="1" stop-color="#38CDFE"/>
</linearGradient>
<linearGradient id="paint36_linear_199_31132" x1="238.888" y1="193.951" x2="253.287" y2="237.35" gradientUnits="userSpaceOnUse">
<stop stop-color="#CFFFFF"/>
<stop offset="1" stop-color="#38CDFE"/>
</linearGradient>
<linearGradient id="paint37_linear_199_31132" x1="230.812" y1="186.857" x2="253.198" y2="225.615" gradientUnits="userSpaceOnUse">
<stop stop-color="#CFFFFF"/>
<stop offset="1" stop-color="#38CDFE"/>
</linearGradient>
<linearGradient id="paint38_linear_199_31132" x1="244.163" y1="148.284" x2="241.05" y2="180.801" gradientUnits="userSpaceOnUse">
<stop stop-color="#CFFFFF"/>
<stop offset="1" stop-color="#38CDFE"/>
</linearGradient>
<linearGradient id="paint39_linear_199_31132" x1="248.13" y1="155.175" x2="245.192" y2="193.573" gradientUnits="userSpaceOnUse">
<stop stop-color="#CFFFFF"/>
<stop offset="1" stop-color="#38CDFE"/>
</linearGradient>
<linearGradient id="paint40_linear_199_31132" x1="253.103" y1="168.568" x2="252.584" y2="210.945" gradientUnits="userSpaceOnUse">
<stop stop-color="#CFFFFF"/>
<stop offset="1" stop-color="#38CDFE"/>
</linearGradient>
<linearGradient id="paint41_linear_199_31132" x1="255.371" y1="181.888" x2="253.815" y2="216.312" gradientUnits="userSpaceOnUse">
<stop stop-color="#CFFFFF"/>
<stop offset="1" stop-color="#38CDFE"/>
</linearGradient>
</defs>
</svg>
