<svg width="24" height="24" viewBox="0 0 24 24" fill="none" xmlns="http://www.w3.org/2000/svg">
<g clip-path="url(#clip0_4014_12374)">
<circle cx="12" cy="12" r="12" fill="#F2F2F2"/>
<g clip-path="url(#clip1_4014_12374)">
<path d="M12.459 14.2949L10.6229 16.131C10.6229 16.131 10.6229 16.131 10.6229 16.131C10.6229 16.131 10.6229 16.1311 10.6228 16.1311C9.86357 16.8904 8.62808 16.8904 7.86873 16.1311C7.50087 15.7632 7.29833 15.2741 7.29833 14.754C7.29833 14.2339 7.50087 13.7449 7.8686 13.377C7.86864 13.377 7.86869 13.3769 7.86873 13.3769L9.70479 11.5408C9.95827 11.2873 9.95827 10.8762 9.70475 10.6227C9.45127 10.3692 9.04022 10.3692 8.7867 10.6227L6.95064 12.4588C6.95051 12.459 6.95038 12.4591 6.95025 12.4593C6.33748 13.0722 6 13.8872 6 14.754C6 15.621 6.33761 16.436 6.95068 17.0491C7.58349 17.6819 8.41464 17.9983 9.24583 17.9983C10.077 17.9983 10.9082 17.6819 11.5409 17.0491C11.541 17.0491 11.541 17.049 11.541 17.049L13.377 15.2129C13.6305 14.9595 13.6305 14.5484 13.377 14.2949C13.1236 14.0414 12.7125 14.0414 12.459 14.2949Z" fill="black"/>
<path d="M18.0009 9.24574C18.0009 8.37876 17.6632 7.56367 17.0502 6.95059C15.7846 5.68507 13.7254 5.68511 12.4599 6.95059C12.4599 6.95068 12.4598 6.95072 12.4597 6.95081L10.6237 8.78678C10.3702 9.04026 10.3702 9.45135 10.6237 9.70483C10.7505 9.83163 10.9166 9.89499 11.0828 9.89499C11.2489 9.89499 11.4151 9.83159 11.5418 9.70483L13.3778 7.86886C13.3778 7.86877 13.3779 7.86873 13.378 7.86864C14.1373 7.10938 15.3728 7.10934 16.1321 7.86864C16.4999 8.2365 16.7026 8.72559 16.7026 9.24574C16.7026 9.76585 16.5 10.2548 16.1323 10.6227L16.1321 10.6228L14.2961 12.4589C14.0426 12.7124 14.0426 13.1235 14.2961 13.377C14.4229 13.5037 14.589 13.5671 14.7551 13.5671C14.9213 13.5671 15.0874 13.5037 15.2142 13.377L17.0502 11.5409C17.0503 11.5408 17.0505 11.5406 17.0506 11.5405C17.6634 10.9275 18.0009 10.1125 18.0009 9.24574Z" fill="black"/>
<path d="M9.70577 14.295C9.83253 14.4218 9.99867 14.4852 10.1648 14.4852C10.3309 14.4852 10.4971 14.4218 10.6238 14.295L14.296 10.6228C14.5495 10.3693 14.5495 9.95828 14.296 9.70476C14.0425 9.45128 13.6315 9.45128 13.378 9.70476L9.70577 13.3769C9.45224 13.6305 9.45224 14.0415 9.70577 14.295Z" fill="black"/>
</g>
</g>
<defs>
<clipPath id="clip0_4014_12374">
<rect width="24" height="24" fill="white"/>
</clipPath>
<clipPath id="clip1_4014_12374">
<rect width="12" height="12" fill="white" transform="translate(6 6)"/>
</clipPath>
</defs>
</svg>
