<svg width="36" height="37" viewBox="0 0 36 37" fill="none" xmlns="http://www.w3.org/2000/svg">
<rect x="0.75" y="1.07422" width="34.5" height="34.5" rx="17.25" stroke="white" stroke-width="1.5"/>
<path fill-rule="evenodd" clip-rule="evenodd" d="M16.1003 12.7842C16.3932 12.4913 16.3932 12.0165 16.1003 11.7236C15.8074 11.4307 15.3326 11.4307 15.0397 11.7236L8.96967 17.7936C8.82902 17.9342 8.75 18.125 8.75 18.3239C8.75 18.5228 8.82902 18.7136 8.96967 18.8542L15.0397 24.9242C15.3326 25.2171 15.8074 25.2171 16.1003 24.9242C16.3932 24.6313 16.3932 24.1565 16.1003 23.8636L11.3105 19.0737H26.4999C26.9141 19.0737 27.2499 18.7379 27.2499 18.3237C27.2499 17.9095 26.9141 17.5737 26.4999 17.5737H11.3108L16.1003 12.7842Z" fill="white"/>
</svg>
