<svg width="104" height="105" viewBox="0 0 104 105" fill="none" xmlns="http://www.w3.org/2000/svg"><path d="M52.0339 104.663C80.7339 104.663 104 81.4352 104 52.7819C104 24.1285 80.7339 0.900391 52.0339 0.900391C23.3339 0.900391 0.0678711 24.1285 0.0678711 52.7819C0.0678711 81.4352 23.3339 104.663 52.0339 104.663Z" fill="#F93822"/><path d="M52.0339 22.7817C35.4645 22.7817 22.0339 36.2124 22.0339 52.7817C22.0339 69.3511 35.4645 82.7817 52.0339 82.7817C68.6032 82.7817 82.0339 69.3511 82.0339 52.7817C82.0339 36.2124 68.6032 22.7817 52.0339 22.7817ZM52.0339 78.7671C37.7273 78.7671 26.1215 67.1613 26.1215 52.8547C26.1215 38.5482 37.7273 26.9423 52.0339 26.9423C66.3405 26.9423 77.9463 38.5482 77.9463 52.8547C77.9463 67.1613 66.3405 78.7671 52.0339 78.7671Z" fill="white"/><path d="M53.1289 36.5041V48.8398C53.1289 48.8398 52.3989 48.6938 52.034 48.6938C51.669 48.6938 51.3041 48.6938 50.9391 48.8398V36.5041C50.9391 35.9201 51.45 35.4092 52.034 35.4092C52.3259 35.4092 52.6179 35.5552 52.8369 35.7012C53.0559 35.9201 53.1289 36.1391 53.1289 36.5041Z" fill="white"/><path d="M64.2236 48.6944C64.2236 49.1324 63.9316 49.4974 63.5667 49.6434L56.1214 52.3441C56.0484 51.6142 55.7564 50.9572 55.3915 50.3733L62.8367 47.5996C63.3477 47.3806 64.0046 47.6726 64.1506 48.2565C64.1506 48.4025 64.1506 48.4755 64.1506 48.6215L64.2236 48.6944Z" fill="white"/><path d="M52.034 55.1906C53.3643 55.1906 54.4427 54.1121 54.4427 52.7818C54.4427 51.4515 53.3643 50.373 52.034 50.373C50.7037 50.373 49.6252 51.4515 49.6252 52.7818C49.6252 54.1121 50.7037 55.1906 52.034 55.1906Z" fill="white"/><path d="M52.0339 31.8332C52.4719 31.8332 52.8368 31.4682 52.8368 31.0303V28.6945C52.8368 28.2566 52.4719 27.8916 52.0339 27.8916C51.596 27.8916 51.231 28.2566 51.231 28.6945V31.0303C51.231 31.4682 51.596 31.8332 52.0339 31.8332Z" fill="white"/><path d="M40.3551 31.7601C40.3551 31.7601 39.9901 31.4681 39.7711 31.6141C39.5522 31.7601 39.4792 31.9791 39.6251 32.1981L40.2821 33.293C40.2821 33.293 40.647 33.5849 40.866 33.4389C41.085 33.293 41.158 33.074 41.012 32.855L40.3551 31.7601Z" fill="white"/><path d="M32.5449 41.0295L31.45 40.3726C31.45 40.3726 31.0121 40.3726 30.8661 40.5185C30.7201 40.7375 30.8661 40.9565 31.0121 41.1025L32.1069 41.7594C32.1069 41.7594 32.5449 41.7594 32.6909 41.6134C32.8369 41.3945 32.6909 41.1755 32.5449 41.0295Z" fill="white"/><path d="M32.107 63.804L31.0121 64.4609C31.0121 64.4609 30.7201 64.8259 30.8661 65.0448C31.0121 65.2638 31.2311 65.3368 31.45 65.1908L32.5449 64.5339C32.5449 64.5339 32.8369 64.1689 32.6909 63.95C32.5449 63.731 32.326 63.658 32.107 63.804Z" fill="white"/><path d="M40.866 72.125C40.866 72.125 40.4281 72.125 40.2821 72.271L39.6252 73.3659C39.6252 73.3659 39.6252 73.8038 39.7711 73.9498C39.9171 74.0958 40.2091 73.9498 40.3551 73.8038L41.012 72.7089C41.012 72.7089 41.012 72.271 40.866 72.125Z" fill="white"/><path d="M63.7856 72.3431C63.7856 72.3431 63.4207 72.0511 63.2017 72.1971C62.9827 72.3431 62.9097 72.5621 63.0557 72.7811L63.7126 73.876C63.7126 73.876 64.0776 74.1679 64.2966 74.0219C64.5156 73.876 64.5886 73.657 64.4426 73.438L63.7856 72.3431Z" fill="white"/><path d="M73.0557 64.4602L71.9608 63.8032C71.9608 63.8032 71.5228 63.8032 71.3768 63.9492C71.2309 64.0952 71.3768 64.3872 71.5228 64.5331L72.6177 65.1901C72.6177 65.1901 73.0557 65.1901 73.2017 65.0441C73.3476 64.8981 73.2017 64.6061 73.0557 64.4602Z" fill="white"/><path d="M71.961 41.7602L73.0559 41.1032C73.0559 41.1032 73.3479 40.7383 73.2019 40.5193C73.0559 40.3003 72.8369 40.2273 72.6179 40.3733L71.523 41.0302C71.523 41.0302 71.2311 41.3952 71.3771 41.6142C71.523 41.8332 71.742 41.9062 71.961 41.7602Z" fill="white"/><path d="M64.2236 31.6133C64.2236 31.6133 63.7856 31.6133 63.6397 31.7593L62.9827 32.8542C62.9827 32.8542 62.9827 33.2921 63.1287 33.4381C63.3477 33.5841 63.5667 33.4381 63.7126 33.2921L64.3696 32.1972C64.3696 32.1972 64.3696 31.7593 64.2236 31.6133Z" fill="white"/><path d="M31.0848 52.7814C31.0848 52.3435 30.7198 51.9785 30.2819 51.9785H27.9461C27.5082 51.9785 27.1432 52.3435 27.1432 52.7814C27.1432 53.2194 27.5082 53.5844 27.9461 53.5844H30.2819C30.7198 53.5844 31.0848 53.2194 31.0848 52.7814Z" fill="white"/><path d="M52.1069 73.73C51.6689 73.73 51.304 74.0949 51.304 74.5329V76.8687C51.304 77.3066 51.6689 77.6716 52.1069 77.6716C52.5448 77.6716 52.9098 77.3066 52.9098 76.8687V74.5329C52.9098 74.0949 52.5448 73.73 52.1069 73.73Z" fill="white"/><path d="M76.1214 51.9785H73.7857C73.3477 51.9785 72.9828 52.3435 72.9828 52.7814C72.9828 53.2194 73.3477 53.5844 73.7857 53.5844H76.1214C76.5594 53.5844 76.9244 53.2194 76.9244 52.7814C76.9244 52.3435 76.5594 51.9785 76.1214 51.9785Z" fill="white"/></svg>
