<svg width="150" height="151" viewBox="0 0 150 151" fill="none" xmlns="http://www.w3.org/2000/svg">
<g clip-path="url(#clip0_248_4242)">
<path d="M74.9986 0.896667C33.5783 0.896667 0 34.4749 0 75.8953C0 117.316 33.5783 150.894 74.9986 150.894C116.419 150.894 149.997 117.316 149.997 75.8953C149.997 34.4749 116.422 0.896667 74.9986 0.896667ZM74.1692 140.679C37.4718 140.679 7.72085 110.931 7.72085 74.231C7.72085 37.5308 37.469 7.78536 74.1692 7.78536C110.869 7.78536 140.618 37.5363 140.618 74.2337C140.618 110.931 110.867 140.682 74.1692 140.682V140.679Z" fill="url(#paint0_radial_248_4242)"/>
<path d="M74.1692 7.78536C37.4718 7.78536 7.72086 37.5363 7.72086 74.2337C7.72086 110.931 37.4718 140.682 74.1692 140.682C110.867 140.682 140.618 110.934 140.618 74.2337C140.618 37.5335 110.867 7.78536 74.1692 7.78536ZM74.5329 122.317C47.7745 122.317 26.0834 100.626 26.0834 73.8673C26.0834 47.1088 47.7745 25.4177 74.5329 25.4177C101.291 25.4177 122.983 47.1088 122.983 73.8673C122.983 100.626 101.291 122.317 74.5329 122.317Z" fill="url(#paint1_radial_248_4242)"/>
<path d="M74.1692 7.78536C37.4718 7.78536 7.72086 37.5363 7.72086 74.2337C7.72086 110.931 37.4718 140.682 74.1692 140.682C110.867 140.682 140.618 110.934 140.618 74.2337C140.618 37.5335 110.867 7.78536 74.1692 7.78536ZM74.5329 122.317C47.7745 122.317 26.0834 100.626 26.0834 73.8673C26.0834 47.1088 47.7745 25.4177 74.5329 25.4177C101.291 25.4177 122.983 47.1088 122.983 73.8673C122.983 100.626 101.291 122.317 74.5329 122.317Z" fill="url(#paint2_radial_248_4242)"/>
<path d="M96.3459 97.5574L99.0929 94.8103V101.525C99.0929 103.326 97.6054 104.813 95.7586 104.813H51.3343C49.4875 104.813 48 103.326 48 101.525V48.6281C48 46.7812 49.4875 45.2937 51.3343 45.2937H56.415V43.6826C56.415 42.5621 57.323 41.6542 58.4435 41.6542C59.5639 41.6542 60.4719 42.5621 60.4719 43.6826V45.2937H66.4837V43.6826C66.4837 42.5621 67.3917 41.6542 68.5121 41.6542C69.6326 41.6542 70.5405 42.5621 70.5405 43.6826V45.2937H76.5524V43.6826C76.5524 42.5621 77.4604 41.6542 78.5808 41.6542C79.7013 41.6542 80.6092 42.5621 80.6092 43.6826V45.2937H86.6211V43.6826C86.6211 42.5621 87.529 41.6542 88.6495 41.6542C89.7699 41.6542 90.6779 42.5621 90.6779 43.6826V45.2937H95.7663C97.6132 45.2937 99.1007 46.7812 99.1007 48.6281V72.5518L95.0477 76.6086V49.3506H90.6779V51.0042C90.6779 52.1247 89.7699 53.0326 88.6495 53.0326C87.529 53.0326 86.6211 52.1247 86.6211 51.0042V49.3506H80.6092V51.0042C80.6092 52.1247 79.7013 53.0326 78.5808 53.0326C77.4604 53.0326 76.5524 52.1247 76.5524 51.0042V49.3506H70.5405V51.0042C70.5405 52.1247 69.6326 53.0326 68.5121 53.0326C67.3917 53.0326 66.4837 52.1247 66.4837 51.0042V49.3506H60.4719V51.0042C60.4719 52.1247 59.5639 53.0326 58.4435 53.0326C57.323 53.0326 56.415 52.1247 56.415 51.0042V49.3506H52.053V100.76H95.0361V98.5078C95.5307 98.2837 95.9827 97.9669 96.342 97.5612L96.3459 97.5574ZM91.4815 85.2516L97.5243 91.2944L111.727 77.0916L105.684 71.0488L91.4815 85.2516ZM87.6952 96.6146L93.1738 95.3667C93.4095 95.3126 93.6259 95.1928 93.7959 95.0228L95.4534 93.3653L89.4106 87.3225L87.7531 88.9801C87.5831 89.1501 87.4633 89.3664 87.4093 89.6021L86.1613 95.0808C85.9527 96.0003 86.7756 96.8233 87.6952 96.6146ZM116.626 70.3804L112.395 66.1497C111.893 65.6513 111.086 65.6513 110.583 66.1497L107.751 68.9818L113.794 75.0245L116.626 72.1925C117.125 71.6941 117.125 70.8827 116.626 70.3804ZM87.5908 74.1552C87.5908 81.9134 81.3008 88.1996 73.5465 88.1996C65.7921 88.1996 59.5021 81.9096 59.5021 74.1552C59.5021 66.4009 65.7921 60.1108 73.5465 60.1108C81.3008 60.1108 87.5908 66.4009 87.5908 74.1552ZM80.1726 69.2754C79.4231 68.5259 78.2022 68.5259 77.4526 69.2754L71.7769 74.9511L69.6403 72.8145C68.8908 72.065 67.6699 72.065 66.9203 72.8145C66.1708 73.5679 66.1708 74.785 66.9203 75.5345L70.4169 79.0312C70.7917 79.4059 71.2862 79.5952 71.7769 79.5952C72.2676 79.5952 72.7621 79.4059 73.1369 79.0312L80.1726 71.9954C80.926 71.2459 80.926 70.025 80.1726 69.2754Z" fill="#F93822"/>
</g>
<defs>
<radialGradient id="paint0_radial_248_4242" cx="0" cy="0" r="1" gradientUnits="userSpaceOnUse" gradientTransform="translate(74.9986 75.8953) scale(74.9986 74.9986)">
<stop stop-color="#F93822"/>
<stop offset="1" stop-color="#F37721" stop-opacity="0.13"/>
</radialGradient>
<radialGradient id="paint1_radial_248_4242" cx="0" cy="0" r="1" gradientUnits="userSpaceOnUse" gradientTransform="translate(74.9986 75.8953) scale(74.9986 74.9986)">
<stop stop-color="#F93822"/>
<stop offset="1" stop-color="#F37721" stop-opacity="0.13"/>
</radialGradient>
<radialGradient id="paint2_radial_248_4242" cx="0" cy="0" r="1" gradientUnits="userSpaceOnUse" gradientTransform="translate(74.1692 74.2337) scale(66.4484 66.4484)">
<stop stop-color="#F93822"/>
<stop offset="0.38" stop-color="#F83821" stop-opacity="0.9801"/>
<stop offset="0.52" stop-color="#F83A21" stop-opacity="0.9409"/>
<stop offset="0.62" stop-color="#F83D21" stop-opacity="0.8464"/>
<stop offset="0.7" stop-color="#F74221" stop-opacity="0.7225"/>
<stop offset="0.77" stop-color="#F74921" stop-opacity="0.5776"/>
<stop offset="0.83" stop-color="#F65121" stop-opacity="0.4225"/>
<stop offset="0.89" stop-color="#F55A21" stop-opacity="0.2704"/>
<stop offset="0.94" stop-color="#F46521" stop-opacity="0.1369"/>
<stop offset="0.98" stop-color="#F37121" stop-opacity="0.0441"/>
<stop offset="1" stop-color="#F37721" stop-opacity="0.13"/>
</radialGradient>
<clipPath id="clip0_248_4242">
<rect width="150" height="150" fill="white" transform="translate(0 0.896667)"/>
</clipPath>
</defs>
</svg>
