<svg width="150" height="151" viewBox="0 0 150 151" fill="none" xmlns="http://www.w3.org/2000/svg">
<g clip-path="url(#clip0_248_4271)">
<path d="M74.9986 0.563171C33.5783 0.563171 0 34.1414 0 75.5618C0 116.982 33.5783 150.56 74.9986 150.56C116.419 150.56 149.997 116.982 149.997 75.5618C149.997 34.1414 116.422 0.563171 74.9986 0.563171ZM74.1692 140.346C37.4718 140.346 7.72085 110.598 7.72085 73.8975C7.72085 37.1973 37.469 7.45187 74.1692 7.45187C110.869 7.45187 140.618 37.2028 140.618 73.9002C140.618 110.598 110.867 140.349 74.1692 140.349V140.346Z" fill="url(#paint0_radial_248_4271)"/>
<path d="M74.1692 7.45184C37.4718 7.45184 7.72086 37.2028 7.72086 73.9002C7.72086 110.598 37.4718 140.349 74.1692 140.349C110.867 140.349 140.618 110.6 140.618 73.9002C140.618 37.2 110.867 7.45184 74.1692 7.45184ZM74.5329 121.983C47.7745 121.983 26.0834 100.292 26.0834 73.5337C26.0834 46.7753 47.7745 25.0842 74.5329 25.0842C101.291 25.0842 122.983 46.7753 122.983 73.5337C122.983 100.292 101.291 121.983 74.5329 121.983Z" fill="url(#paint1_radial_248_4271)"/>
<path d="M74.1692 7.45184C37.4718 7.45184 7.72086 37.2028 7.72086 73.9002C7.72086 110.598 37.4718 140.349 74.1692 140.349C110.867 140.349 140.618 110.6 140.618 73.9002C140.618 37.2 110.867 7.45184 74.1692 7.45184ZM74.5329 121.983C47.7745 121.983 26.0834 100.292 26.0834 73.5337C26.0834 46.7753 47.7745 25.0842 74.5329 25.0842C101.291 25.0842 122.983 46.7753 122.983 73.5337C122.983 100.292 101.291 121.983 74.5329 121.983Z" fill="url(#paint2_radial_248_4271)"/>
<path d="M79.5314 60.7915C80.0971 57.2617 82.7512 54.5301 86.1299 53.7048L89.5821 62.3645L90.3299 56.1264H89.8417C89.5318 56.1264 89.2993 55.8707 89.2993 55.5607V53.8869C89.2993 53.6041 89.5318 53.3445 89.8417 53.3445H92.5733C92.8833 53.3445 93.1158 53.6002 93.1158 53.8869V55.5607C93.1158 55.8707 92.8833 56.1264 92.5733 56.1264H92.0813L92.829 62.3645L96.2813 53.7048C99.7607 54.5572 102.492 57.4399 102.93 61.1285L103.705 68.6027C103.86 70.199 102.674 71.5938 101.078 71.6442H100.691C100.536 70.2765 99.9157 69.0172 98.9122 68.037C97.7537 66.8785 96.2077 66.2314 94.5571 66.2314C91.3877 66.2314 88.7568 68.653 88.4236 71.745C87.1876 71.7721 85.9749 71.745 84.8435 71.7178L84.5839 69.2691C84.1461 65.8168 82.263 62.7481 79.5314 60.7915ZM81.2324 69.6062C80.7945 65.9214 78.0901 63.0349 74.5836 62.1824L71.1313 70.8422L70.3835 64.6041H70.8717C71.1817 64.6041 71.4374 64.3483 71.4374 64.0384V62.3645C71.4374 62.0817 71.1778 61.8221 70.8717 61.8221H68.1401C67.8301 61.8221 67.5976 62.0778 67.5976 62.3645V64.0384C67.5976 64.3483 67.8301 64.6041 68.1401 64.6041H68.6554L67.8805 70.8422L64.4282 62.1824C61.0534 63.0077 58.3993 65.7664 57.8298 69.2962C60.5614 71.2296 62.4444 74.2944 62.8823 77.7506L63.138 80.1993C68.3454 80.3039 75.405 80.2768 79.3726 80.1218C80.9689 80.0715 82.1545 78.6805 81.9995 77.0803L81.2246 69.6062H81.2324ZM59.5501 78.0954C59.1045 74.4029 56.3846 71.5047 52.9052 70.6717L49.4451 79.3237L48.6935 73.0739H49.1933C49.4955 73.0739 49.7396 72.8298 49.7396 72.5276V70.846C49.7396 70.5438 49.4955 70.2997 49.1933 70.2997H46.454C46.1556 70.2997 45.9076 70.5438 45.9076 70.846V72.5276C45.9076 72.8298 46.1517 73.0739 46.454 73.0739H46.9538L46.2021 79.3275L42.7382 70.6717C39.2588 71.5047 36.5388 74.3991 36.0971 78.0915L35.3338 85.5657C35.1711 87.1542 36.3684 88.5491 37.9608 88.6072C42.9203 88.7893 52.7231 88.7932 57.6864 88.6072C59.2828 88.5491 60.4761 87.1542 60.3134 85.5657L59.5501 78.0954ZM91.2056 51.8644C95.4793 51.8644 98.9432 48.4005 98.9432 44.1268C98.9432 39.8531 95.4793 36.3892 91.2056 36.3892C86.9319 36.3892 83.468 39.8531 83.468 44.1268C83.468 48.4005 86.9319 51.8644 91.2056 51.8644ZM69.5156 60.3459C73.7893 60.3459 77.2532 56.882 77.2532 52.6083C77.2532 48.3346 73.7893 44.8707 69.5156 44.8707C65.2419 44.8707 61.778 48.3346 61.778 52.6083C61.778 56.882 65.2419 60.3459 69.5156 60.3459ZM47.8217 68.8235C52.0954 68.8235 55.5593 65.3596 55.5593 61.0859C55.5593 56.8122 52.0954 53.3483 47.8217 53.3483C43.548 53.3483 40.0841 56.8122 40.0841 61.0859C40.0841 65.3596 43.548 68.8235 47.8217 68.8235ZM113.016 86.4878C113.016 84.9341 111.749 83.6749 110.199 83.6749C109.191 83.6749 108.308 84.2057 107.808 85.0038V84.9302C107.808 83.3726 106.545 82.1095 104.988 82.1095C103.984 82.1095 103.101 82.6365 102.601 83.4308V83.361C102.601 81.8034 101.334 80.5403 99.7801 80.5403C98.7727 80.5403 97.8893 81.0672 97.3895 81.8615V72.3998C97.3895 71.6442 97.095 70.9352 96.5603 70.4005C96.0256 69.8696 95.3204 69.5752 94.5687 69.5752H94.561C93.0073 69.5791 91.7442 70.846 91.7442 72.3959V89.8316C91.7442 89.9943 91.655 90.1299 91.5039 90.1919C91.3528 90.2539 91.194 90.2229 91.0777 90.1067L88.2144 87.2589C87.2496 86.298 85.7269 86.1546 84.5955 86.9179C83.9291 87.3673 83.4796 88.0841 83.3673 88.8823C83.251 89.6805 83.4835 90.4941 83.995 91.1141L91.1204 99.7157C93.139 102.161 96.1147 103.563 99.2803 103.563H103.721C106.204 103.563 108.541 102.595 110.296 100.839C112.051 99.0841 113.02 96.7477 113.02 94.2641V86.4878H113.016Z" fill="#F93822"/>
</g>
<defs>
<radialGradient id="paint0_radial_248_4271" cx="0" cy="0" r="1" gradientUnits="userSpaceOnUse" gradientTransform="translate(74.9986 75.5618) scale(74.9986 74.9986)">
<stop stop-color="#F93822"/>
<stop offset="1" stop-color="#F37721" stop-opacity="0.13"/>
</radialGradient>
<radialGradient id="paint1_radial_248_4271" cx="0" cy="0" r="1" gradientUnits="userSpaceOnUse" gradientTransform="translate(74.9986 75.5618) scale(74.9986 74.9986)">
<stop stop-color="#F93822"/>
<stop offset="1" stop-color="#F37721" stop-opacity="0.13"/>
</radialGradient>
<radialGradient id="paint2_radial_248_4271" cx="0" cy="0" r="1" gradientUnits="userSpaceOnUse" gradientTransform="translate(74.1692 73.9002) scale(66.4484 66.4484)">
<stop stop-color="#F93822"/>
<stop offset="0.38" stop-color="#F83821" stop-opacity="0.9801"/>
<stop offset="0.52" stop-color="#F83A21" stop-opacity="0.9409"/>
<stop offset="0.62" stop-color="#F83D21" stop-opacity="0.8464"/>
<stop offset="0.7" stop-color="#F74221" stop-opacity="0.7225"/>
<stop offset="0.77" stop-color="#F74921" stop-opacity="0.5776"/>
<stop offset="0.83" stop-color="#F65121" stop-opacity="0.4225"/>
<stop offset="0.89" stop-color="#F55A21" stop-opacity="0.2704"/>
<stop offset="0.94" stop-color="#F46521" stop-opacity="0.1369"/>
<stop offset="0.98" stop-color="#F37121" stop-opacity="0.0441"/>
<stop offset="1" stop-color="#F37721" stop-opacity="0.13"/>
</radialGradient>
<clipPath id="clip0_248_4271">
<rect width="150" height="150" fill="white" transform="translate(0 0.563171)"/>
</clipPath>
</defs>
</svg>
