<svg width="40" height="41" viewBox="0 0 40 41" fill="none" xmlns="http://www.w3.org/2000/svg">
<path d="M16.3859 30.7622L16.7695 33.4018C16.8221 33.7679 17.1378 34.0376 17.5062 34.0376H22.4895C22.8578 34.0376 23.1735 33.7657 23.2261 33.4018L23.6098 30.7622L24.8572 30.2448L26.9948 31.8386C27.2908 32.0623 27.7051 32.0316 27.966 31.7685L31.4914 28.2431C31.7523 27.9822 31.783 27.5679 31.5615 27.2719L29.9611 25.1299L30.4741 23.8869L33.1203 23.5032C33.4864 23.4506 33.7583 23.1371 33.7583 22.7666V17.7833C33.7583 17.415 33.4864 17.0993 33.1225 17.0466L30.4807 16.6608L29.9633 15.4133L31.5593 13.2757C31.7808 12.9798 31.7501 12.5654 31.4892 12.3045L27.966 8.77916C27.7051 8.51827 27.2886 8.48538 26.9948 8.70901L24.8572 10.3051L23.6098 9.78766L23.2261 7.14803C23.1735 6.78191 22.8578 6.51005 22.4895 6.51005H17.5062C17.1378 6.51005 16.8221 6.78191 16.7695 7.14584L16.3859 9.78766L15.1384 10.3051L13.0008 8.70901C12.7027 8.48538 12.2905 8.51608 12.0296 8.77916L8.50644 12.3045C8.24555 12.5654 8.21485 12.9798 8.43629 13.2757L10.0323 15.4155L9.51494 16.663L6.87312 17.0488C6.50699 17.1014 6.23733 17.4171 6.23733 17.7855V22.7688C6.23733 23.1393 6.50918 23.4528 6.87531 23.5054L9.51494 23.8869L10.0323 25.1365L8.43629 27.2741C8.21485 27.5701 8.24335 27.9844 8.50644 28.2453L12.0318 31.7685C12.2839 32.0206 12.7202 32.0513 13.0052 31.8386L15.1406 30.2448L16.3881 30.7622H16.3859ZM23.3993 17.9148C23.031 17.5465 23.031 16.9502 23.3993 16.5819C23.7676 16.2135 24.3639 16.2135 24.7323 16.5819L27.7577 19.6095C28.1261 19.9778 28.1261 20.5742 27.7577 20.9425L24.7323 23.9702C24.5481 24.1543 24.3069 24.2464 24.0658 24.2464C23.8246 24.2464 23.5834 24.1543 23.3993 23.9702C23.031 23.6019 23.031 23.0055 23.3993 22.6372L25.7583 20.276L23.3993 17.9148ZM18.4423 23.1108L19.7095 17.0554C19.8169 16.5446 20.3124 16.2135 20.8254 16.3253C21.3363 16.4328 21.6629 16.9304 21.5555 17.4413L20.2883 23.4966C20.1962 23.9417 19.8038 24.2464 19.3675 24.2464C19.3039 24.2464 19.2381 24.2398 19.1746 24.2267C18.6637 24.1193 18.3371 23.6216 18.4445 23.1108H18.4423ZM12.2401 20.9425C11.8717 20.5742 11.8717 19.9778 12.2401 19.6095L15.2677 16.5819C15.6361 16.2135 16.2324 16.2135 16.6007 16.5819C16.969 16.9502 16.969 17.5465 16.6007 17.9148L14.2395 20.276L16.6007 22.6372C16.969 23.0055 16.969 23.6019 16.6007 23.9702C16.4166 24.1543 16.1754 24.2464 15.9342 24.2464C15.6931 24.2464 15.4519 24.1543 15.2677 23.9702L12.2401 20.9425ZM29.6103 3.95154C29.9392 3.45606 30.61 3.32233 31.1055 3.64899C33.3023 5.10693 35.1548 6.96168 36.6128 9.15625C36.9416 9.65173 36.8079 10.3204 36.3102 10.6515C36.1261 10.7742 35.92 10.8312 35.7139 10.8312C35.3653 10.8312 35.0233 10.6624 34.815 10.3489C33.5171 8.3933 31.8663 6.74244 29.9107 5.44455C29.4152 5.11569 29.2793 4.44483 29.6081 3.94935L29.6103 3.95154ZM2.71855 24.7397C2.87202 25.3163 2.52782 25.906 1.95341 26.0595C1.86133 26.0836 1.76706 26.0946 1.67717 26.0946C1.19923 26.0946 0.762949 25.7767 0.635791 25.2922C0.212661 23.7005 4.01548e-07 22.0102 4.01548e-07 20.2716C-0.00219198 9.25053 8.97342 0.281494 20.0055 0.281494C21.7243 0.281494 23.3993 0.494155 24.9844 0.910708C25.4601 1.02252 25.8197 1.45003 25.8197 1.96086C25.8197 2.55719 25.3439 3.03951 24.7498 3.03951H24.7344C24.6402 3.03951 24.5481 3.02636 24.4582 3.00443C23.0463 2.62953 21.5489 2.4388 20.0077 2.4388C10.1617 2.4388 2.15292 10.4388 2.15292 20.2738C2.15292 21.826 2.34366 23.33 2.71636 24.7419L2.71855 24.7397ZM39.9956 20.2738C39.9956 31.3059 31.0266 40.2815 20.0033 40.2815C18.291 40.2815 16.5963 40.0623 14.9674 39.6304C14.393 39.4769 14.0488 38.8871 14.2022 38.3105C14.3557 37.7361 14.9455 37.3963 15.5199 37.5454C16.969 37.9313 18.4774 38.1242 20.0033 38.1242C29.8383 38.1242 37.8383 30.1154 37.8383 20.2738C37.8383 18.794 37.6476 17.2856 37.2705 15.7948C37.1236 15.2182 37.4744 14.6306 38.051 14.4859C38.6276 14.3347 39.2151 14.6898 39.3598 15.2664C39.7808 16.9304 39.9934 18.6142 39.9934 20.2738H39.9956ZM10.3678 36.5961C10.1595 36.9096 9.81748 37.0784 9.4689 37.0784C9.265 37.0784 9.05673 37.0192 8.87257 36.8987C6.69553 35.4517 4.84736 33.5991 3.38065 31.3914C3.0518 30.8959 3.18553 30.2272 3.6832 29.8962C4.18087 29.5651 4.84955 29.7011 5.17841 30.1987C6.48506 32.1653 8.12935 33.8162 10.0674 35.1031C10.5629 35.4319 10.6988 36.1028 10.37 36.5983L10.3678 36.5961Z" fill="#F47E20"/>
</svg>
