<svg width="43" height="41" viewBox="0 0 43 41" fill="none" xmlns="http://www.w3.org/2000/svg">
<g clip-path="url(#clip0_408_6537)">
<path d="M33.2851 23.1855C36.8087 23.1855 39.6627 20.3441 39.6627 16.8361C39.6627 13.3281 36.806 10.4893 33.2851 10.4893C29.7641 10.4893 26.91 13.3307 26.91 16.8361C26.91 20.3414 29.7667 23.1855 33.2851 23.1855ZM42.9868 34.1773L42.375 29.1245C42.1256 27.0254 40.9178 25.2531 39.2243 24.2023C37.5885 25.5119 35.5405 26.3275 33.2851 26.3275C31.0297 26.3275 28.9817 25.5093 27.3459 24.2023C25.6524 25.2505 24.4472 27.0202 24.1951 29.1166L23.5834 34.1747C23.4678 35.1341 24.0927 36.0463 25.0458 36.2372C27.6531 36.76 30.4179 37.0371 33.2851 37.0371C36.1523 37.0371 38.9171 36.76 41.5243 36.2372C42.4748 36.0463 43.1023 35.1341 42.9868 34.1747V34.1773ZM29.9847 3.70595C29.9847 2.8381 29.2784 2.13493 28.4066 2.13493H12.1881C11.3164 2.13493 10.6101 2.8381 10.6101 3.70595C10.6101 4.57379 11.3164 5.27696 12.1881 5.27696H28.4066C29.2784 5.27696 29.9847 4.57379 29.9847 3.70595ZM21.5774 10.6226H12.1881C11.3164 10.6226 10.6101 11.3258 10.6101 12.1936C10.6101 13.0614 11.3164 13.7646 12.1881 13.7646H21.5774C22.4491 13.7646 23.1554 13.0614 23.1554 12.1936C23.1554 11.3258 22.4491 10.6226 21.5774 10.6226ZM20.1727 19.1129H12.1855C11.3138 19.1129 10.6075 19.816 10.6075 20.6839C10.6075 21.5517 11.3138 22.2549 12.1855 22.2549H20.1727C21.0444 22.2549 21.7507 21.5517 21.7507 20.6839C21.7507 19.816 21.0444 19.1129 20.1727 19.1129ZM2.4759 6.67022C2.77259 6.9656 3.17432 7.13028 3.59179 7.13028C4.00927 7.13028 4.41099 6.9656 4.70768 6.67022L8.42821 2.96618C9.04523 2.35189 9.04523 1.35596 8.42821 0.744284C7.81118 0.132608 6.81082 0.129994 6.19642 0.744284L3.59179 3.33737L2.69645 2.44338C2.07943 1.82909 1.07906 1.82909 0.462036 2.44338C-0.154987 3.05767 -0.154987 4.05361 0.462036 4.6679L2.4759 6.67283V6.67022ZM0.462036 13.1556L2.4759 15.1605C2.77259 15.4559 3.17432 15.6206 3.59179 15.6206C4.00927 15.6206 4.41099 15.4559 4.70768 15.1605L8.42821 11.4565C9.04523 10.8422 9.04523 9.84623 8.42821 9.23194C7.81118 8.61765 6.81082 8.61765 6.19642 9.23194L3.59179 11.825L2.69645 10.931C2.07943 10.3167 1.07906 10.3167 0.462036 10.931C-0.154987 11.5453 -0.154987 12.5413 0.462036 13.1556ZM0.462036 21.6458L2.4759 23.6508C2.77259 23.9461 3.17432 24.1108 3.59179 24.1108C4.00927 24.1108 4.41099 23.9461 4.70768 23.6508L8.42821 19.9467C9.04523 19.3324 9.04523 18.3365 8.42821 17.7248C7.81118 17.1105 6.81082 17.1105 6.19379 17.7248L3.58917 20.3179L2.69382 19.4265C2.0768 18.8122 1.07643 18.8122 0.459411 19.4265C-0.157613 20.0408 -0.157613 21.0368 0.459411 21.6484L0.462036 21.6458Z" fill="#F47E20"/>
</g>
<defs>
<clipPath id="clip0_408_6537">
<rect width="43" height="36.7581" fill="white" transform="translate(0 0.281494)"/>
</clipPath>
</defs>
</svg>
