<svg width="150" height="151" viewBox="0 0 150 151" fill="none" xmlns="http://www.w3.org/2000/svg">
<g clip-path="url(#clip0_248_4226)">
<path d="M74.9986 0.896667C33.5783 0.896667 0 34.4749 0 75.8953C0 117.316 33.5783 150.894 74.9986 150.894C116.419 150.894 149.997 117.316 149.997 75.8953C149.997 34.4749 116.422 0.896667 74.9986 0.896667ZM74.1692 140.679C37.4718 140.679 7.72085 110.931 7.72085 74.231C7.72085 37.5308 37.469 7.78536 74.1692 7.78536C110.869 7.78536 140.618 37.5363 140.618 74.2337C140.618 110.931 110.867 140.682 74.1692 140.682V140.679Z" fill="url(#paint0_radial_248_4226)"/>
<path d="M74.1692 7.78536C37.4718 7.78536 7.72086 37.5363 7.72086 74.2337C7.72086 110.931 37.4718 140.682 74.1692 140.682C110.867 140.682 140.618 110.934 140.618 74.2337C140.618 37.5335 110.867 7.78536 74.1692 7.78536ZM74.5329 122.317C47.7745 122.317 26.0834 100.626 26.0834 73.8673C26.0834 47.1088 47.7745 25.4177 74.5329 25.4177C101.291 25.4177 122.983 47.1088 122.983 73.8673C122.983 100.626 101.291 122.317 74.5329 122.317Z" fill="url(#paint1_radial_248_4226)"/>
<path d="M74.1692 7.78536C37.4718 7.78536 7.72086 37.5363 7.72086 74.2337C7.72086 110.931 37.4718 140.682 74.1692 140.682C110.867 140.682 140.618 110.934 140.618 74.2337C140.618 37.5335 110.867 7.78536 74.1692 7.78536ZM74.5329 122.317C47.7745 122.317 26.0834 100.626 26.0834 73.8673C26.0834 47.1088 47.7745 25.4177 74.5329 25.4177C101.291 25.4177 122.983 47.1088 122.983 73.8673C122.983 100.626 101.291 122.317 74.5329 122.317Z" fill="url(#paint2_radial_248_4226)"/>
<g clip-path="url(#clip1_248_4226)">
<path fill-rule="evenodd" clip-rule="evenodd" d="M92.1864 53.5741H83.3914V44.8873L92.1864 53.5741ZM93.6403 85.9476C93.676 85.9555 93.7157 85.9633 93.7515 85.9751V102.772C93.7515 103.859 92.8577 104.742 91.7573 104.742H48.9942C47.8938 104.742 47 103.859 47 102.772V45.7034C47 44.6166 47.8938 43.7337 48.9942 43.7337H79.411V55.5398C79.411 56.6267 80.3048 57.5095 81.4052 57.5095H93.7555V59.2751L86.0688 65.4116C84.595 66.5847 83.5225 68.1345 82.9624 69.8884C82.4182 71.5873 82.3705 73.4431 82.8273 75.2558C83.3398 77.3079 83.884 79.3599 84.4878 81.5218L80.2929 85.6651C79.5143 86.4341 79.5143 87.6779 80.2929 88.4469C80.6822 88.8315 81.1907 89.0237 81.7031 89.0237C82.2156 89.0237 82.724 88.8315 83.1133 88.4469L87.3082 84.3036C89.5407 84.9079 91.6143 85.4454 93.6482 85.9437L93.6403 85.9476ZM54.9687 55.5398C54.9687 56.6267 55.8625 57.5095 56.9628 57.5095H72.6341C73.7344 57.5095 74.6282 56.6267 74.6282 55.5398C74.6282 54.453 73.7344 53.5702 72.6341 53.5702H56.9628C55.8625 53.5702 54.9687 54.453 54.9687 55.5398ZM54.9687 63.4105C54.9687 64.4974 55.8625 65.3802 56.9628 65.3802H79.9394C81.0397 65.3802 81.9335 64.4974 81.9335 63.4105C81.9335 62.3237 81.0397 61.4409 79.9394 61.4409H56.9628C55.8625 61.4409 54.9687 62.3237 54.9687 63.4105ZM54.9687 71.2812C54.9687 72.3681 55.8625 73.2509 56.9628 73.2509H72.6341C73.7344 73.2509 74.6282 72.3681 74.6282 71.2812C74.6282 70.1944 73.7344 69.3116 72.6341 69.3116H56.9628C55.8625 69.3116 54.9687 70.1944 54.9687 71.2812ZM54.9687 79.152C54.9687 80.2388 55.8625 81.1216 56.9628 81.1216H72.6341C73.7344 81.1216 74.6282 80.2388 74.6282 79.152C74.6282 78.0651 73.7344 77.1823 72.6341 77.1823H56.9628C55.8625 77.1823 54.9687 78.0651 54.9687 79.152ZM54.9687 87.0266C54.9687 88.1134 55.8625 88.9923 56.9628 88.9923H72.6341C73.7344 88.9923 74.6282 88.1095 74.6282 87.0266C74.6282 85.9437 73.7344 85.057 72.6341 85.057H56.9628C55.8625 85.057 54.9687 85.9398 54.9687 87.0266ZM85.7828 94.8973C85.7828 93.8105 84.889 92.9277 83.7886 92.9277H56.9628C55.8625 92.9277 54.9687 93.8105 54.9687 94.8973C54.9687 95.9841 55.8625 96.863 56.9628 96.863H83.7926C84.893 96.863 85.7868 95.9802 85.7868 94.8973H85.7828ZM114.241 56.2735C114.094 55.94 113.995 55.7242 113.88 55.5594C113.725 55.3397 113.542 55.222 113.177 55.0533C112.509 54.7473 111.818 54.504 111.099 54.351C108.688 53.8409 106.126 54.4569 104.211 55.9871L88.5675 68.4759C86.8037 69.8805 86.1244 72.062 86.6885 74.3181C87.0222 75.656 87.3718 76.9861 87.7293 78.3202L101.232 64.9839C102.01 64.2149 103.269 64.2149 104.048 64.9839C104.827 65.7529 104.827 66.9967 104.048 67.7657L90.5497 81.0981C91.8964 81.4512 93.247 81.7965 94.5976 82.13C96.7189 82.6479 99.1302 81.9652 100.517 80.2741L106.837 72.5486L113.157 64.823C114.289 63.438 114.96 61.7155 115 59.9342C115.028 58.7297 114.778 57.4898 114.241 56.2775V56.2735Z" fill="#F93822"/>
</g>
</g>
<defs>
<radialGradient id="paint0_radial_248_4226" cx="0" cy="0" r="1" gradientUnits="userSpaceOnUse" gradientTransform="translate(74.9986 75.8953) scale(74.9986 74.9986)">
<stop stop-color="#F93822"/>
<stop offset="1" stop-color="#F37721" stop-opacity="0.13"/>
</radialGradient>
<radialGradient id="paint1_radial_248_4226" cx="0" cy="0" r="1" gradientUnits="userSpaceOnUse" gradientTransform="translate(74.9986 75.8953) scale(74.9986 74.9986)">
<stop stop-color="#F93822"/>
<stop offset="1" stop-color="#F37721" stop-opacity="0.13"/>
</radialGradient>
<radialGradient id="paint2_radial_248_4226" cx="0" cy="0" r="1" gradientUnits="userSpaceOnUse" gradientTransform="translate(74.1692 74.2337) scale(66.4484 66.4484)">
<stop stop-color="#F93822"/>
<stop offset="0.38" stop-color="#F83821" stop-opacity="0.9801"/>
<stop offset="0.52" stop-color="#F83A21" stop-opacity="0.9409"/>
<stop offset="0.62" stop-color="#F83D21" stop-opacity="0.8464"/>
<stop offset="0.7" stop-color="#F74221" stop-opacity="0.7225"/>
<stop offset="0.77" stop-color="#F74921" stop-opacity="0.5776"/>
<stop offset="0.83" stop-color="#F65121" stop-opacity="0.4225"/>
<stop offset="0.89" stop-color="#F55A21" stop-opacity="0.2704"/>
<stop offset="0.94" stop-color="#F46521" stop-opacity="0.1369"/>
<stop offset="0.98" stop-color="#F37121" stop-opacity="0.0441"/>
<stop offset="1" stop-color="#F37721" stop-opacity="0.13"/>
</radialGradient>
<clipPath id="clip0_248_4226">
<rect width="150" height="150" fill="white" transform="translate(0 0.896667)"/>
</clipPath>
<clipPath id="clip1_248_4226">
<rect width="68" height="61" fill="white" transform="translate(47 43.7337)"/>
</clipPath>
</defs>
</svg>
