<svg width="40" height="41" viewBox="0 0 40 41" fill="none" xmlns="http://www.w3.org/2000/svg">
<path d="M22.7604 15.4609C23.0516 13.6438 24.4179 12.2375 26.1573 11.8127L27.9345 16.2707L28.3194 13.0593H28.0681C27.9085 13.0593 27.7889 12.9277 27.7889 12.7681V11.9064C27.7889 11.7608 27.9085 11.6272 28.0681 11.6272H29.4743C29.6339 11.6272 29.7536 11.7588 29.7536 11.9064V12.7681C29.7536 12.9277 29.6339 13.0593 29.4743 13.0593H29.221L29.606 16.2707L31.3832 11.8127C33.1744 12.2515 34.5806 13.7355 34.806 15.6344L35.2049 19.4821C35.2847 20.3038 34.6743 21.0219 33.8525 21.0478H33.6531C33.5733 20.3437 33.2542 19.6955 32.7375 19.1908C32.1412 18.5944 31.3453 18.2613 30.4956 18.2613C28.864 18.2613 27.5096 19.508 27.3381 21.0997C26.7018 21.1137 26.0775 21.0997 25.495 21.0857L25.3614 19.8251C25.136 18.0479 24.1666 16.4682 22.7604 15.4609ZM23.636 19.9987C23.4106 18.1018 22.0184 16.6158 20.2133 16.1769L18.436 20.6349L18.0511 17.4236H18.3024C18.462 17.4236 18.5936 17.2919 18.5936 17.1324V16.2707C18.5936 16.1251 18.46 15.9914 18.3024 15.9914H16.8962C16.7366 15.9914 16.6169 16.1231 16.6169 16.2707V17.1324C16.6169 17.2919 16.7366 17.4236 16.8962 17.4236H17.1615L16.7625 20.6349L14.9853 16.1769C13.248 16.6018 11.8817 18.022 11.5885 19.8391C12.9947 20.8344 13.9641 22.4122 14.1895 24.1914L14.3211 25.452C17.0019 25.5058 20.6361 25.4919 22.6786 25.4121C23.5004 25.3862 24.1108 24.6701 24.031 23.8463L23.6321 19.9987H23.636ZM12.4741 24.3689C12.2447 22.468 10.8445 20.976 9.05328 20.5472L7.27208 25.0012L6.88512 21.7839H7.14243C7.29801 21.7839 7.42367 21.6582 7.42367 21.5026V20.6369C7.42367 20.4814 7.29801 20.3557 7.14243 20.3557H5.73222C5.57864 20.3557 5.45098 20.4814 5.45098 20.6369V21.5026C5.45098 21.6582 5.57664 21.7839 5.73222 21.7839H5.98953L5.60257 25.0032L3.81937 20.5472C2.02819 20.976 0.627959 22.466 0.400571 24.3669L0.00762813 28.2146C-0.0761464 29.0323 0.540195 29.7504 1.35999 29.7803C3.91312 29.8741 8.95954 29.8761 11.5147 29.7803C12.3364 29.7504 12.9508 29.0323 12.867 28.2146L12.4741 24.3689ZM28.7702 10.8652C30.9703 10.8652 32.7535 9.08204 32.7535 6.88196C32.7535 4.68188 30.9703 2.89868 28.7702 2.89868C26.5701 2.89868 24.7869 4.68188 24.7869 6.88196C24.7869 9.08204 26.5701 10.8652 28.7702 10.8652ZM17.6043 15.2315C19.8044 15.2315 21.5876 13.4483 21.5876 11.2482C21.5876 9.04813 19.8044 7.26493 17.6043 7.26493C15.4042 7.26493 13.621 9.04813 13.621 11.2482C13.621 13.4483 15.4042 15.2315 17.6043 15.2315ZM6.43633 19.5957C8.63641 19.5957 10.4196 17.8125 10.4196 15.6125C10.4196 13.4124 8.63641 11.6292 6.43633 11.6292C4.23625 11.6292 2.45305 13.4124 2.45305 15.6125C2.45305 17.8125 4.23625 19.5957 6.43633 19.5957ZM39.998 28.6893C39.998 27.8894 39.3458 27.2412 38.5479 27.2412C38.0293 27.2412 37.5745 27.5144 37.3172 27.9253V27.8874C37.3172 27.0856 36.667 26.4353 35.8651 26.4353C35.3485 26.4353 34.8937 26.7066 34.6364 27.1155V27.0796C34.6364 26.2778 33.9842 25.6275 33.1843 25.6275C32.6657 25.6275 32.211 25.8988 31.9537 26.3077V21.4368C31.9537 21.0478 31.8021 20.6828 31.5268 20.4076C31.2515 20.1343 30.8885 19.9827 30.5016 19.9827H30.4976C29.6977 19.9847 29.0475 20.6369 29.0475 21.4348V30.4106C29.0475 30.4944 29.0016 30.5642 28.9238 30.5961C28.846 30.6281 28.7642 30.6121 28.7044 30.5523L27.2304 29.0862C26.7337 28.5915 25.9498 28.5177 25.3674 28.9107C25.0243 29.1421 24.7929 29.5111 24.7351 29.922C24.6752 30.3328 24.7949 30.7517 25.0582 31.0709L28.7263 35.4989C29.7655 36.7576 31.2974 37.4796 32.927 37.4796H35.2129C36.4914 37.4796 37.6942 36.981 38.5978 36.0774C39.5013 35.1738 40 33.9711 40 32.6925V28.6893H39.998Z" fill="#F47E20"/>
</svg>
