<svg width="150" height="151" viewBox="0 0 150 151" fill="none" xmlns="http://www.w3.org/2000/svg">
<g clip-path="url(#clip0_248_4203)">
<path d="M74.9986 0.896667C33.5783 0.896667 0 34.4749 0 75.8953C0 117.316 33.5783 150.894 74.9986 150.894C116.419 150.894 149.997 117.316 149.997 75.8953C149.997 34.4749 116.422 0.896667 74.9986 0.896667ZM74.1692 140.679C37.4718 140.679 7.72085 110.931 7.72085 74.231C7.72085 37.5308 37.469 7.78536 74.1692 7.78536C110.869 7.78536 140.618 37.5363 140.618 74.2337C140.618 110.931 110.867 140.682 74.1692 140.682V140.679Z" fill="url(#paint0_radial_248_4203)"/>
<path d="M74.1692 7.78537C37.4718 7.78537 7.72086 37.5363 7.72086 74.2337C7.72086 110.931 37.4718 140.682 74.1692 140.682C110.867 140.682 140.618 110.934 140.618 74.2337C140.618 37.5335 110.867 7.78537 74.1692 7.78537ZM74.5329 122.317C47.7745 122.317 26.0834 100.626 26.0834 73.8673C26.0834 47.1088 47.7745 25.4177 74.5329 25.4177C101.291 25.4177 122.983 47.1088 122.983 73.8673C122.983 100.626 101.291 122.317 74.5329 122.317Z" fill="url(#paint1_radial_248_4203)"/>
<path d="M74.1692 7.78537C37.4718 7.78537 7.72086 37.5363 7.72086 74.2337C7.72086 110.931 37.4718 140.682 74.1692 140.682C110.867 140.682 140.618 110.934 140.618 74.2337C140.618 37.5335 110.867 7.78537 74.1692 7.78537ZM74.5329 122.317C47.7745 122.317 26.0834 100.626 26.0834 73.8673C26.0834 47.1088 47.7745 25.4177 74.5329 25.4177C101.291 25.4177 122.983 47.1088 122.983 73.8673C122.983 100.626 101.291 122.317 74.5329 122.317Z" fill="url(#paint2_radial_248_4203)"/>
<path d="M68.1671 94.0606L68.8929 99.0541C68.9924 99.7467 69.5897 100.257 70.2864 100.257H79.7136C80.4103 100.257 81.0076 99.7426 81.1071 99.0541L81.8329 94.0606L84.1928 93.0818L88.2366 96.097C88.7965 96.52 89.5803 96.4619 90.0739 95.9642L96.743 89.2952C97.2365 88.8016 97.2946 88.0177 96.8757 87.4578L93.848 83.4058L94.8185 81.0542L99.8245 80.3284C100.517 80.2289 101.031 79.6358 101.031 78.9349V69.5077C101.031 68.811 100.517 68.2137 99.8286 68.1142L94.831 67.3842L93.8522 65.0244L96.8715 60.9806C97.2904 60.4207 97.2323 59.6368 96.7388 59.1433L90.0739 52.4742C89.5803 51.9807 88.7923 51.9185 88.2366 52.3415L84.1928 55.3608L81.8329 54.382L81.1071 49.3885C81.0076 48.6959 80.4103 48.1816 79.7136 48.1816H70.2864C69.5897 48.1816 68.9924 48.6959 68.8929 49.3844L68.1671 54.382L65.8072 55.3608L61.7635 52.3415C61.1994 51.9185 60.4197 51.9765 59.9261 52.4742L53.2612 59.1433C52.7677 59.6368 52.7096 60.4207 53.1285 60.9806L56.1478 65.0285L55.169 67.3884L50.1714 68.1183C49.4788 68.2179 48.9686 68.8151 48.9686 69.5119V78.939C48.9686 79.6399 49.4829 80.233 50.1755 80.3326L55.169 81.0542L56.1478 83.4182L53.1285 87.462C52.7096 88.0219 52.7635 88.8058 53.2612 89.2993L59.9303 95.9642C60.4073 96.4412 61.2326 96.4993 61.7718 96.097L65.8114 93.0818L68.1713 94.0606H68.1671ZM81.4348 69.7566C80.738 69.0598 80.738 67.9317 81.4348 67.2349C82.1315 66.5382 83.2596 66.5382 83.9564 67.2349L89.6799 72.9626C90.3766 73.6593 90.3766 74.7874 89.6799 75.4842L83.9564 81.2118C83.608 81.5602 83.1518 81.7344 82.6956 81.7344C82.2394 81.7344 81.7831 81.5602 81.4348 81.2118C80.738 80.515 80.738 79.3869 81.4348 78.6902L85.8974 74.2234L81.4348 69.7566ZM72.0574 79.586L74.4546 68.1308C74.6579 67.1644 75.5952 66.5382 76.5657 66.7497C77.532 66.9529 78.15 67.8944 77.9468 68.8607L75.5495 80.316C75.3754 81.1579 74.633 81.7344 73.8076 81.7344C73.6873 81.7344 73.5629 81.7219 73.4426 81.6971C72.4763 81.4938 71.8583 80.5524 72.0616 79.586H72.0574ZM60.3243 75.4842C59.6275 74.7874 59.6275 73.6593 60.3243 72.9626L66.0519 67.2349C66.7487 66.5382 67.8768 66.5382 68.5736 67.2349C69.2703 67.9317 69.2703 69.0598 68.5736 69.7566L64.1068 74.2234L68.5736 78.6902C69.2703 79.3869 69.2703 80.515 68.5736 81.2118C68.2252 81.5602 67.769 81.7344 67.3127 81.7344C66.8565 81.7344 66.4003 81.5602 66.0519 81.2118L60.3243 75.4842ZM93.1845 43.3416C93.8066 42.4042 95.0757 42.1512 96.013 42.7692C100.169 45.5273 103.673 49.036 106.431 53.1876C107.053 54.1249 106.8 55.3899 105.859 56.0161C105.511 56.2484 105.121 56.3562 104.731 56.3562C104.071 56.3562 103.424 56.0369 103.03 55.4438C100.575 51.7443 97.4522 48.6212 93.7527 46.166C92.8153 45.5438 92.5582 44.2747 93.1803 43.3374L93.1845 43.3416ZM42.312 82.6676C42.6023 83.7583 41.9512 84.874 40.8645 85.1643C40.6903 85.2099 40.512 85.2307 40.3419 85.2307C39.4378 85.2307 38.6125 84.6293 38.3719 83.7127C37.5715 80.7017 37.1692 77.504 37.1692 74.2151C37.165 53.3659 54.1446 36.3987 75.0145 36.3987C78.2661 36.3987 81.4348 36.801 84.4334 37.5891C85.3334 37.8006 86.0135 38.6093 86.0135 39.5757C86.0135 40.7038 85.1135 41.6162 83.9896 41.6162H83.9606C83.7822 41.6162 83.608 41.5913 83.438 41.5499C80.767 40.8406 77.9343 40.4798 75.0187 40.4798C56.3925 40.4798 41.2419 55.6138 41.2419 74.2192C41.2419 77.1556 41.6028 80.0008 42.3078 82.6717L42.312 82.6676ZM112.831 74.2192C112.831 95.0891 95.8637 112.069 75.0104 112.069C71.7712 112.069 68.5653 111.654 65.4837 110.837C64.3971 110.547 63.7459 109.431 64.0363 108.34C64.3266 107.254 65.4422 106.611 66.5289 106.893C69.2703 107.623 72.1238 107.988 75.0104 107.988C93.6158 107.988 108.75 92.8371 108.75 74.2192C108.75 71.4197 108.389 68.5663 107.676 65.746C107.398 64.6552 108.061 63.5437 109.152 63.27C110.243 62.9838 111.354 63.6557 111.628 64.7465C112.424 67.8944 112.827 71.0796 112.827 74.2192H112.831ZM56.7824 105.097C56.3884 105.69 55.7414 106.009 55.0819 106.009C54.6962 106.009 54.3022 105.897 53.9538 105.669C49.8354 102.932 46.3391 99.4273 43.5645 95.2509C42.9424 94.3136 43.1954 93.0486 44.1369 92.4223C45.0783 91.7961 46.3433 92.0532 46.9654 92.9947C49.4373 96.7149 52.5479 99.8379 56.2142 102.272C57.1515 102.895 57.4087 104.164 56.7865 105.101L56.7824 105.097Z" fill="#F93822"/>
</g>
<defs>
<radialGradient id="paint0_radial_248_4203" cx="0" cy="0" r="1" gradientUnits="userSpaceOnUse" gradientTransform="translate(74.9986 75.8953) scale(74.9986 74.9986)">
<stop stop-color="#F93822"/>
<stop offset="1" stop-color="#F37721" stop-opacity="0.13"/>
</radialGradient>
<radialGradient id="paint1_radial_248_4203" cx="0" cy="0" r="1" gradientUnits="userSpaceOnUse" gradientTransform="translate(74.9986 75.8953) scale(74.9986 74.9986)">
<stop stop-color="#F93822"/>
<stop offset="1" stop-color="#F37721" stop-opacity="0.13"/>
</radialGradient>
<radialGradient id="paint2_radial_248_4203" cx="0" cy="0" r="1" gradientUnits="userSpaceOnUse" gradientTransform="translate(74.1692 74.2337) scale(66.4484 66.4484)">
<stop stop-color="#F93822"/>
<stop offset="0.38" stop-color="#F83821" stop-opacity="0.9801"/>
<stop offset="0.52" stop-color="#F83A21" stop-opacity="0.9409"/>
<stop offset="0.62" stop-color="#F83D21" stop-opacity="0.8464"/>
<stop offset="0.7" stop-color="#F74221" stop-opacity="0.7225"/>
<stop offset="0.77" stop-color="#F74921" stop-opacity="0.5776"/>
<stop offset="0.83" stop-color="#F65121" stop-opacity="0.4225"/>
<stop offset="0.89" stop-color="#F55A21" stop-opacity="0.2704"/>
<stop offset="0.94" stop-color="#F46521" stop-opacity="0.1369"/>
<stop offset="0.98" stop-color="#F37121" stop-opacity="0.0441"/>
<stop offset="1" stop-color="#F37721" stop-opacity="0.13"/>
</radialGradient>
<clipPath id="clip0_248_4203">
<rect width="150" height="150" fill="white" transform="translate(0 0.896667)"/>
</clipPath>
</defs>
</svg>
