<svg width="41" height="42" viewBox="0 0 41 42" fill="none" xmlns="http://www.w3.org/2000/svg">
<path d="M38.2971 34.3413L40.0377 40.6361L33.7429 38.8955C31.7537 40.0738 29.4911 40.6921 27.1636 40.6921C22.1994 40.6921 17.7707 37.8449 15.6157 33.5796C25.1318 33.4475 32.8491 25.7324 32.9813 16.214C37.2465 18.369 40.0937 22.7978 40.0937 27.762C40.0937 30.0895 39.4732 32.352 38.2971 34.3413ZM15.3692 31.2387C12.6251 31.2387 9.95258 30.5084 7.60715 29.1217L0.151951 31.1827L2.21288 23.7297C0.826234 21.382 0.0959473 18.7096 0.0959473 15.9654C0.0959473 7.54244 6.94631 0.692078 15.3692 0.692078C23.7922 0.692078 30.6425 7.54244 30.6425 15.9654C30.6425 24.3883 23.7922 31.2387 15.3692 31.2387ZM16.5408 21.8637H14.1977V24.2069H16.5408V21.8637ZM20.0556 12.4103C20.0556 9.82514 17.9521 7.72389 15.3692 7.72389C12.7864 7.72389 10.6829 9.82738 10.6829 12.4103H13.0261C13.0261 11.1177 14.0767 10.0671 15.3692 10.0671C16.6618 10.0671 17.7124 11.1177 17.7124 12.4103C17.7124 13.0756 17.4414 13.6894 16.9485 14.1397L14.1954 16.6598V19.5205H16.5386V17.6925L18.5301 15.869C19.5001 14.982 20.0534 13.7208 20.0534 12.4103H20.0556Z" fill="#F47E20"/>
</svg>
