<svg width="150" height="151" viewBox="0 0 150 151" fill="none" xmlns="http://www.w3.org/2000/svg">
<g clip-path="url(#clip0_248_4190)">
<path d="M74.9986 0.230103C33.5783 0.230103 0 33.8084 0 75.2287C0 116.649 33.5783 150.227 74.9986 150.227C116.419 150.227 149.997 116.649 149.997 75.2287C149.997 33.8084 116.422 0.230103 74.9986 0.230103ZM74.1692 140.013C37.4718 140.013 7.72085 110.265 7.72085 73.5644C7.72085 36.8642 37.469 7.1188 74.1692 7.1188C110.869 7.1188 140.618 36.8697 140.618 73.5672C140.618 110.265 110.867 140.016 74.1692 140.016V140.013Z" fill="url(#paint0_radial_248_4190)"/>
<path d="M74.1692 7.11877C37.4718 7.11877 7.72086 36.8697 7.72086 73.5672C7.72086 110.265 37.4718 140.016 74.1692 140.016C110.867 140.016 140.618 110.267 140.618 73.5672C140.618 36.8669 110.867 7.11877 74.1692 7.11877ZM74.5329 121.65C47.7745 121.65 26.0834 99.9591 26.0834 73.2007C26.0834 46.4422 47.7745 24.7511 74.5329 24.7511C101.291 24.7511 122.983 46.4422 122.983 73.2007C122.983 99.9591 101.291 121.65 74.5329 121.65Z" fill="url(#paint1_radial_248_4190)"/>
<path d="M74.1692 7.11877C37.4718 7.11877 7.72086 36.8697 7.72086 73.5672C7.72086 110.265 37.4718 140.016 74.1692 140.016C110.867 140.016 140.618 110.267 140.618 73.5672C140.618 36.8669 110.867 7.11877 74.1692 7.11877ZM74.5329 121.65C47.7745 121.65 26.0834 99.9591 26.0834 73.2007C26.0834 46.4422 47.7745 24.7511 74.5329 24.7511C101.291 24.7511 122.983 46.4422 122.983 73.2007C122.983 99.9591 101.291 121.65 74.5329 121.65Z" fill="url(#paint2_radial_248_4190)"/>
<path d="M68.2295 66.2902C68.2295 62.5506 71.2604 59.5196 75 59.5196C78.7396 59.5196 81.7705 62.5506 81.7705 66.2902C81.7705 70.0298 78.7396 73.0647 75 73.0647C71.2604 73.0647 68.2295 70.0338 68.2295 66.2902ZM79.4483 74.6862L76.4094 82.2535L75.7567 76.7923H76.2052C76.4654 76.7923 76.6696 76.568 76.6696 76.3078V74.8344C76.6696 74.5741 76.4654 74.3499 76.2052 74.3499H73.8029C73.5426 74.3499 73.3184 74.5741 73.3184 74.8344V76.3078C73.3184 76.568 73.5426 76.7923 73.8029 76.7923H74.2313L73.5786 82.2535L70.5597 74.6862C67.5048 75.4149 65.1385 77.9494 64.7461 81.1725L64.4459 83.6869C67.0924 86.4816 70.84 88.2152 74.996 88.2152C79.152 88.2152 82.9156 86.4816 85.5622 83.6869L85.2659 81.1725C84.8735 77.9494 82.5072 75.4149 79.4523 74.6862H79.4483ZM109.617 69.8976V77.2247C109.617 78.9263 108.368 80.3677 106.682 80.6159L100.352 81.5368C99.5636 83.4426 99.3514 83.9551 98.5626 85.861L102.386 90.9859C103.403 92.3472 103.267 94.253 102.062 95.4582L96.885 100.635C95.6839 101.836 93.7781 101.976 92.4167 100.959L87.3038 97.1438C85.39 97.9366 84.8775 98.1488 82.9637 98.9415L82.0468 105.256C81.8025 106.937 80.3612 108.186 78.6595 108.186H71.3325C69.6308 108.186 68.1895 106.937 67.9452 105.256L67.0283 98.9415C65.1145 98.1488 64.602 97.9366 62.6882 97.1438L57.5753 100.959C56.2139 101.976 54.3081 101.836 53.107 100.635L47.926 95.4582C46.7248 94.257 46.5847 92.3512 47.6017 90.9859L51.4173 85.877C50.6246 83.9631 50.4124 83.4506 49.6196 81.5368L43.3095 80.6199C41.6279 80.3757 40.3787 78.9343 40.3787 77.2287V69.9016C40.3787 68.204 41.6279 66.7586 43.3095 66.5144L49.6236 65.5935C50.4164 63.6836 50.6286 63.1712 51.4213 61.2573L47.6057 56.1444C46.5887 54.7831 46.7248 52.8813 47.93 51.6761L53.111 46.4951C54.3121 45.294 56.2179 45.1578 57.5793 46.1748L62.6922 49.9905C64.606 49.1977 65.1185 48.9855 67.0323 48.1928L67.9492 41.8787C68.1935 40.1931 69.6388 38.9479 71.3365 38.9479H78.6635C80.3652 38.9479 81.8065 40.1931 82.0508 41.8787L82.9677 48.1928C84.8815 48.9855 85.394 49.1937 87.3078 49.9905L92.4207 46.1748C93.7861 45.1578 95.6879 45.294 96.889 46.4951L102.066 51.6761C103.271 52.8773 103.407 54.7831 102.39 56.1484L98.5787 61.2573C99.3714 63.1712 99.5836 63.6836 100.376 65.5935L106.686 66.5144C108.368 66.7586 109.621 68.204 109.621 69.9016L109.617 69.8976ZM93.3817 73.5611C93.3817 63.4074 85.1538 55.1795 75 55.1795C64.8462 55.1795 56.6183 63.4074 56.6183 73.5611C56.6183 83.7149 64.8502 91.9388 75 91.9388C85.1498 91.9388 93.3817 83.7109 93.3817 73.5611Z" fill="#F93822"/>
</g>
<defs>
<radialGradient id="paint0_radial_248_4190" cx="0" cy="0" r="1" gradientUnits="userSpaceOnUse" gradientTransform="translate(74.9986 75.2287) scale(74.9986 74.9986)">
<stop stop-color="#F93822"/>
<stop offset="1" stop-color="#F37721" stop-opacity="0.13"/>
</radialGradient>
<radialGradient id="paint1_radial_248_4190" cx="0" cy="0" r="1" gradientUnits="userSpaceOnUse" gradientTransform="translate(74.9986 75.2287) scale(74.9986 74.9986)">
<stop stop-color="#F93822"/>
<stop offset="1" stop-color="#F37721" stop-opacity="0.13"/>
</radialGradient>
<radialGradient id="paint2_radial_248_4190" cx="0" cy="0" r="1" gradientUnits="userSpaceOnUse" gradientTransform="translate(74.1692 73.5672) scale(66.4484 66.4484)">
<stop stop-color="#F93822"/>
<stop offset="0.38" stop-color="#F83821" stop-opacity="0.9801"/>
<stop offset="0.52" stop-color="#F83A21" stop-opacity="0.9409"/>
<stop offset="0.62" stop-color="#F83D21" stop-opacity="0.8464"/>
<stop offset="0.7" stop-color="#F74221" stop-opacity="0.7225"/>
<stop offset="0.77" stop-color="#F74921" stop-opacity="0.5776"/>
<stop offset="0.83" stop-color="#F65121" stop-opacity="0.4225"/>
<stop offset="0.89" stop-color="#F55A21" stop-opacity="0.2704"/>
<stop offset="0.94" stop-color="#F46521" stop-opacity="0.1369"/>
<stop offset="0.98" stop-color="#F37121" stop-opacity="0.0441"/>
<stop offset="1" stop-color="#F37721" stop-opacity="0.13"/>
</radialGradient>
<clipPath id="clip0_248_4190">
<rect width="150" height="150" fill="white" transform="translate(0 0.230103)"/>
</clipPath>
</defs>
</svg>
