<svg width="104" height="104" viewBox="0 0 104 104" fill="none" xmlns="http://www.w3.org/2000/svg"><path d="M51.966 103.971C80.6661 103.971 103.932 80.7428 103.932 52.0895C103.932 23.4361 80.6661 0.208008 51.966 0.208008C23.266 0.208008 0 23.4361 0 52.0895C0 80.7428 23.266 103.971 51.966 103.971Z" fill="url(#paint0_linear_59_2)"/><path d="M51.966 22.0894C49.7132 22.0894 47.16 23.8916 47.16 26.2946V32.6776C35.6706 34.9304 27.0349 45.0681 27.0349 57.1582C27.0349 70.9004 38.2238 82.0894 51.966 82.0894C65.7082 82.0894 76.8972 70.9004 76.8972 57.1582C76.8972 45.0681 68.1863 34.9304 56.772 32.6776V26.2946C56.772 23.8916 54.2188 22.0894 51.966 22.0894ZM50.0136 26.2946C50.0136 25.6188 51.0649 24.8678 51.966 24.8678C52.8671 24.8678 53.9185 25.6188 53.9185 26.2946V51.1507C53.9185 51.8265 52.8671 52.5775 51.966 52.5775C51.0649 52.5775 50.0136 51.8265 50.0136 51.1507V26.2946ZM51.966 55.3559C54.2188 55.3559 56.772 53.5537 56.772 51.1507V43.416C62.4792 45.3685 66.5342 50.8503 66.5342 57.1582C66.5342 65.1932 60.0011 71.7264 51.966 71.7264C43.931 71.7264 37.3978 65.1932 37.3978 57.1582C37.3978 50.7752 41.528 45.3685 47.16 43.416V51.1507C47.16 53.5537 49.7132 55.3559 51.966 55.3559ZM74.1187 57.1582C74.1187 69.3234 64.2063 79.3109 51.966 79.3109C39.7257 79.3109 29.8133 69.3985 29.8133 57.1582C29.8133 46.57 37.2476 37.784 47.16 35.5312V40.4123C39.8759 42.5149 34.5442 49.1982 34.5442 57.1582C34.5442 66.7702 42.354 74.5049 51.8909 74.5049C61.4278 74.5049 69.2376 66.6951 69.2376 57.1582C69.2376 49.1982 63.9059 42.5149 56.6218 40.4123V35.5312C66.5342 37.7089 73.9685 46.57 73.9685 57.1582H74.1187Z" fill="white"/><defs><linearGradient id="paint0_linear_59_2" x1="0.00410118" y1="52.0895" x2="103.932" y2="52.0895" gradientUnits="userSpaceOnUse"><stop stop-color="#F47E20"/><stop offset="1" stop-color="#F47E20"/></linearGradient></defs></svg>
