<svg width="40" height="41" viewBox="0 0 40 41" fill="none" xmlns="http://www.w3.org/2000/svg">
<path fill-rule="evenodd" clip-rule="evenodd" d="M26.5802 8.12878H21.4067V3.01888L26.5802 8.12878ZM27.4354 27.172C27.4565 27.1766 27.4798 27.1813 27.5009 27.1882V37.0687C27.5009 37.708 26.9751 38.2273 26.3278 38.2273H1.17303C0.525762 38.2273 0 37.708 0 37.0687V3.49894C0 2.85963 0.525762 2.34033 1.17303 2.34033H19.0653V9.28508C19.0653 9.92439 19.5911 10.4437 20.2383 10.4437H27.5032V11.4823L22.9817 15.092C22.1147 15.7821 21.4838 16.6937 21.1543 17.7254C20.8342 18.7248 20.8062 19.8164 21.0749 20.8827C21.3763 22.0898 21.6965 23.2969 22.0516 24.5686L19.5841 27.0058C19.1261 27.4582 19.1261 28.1898 19.5841 28.6422C19.8131 28.8684 20.1122 28.9815 20.4136 28.9815C20.715 28.9815 21.0141 28.8684 21.2431 28.6422L23.7107 26.205C25.024 26.5604 26.2437 26.8766 27.4401 27.1697L27.4354 27.172ZM4.68746 9.28508C4.68746 9.92439 5.21323 10.4437 5.8605 10.4437H15.0789C15.7261 10.4437 16.2519 9.92439 16.2519 9.28508C16.2519 8.64577 15.7261 8.12647 15.0789 8.12647H5.8605C5.21323 8.12647 4.68746 8.64577 4.68746 9.28508ZM4.68746 13.9149C4.68746 14.5542 5.21323 15.0735 5.8605 15.0735H19.3761C20.0234 15.0735 20.5491 14.5542 20.5491 13.9149C20.5491 13.2756 20.0234 12.7563 19.3761 12.7563H5.8605C5.21323 12.7563 4.68746 13.2756 4.68746 13.9149ZM4.68746 18.5447C4.68746 19.1841 5.21323 19.7034 5.8605 19.7034H15.0789C15.7261 19.7034 16.2519 19.1841 16.2519 18.5447C16.2519 17.9054 15.7261 17.3861 15.0789 17.3861H5.8605C5.21323 17.3861 4.68746 17.9054 4.68746 18.5447ZM4.68746 23.1746C4.68746 23.8139 5.21323 24.3332 5.8605 24.3332H15.0789C15.7261 24.3332 16.2519 23.8139 16.2519 23.1746C16.2519 22.5353 15.7261 22.016 15.0789 22.016H5.8605C5.21323 22.016 4.68746 22.5353 4.68746 23.1746ZM4.68746 27.8067C4.68746 28.446 5.21323 28.963 5.8605 28.963H15.0789C15.7261 28.963 16.2519 28.4437 16.2519 27.8067C16.2519 27.1697 15.7261 26.6481 15.0789 26.6481H5.8605C5.21323 26.6481 4.68746 27.1674 4.68746 27.8067ZM22.8134 32.4365C22.8134 31.7972 22.2877 31.2779 21.6404 31.2779H5.8605C5.21323 31.2779 4.68746 31.7972 4.68746 32.4365C4.68746 33.0759 5.21323 33.5929 5.8605 33.5929H21.6427C22.29 33.5929 22.8158 33.0736 22.8158 32.4365H22.8134ZM39.5537 9.71667C39.4672 9.5205 39.4088 9.39356 39.341 9.29662C39.2499 9.16737 39.1424 9.09813 38.9274 8.99889C38.5349 8.81887 38.1283 8.67577 37.7053 8.58576C36.2869 8.28572 34.7798 8.64807 33.6535 9.54819L24.4515 16.8945C23.4139 17.7208 23.0144 19.004 23.3462 20.3311C23.5425 21.1182 23.7481 21.9006 23.9584 22.6853L31.9009 14.8404C32.3589 14.3881 33.0997 14.3881 33.5577 14.8404C34.0157 15.2928 34.0157 16.0244 33.5577 16.4768L25.6175 24.3193C26.4096 24.5271 27.2041 24.7302 27.9986 24.9263C29.2464 25.231 30.6648 24.8294 31.4803 23.8347L35.198 19.2902L38.9158 14.7458C39.5817 13.9311 39.9766 12.9179 40 11.87C40.0164 11.1615 39.8691 10.4322 39.5537 9.71898V9.71667Z" fill="#F47E20"/>
</svg>
