<svg width="150" height="151" viewBox="0 0 150 151" fill="none" xmlns="http://www.w3.org/2000/svg">
<g clip-path="url(#clip0_248_4212)">
<path d="M74.9986 0.896667C33.5783 0.896667 0 34.4749 0 75.8953C0 117.316 33.5783 150.894 74.9986 150.894C116.419 150.894 149.997 117.316 149.997 75.8953C149.997 34.4749 116.422 0.896667 74.9986 0.896667ZM74.1692 140.679C37.4718 140.679 7.72085 110.931 7.72085 74.231C7.72085 37.5308 37.469 7.78536 74.1692 7.78536C110.869 7.78536 140.618 37.5363 140.618 74.2337C140.618 110.931 110.867 140.682 74.1692 140.682V140.679Z" fill="url(#paint0_radial_248_4212)"/>
<path d="M74.1692 7.78537C37.4718 7.78537 7.72086 37.5363 7.72086 74.2337C7.72086 110.931 37.4718 140.682 74.1692 140.682C110.867 140.682 140.618 110.934 140.618 74.2337C140.618 37.5335 110.867 7.78537 74.1692 7.78537ZM74.5329 122.317C47.7745 122.317 26.0834 100.626 26.0834 73.8673C26.0834 47.1088 47.7745 25.4177 74.5329 25.4177C101.291 25.4177 122.983 47.1088 122.983 73.8673C122.983 100.626 101.291 122.317 74.5329 122.317Z" fill="url(#paint1_radial_248_4212)"/>
<path d="M74.1692 7.78537C37.4718 7.78537 7.72086 37.5363 7.72086 74.2337C7.72086 110.931 37.4718 140.682 74.1692 140.682C110.867 140.682 140.618 110.934 140.618 74.2337C140.618 37.5335 110.867 7.78537 74.1692 7.78537ZM74.5329 122.317C47.7745 122.317 26.0834 100.626 26.0834 73.8673C26.0834 47.1088 47.7745 25.4177 74.5329 25.4177C101.291 25.4177 122.983 47.1088 122.983 73.8673C122.983 100.626 101.291 122.317 74.5329 122.317Z" fill="url(#paint2_radial_248_4212)"/>
<path fill-rule="evenodd" clip-rule="evenodd" d="M47.4117 68.2328C43.6374 63.8297 42.1643 56.0948 43.4618 47.5412C43.5191 47.1625 43.7862 46.8527 44.1488 46.7379C44.5113 46.6231 44.9082 46.7264 45.1716 47.0019C48.5833 50.5786 51.0945 50.613 53.9987 50.6513C56.6243 50.6857 59.5972 50.7278 63.1884 53.6007C65.7644 55.6625 67.0162 57.9769 66.9093 60.4825C66.8979 60.735 66.7948 60.9722 66.6155 61.1481L56.4908 71.2931C56.3457 71.4384 56.1587 71.5379 55.9565 71.5723C55.4413 71.6603 54.9261 71.7062 54.4185 71.7062C51.7814 71.7062 49.3581 70.505 47.4079 68.2289L47.4117 68.2328ZM58.8607 71.7598L61.307 74.4758L68.8671 66.8977L66.1575 64.4456L58.8607 71.7598ZM96.6308 90.4506L84.8918 80.5505L74.9274 90.5424L84.804 102.309C86.2123 103.985 88.2578 104.911 90.5705 104.911C92.8832 104.911 95.089 103.985 96.6957 102.374C98.3711 100.695 99.3061 98.2544 99.203 95.8444C99.1114 93.6907 98.1955 91.778 96.6308 90.4544V90.4506ZM61.9748 87.2449L94.5013 54.6412L89.9179 50.0469C89.5286 49.6567 88.8951 49.6567 88.5021 50.0469L56.6854 81.9429L61.9748 87.2449ZM95.9172 56.0604L63.3868 88.6641L68.6763 93.9661L100.497 62.0701C100.684 61.8826 100.791 61.6263 100.791 61.3624C100.791 61.0984 100.684 60.8421 100.497 60.6547L95.9133 56.0604H95.9172ZM61.265 89.3718L61.2573 89.3642L55.2695 83.3622L50.9914 87.6504C50.6022 88.0406 50.6022 88.6756 50.9914 89.0696L61.5741 99.6736C61.7611 99.861 62.0168 99.9682 62.2801 99.9682C62.5434 99.9682 62.7991 99.861 62.9861 99.6736L67.2642 95.3853L61.2802 89.3871L61.265 89.3718ZM91.5322 48.8266L101.718 59.0365L103.233 54.9242L95.6348 47.3079L91.5322 48.8266ZM106.706 43.8268C106.431 43.5514 106.019 43.4596 105.653 43.5973L97.6994 46.5466L103.996 52.8585L106.939 44.8864C107.072 44.5192 106.984 44.106 106.71 43.8306L106.706 43.8268ZM49.5794 90.485C49.3313 90.2364 49.1367 89.9571 48.9917 89.6549L47.4842 91.1659C46.3622 92.2906 45.744 93.794 45.744 95.393C45.744 96.992 46.3622 98.4954 47.4842 99.62L51.0449 103.189C52.1669 104.314 53.6667 104.934 55.2619 104.934C56.8571 104.934 58.3569 104.314 59.4789 103.185L60.9902 101.674C60.6849 101.529 60.4063 101.33 60.1621 101.089L49.5794 90.485Z" fill="#F93822"/>
</g>
<defs>
<radialGradient id="paint0_radial_248_4212" cx="0" cy="0" r="1" gradientUnits="userSpaceOnUse" gradientTransform="translate(74.9986 75.8953) scale(74.9986 74.9986)">
<stop stop-color="#F93822"/>
<stop offset="1" stop-color="#F37721" stop-opacity="0.13"/>
</radialGradient>
<radialGradient id="paint1_radial_248_4212" cx="0" cy="0" r="1" gradientUnits="userSpaceOnUse" gradientTransform="translate(74.9986 75.8953) scale(74.9986 74.9986)">
<stop stop-color="#F93822"/>
<stop offset="1" stop-color="#F37721" stop-opacity="0.13"/>
</radialGradient>
<radialGradient id="paint2_radial_248_4212" cx="0" cy="0" r="1" gradientUnits="userSpaceOnUse" gradientTransform="translate(74.1692 74.2337) scale(66.4484 66.4484)">
<stop stop-color="#F93822"/>
<stop offset="0.38" stop-color="#F83821" stop-opacity="0.9801"/>
<stop offset="0.52" stop-color="#F83A21" stop-opacity="0.9409"/>
<stop offset="0.62" stop-color="#F83D21" stop-opacity="0.8464"/>
<stop offset="0.7" stop-color="#F74221" stop-opacity="0.7225"/>
<stop offset="0.77" stop-color="#F74921" stop-opacity="0.5776"/>
<stop offset="0.83" stop-color="#F65121" stop-opacity="0.4225"/>
<stop offset="0.89" stop-color="#F55A21" stop-opacity="0.2704"/>
<stop offset="0.94" stop-color="#F46521" stop-opacity="0.1369"/>
<stop offset="0.98" stop-color="#F37121" stop-opacity="0.0441"/>
<stop offset="1" stop-color="#F37721" stop-opacity="0.13"/>
</radialGradient>
<clipPath id="clip0_248_4212">
<rect width="150" height="150" fill="white" transform="translate(0 0.896667)"/>
</clipPath>
</defs>
</svg>
