<svg width="104" height="104" viewBox="0 0 104 104" fill="none" xmlns="http://www.w3.org/2000/svg"><path d="M51.966 103.453C80.6661 103.453 103.932 80.2253 103.932 51.5719C103.932 22.9186 80.6661 -0.30957 51.966 -0.30957C23.266 -0.30957 0 22.9186 0 51.5719C0 80.2253 23.266 103.453 51.966 103.453Z" fill="url(#paint0_linear_59_2)"/><path d="M82.1721 72.5166C82.1721 71.7707 81.65 71.2485 80.8295 71.2485C76.4287 71.2485 72.0278 71.2485 67.627 71.2485C65.2401 71.2485 62.8532 71.2485 60.4663 71.2485C59.5712 71.2485 59.1237 71.6215 59.1237 72.5166C59.1237 72.9641 59.1237 73.4116 59.1237 73.8592C59.1237 74.3813 58.9745 74.6051 58.4524 74.6051C57.1098 74.6051 55.8417 74.6051 54.4991 74.6051C53.0073 74.5305 51.5155 74.6051 50.0237 74.6051C48.5319 74.5305 47.0401 74.5305 45.5483 74.6051C44.8024 74.6051 44.6532 74.3067 44.7278 73.6354C44.7278 73.1879 44.7278 72.8149 44.7278 72.3674C44.6532 71.6215 44.2056 71.2485 43.5343 71.2485C42.2663 71.2485 41.0729 71.2485 39.8048 71.2485C39.8048 72.069 39.8048 72.8895 39.8048 73.7846C40.4015 73.7846 40.9983 73.7846 41.595 73.7846C42.1171 73.7846 42.2663 73.9338 42.1917 74.4559C42.1917 74.9035 42.1917 75.4256 42.1917 75.8731C42.1917 76.6936 42.7138 77.2158 43.5343 77.2903C44.2056 77.2903 44.9515 77.2903 45.6229 77.2903C47.1147 77.2903 48.6065 77.2903 50.0983 77.2903C51.5901 77.2903 53.0819 77.2903 54.5737 77.2903C56.5876 77.2903 58.6016 77.2903 60.5409 77.2903C61.5106 76.992 61.7344 76.6936 61.7344 75.7239C61.7344 75.1272 61.5106 74.3813 61.809 74.0084C62.1819 73.6354 62.9278 73.9338 63.5245 73.8592C64.8672 73.8592 66.2098 73.8592 67.5524 73.8592C71.2819 73.8592 75.086 73.8592 78.8155 73.8592C79.4123 73.8592 79.5614 74.0084 79.5614 74.6051C79.5614 75.5002 79.5614 76.3207 79.5614 77.2158C79.5614 78.3346 78.9647 78.9313 77.6967 78.9313C74.4147 78.9313 71.2073 78.9313 67.9254 78.9313C67.627 78.9313 67.4032 78.9313 67.1049 78.9313C64.6434 78.9313 62.1073 78.9313 59.6458 78.9313H54.1262C52.8581 78.9313 51.6647 78.9313 50.3966 78.9313H43.6835C42.6393 78.9313 41.595 78.9313 40.5507 78.9313C39.4319 78.9313 38.2384 78.9313 37.1196 78.9313C36.1499 78.9313 35.1056 78.9313 34.136 78.9313C33.0171 78.9313 31.9728 78.9313 30.854 78.9313H27.572C26.8261 78.8567 26.0802 79.0059 25.3343 78.7822C25.1105 78.7822 24.9614 78.633 24.8868 78.4838C24.5884 78.0363 24.4392 77.5141 24.4392 76.992C24.4392 75.9477 24.4392 74.9035 24.4392 73.8592C25.4089 73.8592 26.304 73.8592 27.2736 73.8592C28.2433 73.8592 29.2876 73.8592 30.2573 73.8592C31.3015 73.8592 32.3458 73.8592 33.3901 73.8592C33.3901 73.0387 33.3901 72.2182 33.3901 71.3231C32.3458 71.3231 31.3015 71.3231 30.2573 71.3231C29.2876 71.3231 28.2433 71.3231 27.2736 71.3231C26.304 71.3231 25.4089 71.3231 24.4392 71.3231C24.1409 71.3231 23.7679 71.3231 23.4695 71.3231C22.2015 71.3231 21.754 71.7707 21.754 73.0387C21.754 74.4559 21.754 75.8731 21.754 77.2903C21.754 79.2297 22.7982 80.6469 24.5884 81.3182C25.5581 81.6912 26.6023 81.542 27.572 81.542H30.854C31.9728 81.542 33.0171 81.542 34.136 81.542C35.1056 81.542 36.1499 81.542 37.1196 81.542C38.2384 81.542 39.4319 81.542 40.5507 81.542H43.6835C45.9212 81.542 48.1589 81.542 50.3966 81.542C51.6647 81.542 52.8581 81.542 54.1262 81.542C55.9909 81.542 57.8557 81.542 59.6458 81.542C62.1073 81.542 64.6434 81.542 67.1049 81.542C70.8344 81.542 74.5639 81.542 78.2188 81.542C80.1582 81.542 81.7246 80.1248 82.0229 78.1854C82.3213 76.3207 82.0975 74.4559 82.0975 72.5912L82.1721 72.5166Z" fill="white"/><path d="M47.5621 50.8112C48.1588 50.8112 48.5318 50.5875 48.8301 49.9907C48.9793 49.6924 48.9793 49.3194 48.9793 48.9465C48.9793 42.5317 48.9793 36.1169 48.9793 29.6276C48.9793 28.8817 49.1285 28.5087 49.8744 28.5833C50.4711 28.5833 50.6203 28.7325 50.6203 29.4038C50.6203 34.9235 50.6203 40.4432 50.6203 45.9629C50.6203 46.7833 51.217 47.3801 51.8883 47.3801C52.5597 47.3801 53.1564 46.7833 53.1564 45.9629C53.1564 39.7719 53.1564 33.5809 53.1564 27.3153C53.1564 26.4948 52.6342 25.9727 51.8137 25.9727C51.1424 25.9727 50.5457 25.9727 49.8744 25.9727C49.2777 25.9727 48.7555 25.9727 48.1588 25.9727C46.7416 25.9727 46.2941 26.4202 46.2941 27.7628C46.2941 34.8489 46.2941 41.8604 46.2941 48.9465C46.2941 49.2448 46.2941 49.5432 46.3687 49.8416C46.5924 50.3637 46.9654 50.7366 47.5621 50.7366V50.8112Z" fill="white"/><path d="M67.6269 51.0345C67.6269 51.9296 68.2236 52.5263 68.9695 52.5263C69.7154 52.5263 70.2376 51.9296 70.2376 50.9599C70.2376 49.3189 70.2376 47.7525 70.2376 46.1115C70.2376 44.5451 70.2376 42.9042 70.2376 41.3378C70.2376 40.1443 69.79 39.6968 68.5966 39.6968C67.4031 39.6968 66.2097 39.6968 65.0163 39.6968C63.8228 39.6968 63.3753 40.2189 63.3753 41.4124C63.3753 42.8296 63.3753 44.3214 63.3753 45.7386C63.3753 46.7829 63.8974 47.3796 64.6433 47.4542C65.4638 47.4542 65.9859 46.8574 65.9859 45.8132C65.9859 44.8435 65.9859 43.9484 65.9859 42.9788C65.9859 42.755 65.9113 42.4566 66.1351 42.4566C66.5827 42.4566 67.0302 42.382 67.4777 42.4566C67.7761 42.4566 67.6269 42.9042 67.6269 43.2025C67.6269 45.8132 67.6269 48.4984 67.6269 51.1091V51.0345Z" fill="white"/><path d="M24.2154 69.3842C24.3645 69.9809 24.7375 70.3538 25.4088 70.3538C26.0801 70.3538 26.6768 70.3538 27.3481 70.3538C28.1686 70.3538 29.0637 70.3538 29.8842 70.3538C30.7047 70.3538 31.5998 70.3538 32.4203 70.3538C33.2408 70.3538 33.9867 70.3538 34.8072 70.3538C35.6277 70.3538 36.3736 70.3538 37.1941 70.3538C38.3129 70.3538 39.5064 70.3538 40.6252 70.3538C41.7441 70.3538 42.9375 70.3538 44.0564 70.3538C45.399 70.3538 46.7416 70.3538 48.0842 70.3538H52.5597C54.0515 70.3538 55.5433 70.3538 57.0351 70.3538C58.6761 70.3538 60.317 70.3538 61.958 70.3538C64.2703 70.3538 66.5826 70.3538 68.8203 70.3538C71.8785 70.3538 75.0113 70.3538 78.0695 70.3538C78.8154 70.3538 79.1884 69.9063 79.3376 69.235C79.3376 68.9366 79.3376 68.7128 79.3376 68.4145C79.3376 56.9276 79.3376 45.4407 79.3376 33.9538C79.3376 33.6554 79.3376 33.4316 79.3376 33.1333C79.1884 32.3874 78.7409 32.0144 77.9949 32.0144C75.1605 32.0144 72.2515 32.0144 69.4171 32.0144C67.1048 32.0144 64.7925 32.0144 62.5548 32.0144C61.958 32.0144 61.3613 32.0144 60.9884 31.4177C60.8392 31.1193 60.4662 31.1193 60.0933 31.1193C59.1982 31.1193 58.3031 31.1193 57.408 31.1193C57.1097 31.1193 56.7367 31.1193 56.4384 31.1193C55.0211 31.1193 54.5736 31.5669 54.5736 32.9841C54.5736 35.2218 54.5736 37.4595 54.5736 39.6226C54.5736 40.8907 54.5736 42.0841 54.5736 43.3521C54.5736 44.1726 55.1703 44.7694 55.9162 44.7694C56.6621 44.7694 57.1843 44.1726 57.2589 43.3521C57.2589 43.203 57.2589 42.9792 57.2589 42.83C57.2589 40.0702 57.2589 37.2357 57.2589 34.4759C57.2589 34.2521 57.1097 33.9538 57.408 33.73C57.5572 33.73 57.7064 33.73 57.8556 33.73C58.5518 33.73 58.8998 34.0781 58.8998 34.7743C58.8998 37.6087 58.8998 40.4431 58.8998 43.2776C58.8998 44.1726 59.422 44.7694 60.1679 44.7694C60.9138 44.7694 61.4359 44.1726 61.4359 43.203C61.4359 40.5923 61.4359 37.9071 61.4359 35.2964C61.4359 34.6997 61.5851 34.4759 62.1818 34.4759C64.4195 34.4759 66.6572 34.4759 68.8949 34.4759C71.2818 34.4759 73.6687 34.4759 75.981 34.4759C76.5777 34.4759 76.6523 34.6251 76.6523 35.2218C76.6523 45.8136 76.6523 56.4055 76.6523 66.9973C76.6523 67.594 76.5031 67.6686 75.981 67.6686C73.5195 67.6686 71.0581 67.6686 68.5966 67.6686C66.3589 67.6686 64.1212 67.6686 61.8834 67.6686C60.3171 67.6686 58.6761 67.6686 57.1097 67.6686C55.5433 67.6686 54.0515 67.6686 52.4851 67.6686C50.9933 67.6686 49.5015 67.6686 48.0097 67.6686C46.667 67.6686 45.3244 67.6686 43.9818 67.6686C42.8629 67.6686 41.6695 67.6686 40.5506 67.6686C39.4318 67.6686 38.2383 67.6686 37.1195 67.6686C36.299 67.6686 35.5531 67.6686 34.7326 67.6686C33.9121 67.6686 33.1662 67.6686 32.3457 67.6686C31.5252 67.6686 30.6301 67.6686 29.8096 67.6686C28.9891 67.6686 28.094 67.6686 27.2736 67.6686C26.6022 67.7432 26.6768 67.2956 26.6768 66.8481C26.6768 56.2563 26.6768 45.739 26.6768 35.1472C26.6768 34.9234 26.6768 34.7743 26.6768 34.5505C26.6768 34.3267 26.826 34.4759 26.9752 34.5505C27.4973 35.4456 28.1686 36.1169 29.0637 36.639C29.8842 37.2357 30.7793 37.6087 31.749 37.6833C32.6441 37.9071 33.5391 37.9071 34.4342 37.6833C35.4785 37.5341 36.299 37.1612 37.1195 36.4898C37.6416 36.1915 37.6416 36.4898 37.6416 36.8628C37.6416 39.3989 37.6416 41.8603 37.6416 44.3964C37.6416 44.6948 37.6416 44.9931 37.7162 45.2915C37.8654 45.9628 38.3875 46.4103 39.0588 46.3358C39.6555 46.3358 40.1777 45.8136 40.2523 45.1423C40.2523 44.9185 40.2523 44.6948 40.2523 44.471C40.2523 37.9816 40.2523 31.4923 40.2523 24.9283C40.2523 24.257 40.476 24.1078 40.9982 24.1078C41.7441 23.9587 41.8932 24.3316 41.8932 25.0775C41.8932 32.1636 41.8932 39.1751 41.8932 46.2612C41.8932 46.4849 41.8932 46.6341 41.8932 46.8579C41.8932 47.5292 42.49 48.0513 43.2359 47.9767C43.9072 47.9767 44.4293 47.5292 44.5039 46.8579C44.5039 46.5595 44.5039 46.3358 44.5039 46.0374C44.5039 38.5784 44.5039 31.0447 44.5039 23.5857C44.5039 23.3619 44.5039 23.1382 44.5039 22.9144C44.5039 22.0939 44.0564 21.6464 43.2359 21.5718C42.49 21.5718 41.8187 21.5718 41.0728 21.5718C40.4014 21.5718 39.7301 21.5718 38.9842 21.5718C38.1637 21.5718 37.7908 22.0193 37.7162 22.8398C37.7162 23.4365 37.7162 24.0333 37.7162 24.7046C37.4178 25.0029 37.2687 24.7046 37.1195 24.5554C36.3736 24.1078 35.6277 23.6603 34.7326 23.5857C33.7629 23.2874 32.7186 23.2128 31.749 23.5111C30.7793 23.5857 29.8842 23.9587 29.0637 24.5554C28.1686 25.0775 27.4227 25.8234 26.9006 26.7185C25.9309 28.0611 25.6326 29.5529 25.7072 31.1939C25.7072 31.4177 25.9309 31.7906 25.4088 31.8652C24.3645 31.8652 23.917 32.3874 23.917 33.6554C23.917 45.2169 23.917 56.7784 23.917 68.4145C23.917 68.7128 23.917 68.9366 23.9916 69.235L24.2154 69.3842ZM29.3621 34.7743C29.3621 34.7743 29.3621 34.3267 29.4367 34.1029C29.4367 34.3267 29.3621 34.5505 29.3621 34.7743ZM31.8982 36.639C31.8982 36.639 31.8982 37.0866 31.8982 37.3103C31.8982 37.0866 31.8982 36.8628 31.8982 36.639ZM29.3621 26.3456C29.3621 26.3456 29.3621 26.8677 29.3621 27.1661C29.3621 26.8677 29.3621 26.6439 29.3621 26.3456ZM29.4367 27.9865C29.4367 27.9865 29.4367 27.4644 29.4367 27.2406C29.4367 27.4644 29.4367 27.7628 29.4367 27.9865C30.108 27.0915 31.0777 26.6439 32.0473 26.1964C33.017 26.1964 33.9867 26.0472 34.8818 26.4201C35.8514 26.8677 36.5973 27.539 37.1941 28.4341C38.0146 30.1497 37.94 31.8652 36.8957 33.5062C36.2244 34.3267 35.3293 34.9234 34.3596 35.2964C33.5391 35.4456 32.7932 35.5202 31.9727 35.2964C31.0031 34.998 30.1826 34.4759 29.4367 33.73C28.094 31.7906 28.0195 29.8513 29.2875 27.912L29.4367 27.9865Z" fill="white"/><path d="M36.672 47.6042C36.672 47.6042 36.4482 47.828 36.4482 47.9026C36.4482 47.7534 36.5974 47.6788 36.672 47.6042C35.9261 47.0075 35.031 46.7837 34.2851 46.2616C33.6138 45.7395 32.7933 45.4411 32.0474 45.0681C31.7491 44.7698 31.3761 44.6206 31.0032 44.4714C30.3318 44.1731 29.5859 44.3968 29.2876 44.9936C28.9146 45.5903 29.1384 46.3362 29.8097 46.7091C30.4064 47.0821 31.0777 47.3804 31.6745 47.7534C32.495 48.2009 33.2409 48.6485 34.0614 49.096C34.8073 49.5436 35.4786 49.9911 36.2991 50.3641C38.313 51.5575 40.3269 52.7509 42.4155 53.7952C42.4155 52.8255 42.4155 51.8559 42.4155 50.8862C42.1917 50.737 41.9679 50.5878 41.7442 50.4386C40.0286 49.469 38.313 48.5739 36.5974 47.6042H36.672Z" fill="white"/><path d="M42.5647 53.7193C43.5343 54.2415 44.4294 54.7636 45.3991 55.3603C46.2196 55.8079 46.9655 56.2554 47.786 56.7029C48.0843 56.8521 48.4573 57.0759 48.8302 57.0013C49.1286 57.0013 49.3524 56.9267 49.5762 56.7029C50.695 55.7333 51.8139 54.7636 52.9327 53.7193C54.4991 52.4513 55.9909 51.1087 57.4081 49.766C57.5573 49.6169 57.7811 49.5423 57.8557 49.3931C58.3032 48.7964 58.6762 48.871 59.1983 49.3931C60.0188 50.2136 60.8393 50.8849 61.7344 51.7054C63.5245 53.3464 65.3147 54.9874 67.1049 56.6283C67.8508 57.3743 68.5967 58.0456 69.4172 58.7915C68.7459 59.0898 68.1491 59.0152 67.627 59.1644C66.7319 59.3136 66.2098 59.8357 66.2844 60.6562C66.2844 61.4021 66.9557 61.8497 67.8508 61.7751C69.4172 61.6259 70.9836 61.4021 72.4754 61.1784C72.9975 61.1038 73.4451 60.7308 73.4451 60.1341C73.4451 58.4931 73.4451 56.7775 73.4451 55.1365C73.4451 54.3906 72.7737 53.9431 72.177 53.9431C71.5057 53.9431 70.909 54.5398 70.909 55.2857C70.909 55.7333 70.909 56.1808 70.909 56.7029C69.7155 55.6587 68.6713 54.689 67.627 53.7939C65.8368 52.1529 64.0467 50.5119 62.2565 48.871C61.436 48.1251 60.6901 47.3792 59.8696 46.7078C58.7508 45.6636 58.3778 45.7382 57.259 46.7824C55.6926 48.1251 54.1262 49.4677 52.6344 50.8849C51.3663 52.0038 50.0237 53.1226 48.7557 54.2415C48.4573 54.2415 48.2335 54.0923 48.0098 53.9431C47.1893 53.4956 46.4434 53.1226 45.6229 52.6751C44.6532 52.0037 43.6089 51.5562 42.6393 51.0341C42.6393 52.0038 42.6393 52.9734 42.6393 53.9431L42.5647 53.7193Z" fill="white"/><path d="M36.3735 73.7846C37.4924 73.7846 38.5366 73.7846 39.6555 73.7846C39.6555 72.9641 39.6555 72.1436 39.6555 71.2485C38.5366 71.2485 37.4924 71.2485 36.3735 71.2485C36.3735 72.069 36.3735 72.8895 36.3735 73.7846Z" fill="white"/><path d="M36.3737 73.7846C36.3737 72.9641 36.3737 72.1436 36.3737 71.2485C35.3294 71.2485 34.2851 71.2485 33.2409 71.2485C33.2409 72.069 33.2409 72.8895 33.2409 73.7846C34.2851 73.7846 35.3294 73.7846 36.3737 73.7846Z" fill="white"/><path d="M32.3458 31.3432C32.3458 31.3432 33.0171 31.567 33.2409 31.94C32.8679 32.0891 32.5696 32.0891 32.2712 31.94C31.8236 31.7162 31.4507 31.6416 31.3015 32.2383C31.1523 32.7605 30.9286 33.2826 31.6745 33.5809C31.8982 33.6555 32.2712 33.5809 32.2712 33.9539C32.2712 34.6252 32.7933 34.6252 33.2409 34.6252C33.763 34.6252 33.9122 34.3268 33.9122 33.8793C33.9122 33.6555 34.0614 33.5809 34.2105 33.5064C35.5532 32.4621 35.4786 30.8957 33.9868 30.0752C33.6884 29.926 33.4646 29.7768 33.0171 29.5531C33.39 29.4039 33.6138 29.4785 33.8376 29.5531C34.3597 29.7768 34.6581 29.6277 34.8073 29.1055C34.9564 28.5834 35.1056 28.0613 34.3597 27.8375C34.1359 27.8375 33.9122 27.8375 33.9122 27.5391C33.9122 26.8678 33.39 26.9424 32.9425 26.9424C32.4204 26.9424 32.2712 27.1662 32.2712 27.6883C32.2712 27.8375 32.122 27.9121 31.9728 27.9867C30.6302 29.1055 30.7048 30.4482 32.2712 31.3432H32.3458Z" fill="white"/><defs><linearGradient id="paint0_linear_59_2" x1="0.00410118" y1="51.5719" x2="103.932" y2="51.5719" gradientUnits="userSpaceOnUse"><stop stop-color="#F47E20"/><stop offset="1" stop-color="#F47E20"/></linearGradient></defs></svg>
