<svg width="40" height="41" viewBox="0 0 40 41" fill="none" xmlns="http://www.w3.org/2000/svg">
<path d="M28.0266 34.0163L29.6191 32.4239V36.3166C29.6191 37.3604 28.7568 38.2227 27.6861 38.2227H1.93295C0.862322 38.2227 0 37.3604 0 36.3166V5.65154C0 4.58092 0.862322 3.71859 1.93295 3.71859H4.87828V2.7846C4.87828 2.13506 5.40463 1.6087 6.05418 1.6087C6.70372 1.6087 7.23007 2.13506 7.23007 2.7846V3.71859H10.7152V2.7846C10.7152 2.13506 11.2415 1.6087 11.8911 1.6087C12.5406 1.6087 13.067 2.13506 13.067 2.7846V3.71859H16.5521V2.7846C16.5521 2.13506 17.0785 1.6087 17.728 1.6087C18.3775 1.6087 18.9039 2.13506 18.9039 2.7846V3.71859H22.389V2.7846C22.389 2.13506 22.9154 1.6087 23.5649 1.6087C24.2145 1.6087 24.7408 2.13506 24.7408 2.7846V3.71859H27.6906C28.7613 3.71859 29.6236 4.58092 29.6236 5.65154V19.5204L27.274 21.8722V6.07038H24.7408V7.02902C24.7408 7.67856 24.2145 8.20491 23.5649 8.20491C22.9154 8.20491 22.389 7.67856 22.389 7.02902V6.07038H18.9039V7.02902C18.9039 7.67856 18.3775 8.20491 17.728 8.20491C17.0785 8.20491 16.5521 7.67856 16.5521 7.02902V6.07038H13.067V7.02902C13.067 7.67856 12.5406 8.20491 11.8911 8.20491C11.2415 8.20491 10.7152 7.67856 10.7152 7.02902V6.07038H7.23007V7.02902C7.23007 7.67856 6.70372 8.20491 6.05418 8.20491C5.40463 8.20491 4.87828 7.67856 4.87828 7.02902V6.07038H2.34955V35.8731H27.2673V34.5673C27.554 34.4374 27.8161 34.2538 28.0244 34.0186L28.0266 34.0163ZM25.2067 26.8826L28.7097 30.3856L36.9432 22.1521L33.4402 18.6491L25.2067 26.8826ZM23.0117 33.4698L26.1877 32.7464C26.3244 32.715 26.4498 32.6456 26.5483 32.547L27.5092 31.5862L24.0062 28.0831L23.0453 29.044C22.9467 29.1425 22.8773 29.268 22.8459 29.4046L22.1225 32.5806C22.0015 33.1137 22.4786 33.5908 23.0117 33.4698ZM39.7833 18.2616L37.3307 15.809C37.0395 15.5201 36.5714 15.5201 36.2803 15.809L34.6385 17.4508L38.1415 20.9538L39.7833 19.3121C40.0722 19.0231 40.0722 18.5528 39.7833 18.2616ZM22.9512 20.4499C22.9512 24.9474 19.3048 28.5916 14.8095 28.5916C10.3143 28.5916 6.66788 24.9452 6.66788 20.4499C6.66788 15.9546 10.3143 12.3082 14.8095 12.3082C19.3048 12.3082 22.9512 15.9546 22.9512 20.4499ZM18.6508 17.621C18.2163 17.1865 17.5085 17.1865 17.074 17.621L13.7837 20.9113L12.5451 19.6727C12.1106 19.2382 11.4028 19.2382 10.9683 19.6727C10.5338 20.1094 10.5338 20.815 10.9683 21.2495L12.9953 23.2765C13.2126 23.4938 13.4993 23.6035 13.7837 23.6035C14.0682 23.6035 14.3549 23.4938 14.5721 23.2765L18.6508 19.1978C19.0876 18.7633 19.0876 18.0555 18.6508 17.621Z" fill="#F47E20"/>
</svg>
