<svg width="104" height="105" viewBox="0 0 104 105" fill="none" xmlns="http://www.w3.org/2000/svg"><path d="M52.0339 104.181C80.7339 104.181 104 80.9528 104 52.2994C104 23.6461 80.7339 0.417969 52.0339 0.417969C23.3339 0.417969 0.0678711 23.6461 0.0678711 52.2994C0.0678711 80.9528 23.3339 104.181 52.0339 104.181Z" fill="#F93822"/><path d="M58.2849 54.4234C58.2849 54.4234 58.7509 54.5787 58.9838 54.5787C59.3721 54.5787 59.7603 54.4234 59.9933 54.1905L77.1546 39.6693C77.1546 39.6693 77.6982 38.8928 77.6982 38.4269C77.6982 37.961 77.4652 37.4951 77.1546 37.1844L59.9933 22.6633C59.5274 22.275 58.8285 22.1974 58.2849 22.4304C57.7414 22.6633 57.3531 23.2845 57.3531 23.9058V28.4096H27.9226C26.9907 28.4096 26.2919 29.1085 26.2919 30.0404V46.6581C26.2919 47.59 26.9907 48.2888 27.9226 48.2888H57.3531V52.7927C57.3531 53.4139 57.7414 54.0352 58.2849 54.2681V54.4234ZM29.5533 45.1827V31.7487H58.9838C59.9156 31.7487 60.6145 31.0498 60.6145 30.118V27.4778L73.6602 38.4269L60.6145 49.376V46.7358C60.6145 45.8039 59.9156 45.1051 58.9838 45.1051H29.5533V45.1827Z" fill="white"/><path d="M26.9132 67.3895L44.0745 81.9106C44.0745 81.9106 44.7734 82.2989 45.084 82.2989C45.317 82.2989 45.5499 82.2989 45.7829 82.1436C46.3264 81.9106 46.7147 81.2894 46.7147 80.6682V76.1643H76.1452C77.0771 76.1643 77.7759 75.4654 77.7759 74.5336V57.9158C77.7759 56.984 77.0771 56.2851 76.1452 56.2851H46.7147V51.7813C46.7147 51.16 46.3264 50.5388 45.7829 50.3058C45.2393 50.0729 44.5404 50.1505 44.0745 50.5388L26.9132 65.0599C26.9132 65.0599 26.3696 65.8365 26.3696 66.3024C26.3696 66.7683 26.6026 67.2342 26.9132 67.5448V67.3895ZM43.4533 55.198V57.8382C43.4533 58.77 44.1522 59.4689 45.084 59.4689H74.5145V72.9029H45.084C44.1522 72.9029 43.4533 73.6018 43.4533 74.5336V77.1738L30.4076 66.2247L43.4533 55.2756V55.198Z" fill="white"/></svg>
