<svg width="104" height="105" viewBox="0 0 104 105" fill="none" xmlns="http://www.w3.org/2000/svg"><path d="M52.0339 104.146C80.7339 104.146 104 80.9176 104 52.2643C104 23.6109 80.7339 0.382812 52.0339 0.382812C23.3339 0.382812 0.0678711 23.6109 0.0678711 52.2643C0.0678711 80.9176 23.3339 104.146 52.0339 104.146Z" fill="url(#paint0_linear_59_2)"/><path d="M58.6603 42.5892L52.2981 47.2893L45.936 42.5892C45.936 42.5892 45.1786 42.286 44.8756 42.5892C44.5726 42.8925 44.5726 43.3473 44.8756 43.6505L51.465 48.6538V53.5812C51.465 53.9602 51.7679 54.3393 52.2224 54.3393C52.6768 54.3393 52.9798 54.0361 52.9798 53.5812V48.6538L59.6449 43.6505C59.6449 43.6505 59.9479 42.8925 59.6449 42.5892C59.342 42.286 58.8875 42.286 58.5845 42.5892H58.6603Z" fill="white"/><path d="M25.7134 22.6532C24.0471 24.321 23.0625 26.5952 23.0625 28.9452C23.0625 33.8726 27.0767 37.8904 31.9998 37.8904C34.3478 37.8904 36.62 36.9807 38.2863 35.2371C39.9525 33.5694 40.9372 31.2952 40.9372 28.9452C40.9372 24.0178 36.9229 20 31.9998 20C29.6519 20 27.3797 20.9097 25.7134 22.6532ZM38.5892 29.021C38.5892 30.7646 37.9076 32.4323 36.6957 33.6452C35.4839 34.8581 33.8176 35.5404 32.0756 35.5404C28.44 35.5404 25.4862 32.5839 25.4862 28.9452C25.4862 27.2016 26.1678 25.5339 27.3797 24.321C28.5915 23.1081 30.2578 22.4258 31.9998 22.4258C35.6354 22.4258 38.5892 25.3823 38.5892 29.021Z" fill="white"/><path d="M21.9263 51.6111H42.1489C42.7548 51.6111 43.285 51.0805 43.3607 50.474C43.3607 50.1708 43.588 42.5901 38.8163 38.2691C38.3619 37.8901 37.756 37.8901 37.3015 38.2691C37.3015 38.2691 31.9997 42.2869 27.1524 38.2691C26.6979 37.8901 26.092 37.8901 25.6376 38.2691C25.4103 38.4208 20.8659 42.5143 20.7902 50.474C20.7902 50.7772 20.9417 51.0805 21.0932 51.3079C21.3204 51.5353 21.6233 51.6869 21.9263 51.6869V51.6111ZM26.5464 40.695C30.7879 43.4998 35.408 42.2111 37.9074 40.695C40.3311 43.424 40.8613 47.3659 41.0128 49.2611H23.2139C23.5926 44.7885 25.5618 41.9079 26.5464 40.695Z" fill="white"/><path d="M71.9907 37.8904C74.3387 37.8904 76.6109 36.9807 78.2772 35.2371C79.9434 33.5694 80.9281 31.2952 80.9281 28.9452C80.9281 24.0178 76.9138 20 71.9907 20C69.6428 20 67.3706 20.9097 65.7043 22.6532C64.038 24.321 63.0534 26.5952 63.0534 28.9452C63.0534 33.8726 67.0676 37.8904 71.9907 37.8904ZM67.3706 24.321C68.5824 23.1081 70.2487 22.4258 71.9907 22.4258C75.6263 22.4258 78.5801 25.3823 78.5801 29.021C78.5801 30.7646 77.8985 32.4323 76.6866 33.6452C75.4748 34.8581 73.8085 35.5404 72.0665 35.5404C68.431 35.5404 65.4771 32.5839 65.4771 28.9452C65.4771 27.2016 66.1587 25.5339 67.3706 24.321Z" fill="white"/><path d="M83.2758 50.474C83.2758 50.474 83.503 42.5901 78.7314 38.2691C78.277 37.8901 77.671 37.8901 77.2166 38.2691C77.2166 38.2691 71.9148 42.2869 67.0674 38.2691C66.613 37.8901 66.0071 37.8901 65.5526 38.2691C65.3254 38.4208 60.781 42.5143 60.7053 50.474C60.7053 50.7772 60.8567 51.0805 61.0082 51.3079C61.2354 51.5353 61.5384 51.6869 61.8414 51.6869H82.064C82.6699 51.6869 83.2001 51.1563 83.2758 50.5498V50.474ZM63.1289 49.2611C63.5076 44.7885 65.4769 41.9079 66.4615 40.695C70.7029 43.4998 75.3231 42.2111 77.8225 40.695C80.2462 43.424 80.7764 47.3659 80.9279 49.2611H63.1289Z" fill="white"/><path d="M52.2981 56.917C49.9501 56.917 47.6779 57.8267 46.0117 59.5702C44.3454 61.238 43.3607 63.5122 43.3607 65.8622C43.3607 70.7896 47.375 74.8074 52.2981 74.8074C54.646 74.8074 56.9182 73.8977 58.5845 72.1541C60.2508 70.4864 61.2354 68.2122 61.2354 65.8622C61.2354 60.9348 57.2212 56.917 52.2981 56.917ZM56.9182 70.4864C55.7064 71.6993 54.0401 72.3816 52.2981 72.3816C48.6626 72.3816 45.7087 69.4251 45.7087 65.7864C45.7087 64.0428 46.3904 62.3751 47.6022 61.1622C48.814 59.9493 50.4803 59.267 52.2223 59.267C55.8579 59.267 58.8117 62.2235 58.8117 65.8622C58.8117 67.6057 58.1301 69.2735 56.9182 70.4864Z" fill="white"/><path d="M42.1489 88.4524H62.3715C62.9774 88.4524 63.5076 87.9218 63.5834 87.3153C63.5834 87.0121 63.8106 79.4314 59.039 75.1104C58.5845 74.7314 57.9786 74.7314 57.5242 75.1104C57.5242 75.1104 52.2223 79.1282 47.375 75.1104C46.9205 74.7314 46.3146 74.7314 45.8602 75.1104C45.633 75.2621 41.0886 79.3556 41.0128 87.3153C41.0128 87.6186 41.1643 87.9218 41.3158 88.1492C41.543 88.3766 41.846 88.5282 42.1489 88.5282V88.4524ZM46.7691 77.5363C51.0105 80.3411 55.6307 79.0524 58.1301 77.5363C60.5538 80.2653 61.0839 84.2072 61.2354 86.1024H43.4365C43.8152 81.6298 45.7844 78.7492 46.7691 77.5363Z" fill="white"/><defs><linearGradient id="paint0_linear_59_2" x1="0.0719723" y1="52.2643" x2="104" y2="52.2643" gradientUnits="userSpaceOnUse"><stop stop-color="#F47E20"/><stop offset="1" stop-color="#F47E20"/></linearGradient></defs></svg>
