<svg width="150" height="151" viewBox="0 0 150 151" fill="none" xmlns="http://www.w3.org/2000/svg">
<g clip-path="url(#clip0_248_4196)">
<path d="M74.9986 0.230103C33.5783 0.230103 0 33.8084 0 75.2287C0 116.649 33.5783 150.227 74.9986 150.227C116.419 150.227 149.997 116.649 149.997 75.2287C149.997 33.8084 116.422 0.230103 74.9986 0.230103ZM74.1692 140.013C37.4718 140.013 7.72085 110.265 7.72085 73.5644C7.72085 36.8642 37.469 7.1188 74.1692 7.1188C110.869 7.1188 140.618 36.8697 140.618 73.5672C140.618 110.265 110.867 140.016 74.1692 140.016V140.013Z" fill="url(#paint0_radial_248_4196)"/>
<path d="M74.1692 7.11877C37.4718 7.11877 7.72086 36.8697 7.72086 73.5672C7.72086 110.265 37.4718 140.016 74.1692 140.016C110.867 140.016 140.618 110.267 140.618 73.5672C140.618 36.8669 110.867 7.11877 74.1692 7.11877ZM74.5329 121.65C47.7745 121.65 26.0834 99.9591 26.0834 73.2007C26.0834 46.4422 47.7745 24.7511 74.5329 24.7511C101.291 24.7511 122.983 46.4422 122.983 73.2007C122.983 99.9591 101.291 121.65 74.5329 121.65Z" fill="url(#paint1_radial_248_4196)"/>
<path d="M74.1692 7.11877C37.4718 7.11877 7.72086 36.8697 7.72086 73.5672C7.72086 110.265 37.4718 140.016 74.1692 140.016C110.867 140.016 140.618 110.267 140.618 73.5672C140.618 36.8669 110.867 7.11877 74.1692 7.11877ZM74.5329 121.65C47.7745 121.65 26.0834 99.9591 26.0834 73.2007C26.0834 46.4422 47.7745 24.7511 74.5329 24.7511C101.291 24.7511 122.983 46.4422 122.983 73.2007C122.983 99.9591 101.291 121.65 74.5329 121.65Z" fill="url(#paint2_radial_248_4196)"/>
<g clip-path="url(#clip1_248_4196)">
<path d="M101.217 78.0788C102.421 77.4907 103.547 76.778 104.596 75.9563V88.695C104.596 89.6218 103.842 90.389 102.906 90.389H86.5249V101.683H90.762C91.6941 101.683 92.4514 102.442 92.4514 103.377C92.4514 104.312 91.6941 105.071 90.762 105.071H78.9089C77.9769 105.071 77.2195 104.312 77.2195 103.377C77.2195 102.442 77.9769 101.683 78.9089 101.683H83.1461V90.389H66.7685C65.8325 90.389 65.0791 89.6218 65.0791 88.695V80.0455L67.386 80.7893C67.7239 80.9022 68.0851 80.9801 68.4579 81.0268V87.0009H101.217V78.0788ZM68.4579 69.4838V51.6551H75.2039C75.8136 50.4479 76.5438 49.3068 77.3904 48.267H66.7724C65.8364 48.267 65.083 49.0225 65.083 49.9611V66.6526L66.986 69.0126L68.4618 69.4877L68.4579 69.4838ZM71.561 76.3224C72.0037 74.9516 71.258 73.4834 69.891 73.0394L65.2577 71.5323L61.4633 66.8434C60.1118 65.1727 58.1039 64.2146 55.9601 64.2146H50.9036C44.9459 64.2146 40.4253 74.4414 39.1825 77.5764C38.6543 78.9122 39.3029 80.4271 40.635 80.9606C40.9496 81.0853 41.2758 81.1476 41.5943 81.1476C42.6274 81.1476 43.6061 80.5284 44.01 79.5041C45.078 76.8248 46.5266 74.1805 47.8743 72.2683L47.517 82.4444L43.4235 101.562C43.0895 103.128 44.0799 104.666 45.6411 105.001C45.847 105.044 46.0489 105.067 46.2509 105.067C47.583 105.067 48.7792 104.14 49.0704 102.777L53.1173 83.8931H54.2513V102.17C54.2513 103.77 55.5446 105.067 57.1408 105.067C58.737 105.067 60.0303 103.77 60.0303 102.17V82.6976L59.6846 72.9031L61.7119 75.4072C62.0265 75.8005 62.4498 76.0887 62.9275 76.2445L68.2948 77.9892C69.6657 78.4449 71.126 77.6815 71.5687 76.3146L71.561 76.3224ZM53.7658 62.6413C56.9582 62.6413 59.5448 60.0476 59.5448 56.8464C59.5448 53.6452 56.9582 51.0515 53.7658 51.0515C50.5734 51.0515 47.9869 53.6452 47.9869 56.8464C47.9869 60.0476 50.5734 62.6413 53.7658 62.6413ZM105.431 53.5362C106.841 55.8728 107.641 58.6262 107.641 61.547C107.641 70.2043 100.631 77.2298 92.0126 77.2298C83.3946 77.2298 76.369 70.2043 76.369 61.547C76.369 52.8897 83.3791 45.8603 92.0126 45.8603C94.9409 45.8603 97.6711 46.6742 100.017 48.0762L97.7643 50.3388C96.0477 49.447 94.0826 48.9407 92.0126 48.9407C85.0802 48.9407 79.4371 54.5993 79.4371 61.5509C79.4371 68.5024 85.0802 74.161 92.0126 74.161C98.945 74.161 104.572 68.5024 104.572 61.5509C104.572 59.4751 104.068 57.5201 103.178 55.7988L105.431 53.54V53.5362ZM92.0126 54.8603C92.3971 54.8603 92.7777 54.8914 93.1466 54.9654L95.6166 52.4886C94.4981 52.029 93.2864 51.7798 92.0126 51.7798C86.6297 51.7798 82.2606 56.1649 82.2606 61.5431C82.2606 66.9213 86.6297 71.322 92.0126 71.322C97.3954 71.322 101.749 66.9407 101.749 61.5431C101.749 60.2657 101.504 59.0506 101.042 57.9291L98.5721 60.4059C98.6498 60.7759 98.6809 61.1575 98.6809 61.5431C98.6809 65.235 95.6904 68.2493 92.0087 68.2493C88.3269 68.2493 85.3248 65.235 85.3248 61.5431C85.3248 57.8512 88.3308 54.8525 92.0087 54.8525L92.0126 54.8603ZM110.915 46.9896C110.736 46.5574 110.316 46.277 109.85 46.277H106.802V43.2198C106.802 42.7525 106.522 42.3319 106.091 42.1528C105.66 41.9736 105.167 42.0749 104.837 42.402L101.687 45.5604C101.469 45.7785 101.349 46.0706 101.349 46.3743V49.5638L93.4146 57.9602C92.9796 57.7889 92.5058 57.6837 92.0087 57.6837C89.8882 57.6837 88.1599 59.4167 88.1599 61.5431C88.1599 63.6694 89.8882 65.4024 92.0087 65.4024C94.1292 65.4024 95.8574 63.6733 95.8574 61.5431C95.8574 61.0446 95.7565 60.5695 95.5817 60.1333L103.516 51.7369H106.697C107.004 51.7369 107.295 51.6162 107.509 51.3981L110.658 48.2397C110.988 47.9087 111.085 47.4141 110.907 46.9818L110.915 46.9896Z" fill="#F93822"/>
</g>
</g>
<defs>
<radialGradient id="paint0_radial_248_4196" cx="0" cy="0" r="1" gradientUnits="userSpaceOnUse" gradientTransform="translate(74.9986 75.2287) scale(74.9986 74.9986)">
<stop stop-color="#F93822"/>
<stop offset="1" stop-color="#F37721" stop-opacity="0.13"/>
</radialGradient>
<radialGradient id="paint1_radial_248_4196" cx="0" cy="0" r="1" gradientUnits="userSpaceOnUse" gradientTransform="translate(74.9986 75.2287) scale(74.9986 74.9986)">
<stop stop-color="#F93822"/>
<stop offset="1" stop-color="#F37721" stop-opacity="0.13"/>
</radialGradient>
<radialGradient id="paint2_radial_248_4196" cx="0" cy="0" r="1" gradientUnits="userSpaceOnUse" gradientTransform="translate(74.1692 73.5672) scale(66.4484 66.4484)">
<stop stop-color="#F93822"/>
<stop offset="0.38" stop-color="#F83821" stop-opacity="0.9801"/>
<stop offset="0.52" stop-color="#F83A21" stop-opacity="0.9409"/>
<stop offset="0.62" stop-color="#F83D21" stop-opacity="0.8464"/>
<stop offset="0.7" stop-color="#F74221" stop-opacity="0.7225"/>
<stop offset="0.77" stop-color="#F74921" stop-opacity="0.5776"/>
<stop offset="0.83" stop-color="#F65121" stop-opacity="0.4225"/>
<stop offset="0.89" stop-color="#F55A21" stop-opacity="0.2704"/>
<stop offset="0.94" stop-color="#F46521" stop-opacity="0.1369"/>
<stop offset="0.98" stop-color="#F37121" stop-opacity="0.0441"/>
<stop offset="1" stop-color="#F37721" stop-opacity="0.13"/>
</radialGradient>
<clipPath id="clip0_248_4196">
<rect width="150" height="150" fill="white" transform="translate(0 0.230103)"/>
</clipPath>
<clipPath id="clip1_248_4196">
<rect width="72" height="63" fill="white" transform="translate(39 42.0671)"/>
</clipPath>
</defs>
</svg>
