<svg width="150" height="151" viewBox="0 0 150 151" fill="none" xmlns="http://www.w3.org/2000/svg">
<g clip-path="url(#clip0_248_4277)">
<path d="M74.9986 0.563171C33.5783 0.563171 0 34.1414 0 75.5618C0 116.982 33.5783 150.56 74.9986 150.56C116.419 150.56 149.997 116.982 149.997 75.5618C149.997 34.1414 116.422 0.563171 74.9986 0.563171ZM74.1692 140.346C37.4718 140.346 7.72085 110.598 7.72085 73.8975C7.72085 37.1973 37.469 7.45187 74.1692 7.45187C110.869 7.45187 140.618 37.2028 140.618 73.9002C140.618 110.598 110.867 140.349 74.1692 140.349V140.346Z" fill="url(#paint0_radial_248_4277)"/>
<path d="M74.1692 7.45184C37.4718 7.45184 7.72086 37.2028 7.72086 73.9002C7.72086 110.598 37.4718 140.349 74.1692 140.349C110.867 140.349 140.618 110.6 140.618 73.9002C140.618 37.2 110.867 7.45184 74.1692 7.45184ZM74.5329 121.983C47.7745 121.983 26.0834 100.292 26.0834 73.5337C26.0834 46.7753 47.7745 25.0842 74.5329 25.0842C101.291 25.0842 122.983 46.7753 122.983 73.5337C122.983 100.292 101.291 121.983 74.5329 121.983Z" fill="url(#paint1_radial_248_4277)"/>
<path d="M74.1692 7.45184C37.4718 7.45184 7.72086 37.2028 7.72086 73.9002C7.72086 110.598 37.4718 140.349 74.1692 140.349C110.867 140.349 140.618 110.6 140.618 73.9002C140.618 37.2 110.867 7.45184 74.1692 7.45184ZM74.5329 121.983C47.7745 121.983 26.0834 100.292 26.0834 73.5337C26.0834 46.7753 47.7745 25.0842 74.5329 25.0842C101.291 25.0842 122.983 46.7753 122.983 73.5337C122.983 100.292 101.291 121.983 74.5329 121.983Z" fill="url(#paint2_radial_248_4277)"/>
<path d="M103.128 91.4923L105.818 101.22L96.0903 98.5299C93.0163 100.351 89.52 101.306 85.9233 101.306C78.2523 101.306 71.4085 96.9063 68.0784 90.3153C82.7836 90.111 94.7091 78.189 94.9133 63.4803C101.504 66.8105 105.904 73.6542 105.904 81.3253C105.904 84.922 104.945 88.4183 103.128 91.4923ZM67.6976 86.6978C63.457 86.6978 59.3272 85.5693 55.7028 83.4265L44.1824 86.6113L47.3671 75.0943C45.2243 71.4664 44.0958 67.3366 44.0958 63.0961C44.0958 50.0802 54.6817 39.4943 67.6976 39.4943C80.7135 39.4943 91.2993 50.0802 91.2993 63.0961C91.2993 76.112 80.7135 86.6978 67.6976 86.6978ZM69.508 72.2107H65.8871V75.8316H69.508V72.2107ZM74.9394 57.6024C74.9394 53.6076 71.6889 50.3605 67.6976 50.3605C63.7063 50.3605 60.4557 53.6111 60.4557 57.6024H64.0767C64.0767 55.605 65.7002 53.9815 67.6976 53.9815C69.695 53.9815 71.3185 55.605 71.3185 57.6024C71.3185 58.6305 70.8996 59.579 70.1381 60.2748L65.8837 64.1692V68.5898H69.5046V65.765L72.582 62.9472C74.0809 61.5764 74.936 59.6275 74.936 57.6024H74.9394Z" fill="#F93822"/>
</g>
<defs>
<radialGradient id="paint0_radial_248_4277" cx="0" cy="0" r="1" gradientUnits="userSpaceOnUse" gradientTransform="translate(74.9986 75.5618) scale(74.9986 74.9986)">
<stop stop-color="#F93822"/>
<stop offset="1" stop-color="#F37721" stop-opacity="0.13"/>
</radialGradient>
<radialGradient id="paint1_radial_248_4277" cx="0" cy="0" r="1" gradientUnits="userSpaceOnUse" gradientTransform="translate(74.9986 75.5618) scale(74.9986 74.9986)">
<stop stop-color="#F93822"/>
<stop offset="1" stop-color="#F37721" stop-opacity="0.13"/>
</radialGradient>
<radialGradient id="paint2_radial_248_4277" cx="0" cy="0" r="1" gradientUnits="userSpaceOnUse" gradientTransform="translate(74.1692 73.9002) scale(66.4484 66.4484)">
<stop stop-color="#F93822"/>
<stop offset="0.38" stop-color="#F83821" stop-opacity="0.9801"/>
<stop offset="0.52" stop-color="#F83A21" stop-opacity="0.9409"/>
<stop offset="0.62" stop-color="#F83D21" stop-opacity="0.8464"/>
<stop offset="0.7" stop-color="#F74221" stop-opacity="0.7225"/>
<stop offset="0.77" stop-color="#F74921" stop-opacity="0.5776"/>
<stop offset="0.83" stop-color="#F65121" stop-opacity="0.4225"/>
<stop offset="0.89" stop-color="#F55A21" stop-opacity="0.2704"/>
<stop offset="0.94" stop-color="#F46521" stop-opacity="0.1369"/>
<stop offset="0.98" stop-color="#F37121" stop-opacity="0.0441"/>
<stop offset="1" stop-color="#F37721" stop-opacity="0.13"/>
</radialGradient>
<clipPath id="clip0_248_4277">
<rect width="150" height="150" fill="white" transform="translate(0 0.563171)"/>
</clipPath>
</defs>
</svg>
