<svg width="40" height="41" viewBox="0 0 40 41" fill="none" xmlns="http://www.w3.org/2000/svg">
<path fill-rule="evenodd" clip-rule="evenodd" d="M2.7574 16.5309C0.398445 13.779 -0.522238 8.94471 0.288727 3.59876C0.324504 3.36206 0.491468 3.1684 0.718061 3.09668C0.944654 3.02495 1.19271 3.0895 1.35729 3.26165C3.48965 5.4971 5.05911 5.51861 6.87424 5.54252C8.51525 5.56404 10.3733 5.59034 12.6178 7.38587C14.2278 8.67455 15.0101 10.121 14.9433 11.687C14.9362 11.8448 14.8718 11.9931 14.7597 12.103L8.43177 18.4436C8.34113 18.5344 8.22426 18.5966 8.09784 18.6181C7.77584 18.6731 7.45384 18.7018 7.13661 18.7018C5.48844 18.7018 3.97385 17.9511 2.75501 16.5285L2.7574 16.5309ZM9.91297 18.7353L11.4419 20.4328L16.1669 15.6965L14.4735 14.164L9.91297 18.7353ZM33.5192 30.417L26.1824 24.2295L19.9546 30.4744L26.1275 37.8287C27.0076 38.8759 28.2861 39.4544 29.7315 39.4544C31.1769 39.4544 32.5556 38.8759 33.5598 37.8693C34.6069 36.8197 35.1912 35.2944 35.1268 33.7881C35.0696 32.4421 34.4971 31.2466 33.5192 30.4194V30.417ZM11.8593 28.4135L32.1883 8.03619L29.3237 5.16477C29.0804 4.9209 28.6844 4.9209 28.4387 5.16477L8.55341 25.0997L11.8593 28.4135ZM33.0732 8.9232L12.7418 29.3005L16.0477 32.6142L35.9354 12.6792C36.0523 12.5621 36.1191 12.4019 36.1191 12.2369C36.1191 12.072 36.0523 11.9118 35.9354 11.7946L33.0708 8.9232H33.0732ZM11.4156 29.7428L11.4109 29.738L7.66851 25.9867L4.99471 28.6669C4.75142 28.9108 4.75142 29.3076 4.99471 29.5539L11.6088 36.1814C11.7257 36.2985 11.8855 36.3655 12.0501 36.3655C12.2147 36.3655 12.3745 36.2985 12.4914 36.1814L15.1652 33.5012L11.4252 29.7523L11.4156 29.7428ZM30.3326 4.40208L36.6987 10.7833L37.6456 8.21311L32.8967 3.45291L30.3326 4.40208ZM39.8161 1.27723C39.6444 1.10509 39.3868 1.04771 39.1578 1.13378L34.1871 2.97713L38.1226 6.92205L39.9616 1.9395C40.0451 1.70998 39.9902 1.45177 39.8185 1.27962L39.8161 1.27723ZM4.11219 30.4385C3.95715 30.2831 3.83551 30.1086 3.74487 29.9197L2.80272 30.8641C2.10147 31.567 1.71507 32.5066 1.71507 33.506C1.71507 34.5054 2.10147 35.445 2.80272 36.1479L5.0281 38.3786C5.72935 39.0815 6.66673 39.4688 7.66374 39.4688C8.66075 39.4688 9.59813 39.0815 10.2994 38.3762L11.2439 37.4318C11.0531 37.3409 10.879 37.2166 10.7263 37.066L4.11219 30.4385Z" fill="#F47E20"/>
</svg>
