<svg width="40" height="41" viewBox="0 0 40 41" fill="none" xmlns="http://www.w3.org/2000/svg">
<path d="M34.5674 22.7876C35.2363 22.4608 35.862 22.0649 36.4446 21.6083V28.6857C36.4446 29.2007 36.026 29.6269 35.506 29.6269H26.4048V35.9016H28.7588C29.2767 35.9016 29.6974 36.3235 29.6974 36.8428C29.6974 37.3621 29.2767 37.784 28.7588 37.784H22.1735C21.6556 37.784 21.2349 37.3621 21.2349 36.8428C21.2349 36.3235 21.6556 35.9016 22.1735 35.9016H24.5275V29.6269H15.4284C14.9084 29.6269 14.4898 29.2007 14.4898 28.6857V23.8802L15.7715 24.2935C15.9592 24.3562 16.1599 24.3995 16.367 24.4255V27.7445H34.5674V22.7876ZM16.367 18.0123V8.10702H20.115C20.4538 7.43628 20.8594 6.80233 21.3298 6.22463H15.4306C14.9106 6.22463 14.492 6.64438 14.492 7.16582V16.4393L15.5493 17.7505L16.3692 18.0145L16.367 18.0123ZM18.0911 21.8117C18.337 21.0501 17.9228 20.2344 17.1632 19.9878L14.5891 19.1504L12.481 16.5454C11.7301 15.6171 10.6145 15.0849 9.42348 15.0849H6.61413C3.30418 15.0849 0.792595 20.7667 0.102124 22.5084C-0.191326 23.2506 0.169014 24.0922 0.909112 24.3887C1.08389 24.4579 1.26514 24.4925 1.44207 24.4925C2.01602 24.4925 2.55977 24.1485 2.78417 23.5795C3.37755 22.0908 4.18238 20.6217 4.93111 19.5594L4.7326 25.213L2.45836 35.8345C2.27279 36.7043 2.82301 37.559 3.69042 37.745C3.80478 37.7688 3.91698 37.7818 4.02918 37.7818C4.76928 37.7818 5.43386 37.2669 5.59568 36.5096L7.84403 26.0179H8.47409V36.172C8.47409 37.0613 9.19261 37.7818 10.0794 37.7818C10.9663 37.7818 11.6848 37.0613 11.6848 36.172V25.3537L11.4927 19.912L12.6191 21.3033C12.7938 21.5218 13.029 21.6819 13.2944 21.7685L16.2764 22.7378C17.0381 22.9909 17.8494 22.5669 18.0954 21.8074L18.0911 21.8117ZM8.20437 14.2107C9.97802 14.2107 11.4151 12.7697 11.4151 10.9912C11.4151 9.21266 9.97802 7.77165 8.20437 7.77165C6.43072 7.77165 4.99368 9.21266 4.99368 10.9912C4.99368 12.7697 6.43072 14.2107 8.20437 14.2107ZM36.9085 9.15208C37.6918 10.4503 38.1363 11.98 38.1363 13.6028C38.1363 18.4126 34.2416 22.3159 29.4536 22.3159C24.6656 22.3159 20.7623 18.4126 20.7623 13.6028C20.7623 8.79291 24.657 4.88748 29.4536 4.88748C31.0805 4.88748 32.5974 5.33968 33.9007 6.11861L32.6492 7.3757C31.6955 6.88022 30.6037 6.59894 29.4536 6.59894C25.6021 6.59894 22.4669 9.74276 22.4669 13.6049C22.4669 17.4671 25.6021 20.6109 29.4536 20.6109C33.3051 20.6109 36.4317 17.4671 36.4317 13.6049C36.4317 12.4517 36.1512 11.3655 35.6571 10.4092L36.9085 9.15424V9.15208ZM29.4536 9.88773C29.6672 9.88773 29.8787 9.90504 30.0837 9.94615L31.456 8.57005C30.8346 8.31474 30.1614 8.17626 29.4536 8.17626C26.463 8.17626 24.0356 10.6126 24.0356 13.6006C24.0356 16.5886 26.463 19.0336 29.4536 19.0336C32.4442 19.0336 34.863 16.5994 34.863 13.6006C34.863 12.8909 34.7271 12.2158 34.4703 11.5927L33.098 12.9688C33.1412 13.1743 33.1584 13.3864 33.1584 13.6006C33.1584 15.6518 31.497 17.3264 29.4515 17.3264C27.4059 17.3264 25.738 15.6518 25.738 13.6006C25.738 11.5494 27.4081 9.8834 29.4515 9.8834L29.4536 9.88773ZM39.9552 5.51494C39.856 5.27477 39.623 5.11899 39.364 5.11899H37.6702V3.4205C37.6702 3.16086 37.5149 2.92719 37.2754 2.82766C37.0359 2.72813 36.7618 2.78438 36.5784 2.96613L34.8285 4.72087C34.7077 4.84204 34.6408 5.00431 34.6408 5.17308V6.94513L30.2326 11.61C29.9909 11.5148 29.7276 11.4564 29.4515 11.4564C28.2733 11.4564 27.3132 12.4192 27.3132 13.6006C27.3132 14.782 28.2733 15.7448 29.4515 15.7448C30.6296 15.7448 31.5898 14.7841 31.5898 13.6006C31.5898 13.3236 31.5337 13.0597 31.4366 12.8173L35.8448 8.15246H37.612C37.7824 8.15246 37.9443 8.08539 38.0629 7.96422L39.8128 6.20948C39.9962 6.02557 40.0502 5.75078 39.9509 5.51061L39.9552 5.51494Z" fill="#F47E20"/>
</svg>
