<svg width="150" height="151" viewBox="0 0 150 151" fill="none" xmlns="http://www.w3.org/2000/svg">
<g clip-path="url(#clip0_248_4183)">
<path d="M74.9986 0.230103C33.5783 0.230103 0 33.8084 0 75.2287C0 116.649 33.5783 150.227 74.9986 150.227C116.419 150.227 149.997 116.649 149.997 75.2287C149.997 33.8084 116.422 0.230103 74.9986 0.230103ZM74.1692 140.013C37.4718 140.013 7.72085 110.265 7.72085 73.5644C7.72085 36.8642 37.469 7.1188 74.1692 7.1188C110.869 7.1188 140.618 36.8697 140.618 73.5672C140.618 110.265 110.867 140.016 74.1692 140.016V140.013Z" fill="url(#paint0_radial_248_4183)"/>
<path d="M74.1692 7.11877C37.4718 7.11877 7.72086 36.8697 7.72086 73.5672C7.72086 110.265 37.4718 140.016 74.1692 140.016C110.867 140.016 140.618 110.267 140.618 73.5672C140.618 36.8669 110.867 7.11877 74.1692 7.11877ZM74.5329 121.65C47.7745 121.65 26.0834 99.9591 26.0834 73.2007C26.0834 46.4422 47.7745 24.7511 74.5329 24.7511C101.291 24.7511 122.983 46.4422 122.983 73.2007C122.983 99.9591 101.291 121.65 74.5329 121.65Z" fill="url(#paint1_radial_248_4183)"/>
<path d="M74.1692 7.11877C37.4718 7.11877 7.72086 36.8697 7.72086 73.5672C7.72086 110.265 37.4718 140.016 74.1692 140.016C110.867 140.016 140.618 110.267 140.618 73.5672C140.618 36.8669 110.867 7.11877 74.1692 7.11877ZM74.5329 121.65C47.7745 121.65 26.0834 99.9591 26.0834 73.2007C26.0834 46.4422 47.7745 24.7511 74.5329 24.7511C101.291 24.7511 122.983 46.4422 122.983 73.2007C122.983 99.9591 101.291 121.65 74.5329 121.65Z" fill="url(#paint2_radial_248_4183)"/>
<g clip-path="url(#clip1_248_4183)">
<path d="M91.9925 81.621C97.073 81.621 101.188 77.5241 101.188 72.4661C101.188 67.408 97.0692 63.3149 91.9925 63.3149C86.9157 63.3149 82.8005 67.4118 82.8005 72.4661C82.8005 77.5203 86.9195 81.621 91.9925 81.621ZM105.981 97.4698L105.099 90.1842C104.739 87.1577 102.998 84.6023 100.556 83.0872C98.1974 84.9754 95.2445 86.1514 91.9925 86.1514C88.7405 86.1514 85.7875 84.9717 83.429 83.0872C80.9871 84.5985 79.2495 87.1502 78.886 90.1729L78.0039 97.466C77.8374 98.8492 78.7384 100.165 80.1126 100.44C83.8719 101.194 87.8584 101.593 91.9925 101.593C96.1265 101.593 100.113 101.194 103.872 100.44C105.243 100.165 106.148 98.8492 105.981 97.466V97.4698ZM87.2337 53.5343C87.2337 52.2829 86.2153 51.2691 84.9584 51.2691H61.5736C60.3167 51.2691 59.2983 52.2829 59.2983 53.5343C59.2983 54.7856 60.3167 55.7994 61.5736 55.7994H84.9584C86.2153 55.7994 87.2337 54.7856 87.2337 53.5343ZM75.1116 63.5071H61.5736C60.3167 63.5071 59.2983 64.521 59.2983 65.7723C59.2983 67.0236 60.3167 68.0375 61.5736 68.0375H75.1116C76.3685 68.0375 77.3869 67.0236 77.3869 65.7723C77.3869 64.521 76.3685 63.5071 75.1116 63.5071ZM73.0862 75.7489H61.5698C60.3129 75.7489 59.2945 76.7627 59.2945 78.0141C59.2945 79.2654 60.3129 80.2792 61.5698 80.2792H73.0862C74.3431 80.2792 75.3614 79.2654 75.3614 78.0141C75.3614 76.7627 74.3431 75.7489 73.0862 75.7489ZM47.5699 57.8083C47.9977 58.2342 48.5769 58.4717 49.1789 58.4717C49.7808 58.4717 50.36 58.2342 50.7878 57.8083L56.1523 52.4676C57.042 51.5819 57.042 50.1459 56.1523 49.264C55.2627 48.382 53.8203 48.3782 52.9344 49.264L49.1789 53.0028L47.8879 51.7138C46.9983 50.8281 45.5559 50.8281 44.6662 51.7138C43.7765 52.5995 43.7765 54.0355 44.6662 54.9213L47.5699 57.8121V57.8083ZM44.6662 67.1593L47.5699 70.0501C47.9977 70.476 48.5769 70.7135 49.1789 70.7135C49.7808 70.7135 50.36 70.476 50.7878 70.0501L56.1523 64.7094C57.042 63.8237 57.042 62.3877 56.1523 61.502C55.2627 60.6162 53.8203 60.6162 52.9344 61.502L49.1789 65.2408L47.8879 63.9518C46.9983 63.0661 45.5559 63.0661 44.6662 63.9518C43.7765 64.8376 43.7765 66.2736 44.6662 67.1593ZM44.6662 79.4011L47.5699 82.2919C47.9977 82.7178 48.5769 82.9552 49.1789 82.9552C49.7808 82.9552 50.36 82.7178 50.7878 82.2919L56.1523 76.9512C57.042 76.0655 57.042 74.6295 56.1523 73.7475C55.2627 72.8618 53.8203 72.8618 52.9306 73.7475L49.1751 77.4864L47.8841 76.2012C46.9945 75.3154 45.5521 75.3154 44.6624 76.2012C43.7728 77.0869 43.7728 78.5229 44.6624 79.4048L44.6662 79.4011Z" fill="#F93822"/>
</g>
</g>
<defs>
<radialGradient id="paint0_radial_248_4183" cx="0" cy="0" r="1" gradientUnits="userSpaceOnUse" gradientTransform="translate(74.9986 75.2287) scale(74.9986 74.9986)">
<stop stop-color="#F93822"/>
<stop offset="1" stop-color="#F37721" stop-opacity="0.13"/>
</radialGradient>
<radialGradient id="paint1_radial_248_4183" cx="0" cy="0" r="1" gradientUnits="userSpaceOnUse" gradientTransform="translate(74.9986 75.2287) scale(74.9986 74.9986)">
<stop stop-color="#F93822"/>
<stop offset="1" stop-color="#F37721" stop-opacity="0.13"/>
</radialGradient>
<radialGradient id="paint2_radial_248_4183" cx="0" cy="0" r="1" gradientUnits="userSpaceOnUse" gradientTransform="translate(74.1692 73.5672) scale(66.4484 66.4484)">
<stop stop-color="#F93822"/>
<stop offset="0.38" stop-color="#F83821" stop-opacity="0.9801"/>
<stop offset="0.52" stop-color="#F83A21" stop-opacity="0.9409"/>
<stop offset="0.62" stop-color="#F83D21" stop-opacity="0.8464"/>
<stop offset="0.7" stop-color="#F74221" stop-opacity="0.7225"/>
<stop offset="0.77" stop-color="#F74921" stop-opacity="0.5776"/>
<stop offset="0.83" stop-color="#F65121" stop-opacity="0.4225"/>
<stop offset="0.89" stop-color="#F55A21" stop-opacity="0.2704"/>
<stop offset="0.94" stop-color="#F46521" stop-opacity="0.1369"/>
<stop offset="0.98" stop-color="#F37121" stop-opacity="0.0441"/>
<stop offset="1" stop-color="#F37721" stop-opacity="0.13"/>
</radialGradient>
<clipPath id="clip0_248_4183">
<rect width="150" height="150" fill="white" transform="translate(0 0.230103)"/>
</clipPath>
<clipPath id="clip1_248_4183">
<rect width="62" height="53" fill="white" transform="translate(44 48.5967)"/>
</clipPath>
</defs>
</svg>
