<svg width="40" height="41" viewBox="0 0 40 41" fill="none" xmlns="http://www.w3.org/2000/svg">
<path d="M16.0886 16.0775C16.0886 13.9171 17.8396 12.1661 20 12.1661C22.1604 12.1661 23.9114 13.9171 23.9114 16.0775C23.9114 18.2379 22.1604 19.9912 20 19.9912C17.8396 19.9912 16.0886 18.2402 16.0886 16.0775ZM22.5698 20.928L20.8142 25.2997L20.4372 22.1447H20.6962C20.8466 22.1447 20.9645 22.0151 20.9645 21.8648V21.0136C20.9645 20.8632 20.8466 20.7337 20.6962 20.7337H19.3084C19.158 20.7337 19.0285 20.8632 19.0285 21.0136V21.8648C19.0285 22.0151 19.158 22.1447 19.3084 22.1447H19.5559L19.1789 25.2997L17.4348 20.928C15.6699 21.349 14.3029 22.8132 14.0762 24.6752L13.9027 26.1278C15.4317 27.7423 17.5967 28.7439 19.9977 28.7439C22.3987 28.7439 24.5729 27.7423 26.1019 26.1278L25.9307 24.6752C25.704 22.8132 24.337 21.349 22.5721 20.928H22.5698ZM39.9988 18.1616V22.3945C39.9988 23.3775 39.2772 24.2103 38.3034 24.3537L34.6464 24.8857C34.1907 25.9867 34.0681 26.2828 33.6124 27.3838L35.8214 30.3445C36.4089 31.131 36.3303 32.232 35.6341 32.9282L32.6433 35.919C31.9493 36.613 30.8483 36.6939 30.0619 36.1064L27.1081 33.902C26.0024 34.36 25.7064 34.4826 24.6007 34.9406L24.071 38.5883C23.9299 39.5598 23.0972 40.2815 22.1141 40.2815H17.8812C16.8982 40.2815 16.0655 39.5598 15.9244 38.5883L15.3947 34.9406C14.289 34.4826 13.9929 34.36 12.8873 33.902L9.93349 36.1064C9.14705 36.6939 8.04603 36.613 7.3521 35.919L4.35899 32.9282C3.66506 32.2343 3.58411 31.1333 4.17163 30.3445L6.37599 27.393C5.918 26.2874 5.7954 25.9913 5.33742 24.8857L1.69201 24.356C0.72052 24.2149 -0.00115967 23.3822 -0.00115967 22.3968V18.1639C-0.00115967 17.1831 0.72052 16.3481 1.69201 16.207L5.33973 15.675C5.79772 14.5717 5.92031 14.2756 6.3783 13.1699L4.17394 10.2161C3.58642 9.4297 3.66506 8.33099 4.3613 7.63476L7.35442 4.64164C8.04834 3.94772 9.14936 3.86907 9.93581 4.45659L12.8896 6.66095C13.9953 6.20297 14.2913 6.08037 15.397 5.62238L15.9267 1.97466C16.0678 1.00086 16.9028 0.281494 17.8835 0.281494H22.1165C23.0995 0.281494 23.9322 1.00086 24.0733 1.97466L24.603 5.62238C25.7087 6.08037 26.0047 6.20065 27.1104 6.66095L30.0642 4.45659C30.8529 3.86907 31.9517 3.94772 32.6456 4.64164L35.6364 7.63476C36.3326 8.32868 36.4113 9.4297 35.8237 10.2185L33.6217 13.1699C34.0797 14.2756 34.2023 14.5717 34.6603 15.675L38.3057 16.207C39.2772 16.3481 40.0011 17.1831 40.0011 18.1639L39.9988 18.1616ZM30.6193 20.278C30.6193 14.4121 25.866 9.6587 20 9.6587C14.134 9.6587 9.38067 14.4121 9.38067 20.278C9.38067 26.144 14.1364 30.895 20 30.895C25.8636 30.895 30.6193 26.1417 30.6193 20.278Z" fill="#F47E20"/>
</svg>
