<svg width="38" height="39" viewBox="0 0 38 39" fill="none" xmlns="http://www.w3.org/2000/svg">
<path fill-rule="evenodd" clip-rule="evenodd" d="M12.6667 2.99219C9.70532 2.99219 7.42544 3.84334 5.8975 5.48882C4.38201 7.12088 3.75008 9.38056 3.75008 11.9089V22.9922C3.75008 23.5445 4.1978 23.9922 4.75008 23.9922C5.30237 23.9922 5.75008 23.5445 5.75008 22.9922V11.9089C5.75008 9.68715 6.30565 7.98849 7.36308 6.84972C8.40806 5.72437 10.0865 4.99219 12.6667 4.99219H25.3334C27.9137 4.99219 29.5921 5.72437 30.6371 6.84972C31.6945 7.98849 32.2501 9.68715 32.2501 11.9089V27.7422C32.2501 29.9639 31.6945 31.6625 30.6371 32.8013C29.5921 33.9267 27.9137 34.6589 25.3334 34.6589H17.4167C16.8645 34.6589 16.4167 35.1066 16.4167 35.6589C16.4167 36.2111 16.8645 36.6589 17.4167 36.6589H25.3334C28.2948 36.6589 30.5747 35.8077 32.1027 34.1622C33.6182 32.5302 34.2501 30.2705 34.2501 27.7422V11.9089C34.2501 9.38056 33.6182 7.12088 32.1027 5.48882C30.5747 3.84334 28.2948 2.99219 25.3334 2.99219H12.6667ZM23.9584 7.95052C23.9584 7.39824 23.5107 6.95052 22.9584 6.95052C22.4061 6.95052 21.9584 7.39824 21.9584 7.95052V11.1172C21.9584 13.4111 23.8311 15.2839 26.1251 15.2839H29.2917C29.844 15.2839 30.2917 14.8361 30.2917 14.2839C30.2917 13.7316 29.844 13.2839 29.2917 13.2839H26.1251C24.9357 13.2839 23.9584 12.3066 23.9584 11.1172V7.95052ZM7.04052 27.0351C7.43105 27.4256 7.43105 28.0588 7.04052 28.4493L4.58096 30.9089L7.04052 33.3684C7.43105 33.7589 7.43105 34.3921 7.04052 34.7826C6.65 35.1731 6.01683 35.1731 5.62631 34.7826L2.45964 31.616C2.06912 31.2254 2.06912 30.5923 2.45964 30.2017L5.62631 27.0351C6.01683 26.6446 6.65 26.6446 7.04052 27.0351ZM11.7905 27.0351C11.4 26.6446 10.7668 26.6446 10.3763 27.0351C9.98578 27.4256 9.98578 28.0588 10.3763 28.4493L12.8359 30.9089L10.3763 33.3684C9.98578 33.7589 9.98578 34.3921 10.3763 34.7826C10.7668 35.1731 11.4 35.1731 11.7905 34.7826L14.9572 31.616C15.3477 31.2254 15.3477 30.5923 14.9572 30.2017L11.7905 27.0351Z" fill="url(#paint0_linear_3887_3635)"/>
<defs>
<linearGradient id="paint0_linear_3887_3635" x1="34.2501" y1="19.8255" x2="2.16675" y2="19.8255" gradientUnits="userSpaceOnUse">
<stop stop-color="#E64940"/>
<stop offset="1" stop-color="#5D285F"/>
</linearGradient>
</defs>
</svg>
