<svg width="38" height="39" viewBox="0 0 38 39" fill="none" xmlns="http://www.w3.org/2000/svg">
<path fill-rule="evenodd" clip-rule="evenodd" d="M18.3614 4.58554L18.3614 4.58553C18.715 4.23191 19.2852 4.23191 19.6388 4.58553L19.6388 4.58554L20.8738 5.82058L20.8738 5.82059C21.2275 6.17423 21.2275 6.74432 20.8738 7.09797L20.8738 7.09798L20.2705 7.70138L20.2566 7.71497L20.243 7.72885L19.6388 8.33301L19.6388 8.33303C19.2852 8.68665 18.715 8.68665 18.3614 8.33303L18.3614 8.33301L17.7592 7.73078L17.7437 7.71497L17.7279 7.69953L17.1264 7.09798L17.1264 7.09797C16.7728 6.74432 16.7728 6.17423 17.1264 5.82059L17.1264 5.82058L18.3614 4.58554ZM20.962 9.83454C19.8529 10.8528 18.1473 10.8528 17.0383 9.83457L9.64598 17.2269C9.77999 17.5433 9.85417 17.8908 9.85417 18.255V19.9966C9.85417 21.4558 8.66345 22.6467 7.20417 22.6467H5.4625C4.00322 22.6467 2.8125 21.4558 2.8125 19.9966V18.255C2.8125 16.7958 4.00327 15.605 5.4625 15.605H7.20417C7.56811 15.605 7.91534 15.6791 8.23157 15.8129L15.6242 8.4203C14.5783 7.28043 14.6076 5.51094 15.7122 4.40639L15.7122 4.40638L16.9472 3.17134L16.9472 3.17133C18.0819 2.03664 19.9184 2.03664 21.0531 3.17133L21.0531 3.17134L22.2881 4.40638L22.2881 4.40639C23.3926 5.51093 23.4219 7.28039 22.3761 8.42026L29.5792 15.6233C29.9495 15.4512 30.3618 15.355 30.7958 15.355H32.5375C34.1348 15.355 35.4375 16.6577 35.4375 18.255V19.9966C35.4375 21.5938 34.1349 22.8967 32.5375 22.8967H30.7958C29.1985 22.8967 27.8958 21.5938 27.8958 19.9966V18.255C27.8958 17.8205 27.9922 17.4079 28.1647 17.0373L20.962 9.83454ZM7.93783 17.5208C7.85349 17.4365 7.78737 17.3408 7.73946 17.2388C7.5792 17.1534 7.39689 17.105 7.20417 17.105H5.4625C4.83172 17.105 4.3125 17.6242 4.3125 18.255V19.9966C4.3125 20.6275 4.83177 21.1467 5.4625 21.1467H7.20417C7.8349 21.1467 8.35417 20.6275 8.35417 19.9966V18.255C8.35417 18.0621 8.30563 17.8797 8.2202 17.7193C8.11801 17.6714 8.02225 17.6053 7.93783 17.5208ZM29.8958 18.255C29.8958 17.7623 30.3031 17.355 30.7958 17.355H32.5375C33.0302 17.355 33.4375 17.7623 33.4375 18.255V19.9966C33.4375 20.4894 33.0301 20.8967 32.5375 20.8967H30.7958C30.3032 20.8967 29.8958 20.4894 29.8958 19.9966V18.255ZM21.6531 18.1418C20.9763 17.2852 20.0289 16.7999 19.0239 16.7999C18.019 16.7999 17.0715 17.2852 16.3947 18.1418L16.3939 18.1428L11.5669 24.2675L11.5658 24.2689C10.9241 25.0776 10.4077 25.9712 10.4863 26.9743C10.566 27.9904 11.2264 28.7922 12.0796 29.4965L14.3532 31.5204L13.8291 33.834C13.3656 35.849 15.1216 37.4476 17.0207 37.4476H21.0106C22.0052 37.4476 22.9135 37.0923 23.5309 36.423C24.1584 35.7426 24.414 34.8103 24.2046 33.8448L24.2046 33.8448L24.2026 33.8358L23.6809 31.5327L25.9811 29.485L25.9818 29.4844C26.7932 28.7649 27.4445 27.9665 27.5365 26.9703C27.629 25.9695 27.1285 25.0836 26.4821 24.269L26.4809 24.2675L21.6539 18.1428L21.6531 18.1418ZM22.1801 30.191L24.6527 27.9899L24.6542 27.9885C25.3783 27.3465 25.5263 26.9892 25.545 26.7863C25.5633 26.5884 25.4866 26.2317 24.9144 25.5109L24.9123 25.5082L20.0839 19.3818L20.0834 19.3812C20.0613 19.3532 20.0389 19.3264 20.0163 19.3006V22.4351C20.0163 22.9874 19.5686 23.4351 19.0163 23.4351C18.464 23.4351 18.0163 22.9874 18.0163 22.4351V19.3182C17.9988 19.3385 17.9815 19.3596 17.9643 19.3814L17.964 19.3818L13.1356 25.5082L13.1334 25.5109C12.5565 26.2377 12.4639 26.6104 12.4802 26.8179C12.495 27.0069 12.6266 27.3574 13.3651 27.9642C13.3752 27.9725 13.3852 27.9811 13.3951 27.9899L15.8677 30.191H22.1801ZM15.7793 34.2777L16.252 32.191H21.7793L22.2509 34.2725C22.325 34.6193 22.2322 34.8811 22.0608 35.067C21.8786 35.2645 21.5361 35.4476 21.0106 35.4476H17.0207C16.0704 35.4476 15.6736 34.7356 15.7784 34.2816L15.7793 34.2777Z" fill="url(#paint0_linear_3887_2630)"/>
<defs>
<linearGradient id="paint0_linear_3887_2630" x1="35.4375" y1="19.8839" x2="2.8125" y2="19.8839" gradientUnits="userSpaceOnUse">
<stop stop-color="#E64940"/>
<stop offset="1" stop-color="#5D285F"/>
</linearGradient>
</defs>
</svg>
