<svg width="38" height="39" viewBox="0 0 38 39" fill="none" xmlns="http://www.w3.org/2000/svg">
<path fill-rule="evenodd" clip-rule="evenodd" d="M24.3903 4.76043C24.8145 4.40687 24.8719 3.77631 24.5183 3.35203C24.1647 2.92775 23.5342 2.87043 23.1099 3.22399L18.3599 7.18232C18.1319 7.37232 18.0001 7.65377 18.0001 7.95055C18.0001 8.24733 18.1319 8.52877 18.3599 8.71877L23.1099 12.6771C23.5342 13.0307 24.1647 12.9733 24.5183 12.5491C24.8719 12.1248 24.8145 11.4942 24.3903 11.1407L21.7621 8.95055H26.9167C28.1061 8.95055 29.0834 9.92783 29.0834 11.1172V25.2455C26.3845 25.7188 24.3334 28.0743 24.3334 30.9089C24.3334 34.0845 26.9078 36.6589 30.0834 36.6589C33.2591 36.6589 35.8334 34.0845 35.8334 30.9089C35.8334 28.0743 33.7824 25.7188 31.0834 25.2455V11.1172C31.0834 8.82326 29.2107 6.95055 26.9167 6.95055H21.7621L24.3903 4.76043ZM8.91675 15.2546C12.0274 14.951 14.4584 12.3284 14.4584 9.13805C14.4584 5.7438 11.7068 2.99221 8.31258 2.99221C4.91833 2.99221 2.16675 5.7438 2.16675 9.13805C2.16675 12.0522 4.19495 14.4926 6.91675 15.1247V25.2455C4.2178 25.7188 2.16675 28.0743 2.16675 30.9089C2.16675 34.0845 4.74111 36.6589 7.91675 36.6589C11.0924 36.6589 13.6667 34.0845 13.6667 30.9089C13.6667 28.0743 11.6157 25.7188 8.91675 25.2455V15.2546ZM4.16675 9.13805C4.16675 6.84837 6.0229 4.99221 8.31258 4.99221C10.6023 4.99221 12.4584 6.84837 12.4584 9.13805C12.4584 11.4277 10.6023 13.2839 8.31258 13.2839C6.0229 13.2839 4.16675 11.4277 4.16675 9.13805ZM7.91675 27.1589C5.84568 27.1589 4.16675 28.8378 4.16675 30.9089C4.16675 32.9799 5.84568 34.6589 7.91675 34.6589C9.98782 34.6589 11.6667 32.9799 11.6667 30.9089C11.6667 28.8378 9.98782 27.1589 7.91675 27.1589ZM26.3334 30.9089C26.3334 28.8378 28.0123 27.1589 30.0834 27.1589C32.1545 27.1589 33.8334 28.8378 33.8334 30.9089C33.8334 32.9799 32.1545 34.6589 30.0834 34.6589C28.0123 34.6589 26.3334 32.9799 26.3334 30.9089Z" fill="url(#paint0_linear_3887_5600)"/>
<defs>
<linearGradient id="paint0_linear_3887_5600" x1="35.8334" y1="19.8255" x2="2.16675" y2="19.8255" gradientUnits="userSpaceOnUse">
<stop stop-color="#E64940"/>
<stop offset="1" stop-color="#5D285F"/>
</linearGradient>
</defs>
</svg>
