<svg width="38" height="39" viewBox="0 0 38 39" fill="none" xmlns="http://www.w3.org/2000/svg">
<path d="M23.7501 21.3281H12.6667C12.0176 21.3281 11.4792 20.7898 11.4792 20.1406C11.4792 19.4915 12.0176 18.9531 12.6667 18.9531H23.7501C24.3992 18.9531 24.9376 19.4915 24.9376 20.1406C24.9376 20.7898 24.3992 21.3281 23.7501 21.3281Z" fill="url(#paint0_linear_3887_3727)"/>
<path d="M19.6017 27.6602H12.6667C12.0176 27.6602 11.4792 27.1218 11.4792 26.4727C11.4792 25.8235 12.0176 25.2852 12.6667 25.2852H19.6017C20.2509 25.2852 20.7892 25.8235 20.7892 26.4727C20.7892 27.1218 20.2509 27.6602 19.6017 27.6602Z" fill="url(#paint1_linear_3887_3727)"/>
<path d="M22.1667 11.513H15.8334C14.3134 11.513 11.4792 11.513 11.4792 7.15885C11.4792 2.80469 14.3134 2.80469 15.8334 2.80469H22.1667C23.6867 2.80469 26.5209 2.80469 26.5209 7.15885C26.5209 8.67885 26.5209 11.513 22.1667 11.513ZM15.8334 5.17969C14.2659 5.17969 13.8542 5.17969 13.8542 7.15885C13.8542 9.13802 14.2659 9.13802 15.8334 9.13802H22.1667C24.1459 9.13802 24.1459 8.72635 24.1459 7.15885C24.1459 5.17969 23.7342 5.17969 22.1667 5.17969H15.8334Z" fill="url(#paint2_linear_3887_3727)"/>
<path d="M23.75 36.8447H14.25C5.35167 36.8447 3.5625 32.7597 3.5625 26.1572V16.6572C3.5625 9.43724 6.175 6.34974 12.6033 6.01724C13.2367 5.98557 13.8225 6.47641 13.8542 7.14141C13.8858 7.80641 13.3792 8.34474 12.73 8.37641C8.23333 8.62974 5.9375 9.97557 5.9375 16.6572V26.1572C5.9375 32.0156 7.09333 34.4697 14.25 34.4697H23.75C30.9067 34.4697 32.0625 32.0156 32.0625 26.1572V16.6572C32.0625 9.97557 29.7667 8.62974 25.27 8.37641C24.6208 8.34474 24.1142 7.77474 24.1458 7.12557C24.1775 6.47641 24.7475 5.96974 25.3967 6.00141C31.825 6.34974 34.4375 9.43724 34.4375 16.6414V26.1414C34.4375 32.7597 32.6483 36.8447 23.75 36.8447Z" fill="url(#paint3_linear_3887_3727)"/>
<defs>
<linearGradient id="paint0_linear_3887_3727" x1="24.9376" y1="20.1406" x2="11.4792" y2="20.1406" gradientUnits="userSpaceOnUse">
<stop stop-color="#E64940"/>
<stop offset="1" stop-color="#5D285F"/>
</linearGradient>
<linearGradient id="paint1_linear_3887_3727" x1="20.7892" y1="26.4727" x2="11.4792" y2="26.4727" gradientUnits="userSpaceOnUse">
<stop stop-color="#E64940"/>
<stop offset="1" stop-color="#5D285F"/>
</linearGradient>
<linearGradient id="paint2_linear_3887_3727" x1="26.5209" y1="7.15885" x2="11.4792" y2="7.15885" gradientUnits="userSpaceOnUse">
<stop stop-color="#E64940"/>
<stop offset="1" stop-color="#5D285F"/>
</linearGradient>
<linearGradient id="paint3_linear_3887_3727" x1="34.4375" y1="21.4224" x2="3.5625" y2="21.4224" gradientUnits="userSpaceOnUse">
<stop stop-color="#E64940"/>
<stop offset="1" stop-color="#5D285F"/>
</linearGradient>
</defs>
</svg>
