<svg width="38" height="39" viewBox="0 0 38 39" fill="none" xmlns="http://www.w3.org/2000/svg">
<path fill-rule="evenodd" clip-rule="evenodd" d="M4.16675 11.4979C4.16675 8.8222 4.52455 7.5524 5.20583 6.87112C5.88712 6.18983 7.15691 5.83203 9.83258 5.83203H26.5051C29.1807 5.83203 30.4505 6.18983 31.1318 6.87112C31.8131 7.5524 32.1709 8.8222 32.1709 11.4979C32.1709 12.0501 32.6186 12.4979 33.1709 12.4979C33.7232 12.4979 34.1709 12.0501 34.1709 11.4979C34.1709 8.8377 33.8637 6.77458 32.546 5.4569C31.2284 4.13923 29.1652 3.83203 26.5051 3.83203H9.83258C7.17242 3.83203 5.1093 4.13923 3.79162 5.4569C2.47395 6.77458 2.16675 8.8377 2.16675 11.4979V20.9979C2.16675 21.0929 2.16714 21.1872 2.16796 21.2807C2.16715 21.2971 2.16675 21.3136 2.16675 21.3302C2.16675 21.3542 2.16759 21.378 2.16926 21.4016C2.20084 23.8673 2.54139 25.7886 3.79162 27.0388C5.1093 28.3565 7.17242 28.6637 9.83258 28.6637H14.8334V33.8203H10.6717C10.1194 33.8203 9.67173 34.268 9.67173 34.8203C9.67173 35.3726 10.1194 35.8203 10.6717 35.8203H15.8334C15.9197 35.8203 16.0034 35.8093 16.0833 35.7888C16.5147 35.6778 16.8334 35.2862 16.8334 34.8203L16.8334 34.8202V27.6651L16.8334 27.6637L16.8333 27.6508C16.8329 27.6129 16.8303 27.5755 16.8257 27.5388C16.7643 27.0454 16.3434 26.6636 15.8334 26.6636L15.8175 26.6637H9.83258C7.15691 26.6637 5.88712 26.3059 5.20583 25.6246C4.64919 25.068 4.3085 24.1185 4.20247 22.3302H15.8334C16.3857 22.3302 16.8334 21.8825 16.8334 21.3302C16.8334 20.778 16.3857 20.3302 15.8334 20.3302H4.16675V11.4979ZM21.4825 18.0495C21.0982 18.4339 20.8393 19.2087 20.8393 21.093V30.1338C20.8393 32.018 21.0982 32.7929 21.4825 33.1772C21.8669 33.5615 22.6417 33.8205 24.526 33.8205H30.1468C32.0311 33.8205 32.8059 33.5615 33.1902 33.1772C33.5745 32.7929 33.8335 32.018 33.8335 30.1338V21.093C33.8335 19.2087 33.5745 18.4339 33.1902 18.0495C32.8059 17.6652 32.0311 17.4063 30.1468 17.4063H24.526C22.6417 17.4063 21.8669 17.6652 21.4825 18.0495ZM20.0683 16.6353C21.0892 15.6145 22.6577 15.4063 24.526 15.4063H30.1468C32.015 15.4063 33.5835 15.6145 34.6044 16.6353C35.6253 17.6562 35.8335 19.2247 35.8335 21.093V30.1338C35.8335 32.002 35.6253 33.5705 34.6044 34.5914C33.5835 35.6123 32.015 35.8205 30.1468 35.8205H24.526C22.6577 35.8205 21.0892 35.6123 20.0683 34.5914C19.0475 33.5705 18.8393 32.002 18.8393 30.1338V21.093C18.8393 19.2247 19.0475 17.6562 20.0683 16.6353ZM27.3039 28.722C26.7516 28.722 26.3039 29.1697 26.3039 29.722C26.3039 30.2743 26.7516 30.722 27.3039 30.722H27.3181C27.8704 30.722 28.3181 30.2743 28.3181 29.722C28.3181 29.1697 27.8704 28.722 27.3181 28.722H27.3039Z" fill="url(#paint0_linear_3887_1494)"/>
<defs>
<linearGradient id="paint0_linear_3887_1494" x1="35.8335" y1="19.8262" x2="2.16675" y2="19.8262" gradientUnits="userSpaceOnUse">
<stop stop-color="#E64940"/>
<stop offset="1" stop-color="#5D285F"/>
</linearGradient>
</defs>
</svg>
