<svg width="72" height="72" viewBox="0 0 72 72" fill="none" xmlns="http://www.w3.org/2000/svg">
<circle cx="36" cy="36" r="36" fill="#F2F2F2"/>
<path fill-rule="evenodd" clip-rule="evenodd" d="M35.3614 20.7633L35.3614 20.7633C35.715 20.4096 36.2852 20.4096 36.6388 20.7633L36.6388 20.7633L37.8738 21.9983L37.8738 21.9983C38.2275 22.352 38.2275 22.9221 37.8738 23.2757L37.8738 23.2757L37.2705 23.8791L37.2566 23.8927L37.243 23.9066L36.6388 24.5107L36.6388 24.5108C36.2852 24.8644 35.715 24.8644 35.3614 24.5108L35.3614 24.5107L34.7592 23.9085C34.7541 23.9032 34.7489 23.8979 34.7437 23.8927C34.7385 23.8875 34.7332 23.8823 34.7279 23.8773L34.1264 23.2757L34.1264 23.2757C33.7728 22.9221 33.7728 22.352 34.1264 21.9983L34.1264 21.9983L35.3614 20.7633ZM32.6242 24.598C31.5783 23.4582 31.6076 21.6887 32.7122 20.5841L32.7122 20.5841L33.9472 19.3491L33.9472 19.3491C35.0819 18.2144 36.9184 18.2144 38.0531 19.3491L38.0531 19.3491L39.2881 20.5841L39.2881 20.5841C40.3926 21.6887 40.4219 23.4581 39.3761 24.598L46.5792 31.8011C46.9495 31.6289 47.3618 31.5327 47.7958 31.5327H49.5375C51.1348 31.5327 52.4375 32.8355 52.4375 34.4327V36.1744C52.4375 37.7716 51.1349 39.0745 49.5375 39.0745H47.7958C46.1985 39.0745 44.8958 37.7716 44.8958 36.1744V34.4327C44.8958 33.9983 44.9922 33.5856 45.1647 33.215L37.962 26.0123C36.8529 27.0305 35.1473 27.0306 34.0383 26.0123L26.8354 33.2152C27.0078 33.5857 27.1042 33.9984 27.1042 34.4327V36.1744C27.1042 37.7716 25.8015 39.0745 24.2042 39.0745H22.4625C20.8651 39.0745 19.5625 37.7716 19.5625 36.1744V34.4327C19.5625 32.8355 20.8652 31.5327 22.4625 31.5327H24.2042C24.6383 31.5327 25.0507 31.6289 25.421 31.8012L32.6242 24.598ZM38.6531 34.3196C37.9763 33.4629 37.0289 32.9777 36.0239 32.9777C35.019 32.9777 34.0715 33.4629 33.3947 34.3196L33.3939 34.3205L28.5669 40.4452L28.5658 40.4466C27.9241 41.2553 27.4077 42.1489 27.4863 43.152C27.566 44.1681 28.2264 44.97 29.0796 45.6742L31.3532 47.6982L30.8291 50.0118C30.3656 52.0268 32.1216 53.6253 34.0207 53.6253H38.0106C39.0052 53.6253 39.9135 53.2701 40.5309 52.6007C41.1584 51.9204 41.414 50.988 41.2046 50.0225L41.2046 50.0225L41.2026 50.0135L40.6809 47.7104L42.9811 45.6628L42.9818 45.6621C43.7932 44.9426 44.4445 44.1443 44.5365 43.1481C44.629 42.1472 44.1285 41.2614 43.4821 40.4467L43.4809 40.4452L38.6539 34.3205L38.6531 34.3196ZM39.1801 46.3687L41.6527 44.1676L41.6542 44.1663C42.3783 43.5243 42.5263 43.1669 42.545 42.964C42.5633 42.7661 42.4866 42.4094 41.9144 41.6887L41.9123 41.6859L37.0839 35.5595L37.0834 35.559C37.0613 35.531 37.0389 35.5041 37.0163 35.4784V38.6129C37.0163 39.1651 36.5686 39.6129 36.0163 39.6129C35.464 39.6129 35.0163 39.1651 35.0163 38.6129V35.4959C34.9988 35.5163 34.9815 35.5373 34.9643 35.5591L34.964 35.5595L30.1356 41.6859L30.1334 41.6887C29.5565 42.4154 29.4639 42.7881 29.4802 42.9957C29.495 43.1847 29.6267 43.5351 30.3651 44.1419C30.3752 44.1503 30.3852 44.1588 30.3951 44.1676L32.8677 46.3687H39.1801ZM32.7793 50.4554L33.252 48.3687H38.7793L39.2509 50.4503C39.325 50.797 39.2322 51.0588 39.0608 51.2447C38.8786 51.4422 38.5361 51.6253 38.0106 51.6253H34.0207C33.0704 51.6253 32.6736 50.9133 32.7784 50.4593L32.7793 50.4554ZM47.7958 33.5327C47.3031 33.5327 46.8958 33.94 46.8958 34.4327V36.1744C46.8958 36.6672 47.3032 37.0745 47.7958 37.0745H49.5375C50.0301 37.0745 50.4375 36.6672 50.4375 36.1744V34.4327C50.4375 33.94 50.0302 33.5327 49.5375 33.5327H47.7958ZM21.5625 34.4327C21.5625 33.94 21.9698 33.5327 22.4625 33.5327H24.2042C24.6969 33.5327 25.1042 33.94 25.1042 34.4327V36.1744C25.1042 36.6672 24.6968 37.0745 24.2042 37.0745H22.4625C21.9699 37.0745 21.5625 36.6672 21.5625 36.1744V34.4327Z" fill="black"/>
</svg>
