<svg width="72" height="72" viewBox="0 0 72 72" fill="none" xmlns="http://www.w3.org/2000/svg">
<circle cx="36" cy="36" r="36" fill="#F2F2F2"/>
<path fill-rule="evenodd" clip-rule="evenodd" d="M44.9166 23.3327C44.9166 22.1361 45.8866 21.166 47.0833 21.166C48.2799 21.166 49.2499 22.1361 49.2499 23.3327C49.2499 24.5293 48.2799 25.4993 47.0833 25.4993C45.8866 25.4993 44.9166 24.5293 44.9166 23.3327ZM43.0374 24.3327C43.4853 26.1509 45.1268 27.4993 47.0833 27.4993C49.3844 27.4993 51.2499 25.6339 51.2499 23.3327C51.2499 21.0315 49.3844 19.166 47.0833 19.166C45.1268 19.166 43.4853 20.5145 43.0374 22.3327H37.5833C35.8458 22.3327 34.359 22.7677 33.3136 23.8131C32.2683 24.8584 31.8333 26.3452 31.8333 28.0827V34.9993H25.7958C25.3479 33.1811 23.7064 31.8327 21.7499 31.8327C19.4487 31.8327 17.5833 33.6982 17.5833 35.9993C17.5833 38.3005 19.4487 40.166 21.7499 40.166C23.7064 40.166 25.3479 38.8176 25.7958 36.9993H31.8333V43.916C31.8333 45.6535 32.2683 47.1403 33.3136 48.1856C34.359 49.231 35.8458 49.666 37.5833 49.666H43.0374C43.4853 51.4842 45.1268 52.8327 47.0833 52.8327C49.3844 52.8327 51.2499 50.9672 51.2499 48.666C51.2499 46.3648 49.3844 44.4993 47.0833 44.4993C45.1268 44.4993 43.4853 45.8478 43.0374 47.666H37.5833C36.1541 47.666 35.2658 47.3094 34.7279 46.7714C34.1899 46.2334 33.8333 45.3452 33.8333 43.916V36.9993H43.0374C43.4853 38.8176 45.1268 40.166 47.0833 40.166C49.3844 40.166 51.2499 38.3005 51.2499 35.9993C51.2499 33.6982 49.3844 31.8327 47.0833 31.8327C45.1268 31.8327 43.4853 33.1811 43.0374 34.9993H33.8333V28.0827C33.8333 26.6535 34.1899 25.7653 34.7279 25.2273C35.2658 24.6893 36.1541 24.3327 37.5833 24.3327H43.0374ZM44.9166 48.666C44.9166 49.8626 45.8866 50.8327 47.0833 50.8327C48.2799 50.8327 49.2499 49.8626 49.2499 48.666C49.2499 47.4694 48.2799 46.4993 47.0833 46.4993C45.8866 46.4993 44.9166 47.4694 44.9166 48.666ZM44.9166 35.9993C44.9166 34.8027 45.8866 33.8327 47.0833 33.8327C48.2799 33.8327 49.2499 34.8027 49.2499 35.9993C49.2499 37.196 48.2799 38.166 47.0833 38.166C45.8866 38.166 44.9166 37.196 44.9166 35.9993ZM21.7499 33.8327C22.9465 33.8327 23.9166 34.8027 23.9166 35.9993C23.9166 37.196 22.9465 38.166 21.7499 38.166C20.5533 38.166 19.5833 37.196 19.5833 35.9993C19.5833 34.8027 20.5533 33.8327 21.7499 33.8327Z" fill="black"/>
</svg>
