<svg width="72" height="72" viewBox="0 0 72 72" fill="none" xmlns="http://www.w3.org/2000/svg">
<circle cx="36" cy="36" r="36" fill="#F2F2F2"/>
<path fill-rule="evenodd" clip-rule="evenodd" d="M31.2501 19.166C27.1931 19.166 24.0931 19.9713 22.0326 22.0318C19.972 24.0924 19.1667 27.1924 19.1667 31.2493V40.7493C19.1667 44.8063 19.972 47.9063 22.0326 49.9669C24.0931 52.0274 27.1931 52.8327 31.2501 52.8327H40.7501C44.807 52.8327 47.9071 52.0274 49.9676 49.9669C52.0281 47.9063 52.8334 44.8063 52.8334 40.7493V31.2493C52.8334 27.1924 52.0281 24.0924 49.9676 22.0318C47.9071 19.9713 44.807 19.166 40.7501 19.166H31.2501ZM21.1667 31.2493C21.1667 27.3896 21.9448 24.948 23.4468 23.446C24.9487 21.9441 27.3904 21.166 31.2501 21.166H40.7501C44.6098 21.166 47.0514 21.9441 48.5534 23.446C50.0553 24.948 50.8334 27.3896 50.8334 31.2493V40.7493C50.8334 44.6091 50.0553 47.0507 48.5534 48.5527C47.0514 50.0546 44.6098 50.8327 40.7501 50.8327H31.2501C27.3904 50.8327 24.9487 50.0546 23.4468 48.5527C21.9448 47.0507 21.1667 44.6091 21.1667 40.7493V31.2493ZM32.5587 27.9771C32.9492 28.3676 32.9492 29.0007 32.5587 29.3913L28.9962 32.9538C28.6056 33.3443 27.9725 33.3443 27.582 32.9538L26.3945 31.7663C26.0039 31.3757 26.0039 30.7426 26.3945 30.3521C26.785 29.9615 27.4181 29.9615 27.8087 30.3521L28.2891 30.8325L31.1445 27.9771C31.535 27.5865 32.1681 27.5865 32.5587 27.9771ZM35.5861 31.0592C35.5861 30.5069 36.0338 30.0592 36.5861 30.0592H44.8986C45.4509 30.0592 45.8986 30.5069 45.8986 31.0592C45.8986 31.6114 45.4509 32.0592 44.8986 32.0592H36.5861C36.0338 32.0592 35.5861 31.6114 35.5861 31.0592ZM36.5861 41.1425C36.0338 41.1425 35.5861 41.5902 35.5861 42.1425C35.5861 42.6948 36.0338 43.1425 36.5861 43.1425H44.8986C45.4509 43.1425 45.8986 42.6948 45.8986 42.1425C45.8986 41.5902 45.4509 41.1425 44.8986 41.1425H36.5861ZM32.5587 39.0604C32.9492 39.4509 32.9492 40.0841 32.5587 40.4746L28.9962 44.0371C28.6056 44.4276 27.9725 44.4276 27.582 44.0371L26.3945 42.8496C26.0039 42.4591 26.0039 41.8259 26.3945 41.4354C26.785 41.0449 27.4181 41.0449 27.8087 41.4354L28.2891 41.9158L31.1445 39.0604C31.535 38.6699 32.1681 38.6699 32.5587 39.0604Z" fill="black"/>
</svg>
