<svg width="72" height="72" viewBox="0 0 72 72" fill="none" xmlns="http://www.w3.org/2000/svg">
<circle cx="36" cy="36" r="36" fill="#F2F2F2"/>
<path fill-rule="evenodd" clip-rule="evenodd" d="M44.3881 26.8994C43.7063 23.7963 42.0676 21.6446 39.959 20.4084C37.7187 19.095 35.0442 18.8711 32.6315 19.5032C30.2187 20.1352 27.9958 21.6421 26.6826 23.885C25.5124 25.8838 25.1087 28.392 25.8482 31.234C19.3264 32.768 19.7571 42.8127 27.0148 43.3299C27.0385 43.3316 27.0622 43.3324 27.0859 43.3324H35.0001V46.2033C33.5023 46.5723 32.3232 47.7513 31.9542 49.2492H26.5001C25.9478 49.2492 25.5001 49.6969 25.5001 50.2492C25.5001 50.8015 25.9478 51.2492 26.5001 51.2492H31.9542C32.4021 53.0674 34.0436 54.4159 36.0001 54.4159C37.9566 54.4159 39.5981 53.0674 40.046 51.2492H45.5001C46.0524 51.2492 46.5001 50.8015 46.5001 50.2492C46.5001 49.6969 46.0524 49.2492 45.5001 49.2492H40.046C39.677 47.7513 38.498 46.5723 37.0001 46.2033V43.3324H42.3767C44.4818 43.3493 46.508 42.5585 48.0653 41.1475C53.0484 36.7816 50.6707 28.2865 44.3881 26.8994ZM33.8334 50.2492C33.8334 51.4458 34.8035 52.4159 36.0001 52.4159C37.1967 52.4159 38.1668 51.4458 38.1668 50.2492C38.1668 49.0526 37.1967 48.0825 36.0001 48.0825C34.8035 48.0825 33.8334 49.0526 33.8334 50.2492ZM27.1237 33.0565C27.2442 33.0596 27.3673 33.0409 27.4876 32.9976C28.0073 32.8108 28.2771 32.238 28.0903 31.7182C27.0755 28.8959 27.4112 26.599 28.4085 24.8955C29.4198 23.1683 31.1692 21.9537 33.1383 21.4379C35.1075 20.922 37.2245 21.1236 38.9475 22.1338C40.6465 23.1298 42.0592 24.9683 42.5502 27.9293C42.6225 28.3652 42.9722 28.7019 43.4105 28.7577C48.5272 29.4092 50.6186 36.2592 46.742 39.6479L46.7279 39.6605C45.5322 40.7461 43.9847 41.3461 42.3895 41.3324V41.3324H42.3809H27.123C21.9459 40.9309 21.9635 33.4552 27.1237 33.0565Z" fill="black"/>
</svg>
