<svg width="72" height="72" viewBox="0 0 72 72" fill="none" xmlns="http://www.w3.org/2000/svg">
<circle cx="36" cy="36" r="36" fill="#F2F2F2"/>
<path fill-rule="evenodd" clip-rule="evenodd" d="M22.75 28.0827C22.75 25.861 23.3056 24.1623 24.363 23.0236C25.408 21.8982 27.0864 21.166 29.6667 21.166H42.3333C44.9136 21.166 46.592 21.8982 47.637 23.0236C48.6944 24.1623 49.25 25.861 49.25 28.0827V43.916C49.25 46.1377 48.6944 47.8364 47.637 48.9751C46.592 50.1005 44.9136 50.8327 42.3333 50.8327H29.6667C27.0864 50.8327 25.408 50.1005 24.363 48.9751C23.3056 47.8364 22.75 46.1377 22.75 43.916V28.0827ZM29.6667 19.166C26.7052 19.166 24.4254 20.0172 22.8974 21.6626C21.3819 23.2947 20.75 25.5544 20.75 28.0827V43.916C20.75 46.4443 21.3819 48.704 22.8974 50.336C24.4254 51.9815 26.7052 52.8327 29.6667 52.8327H42.3333C45.2948 52.8327 47.5746 51.9815 49.1026 50.336C50.6181 48.704 51.25 46.4443 51.25 43.916V28.0827C51.25 25.5544 50.6181 23.2947 49.1026 21.6626C47.5746 20.0172 45.2948 19.166 42.3333 19.166H29.6667ZM40.9583 24.1243C40.9583 23.5721 40.5106 23.1243 39.9583 23.1243C39.406 23.1243 38.9583 23.5721 38.9583 24.1243V27.291C38.9583 29.585 40.831 31.4577 43.125 31.4577H46.2917C46.844 31.4577 47.2917 31.01 47.2917 30.4577C47.2917 29.9054 46.844 29.4577 46.2917 29.4577H43.125C41.9356 29.4577 40.9583 28.4804 40.9583 27.291V24.1243ZM33.5404 36.8756C33.931 37.2661 33.931 37.8993 33.5404 38.2898L31.0809 40.7493L33.5404 43.2089C33.931 43.5994 33.931 44.2326 33.5404 44.6231C33.1499 45.0136 32.5168 45.0136 32.1262 44.6231L28.9596 41.4565C28.569 41.0659 28.569 40.4328 28.9596 40.0422L32.1262 36.8756C32.5168 36.4851 33.1499 36.4851 33.5404 36.8756ZM39.8738 36.8756C39.4832 36.4851 38.8501 36.4851 38.4596 36.8756C38.069 37.2661 38.069 37.8993 38.4596 38.2898L40.9191 40.7493L38.4596 43.2089C38.069 43.5994 38.069 44.2326 38.4596 44.6231C38.8501 45.0136 39.4832 45.0136 39.8738 44.6231L43.0404 41.4565C43.228 41.2689 43.3333 41.0146 43.3333 40.7493C43.3333 40.4841 43.228 40.2298 43.0404 40.0422L39.8738 36.8756Z" fill="black"/>
</svg>
