<svg width="72" height="72" viewBox="0 0 72 72" fill="none" xmlns="http://www.w3.org/2000/svg">
<circle cx="36" cy="36" r="36" fill="#F2F2F2"/>
<path fill-rule="evenodd" clip-rule="evenodd" d="M47.0831 19.5099C45.568 19.5099 44.1902 20.1313 43.2031 21.1454L43.202 21.1466C42.6342 21.7279 42.2033 22.4287 41.9476 23.2089C41.7712 23.7521 41.6766 24.3202 41.6766 24.9164C41.6766 25.9301 41.9604 26.8862 42.457 27.6916L42.467 27.7082C42.7313 28.1574 43.0775 28.5709 43.4785 28.9185C43.4847 28.9238 43.4908 28.9293 43.4969 28.9348C44.4406 29.7977 45.6921 30.3229 47.0831 30.3229C47.681 30.3229 48.2393 30.2279 48.7492 30.0449L48.767 30.0387L48.7837 30.0333C50.0154 29.645 51.0532 28.7984 51.7008 27.7056L51.7096 27.691C51.9881 27.2402 52.2023 26.7185 52.3223 26.1855C52.3249 26.1736 52.3278 26.1618 52.3309 26.1501C52.4362 25.7554 52.4897 25.3449 52.4897 24.9164C52.4897 23.5411 51.9642 22.2713 51.0972 21.3095L51.0891 21.3005L51.0892 21.3005C50.1231 20.2002 48.6817 19.5099 47.0831 19.5099ZM41.8754 19.8519C43.1999 18.4914 45.0519 17.6562 47.0831 17.6562C49.2191 17.6562 51.1642 18.5791 52.4781 20.0729C53.6354 21.3589 54.3433 23.0639 54.3433 24.9164C54.3433 25.495 54.2716 26.0604 54.1267 26.6101C53.9616 27.3346 53.6724 28.0388 53.2912 28.6578C52.5827 29.8502 51.5275 30.8294 50.2573 31.4389C50.8495 33.1143 51.1765 34.9224 51.1765 36.7915C51.1765 45.6159 44.0324 52.76 35.208 52.76C26.3836 52.76 19.2395 45.6159 19.2395 36.7915C19.2395 27.9671 26.3836 20.823 35.208 20.823C37.0766 20.823 38.8755 21.1384 40.5517 21.7294C40.8904 21.0342 41.3383 20.4019 41.8754 19.8519ZM21.0932 36.7915C21.0932 28.9909 27.4074 22.6767 35.208 22.6767C36.8764 22.6767 38.4762 22.9597 39.9625 23.4872C39.8709 23.9499 39.8228 24.4265 39.8228 24.9165C39.8228 26.2744 40.2022 27.5636 40.8741 28.6564C41.2403 29.2769 41.7124 29.8392 42.255 30.3112C43.5269 31.4701 45.2168 32.1766 47.083 32.1766C47.5664 32.1766 48.0411 32.1298 48.5018 32.0347C49.0308 33.5234 49.3228 35.1306 49.3228 36.7915C49.3228 41.1907 47.3146 45.1171 44.1642 47.7049C43.4265 43.9947 39.5279 41.3585 35.145 41.3585C30.7972 41.3585 26.9238 43.9406 26.1434 47.615C23.0554 45.0266 21.0932 41.14 21.0932 36.7915ZM27.8564 48.8457C29.997 50.1531 32.5139 50.9063 35.208 50.9063C37.8501 50.9063 40.3217 50.1819 42.4352 48.9208C42.3933 45.9348 39.333 43.2122 35.145 43.2122C30.9903 43.2122 27.9476 45.8755 27.8564 48.8457ZM35.1446 30.7672C33.1993 30.7672 31.6223 32.3442 31.6223 34.2895C31.6223 36.2348 33.1993 37.8118 35.1446 37.8118C37.0899 37.8118 38.6669 36.2348 38.6669 34.2895C38.6669 32.3442 37.0899 30.7672 35.1446 30.7672ZM29.7686 34.2895C29.7686 31.3204 32.1755 28.9135 35.1446 28.9135C38.1137 28.9135 40.5206 31.3204 40.5206 34.2895C40.5206 37.2586 38.1137 39.6655 35.1446 39.6655C32.1755 39.6655 29.7686 37.2586 29.7686 34.2895ZM47.0835 21.6464C47.5954 21.6464 48.0104 22.0613 48.0104 22.5732V23.958H49.4423C49.9541 23.958 50.3691 24.373 50.3691 24.8848C50.3691 25.3967 49.9541 25.8117 49.4423 25.8117H48.0104V27.3073C48.0104 27.8192 47.5954 28.2342 47.0835 28.2342C46.5717 28.2342 46.1567 27.8192 46.1567 27.3073V25.8117H44.7239C44.212 25.8117 43.7971 25.3967 43.7971 24.8848C43.7971 24.373 44.212 23.958 44.7239 23.958H46.1567V22.5732C46.1567 22.0613 46.5717 21.6464 47.0835 21.6464Z" fill="black"/>
</svg>
