<svg width="104" height="104" viewBox="0 0 104 104" fill="none" xmlns="http://www.w3.org/2000/svg">
<path d="M52.1211 103.516C80.773 103.516 104 80.2887 104 51.6367C104 22.9848 80.773 -0.242188 52.1211 -0.242188C23.4692 -0.242188 0.242188 22.9848 0.242188 51.6367C0.242188 80.2887 23.4692 103.516 52.1211 103.516Z" fill="#F47E20"/>
<path d="M25.5372 32.7737C28.5544 28.2781 33.4301 26.0273 40.1463 26.0273C46.8625 26.0273 51.7383 28.2781 54.7554 32.7737C57.7726 37.2693 59.2872 43.4243 59.2872 51.2327C59.2872 59.0412 57.7786 65.335 54.7554 69.8305C51.7322 74.3261 46.8625 76.5769 40.1463 76.5769C33.4301 76.5769 28.5544 74.3261 25.5372 69.8305C22.514 65.335 21.0054 59.1377 21.0054 51.2327C21.0054 43.3278 22.514 37.2693 25.5372 32.7737ZM46.3436 40.6365C45.3419 38.1624 43.2781 36.9253 40.1463 36.9253C37.0145 36.9253 34.9447 38.1624 33.949 40.6365C32.9473 43.1105 32.4525 46.6406 32.4525 51.2267C32.4525 54.3163 32.6336 56.8688 32.9956 58.8903C33.3577 60.9118 34.0939 62.5471 35.2102 63.7962C36.3205 65.0453 37.9679 65.6668 40.1463 65.6668C42.3247 65.6668 43.9721 65.0453 45.0824 63.7962C46.1927 62.5471 46.9349 60.9118 47.297 58.8903C47.659 56.8688 47.8401 54.3163 47.8401 51.2267C47.8401 46.6406 47.3392 43.1105 46.3436 40.6365Z" fill="white"/>
<path d="M64.1928 37.8804V27.0488H83.0621V76.7777H70.9392V37.8804H64.1928Z" fill="white"/>
</svg>
