<svg width="105" height="105" viewBox="0 0 105 105" fill="none" xmlns="http://www.w3.org/2000/svg">
<path d="M52.543 104.516C81.1949 104.516 104.422 81.2887 104.422 52.6367C104.422 23.9848 81.1949 0.757812 52.543 0.757812C23.891 0.757812 0.664062 23.9848 0.664062 52.6367C0.664062 81.2887 23.891 104.516 52.543 104.516Z" fill="#F47E20"/>
<path d="M18.0049 33.9446C21.0221 29.449 25.8978 27.1982 32.614 27.1982C39.3302 27.1982 44.206 29.449 47.2231 33.9446C50.2403 38.4402 51.7549 44.5952 51.7549 52.4036C51.7549 60.2121 50.2463 66.5059 47.2231 71.0014C44.1999 75.497 39.3302 77.7478 32.614 77.7478C25.8978 77.7478 21.0221 75.497 18.0049 71.0014C14.9817 66.5059 13.4731 60.3086 13.4731 52.4036C13.4731 44.4987 14.9817 38.4402 18.0049 33.9446ZM38.8173 41.8074C37.8156 39.3333 35.7519 38.0962 32.6201 38.0962C29.4883 38.0962 27.4185 39.3333 26.4228 41.8074C25.4211 44.2814 24.9263 47.8115 24.9263 52.3976C24.9263 55.4872 25.1073 58.0397 25.4694 60.0612C25.8314 62.0827 26.5676 63.718 27.684 64.9671C28.7943 66.2162 30.4417 66.8377 32.6201 66.8377C34.7985 66.8377 36.4458 66.2162 37.5561 64.9671C38.6665 63.718 39.4087 62.0827 39.7707 60.0612C40.1328 58.0397 40.3138 55.4872 40.3138 52.3976C40.3138 47.8115 39.813 44.2814 38.8173 41.8074Z" fill="white"/>
<path d="M59.5933 66.9109C64.0406 63.23 67.5525 60.2128 70.1171 57.8534C72.6817 55.494 74.8541 53.0199 76.6221 50.4312C78.3962 47.8425 79.2772 45.3201 79.2772 42.8702C79.2772 41.0116 78.8428 39.5573 77.9799 38.5134C77.117 37.4694 75.8196 36.9445 74.0998 36.9445C72.38 36.9445 71.0223 37.5901 70.0447 38.8875C69.0672 40.1849 68.5784 42.0133 68.5784 44.3727H57.3364C57.4269 40.5107 58.2536 37.2884 59.8226 34.6997C61.3915 32.111 63.4552 30.2041 66.0198 28.9791C68.5844 27.7542 71.4326 27.1387 74.5705 27.1387C79.9772 27.1387 84.0504 28.5266 86.796 31.2963C89.5416 34.0661 90.9175 37.6746 90.9175 42.1279C90.9175 46.9856 89.258 51.4932 85.9452 55.6509C82.6323 59.8085 78.4083 63.8576 73.2731 67.81H91.6657V77.2779H57.4692V68.6247C59.014 67.3997 59.72 66.8325 59.5812 66.923L59.5933 66.9109Z" fill="white"/>
</svg>
