<svg width="120" height="120" viewBox="0 0 120 120" fill="none" xmlns="http://www.w3.org/2000/svg">
<path d="M60 120C93.1371 120 120 93.1371 120 60C120 26.8629 93.1371 0 60 0C26.8629 0 0 26.8629 0 60C0 93.1371 26.8629 120 60 120Z" fill="url(#paint0_linear_325_22431)"/>
<g clip-path="url(#clip0_325_22431)">
<path d="M52.1351 58.4985C58.5776 58.4985 63.8116 53.1397 63.8116 46.5372C63.8116 45.192 63.5892 43.8944 63.1828 42.6875C61.1829 44.1341 57.8012 45.503 52.1351 45.503C46.469 45.503 43.0745 44.1319 41.0746 42.6875C40.6682 43.8966 40.4457 45.192 40.4457 46.5372C40.4457 53.1418 45.6797 58.4985 52.1351 58.4985Z" fill="white"/>
<path d="M52.1287 43.0098C62.0363 43.0098 63.5806 38.5664 63.5806 38.5664H40.6789C40.6789 38.5664 42.2232 43.0098 52.1308 43.0098H52.1287Z" fill="white"/>
<path d="M88.6555 68.2553C80.5403 68.0221 77.9479 63.8443 77.8324 63.65C77.6207 63.2851 77.2314 63.0627 76.81 63.0605C76.4015 63.0692 75.9908 63.2829 75.7748 63.6478C75.6678 63.827 73.0818 68.02 64.9517 68.2553C64.3057 68.2748 63.7924 68.8081 63.7924 69.4601V77.8957C63.7924 83.6216 66.7997 89.0345 71.638 92.0226L76.179 94.8251C76.3694 94.9439 76.5854 95.0022 76.8014 95.0022C77.0175 95.0022 77.2335 94.9439 77.4239 94.8251L81.9649 92.0226C86.8053 89.0345 89.8127 83.6216 89.8127 77.8957V69.4601C89.8127 68.8081 89.2993 68.2748 88.6534 68.2553H88.6555ZM83.5948 76.6261L76.7715 84.021C76.4164 84.4075 75.9181 84.6256 75.394 84.6256C74.87 84.6256 74.3737 84.4075 74.0165 84.021L70.0146 79.6834C69.3066 78.9169 69.3493 77.7143 70.1087 76.9997C70.868 76.285 72.0594 76.326 72.7674 77.0947L75.3919 79.9404L80.8376 74.0395C81.5456 73.2709 82.7349 73.2299 83.4964 73.9445C84.2557 74.6592 84.2985 75.8597 83.5905 76.6283L83.5948 76.6261Z" fill="white"/>
<path d="M61.3304 69.4641C61.3304 67.4454 62.8855 65.826 64.8854 65.7634C67.3045 65.6879 69.1077 65.2409 70.4402 64.6796C68.9216 60.9292 65.9463 58.0252 62.293 56.5938C59.7134 59.3099 56.1093 60.9918 52.133 60.9918C48.1567 60.9918 44.5547 59.3099 41.9623 56.5938C37.7528 58.2498 34.4331 61.8403 33.2097 66.4371L30.3841 77.1397C29.4088 80.7907 32.1359 84.3921 35.8898 84.3921H62.4897C61.724 82.3366 61.3304 80.143 61.3304 77.8997V69.4641ZM47.5064 69.4792C47.5064 69.9046 47.1642 70.25 46.7428 70.25H40.0008C39.5795 70.25 39.2372 69.9046 39.2372 69.4792V68.0737C39.2372 67.6483 39.5795 67.3029 40.0008 67.3029H46.7428C47.1642 67.3029 47.5064 67.6483 47.5064 68.0737V69.4792Z" fill="white"/>
<path d="M40.234 36.0727H64.0212L65.3174 32.3591C65.6746 31.3378 65.1805 30.228 64.1945 29.8049L53.3307 25.2449C52.565 24.921 51.6902 24.921 50.9244 25.2449L40.0607 29.8049C39.0725 30.228 38.5805 31.3378 38.9377 32.3591L40.234 36.0727ZM52.1286 28.9391C53.2195 28.9391 54.105 29.8329 54.105 30.9341C54.105 32.0352 53.2195 32.9291 52.1286 32.9291C51.0378 32.9291 50.1523 32.0352 50.1523 30.9341C50.1523 29.8329 51.0378 28.9391 52.1286 28.9391Z" fill="white"/>
</g>
<defs>
<linearGradient id="paint0_linear_325_22431" x1="0.00279083" y1="60" x2="120" y2="60" gradientUnits="userSpaceOnUse">
<stop stop-color="#F47E20"/>
<stop offset="0.39" stop-color="#F15E2C"/>
<stop offset="0.77" stop-color="#EE4536"/>
<stop offset="1" stop-color="#EE3D3A"/>
</linearGradient>
<clipPath id="clip0_325_22431">
<rect width="59.6296" height="70" fill="white" transform="translate(30.1852 25)"/>
</clipPath>
</defs>
</svg>
