<svg width="104" height="104" viewBox="0 0 104 104" fill="none" xmlns="http://www.w3.org/2000/svg">
<path d="M51.8789 103.758C80.5308 103.758 103.758 80.5308 103.758 51.8789C103.758 23.227 80.5308 0 51.8789 0C23.227 0 0 23.227 0 51.8789C0 80.5308 23.227 103.758 51.8789 103.758Z" fill="#F47E20"/>
<path d="M18.228 39.0572V28.2256H37.0974V77.9545H24.9744V39.0572H18.228Z" fill="white"/>
<path d="M49.5943 33.9525C52.6114 29.4569 57.4872 27.2061 64.2034 27.2061C70.9196 27.2061 75.7953 29.4569 78.8125 33.9525C81.8297 38.448 83.3443 44.603 83.3443 52.4115C83.3443 60.2199 81.8357 66.5136 78.8125 71.0092C75.7893 75.5048 70.9196 77.7556 64.2034 77.7556C57.4872 77.7556 52.6114 75.5048 49.5943 71.0092C46.5711 66.5136 45.0625 60.3164 45.0625 52.4115C45.0625 44.5065 46.5711 38.448 49.5943 33.9525ZM70.4067 41.8151C69.405 39.3411 67.3412 38.1041 64.2094 38.1041C61.0776 38.1041 59.0078 39.3411 58.0122 41.8151C57.0105 44.2892 56.5157 47.8193 56.5157 52.4054C56.5157 55.495 56.6967 58.0475 57.0587 60.069C57.4208 62.0905 58.157 63.7258 59.2733 64.9749C60.3837 66.224 62.031 66.8455 64.2094 66.8455C66.3878 66.8455 68.0352 66.224 69.1455 64.9749C70.2558 63.7258 70.998 62.0905 71.3601 60.069C71.7222 58.0475 71.9032 55.495 71.9032 52.4054C71.9032 47.8193 71.4023 44.2892 70.4067 41.8151Z" fill="white"/>
</svg>
