<svg width="105" height="105" viewBox="0 0 105 105" fill="none" xmlns="http://www.w3.org/2000/svg">
<path d="M52.543 104.516C81.1949 104.516 104.422 81.2887 104.422 52.6367C104.422 23.9848 81.1949 0.757812 52.543 0.757812C23.891 0.757812 0.664062 23.9848 0.664062 52.6367C0.664062 81.2887 23.891 104.516 52.543 104.516Z" fill="#F47E20"/>
<path d="M19.1578 34.0999C22.1749 29.6044 27.0507 27.3535 33.7669 27.3535C40.4831 27.3535 45.3588 29.6044 48.376 34.0999C51.3931 38.5955 52.9078 44.7505 52.9078 52.5589C52.9078 60.3673 51.3992 66.6611 48.376 71.1567C45.3528 75.6523 40.4831 77.9031 33.7669 77.9031C27.0507 77.9031 22.1749 75.6523 19.1578 71.1567C16.1346 66.6611 14.626 60.4639 14.626 52.5589C14.626 44.6539 16.1346 38.5955 19.1578 34.0999ZM39.9702 41.9626C38.9685 39.4885 36.9047 38.2515 33.7729 38.2515C30.6411 38.2515 28.5713 39.4885 27.5756 41.9626C26.5739 44.4367 26.0791 47.9668 26.0791 52.5529C26.0791 55.6424 26.2602 58.1949 26.6222 60.2164C26.9843 62.2379 27.7205 63.8732 28.8368 65.1224C29.9471 66.3715 31.5945 66.993 33.7729 66.993C35.9513 66.993 37.5987 66.3715 38.709 65.1224C39.8193 63.8732 40.5615 62.2379 40.9236 60.2164C41.2856 58.1949 41.4667 55.6424 41.4667 52.5529C41.4667 47.9668 40.9658 44.4367 39.9702 41.9626Z" fill="white"/>
<path d="M90.7852 37.0935L73.684 78.1027H61.7601L79.0606 38.3909H57.874V28.4463H90.7792V37.0995L90.7852 37.0935Z" fill="white"/>
</svg>
