<svg width="104" height="104" viewBox="0 0 104 104" fill="none" xmlns="http://www.w3.org/2000/svg">
<path d="M51.8789 103.758C80.5308 103.758 103.758 80.5308 103.758 51.8789C103.758 23.227 80.5308 0 51.8789 0C23.227 0 0 23.227 0 51.8789C0 80.5308 23.227 103.758 51.8789 103.758Z" fill="#F47E20"/>
<path d="M14.7164 32.5101C17.7335 28.0145 22.6093 25.7637 29.3255 25.7637C36.0417 25.7637 40.9174 28.0145 43.9346 32.5101C46.9517 37.0057 48.4663 43.1607 48.4663 50.9691C48.4663 58.7775 46.9578 65.0713 43.9346 69.5668C40.9114 74.0624 36.0417 76.3132 29.3255 76.3132C22.6093 76.3132 17.7335 74.0624 14.7164 69.5668C11.6932 65.0713 10.1846 58.874 10.1846 50.9691C10.1846 43.0641 11.6932 37.0057 14.7164 32.5101ZM35.5287 40.3728C34.5271 37.8987 32.4633 36.6617 29.3315 36.6617C26.1997 36.6617 24.1299 37.8987 23.1342 40.3728C22.1325 42.8468 21.6377 46.3769 21.6377 50.963C21.6377 54.0526 21.8188 56.6051 22.1808 58.6266C22.5429 60.6481 23.2791 62.2834 24.3954 63.5325C25.5057 64.7816 27.1531 65.4031 29.3315 65.4031C31.5099 65.4031 33.1573 64.7816 34.2676 63.5325C35.3779 62.2834 36.1201 60.6481 36.4822 58.6266C36.8442 56.6051 37.0253 54.0526 37.0253 50.963C37.0253 46.3769 36.5244 42.8468 35.5287 40.3728Z" fill="white"/>
<path d="M56.3715 39.1184C56.3715 36.6685 57.0051 34.4298 58.2783 32.4083C59.5516 30.3868 61.4826 28.7756 64.0713 27.5748C66.66 26.3739 69.8401 25.7705 73.6055 25.7705C77.3709 25.7705 80.545 26.3739 83.1096 27.5748C85.6742 28.7756 87.5931 30.3928 88.8663 32.4083C90.1396 34.4298 90.7732 36.6685 90.7732 39.1184C90.7732 41.5684 90.1939 43.7045 89.0353 45.5209C87.8767 47.3372 86.3198 48.7673 84.3708 49.8112C86.8207 50.994 88.7094 52.6173 90.0249 54.681C91.3404 56.7447 91.9982 59.1644 91.9982 61.9342C91.9982 65.1565 91.1835 67.9384 89.5482 70.2797C87.9129 72.621 85.6983 74.4012 82.9044 75.6261C80.1105 76.8511 77.0149 77.4666 73.6055 77.4666C70.1961 77.4666 67.1005 76.8511 64.3066 75.6261C61.5127 74.4012 59.2981 72.621 57.6628 70.2797C56.0275 67.9384 55.2129 65.1626 55.2129 61.9342C55.2129 59.1162 55.8706 56.6784 57.1861 54.6086C58.5016 52.5448 60.3662 50.9397 62.7739 49.8052C58.5076 47.5363 56.3715 43.97 56.3715 39.1124V39.1184ZM68.4341 56.5878C67.1186 57.7464 66.4609 59.3455 66.4609 61.3912C66.4609 63.298 67.1066 64.8669 68.4039 66.0919C69.7013 67.3168 71.4332 67.9324 73.6176 67.9324C75.802 67.9324 77.5097 67.3168 78.7588 66.0919C80.0079 64.8669 80.6295 63.298 80.6295 61.3912C80.6295 59.4843 79.9838 57.8068 78.6864 56.624C77.389 55.4413 75.6994 54.8559 73.6116 54.8559C71.5237 54.8559 69.7496 55.4352 68.4341 56.5938V56.5878ZM77.8658 36.5599C76.7977 35.5401 75.3796 35.0271 73.6055 35.0271C71.8314 35.0271 70.4134 35.5521 69.3453 36.5961C68.2772 37.64 67.7462 39.0943 67.7462 40.9589C67.7462 42.8235 68.2893 44.1269 69.3815 45.1467C70.4737 46.1665 71.8797 46.6795 73.6055 46.6795C75.3313 46.6795 76.7373 46.1605 77.8296 45.1106C78.9218 44.0666 79.4649 42.6606 79.4649 40.8865C79.4649 39.028 78.9278 37.5857 77.8658 36.5599Z" fill="white"/>
</svg>
