<svg width="104" height="104" viewBox="0 0 104 104" fill="none" xmlns="http://www.w3.org/2000/svg">
<path d="M51.8789 103.758C80.5308 103.758 103.758 80.5308 103.758 51.8789C103.758 23.227 80.5308 0 51.8789 0C23.227 0 0 23.227 0 51.8789C0 80.5308 23.227 103.758 51.8789 103.758Z" fill="#F47E20"/>
<path d="M15.0904 33.0687C18.1075 28.5731 22.9833 26.3223 29.6995 26.3223C36.4157 26.3223 41.2914 28.5731 44.3086 33.0687C47.3258 37.5643 48.8404 43.7192 48.8404 51.5277C48.8404 59.3361 47.3318 65.6299 44.3086 70.1254C41.2854 74.621 36.4157 76.8718 29.6995 76.8718C22.9833 76.8718 18.1075 74.621 15.0904 70.1254C12.0672 65.6299 10.5586 59.4326 10.5586 51.5277C10.5586 43.6227 12.0672 37.5643 15.0904 33.0687ZM35.9028 40.9313C34.9011 38.4573 32.8373 37.2203 29.7055 37.2203C26.5737 37.2203 24.5039 38.4573 23.5083 40.9313C22.5066 43.4054 22.0117 46.9355 22.0117 51.5216C22.0117 54.6112 22.1928 57.1637 22.5548 59.1852C22.9169 61.2067 23.6531 62.842 24.7694 64.0911C25.8798 65.3402 27.5271 65.9617 29.7055 65.9617C31.8839 65.9617 33.5313 65.3402 34.6416 64.0911C35.7519 62.842 36.4941 61.2067 36.8562 59.1852C37.2183 57.1637 37.3993 54.6112 37.3993 51.5216C37.3993 46.9355 36.8984 43.4054 35.9028 40.9313Z" fill="white"/>
<path d="M77.6602 36.9857C76.749 36.147 75.4577 35.7245 73.7801 35.7245C71.1914 35.7245 69.3268 36.847 68.1923 39.0978C67.0579 41.3486 66.4665 44.9027 66.4182 49.7604C67.4139 48.1733 68.8561 46.9243 70.7448 46.0131C72.6276 45.1079 74.7034 44.6493 76.9783 44.6493C81.4316 44.6493 85.004 46.0553 87.7073 48.8733C90.4107 51.6914 91.7624 55.6197 91.7624 60.6584C91.7624 63.9712 91.0926 66.8798 89.753 69.378C88.4134 71.8762 86.4582 73.8314 83.8936 75.2374C81.3291 76.6434 78.2938 77.3494 74.7999 77.3494C67.8061 77.3494 62.9485 75.1589 60.221 70.778C57.4935 66.3971 56.1357 60.0972 56.1357 51.8724C56.1357 43.2433 57.5779 36.8288 60.4624 32.6289C63.3468 28.429 67.9691 26.3291 74.3232 26.3291C77.7266 26.3291 80.5989 26.9989 82.9402 28.3385C85.2815 29.6781 87.0496 31.4402 88.2565 33.6185C89.4573 35.7969 90.1754 38.1805 90.4047 40.7692H79.5731C79.211 39.0917 78.5714 37.8305 77.6662 36.9857H77.6602ZM69.3147 55.5835C68.0173 56.7421 67.3717 58.3895 67.3717 60.5196C67.3717 62.6497 67.9751 64.3997 69.1759 65.6307C70.3768 66.8556 72.0905 67.4711 74.3172 67.4711C76.3145 67.4711 77.8955 66.8677 79.0541 65.6668C80.2127 64.466 80.792 62.8187 80.792 60.7308C80.792 58.6429 80.2248 56.9171 79.0903 55.6922C77.9559 54.4672 76.3206 53.8517 74.1844 53.8517C72.2293 53.8517 70.6061 54.431 69.3147 55.5895V55.5835Z" fill="white"/>
</svg>
