<svg width="150" height="150" viewBox="0 0 150 150" fill="none" xmlns="http://www.w3.org/2000/svg">
<g clip-path="url(#clip0_332_24041)">
<path d="M74.5 0C33.0797 0 -0.5 33.5797 -0.5 75C-0.5 116.42 33.0797 150 74.5 150C115.92 150 149.5 116.423 149.5 75C149.5 33.5766 115.92 0 74.5 0ZM74.9105 129.271C44.7084 129.271 20.2257 104.789 20.2257 74.5864C20.2257 44.3842 44.7084 19.9015 74.9105 19.9015C105.113 19.9015 129.595 44.3842 129.595 74.5864C129.595 104.789 105.113 129.271 74.9105 129.271Z" fill="url(#paint0_radial_332_24041)"/>
<g clip-path="url(#clip1_332_24041)">
<path d="M55.6154 93.2592C55.2203 92.5788 54.3478 92.3448 53.6663 92.737L50.3454 94.6523V90.8239C50.3454 90.0374 49.7073 89.4004 48.9194 89.4004C48.1315 89.4004 47.4934 90.0374 47.4934 90.8239V94.6545L44.1704 92.7392C43.4867 92.347 42.6163 92.5788 42.2213 93.2613C41.8263 93.9416 42.0607 94.8126 42.7422 95.207L46.0652 97.1222L42.7422 99.0375C42.0607 99.4297 41.8263 100.301 42.2213 100.983C42.4861 101.44 42.9658 101.694 43.4585 101.694C43.7016 101.694 43.9468 101.633 44.1704 101.503L47.4934 99.5879V103.416C47.4934 104.203 48.1315 104.84 48.9194 104.84C49.7073 104.84 50.3454 104.203 50.3454 103.416V99.5879L53.6663 101.503C53.892 101.633 54.1351 101.694 54.3782 101.694C54.8709 101.694 55.3506 101.438 55.6154 100.983C56.0104 100.303 55.776 99.4319 55.0944 99.0375L51.7714 97.1222L55.0944 95.207C55.776 94.8126 56.0104 93.9416 55.6154 93.2613V93.2592Z" fill="#F47920"/>
<path d="M73.0031 93.2592C72.6081 92.5788 71.7356 92.3448 71.0541 92.737L67.7332 94.6523V90.8239C67.7332 90.0374 67.0951 89.4004 66.3072 89.4004C65.5193 89.4004 64.8812 90.0374 64.8812 90.8239V94.6523L61.5603 92.737C60.8788 92.3448 60.0063 92.5767 59.6112 93.2592C59.2162 93.9395 59.4506 94.8105 60.1322 95.2048L63.4552 97.1201L60.1322 99.0354C59.4506 99.4275 59.2162 100.299 59.6112 100.981C59.876 101.438 60.3557 101.692 60.8484 101.692C61.0915 101.692 61.3368 101.631 61.5603 101.501L64.8812 99.5857V103.414C64.8812 104.201 65.5193 104.838 66.3072 104.838C67.0951 104.838 67.7332 104.201 67.7332 103.414V99.5857L71.0541 101.501C71.2798 101.631 71.5229 101.692 71.766 101.692C72.2587 101.692 72.7383 101.436 73.0031 100.981C73.3982 100.301 73.1638 99.4297 72.4822 99.0354L69.1592 97.1201L72.4822 95.2048C73.1638 94.8105 73.3982 93.9395 73.0031 93.2592Z" fill="#F47920"/>
<path d="M90.3909 93.2592C89.9959 92.5788 89.1233 92.3448 88.4418 92.737L85.121 94.6523V90.8239C85.121 90.0374 84.4828 89.4004 83.695 89.4004C82.9071 89.4004 82.2689 90.0374 82.2689 90.8239V94.6523L78.9481 92.737C78.2644 92.3448 77.394 92.5767 76.999 93.2592C76.604 93.9395 76.8384 94.8105 77.5199 95.2048L80.8429 97.1201L77.5199 99.0354C76.8384 99.4275 76.604 100.299 76.999 100.981C77.2638 101.438 77.7435 101.692 78.2362 101.692C78.4793 101.692 78.7245 101.631 78.9481 101.501L82.2689 99.5857V103.414C82.2689 104.201 82.9071 104.838 83.695 104.838C84.4828 104.838 85.121 104.201 85.121 103.414V99.5857L88.4418 101.501C88.6675 101.631 88.9106 101.692 89.1537 101.692C89.6464 101.692 90.1261 101.436 90.3909 100.981C90.7859 100.301 90.5515 99.4297 89.87 99.0354L86.547 97.1201L89.87 95.2048C90.5515 94.8105 90.7859 93.9395 90.3909 93.2592Z" fill="#F47920"/>
<path d="M107.258 99.0334L103.935 97.1181L107.258 95.2028C107.939 94.8085 108.174 93.9375 107.779 93.2572C107.384 92.5769 106.511 92.3429 105.83 92.735L102.509 94.6503V90.8219C102.509 90.0354 101.871 89.3984 101.083 89.3984C100.295 89.3984 99.6567 90.0354 99.6567 90.8219V94.6503L96.3359 92.735C95.6543 92.3429 94.7818 92.5747 94.3868 93.2572C93.9917 93.9375 94.2261 94.8085 94.9077 95.2028L98.2307 97.1181L94.9077 99.0334C94.2261 99.4256 93.9917 100.297 94.3868 100.979C94.6516 101.436 95.1312 101.69 95.6239 101.69C95.867 101.69 96.1123 101.629 96.3359 101.499L99.6567 99.5838V103.412C99.6567 104.199 100.295 104.836 101.083 104.836C101.871 104.836 102.509 104.199 102.509 103.412V99.5838L105.83 101.499C106.055 101.629 106.298 101.69 106.541 101.69C107.034 101.69 107.514 101.434 107.779 100.979C108.174 100.299 107.939 99.4278 107.258 99.0334Z" fill="#F47920"/>
<path d="M94.7839 61.8022C94.7839 59.0116 92.518 56.7518 89.7245 56.7518H86.3994V49.3744C86.3994 44.6685 82.5641 40.8379 77.8476 40.8379H72.1523C67.438 40.8379 63.6027 44.6685 63.6027 49.3744V56.7518H60.2775C57.482 56.7518 55.2181 59.0137 55.2181 61.8022V81.447C55.2181 84.2376 57.4841 86.4974 60.2775 86.4974H89.7245C92.5201 86.4974 94.7839 84.2354 94.7839 81.447V61.8022ZM64.2083 75.0728C62.2375 75.0728 60.6422 73.4781 60.6422 71.513C60.6422 69.5479 62.2397 67.9532 64.2083 67.9532C66.1769 67.9532 67.7744 69.5479 67.7744 71.513C67.7744 73.4781 66.1769 75.0728 64.2083 75.0728ZM75 75.0728C73.0313 75.0728 71.4338 73.4781 71.4338 71.513C71.4338 69.5479 73.0313 67.9532 75 67.9532C76.9686 67.9532 78.5661 69.5479 78.5661 71.513C78.5661 73.4781 76.9686 75.0728 75 75.0728ZM81.7003 56.7496H68.2997V49.3722C68.2997 47.2511 70.0274 45.5265 72.1523 45.5265H77.8476C79.9725 45.5265 81.7003 47.2511 81.7003 49.3722V56.7496ZM85.7938 75.0728C83.823 75.0728 82.2277 73.4781 82.2277 71.513C82.2277 69.5479 83.8252 67.9532 85.7938 67.9532C87.7624 67.9532 89.3599 69.5479 89.3599 71.513C89.3599 73.4781 87.7624 75.0728 85.7938 75.0728Z" fill="#F47920"/>
</g>
</g>
<defs>
<radialGradient id="paint0_radial_332_24041" cx="0" cy="0" r="1" gradientUnits="userSpaceOnUse" gradientTransform="translate(75.4361 76.8754) scale(84.6506 84.6506)">
<stop stop-color="#F93822"/>
<stop offset="1" stop-color="#F37721" stop-opacity="0.13"/>
</radialGradient>
<clipPath id="clip0_332_24041">
<rect width="150" height="150" fill="white"/>
</clipPath>
<clipPath id="clip1_332_24041">
<rect width="65.9394" height="64" fill="white" transform="translate(42.0303 40.8379)"/>
</clipPath>
</defs>
</svg>
