<svg width="120" height="120" viewBox="0 0 120 120" fill="none" xmlns="http://www.w3.org/2000/svg">
<path d="M60 120C93.1371 120 120 93.1371 120 60C120 26.8629 93.1371 0 60 0C26.8629 0 0 26.8629 0 60C0 93.1371 26.8629 120 60 120Z" fill="url(#paint0_linear_325_22441)"/>
<g clip-path="url(#clip0_325_22441)">
<path d="M65.9235 86.7213C66.4567 87.5291 66.8474 88.453 67.0454 89.456L75.8198 85.8159C75.2681 85.0081 74.8748 84.0842 74.6795 83.0996L65.9235 86.7187V86.7213Z" fill="white"/>
<path d="M44.1643 85.7983L52.9203 89.4385C53.1183 88.4539 53.5116 87.53 54.0606 86.7222L45.2836 83.082C45.0882 84.0666 44.6949 84.9905 44.1643 85.7983Z" fill="white"/>
<path d="M54.0818 33.2816C53.5485 32.4739 53.1552 31.55 52.9599 30.5469L44.2039 34.1686C44.7372 34.9763 45.1278 35.9002 45.3258 36.9033L54.0818 33.2816Z" fill="white"/>
<path d="M36.9025 74.6798L33.2834 65.9238C32.4757 66.4544 31.5518 66.8477 30.5487 67.0457L34.1677 75.8016C34.9755 75.2711 35.8994 74.8777 36.9025 74.6798Z" fill="white"/>
<path d="M36.921 45.2829C35.9363 45.085 35.0124 44.6916 34.2047 44.1426L30.5645 52.917C31.5491 53.115 32.473 53.5083 33.2808 54.0574L36.921 45.2829Z" fill="white"/>
<path d="M83.1028 45.324L86.7218 54.0799C87.5296 53.5493 88.4535 53.156 89.4566 52.958L85.8164 44.1836C85.0087 44.7353 84.0848 45.1286 83.1002 45.324H83.1028Z" fill="white"/>
<path d="M75.8409 34.1861L67.085 30.5645C66.8897 31.5491 66.4963 32.473 65.9446 33.2807L74.7006 36.9209C74.8986 35.9178 75.2892 34.9939 75.8409 34.1861Z" fill="white"/>
<path d="M83.0817 74.7013C84.0663 74.8992 84.9902 75.2926 85.798 75.8416L89.4381 67.0857C88.4535 66.8877 87.5296 66.4944 86.7219 65.9453L83.0817 74.7013Z" fill="white"/>
<path d="M60.0158 33.4603C62.352 33.4603 64.2447 31.5676 64.2447 29.2288C64.2447 26.89 62.3546 25 60.0158 25C57.6771 25 55.787 26.8927 55.787 29.2315C55.787 31.5703 57.6823 33.4629 60.0158 33.4629V33.4603Z" fill="white"/>
<path d="M38.254 42.459C40.5902 42.459 42.4828 40.5663 42.4828 38.2276C42.4828 35.8888 40.5902 33.9961 38.254 33.9961C35.9179 33.9961 34.0226 35.8888 34.0226 38.2276C34.0226 40.5663 35.9179 42.459 38.254 42.459Z" fill="white"/>
<path d="M33.4603 59.9815C33.4603 57.6453 31.565 55.75 29.2288 55.75C26.8927 55.75 25 57.6453 25 59.9815C25 62.3176 26.8927 64.2129 29.2288 64.2129C31.565 64.2129 33.4603 62.3203 33.4603 59.9815Z" fill="white"/>
<path d="M38.2302 77.5137C35.8941 77.5137 33.9988 79.409 33.9988 81.7451C33.9988 84.0813 35.8941 85.9766 38.2302 85.9766C40.5664 85.9766 42.4591 84.0839 42.4591 81.7451C42.4591 79.4063 40.5664 77.5137 38.2302 77.5137Z" fill="white"/>
<path d="M59.9815 86.5371C57.6454 86.5371 55.7527 88.4298 55.7527 90.7686C55.7527 93.1074 57.6454 95 59.9815 95C62.3177 95 64.213 93.1074 64.213 90.7686C64.213 88.4298 62.3177 86.5371 59.9815 86.5371Z" fill="white"/>
<path d="M81.7434 77.5391C79.4072 77.5391 77.5145 79.4317 77.5145 81.7705C77.5145 84.1093 79.4072 86.002 81.7434 86.002C84.0795 86.002 85.9748 84.1093 85.9748 81.7705C85.9748 79.4317 84.0795 77.5391 81.7434 77.5391Z" fill="white"/>
<path d="M90.7685 55.7871C88.4324 55.7871 86.5371 57.6798 86.5371 60.0186C86.5371 62.3574 88.4324 64.25 90.7685 64.25C93.1047 64.25 94.9974 62.3574 94.9974 60.0186C94.9974 57.6798 93.1047 55.7871 90.7685 55.7871Z" fill="white"/>
<path d="M81.7697 42.4864C84.1059 42.4864 86.0012 40.5937 86.0012 38.2549C86.0012 35.9161 84.1059 34.0234 81.7697 34.0234C79.4336 34.0234 77.5383 35.9161 77.5383 38.2549C77.5383 40.5937 79.4309 42.4864 81.7697 42.4864Z" fill="white"/>
<path d="M72.2457 48.9694C63.8593 48.7292 61.1826 44.4529 61.0612 44.2549C60.8421 43.88 60.4382 43.653 60.0053 43.6504C59.5829 43.6609 59.1606 43.88 58.9336 44.2522C58.8227 44.437 56.1513 48.7292 47.7491 48.9694C47.0812 48.9879 46.5507 49.5343 46.5507 50.2022V58.8393C46.5507 64.7021 49.6576 70.2429 54.6599 73.3023L59.3533 76.1717C59.5513 76.2931 59.773 76.3538 59.9974 76.3538C60.2218 76.3538 60.4435 76.2931 60.6415 76.1717L65.3349 73.3023C70.3371 70.2429 73.4441 64.7021 73.4441 58.8393V50.2022C73.4441 49.5343 72.9135 48.9879 72.2457 48.9694ZM67.0137 57.5406L59.9631 65.1113C59.5961 65.5072 59.0814 65.7316 58.5403 65.7316C57.9991 65.7316 57.4844 65.5072 57.1174 65.1113L52.9836 60.6713C52.2524 59.8846 52.2973 58.6545 53.0813 57.9233C53.868 57.1921 55.0954 57.2344 55.8293 58.021L58.5429 60.9326L64.1708 54.8903C64.902 54.1037 66.1321 54.0614 66.9187 54.7926C67.7053 55.5238 67.7476 56.7539 67.0164 57.5406H67.0137Z" fill="white"/>
</g>
<defs>
<linearGradient id="paint0_linear_325_22441" x1="0.00279083" y1="60" x2="120" y2="60" gradientUnits="userSpaceOnUse">
<stop stop-color="#F47E20"/>
<stop offset="0.39" stop-color="#F15E2C"/>
<stop offset="0.77" stop-color="#EE4536"/>
<stop offset="1" stop-color="#EE3D3A"/>
</linearGradient>
<clipPath id="clip0_325_22441">
<rect width="70" height="70" fill="white" transform="translate(25 25)"/>
</clipPath>
</defs>
</svg>
