<svg width="150" height="150" viewBox="0 0 150 150" fill="none" xmlns="http://www.w3.org/2000/svg">
<g clip-path="url(#clip0_332_24047)">
<path d="M74.5 0C33.0797 0 -0.5 33.5797 -0.5 75C-0.5 116.42 33.0797 150 74.5 150C115.92 150 149.5 116.423 149.5 75C149.5 33.5766 115.92 0 74.5 0ZM74.9105 129.271C44.7084 129.271 20.2257 104.789 20.2257 74.5864C20.2257 44.3842 44.7084 19.9015 74.9105 19.9015C105.113 19.9015 129.595 44.3842 129.595 74.5864C129.595 104.789 105.113 129.271 74.9105 129.271Z" fill="url(#paint0_radial_332_24047)"/>
<g clip-path="url(#clip1_332_24047)">
<path d="M40.8409 51.4038H97.9382V55.4997H101.779V48.973C101.779 48.1604 101.129 47.5 100.325 47.5H38.4539C37.6497 47.5 37 48.1604 37 48.973V88.346C37 89.1633 37.6497 89.8237 38.4539 89.8237H84.881V81.8405H40.8409V51.4038ZM69.3884 84.2127C70.34 84.2127 71.1142 84.9996 71.1142 85.9667C71.1142 86.9339 70.3423 87.7161 69.3884 87.7161C68.4345 87.7161 67.6627 86.9363 67.6627 85.9667C67.6627 84.9972 68.4345 84.2127 69.3884 84.2127Z" fill="#F47920"/>
<path d="M81.2728 99.8896H78.3098L76.1924 92.4238H62.5868L60.4693 99.8896H57.5063C57.186 99.8896 56.9257 100.154 56.9257 100.48V101.911C56.9257 102.236 57.186 102.501 57.5063 102.501H81.2728C81.5931 102.501 81.8535 102.236 81.8535 101.911V100.48C81.8535 100.154 81.5931 99.8896 81.2728 99.8896Z" fill="#F47920"/>
<path d="M111.548 59.6582H90.427C89.6252 59.6582 88.9754 60.3186 88.9754 61.1336V101.024C88.9754 101.839 89.6252 102.499 90.427 102.499H111.548C112.35 102.499 113 101.839 113 101.024V61.1336C113 60.3186 112.35 59.6582 111.548 59.6582ZM100.987 96.2726C100.035 96.2726 99.2631 95.4881 99.2631 94.5209C99.2631 93.5537 100.035 92.7669 100.987 92.7669C101.938 92.7669 102.712 93.5514 102.712 94.5209C102.712 95.4904 101.94 96.2726 100.987 96.2726ZM107.583 76.6551H94.3946C94.0743 76.6551 93.814 76.3905 93.814 76.065V73.2876C93.814 72.9621 94.0743 72.6975 94.3946 72.6975H107.583C107.903 72.6975 108.164 72.9621 108.164 73.2876V76.065C108.164 76.3905 107.903 76.6551 107.583 76.6551ZM107.583 69.3697H94.3946C94.0743 69.3697 93.814 69.1051 93.814 68.7796V66.0022C93.814 65.6767 94.0743 65.4121 94.3946 65.4121H107.583C107.903 65.4121 108.164 65.6767 108.164 66.0022V68.7796C108.164 69.1051 107.903 69.3697 107.583 69.3697Z" fill="#F47920"/>
<path d="M65.589 64.8394H71.1118C71.9966 64.8394 72.7178 64.1064 72.7178 63.2071V58.2963C72.7178 57.3971 71.9966 56.6641 71.1118 56.6641H65.589C64.7042 56.6641 63.983 57.3971 63.983 58.2963V63.2071C63.983 64.1064 64.7042 64.8394 65.589 64.8394Z" fill="#F47920"/>
<path d="M76.9273 59.3337H82.1115C82.8373 59.3337 83.4248 58.7366 83.4248 57.9989C83.4248 57.2612 82.8373 56.6641 82.1115 56.6641H76.9273C76.2016 56.6641 75.614 57.2612 75.614 57.9989C75.614 58.7366 76.2016 59.3337 76.9273 59.3337Z" fill="#F47920"/>
<path d="M76.9273 64.8396H82.1115C82.8373 64.8396 83.4248 64.2424 83.4248 63.5048C83.4248 62.7671 82.8373 62.1699 82.1115 62.1699H76.9273C76.2016 62.1699 75.614 62.7671 75.614 63.5048C75.614 64.2424 76.2016 64.8396 76.9273 64.8396Z" fill="#F47920"/>
<path d="M65.2964 70.3416H82.1092C82.835 70.3416 83.4225 69.7444 83.4225 69.0067C83.4225 68.269 82.835 67.6719 82.1092 67.6719H65.2964C64.5706 67.6719 63.983 68.269 63.983 69.0067C63.983 69.7444 64.5706 70.3416 65.2964 70.3416Z" fill="#F47920"/>
<path d="M65.2964 75.8455H82.1092C82.835 75.8455 83.4225 75.2483 83.4225 74.5106C83.4225 73.7729 82.835 73.1758 82.1092 73.1758H65.2964C64.5706 73.1758 63.983 73.7729 63.983 74.5106C63.983 75.2483 64.5706 75.8455 65.2964 75.8455Z" fill="#F47920"/>
<path d="M60.0431 64.5421L58.5362 64.3197C58.3473 63.856 58.2966 63.7319 58.1076 63.2659L59.0177 62.027C59.2597 61.6945 59.2274 61.2332 58.9394 60.9404L57.7021 59.6829C57.4164 59.3901 56.9602 59.3574 56.6353 59.6056L55.4142 60.5306C54.958 60.3386 54.8358 60.2871 54.3773 60.095L54.1584 58.5635C54.1008 58.1537 53.7552 57.8516 53.3497 57.8516H51.6009C51.1954 57.8516 50.8498 58.1537 50.7922 58.5635L50.5733 60.095C50.1171 60.2871 49.9927 60.3386 49.5365 60.5306L48.3153 59.6056C47.9904 59.3597 47.5342 59.3925 47.2462 59.6829L46.0089 60.9404C45.7209 61.2332 45.6887 61.6945 45.9306 62.0247L46.8407 63.2659C46.6518 63.7319 46.6011 63.8536 46.4121 64.3197L44.9053 64.5421C44.5021 64.6007 44.2048 64.952 44.2048 65.3641V67.1416C44.2048 67.5537 44.5021 67.905 44.9053 67.9635L46.4121 68.186C46.6011 68.6497 46.6518 68.7738 46.8407 69.2398L45.9306 70.4787C45.6887 70.8089 45.7209 71.2725 46.0089 71.5653L47.2462 72.8228C47.5342 73.1155 47.9881 73.1483 48.3153 72.9024L49.5365 71.9774C49.9927 72.1695 50.1148 72.221 50.5733 72.413L50.7922 73.9446C50.8521 74.352 51.1954 74.6565 51.6009 74.6565H53.3497C53.7552 74.6565 54.1008 74.3544 54.1584 73.9446L54.3773 72.413C54.8335 72.221 54.9557 72.1695 55.4142 71.9774L56.6353 72.9024C56.9602 73.1483 57.4164 73.1155 57.7021 72.8228L58.9394 71.5653C59.2274 71.2725 59.2597 70.8112 59.0177 70.4787L58.103 69.2352C58.292 68.7715 58.3427 68.6474 58.5316 68.186L60.0431 67.9635C60.444 67.905 60.7435 67.5537 60.7435 67.1416V65.3641C60.7435 64.952 60.444 64.6007 60.0431 64.5421ZM52.4765 69.659C50.6263 69.659 49.1263 68.1345 49.1263 66.254C49.1263 64.3735 50.6263 62.849 52.4765 62.849C54.3266 62.849 55.8266 64.3735 55.8266 66.254C55.8266 68.1345 54.3266 69.659 52.4765 69.659Z" fill="#F47920"/>
</g>
</g>
<defs>
<radialGradient id="paint0_radial_332_24047" cx="0" cy="0" r="1" gradientUnits="userSpaceOnUse" gradientTransform="translate(75.4361 76.8754) scale(84.6506 84.6506)">
<stop stop-color="#F93822"/>
<stop offset="1" stop-color="#F37721" stop-opacity="0.13"/>
</radialGradient>
<clipPath id="clip0_332_24047">
<rect width="150" height="150" fill="white"/>
</clipPath>
<clipPath id="clip1_332_24047">
<rect width="76" height="55" fill="white" transform="translate(37 47.5)"/>
</clipPath>
</defs>
</svg>
