<svg width="150" height="150" viewBox="0 0 150 150" fill="none" xmlns="http://www.w3.org/2000/svg">
<g clip-path="url(#clip0_318_10271)">
<path d="M74.5 0C33.0797 0 -0.5 33.5797 -0.5 75C-0.5 116.42 33.0797 150 74.5 150C115.92 150 149.5 116.423 149.5 75C149.5 33.5766 115.92 0 74.5 0ZM74.9105 129.271C44.7084 129.271 20.2257 104.789 20.2257 74.5864C20.2257 44.3842 44.7084 19.9015 74.9105 19.9015C105.113 19.9015 129.595 44.3842 129.595 74.5864C129.595 104.789 105.113 129.271 74.9105 129.271Z" fill="url(#paint0_radial_318_10271)"/>
<g clip-path="url(#clip1_318_10271)">
<path d="M109.041 67.0938H103.404C102.722 64.7123 101.815 62.5162 100.603 60.4368L104.574 56.4665C105.558 55.4822 105.558 53.9324 104.574 52.948L96.9712 45.3455C96.0258 44.3612 94.437 44.3612 93.4916 45.3455L89.4824 49.3158C87.4389 48.143 85.171 47.2364 82.8254 46.5932V40.9594C82.8254 39.598 81.7273 38.5 80.3301 38.5H69.5891C68.2278 38.5 67.1297 39.598 67.1297 40.9594V46.5962C64.7482 47.2783 62.5162 48.1849 60.4338 49.3936L56.4635 45.4233C55.5181 44.439 53.9294 44.439 52.9839 45.4233L45.3814 53.0258C44.3971 53.9712 44.3971 55.56 45.3814 56.5054L49.3517 60.5146C48.1789 62.5581 47.2334 64.826 46.6291 67.1716H40.9953C39.6339 67.1716 38.5 68.2697 38.5 69.6669V80.4079C38.5 81.7692 39.6339 82.8673 40.9953 82.8673H46.6321C47.3142 85.2518 48.2208 87.4808 49.3936 89.5632L45.4592 93.5335C44.4749 94.4789 44.4749 96.0676 45.4592 97.0131L53.0617 104.616C54.0072 105.6 55.5959 105.6 56.5413 104.616L60.5505 100.645C62.594 101.818 64.826 102.764 67.2075 103.368V109.005C67.2075 110.366 68.3056 111.5 69.6669 111.5H80.4468C81.8081 111.5 82.9062 110.366 82.9062 109.005V103.368C83.8127 103.105 84.7223 102.799 85.554 102.461L78.1041 95.0085C77.0839 95.197 76.0606 95.2748 75.0015 95.2748C63.8057 95.2748 54.7282 86.1973 54.7282 75.0015C54.7282 63.8057 63.8057 54.6893 75.0015 54.6893C86.1973 54.6893 95.3137 63.7668 95.3137 75.0015C95.3137 76.0606 95.2389 77.0809 95.0474 78.1041L102.497 85.5181C102.874 84.6475 103.141 83.7409 103.404 82.7955H109.041C110.402 82.7955 111.5 81.6974 111.5 80.3361V69.5562C111.5 68.1949 110.402 67.0968 109.041 67.0968V67.0938Z" fill="#F47920"/>
<path d="M87.5556 79.1492C88.2198 77.1417 88.4203 74.9187 88.0164 72.6119C87.1637 67.744 83.4417 63.6511 78.6876 62.2987C76.1324 61.5717 73.6851 61.6405 71.468 62.2688C70.6183 62.5111 70.3311 63.5793 70.9564 64.2046L76.0547 69.3028C77.9126 71.1608 77.9126 74.1707 76.0547 76.0287C74.1967 77.8866 71.1868 77.8866 69.3288 76.0287L64.2336 70.9334C63.6082 70.3081 62.5401 70.5923 62.2978 71.445C61.6695 73.662 61.5977 76.1124 62.3187 78.6735C63.6591 83.4307 67.761 87.1496 72.6289 87.9934C74.9387 88.3943 77.1617 88.1938 79.1692 87.5266L97.6205 105.978C98.5061 106.863 99.9452 106.863 100.831 105.978L106.001 100.808C106.886 99.9222 106.886 98.4831 106.001 97.5975L87.5526 79.1462L87.5556 79.1492Z" fill="#F47920"/>
</g>
</g>
<defs>
<radialGradient id="paint0_radial_318_10271" cx="0" cy="0" r="1" gradientUnits="userSpaceOnUse" gradientTransform="translate(75.4361 76.8754) scale(84.6506 84.6506)">
<stop stop-color="#F93822"/>
<stop offset="1" stop-color="#F37721" stop-opacity="0.13"/>
</radialGradient>
<clipPath id="clip0_318_10271">
<rect width="150" height="150" fill="white"/>
</clipPath>
<clipPath id="clip1_318_10271">
<rect width="73" height="73" fill="white" transform="translate(38.5 38.5)"/>
</clipPath>
</defs>
</svg>
