<svg width="150" height="150" viewBox="0 0 150 150" fill="none" xmlns="http://www.w3.org/2000/svg">
<g clip-path="url(#clip0_332_24029)">
<path d="M74.5 0C33.0797 0 -0.5 33.5797 -0.5 75C-0.5 116.42 33.0797 150 74.5 150C115.92 150 149.5 116.423 149.5 75C149.5 33.5766 115.92 0 74.5 0ZM74.9105 129.271C44.7084 129.271 20.2257 104.789 20.2257 74.5864C20.2257 44.3842 44.7084 19.9015 74.9105 19.9015C105.113 19.9015 129.595 44.3842 129.595 74.5864C129.595 104.789 105.113 129.271 74.9105 129.271Z" fill="url(#paint0_radial_332_24029)"/>
<g clip-path="url(#clip1_332_24029)">
<path d="M54.6541 76.8378C53.2383 76.8378 52.1577 76.3101 51.4102 75.2545C50.6626 74.199 50.2888 72.694 50.2888 70.7372C50.2888 68.7805 50.6626 67.2553 51.4102 66.2266C52.1577 65.1979 53.2383 64.6836 54.6541 64.6836C56.0699 64.6836 57.1641 65.1979 57.9071 66.2266C58.6478 67.2553 59.0193 68.7536 59.0193 70.7193C59.0193 72.685 58.6456 74.199 57.898 75.2545C57.1505 76.3101 56.0699 76.8378 54.6541 76.8378ZM54.6541 75.0779C55.4243 75.0779 55.9929 74.7245 56.3599 74.0223C56.7268 73.3201 56.9126 72.2176 56.9126 70.7193C56.9126 69.221 56.7291 68.1342 56.3599 67.4588C55.9906 66.7835 55.422 66.4458 54.6541 66.4458C53.8861 66.4458 53.3289 66.7835 52.9551 67.4588C52.5813 68.1342 52.3956 69.221 52.3956 70.7193C52.3956 72.2176 52.5813 73.3179 52.9551 74.0223C53.3289 74.7268 53.8952 75.0779 54.6541 75.0779Z" fill="#F47920"/>
<path d="M74.9989 76.8378C73.583 76.8378 72.5025 76.3101 71.7549 75.2545C71.0074 74.199 70.6336 72.694 70.6336 70.7372C70.6336 68.7805 71.0074 67.2553 71.7549 66.2266C72.5025 65.1979 73.583 64.6836 74.9989 64.6836C76.4147 64.6836 77.5088 65.1979 78.2519 66.2266C78.9926 67.2553 79.3641 68.7536 79.3641 70.7193C79.3641 72.685 78.9904 74.199 78.2428 75.2545C77.4953 76.3101 76.4147 76.8378 74.9989 76.8378ZM74.9989 75.0779C75.7691 75.0779 76.3377 74.7245 76.7047 74.0223C77.0716 73.3201 77.2574 72.2176 77.2574 70.7193C77.2574 69.221 77.0739 68.1342 76.7047 67.4588C76.3354 66.7835 75.7668 66.4458 74.9989 66.4458C74.2309 66.4458 73.6737 66.7835 73.3021 67.4588C72.9284 68.1342 72.7426 69.221 72.7426 70.7193C72.7426 72.2176 72.9284 73.3179 73.3021 74.0223C73.6759 74.7268 74.2423 75.0779 74.9989 75.0779Z" fill="#F47920"/>
<path d="M61.9235 76.67C61.3005 76.67 60.9902 76.3681 60.9902 75.7643C60.9902 75.1605 61.3005 74.8922 61.9235 74.8922H63.8241V67.2978L62.3811 68.152C62.1092 68.3086 61.8623 68.3466 61.6426 68.2683C61.4228 68.19 61.2552 68.0514 61.1419 67.8479C61.0287 67.6489 60.9947 67.4275 61.04 67.1882C61.0853 66.9489 61.2439 66.7476 61.5157 66.5911L63.8581 65.2001C64.0846 65.0659 64.3111 64.9519 64.5377 64.858C64.7642 64.7618 64.9726 64.7148 65.1652 64.7148C65.403 64.7148 65.6001 64.7775 65.7587 64.9072C65.9172 65.0369 65.9965 65.2448 65.9965 65.5356V74.8899H67.7295C68.3525 74.8899 68.6628 75.1807 68.6628 75.7621C68.6628 76.3435 68.3525 76.6678 67.7295 76.6678H61.9212L61.9235 76.67Z" fill="#F47920"/>
<path d="M92.4418 76.67C91.8188 76.67 91.5085 76.3681 91.5085 75.7643C91.5085 75.1605 91.8188 74.8922 92.4418 74.8922H94.3424V67.2978L92.8994 68.152C92.6276 68.3086 92.3806 68.3466 92.1609 68.2683C91.9412 68.19 91.7735 68.0514 91.6603 67.8479C91.547 67.6489 91.513 67.4275 91.5583 67.1882C91.6036 66.9489 91.7622 66.7476 92.034 66.5911L94.3764 65.2001C94.6029 65.0659 94.8294 64.9519 95.056 64.858C95.2825 64.7618 95.4909 64.7148 95.6835 64.7148C95.9213 64.7148 96.1184 64.7775 96.277 64.9072C96.4355 65.0369 96.5148 65.2448 96.5148 65.5356V74.8899H98.2478C98.8708 74.8899 99.1811 75.1807 99.1811 75.7621C99.1811 76.3435 98.8708 76.6678 98.2478 76.6678H92.4395L92.4418 76.67Z" fill="#F47920"/>
<path d="M82.2683 76.67C81.6453 76.67 81.335 76.3681 81.335 75.7643C81.335 75.1605 81.6453 74.8922 82.2683 74.8922H84.1689V67.2978L82.7259 68.152C82.454 68.3086 82.2071 68.3466 81.9874 68.2683C81.7676 68.19 81.6 68.0514 81.4867 67.8479C81.3735 67.6489 81.3395 67.4275 81.3848 67.1882C81.4301 66.9489 81.5887 66.7476 81.8605 66.5911L84.2029 65.2001C84.4294 65.0659 84.6559 64.9519 84.8824 64.858C85.109 64.7618 85.3174 64.7148 85.5099 64.7148C85.7478 64.7148 85.9449 64.7775 86.1035 64.9072C86.262 65.0369 86.3413 65.2448 86.3413 65.5356V74.8899H88.0743C88.6972 74.8899 89.0076 75.1807 89.0076 75.7621C89.0076 76.3435 88.6972 76.6678 88.0743 76.6678H82.266L82.2683 76.67Z" fill="#F47920"/>
<path d="M64.8276 91.5937C63.4118 91.5937 62.3312 91.0659 61.5837 90.0104C60.8361 88.9549 60.4623 87.4498 60.4623 85.4931C60.4623 83.5363 60.8361 82.0112 61.5837 80.9825C62.3312 79.9538 63.4118 79.4395 64.8276 79.4395C66.2434 79.4395 67.3376 79.9538 68.0806 80.9825C68.8214 82.0112 69.1929 83.5095 69.1929 85.4752C69.1929 87.4409 68.8191 88.9549 68.0715 90.0104C67.324 91.0659 66.2434 91.5937 64.8276 91.5937ZM64.8276 89.8337C65.5978 89.8337 66.1664 89.4804 66.5334 88.7782C66.9004 88.0738 67.0861 86.9735 67.0861 85.4752C67.0861 83.9769 66.9026 82.89 66.5334 82.2147C66.1641 81.5393 65.5955 81.2016 64.8276 81.2016C64.0597 81.2016 63.5024 81.5393 63.1309 82.2147C62.7571 82.89 62.5714 83.9769 62.5714 85.4752C62.5714 86.9735 62.7571 88.0738 63.1309 88.7782C63.5047 89.4826 64.071 89.8337 64.8276 89.8337Z" fill="#F47920"/>
<path d="M74.9989 91.5937C73.583 91.5937 72.5025 91.0659 71.7549 90.0104C71.0074 88.9549 70.6336 87.4498 70.6336 85.4931C70.6336 83.5363 71.0074 82.0112 71.7549 80.9825C72.5025 79.9538 73.583 79.4395 74.9989 79.4395C76.4147 79.4395 77.5088 79.9538 78.2519 80.9825C78.9926 82.0112 79.3641 83.5095 79.3641 85.4752C79.3641 87.4409 78.9904 88.9549 78.2428 90.0104C77.4953 91.0659 76.4147 91.5937 74.9989 91.5937ZM74.9989 89.8337C75.7691 89.8337 76.3377 89.4804 76.7047 88.7782C77.0716 88.0738 77.2574 86.9735 77.2574 85.4752C77.2574 83.9769 77.0739 82.89 76.7047 82.2147C76.3354 81.5393 75.7668 81.2016 74.9989 81.2016C74.2309 81.2016 73.6737 81.5393 73.3021 82.2147C72.9284 82.89 72.7426 83.9769 72.7426 85.4752C72.7426 86.9735 72.9284 88.0738 73.3021 88.7782C73.6759 89.4826 74.2423 89.8337 74.9989 89.8337Z" fill="#F47920"/>
<path d="M51.7499 91.4259C51.1269 91.4259 50.8166 91.124 50.8166 90.5202C50.8166 89.9164 51.1269 89.648 51.7499 89.648H53.6505V82.0536L52.2075 82.9079C51.9357 83.0644 51.6887 83.1024 51.469 83.0242C51.2493 82.9459 51.0816 82.8072 50.9684 82.6037C50.8551 82.4047 50.8211 82.1833 50.8664 81.944C50.9117 81.7048 51.0703 81.5035 51.3421 81.3469L53.6845 79.956C53.911 79.8218 54.1375 79.7077 54.3641 79.6138C54.5906 79.5177 54.799 79.4707 54.9916 79.4707C55.2294 79.4707 55.4265 79.5333 55.5851 79.663C55.7437 79.7927 55.8229 80.0007 55.8229 80.2914V89.6458H57.5559C58.1789 89.6458 58.4892 89.9365 58.4892 90.518C58.4892 91.0994 58.1789 91.4237 57.5559 91.4237H51.7476L51.7499 91.4259Z" fill="#F47920"/>
<path d="M95.3459 91.5937C93.9301 91.5937 92.8495 91.0659 92.102 90.0104C91.3544 88.9549 90.9807 87.4498 90.9807 85.4931C90.9807 83.5363 91.3544 82.0112 92.102 80.9825C92.8495 79.9538 93.9301 79.4395 95.3459 79.4395C96.7617 79.4395 97.8559 79.9538 98.5989 80.9825C99.3397 82.0112 99.7112 83.5095 99.7112 85.4752C99.7112 87.4409 99.3374 88.9549 98.5898 90.0104C97.8423 91.0659 96.7617 91.5937 95.3459 91.5937ZM95.3459 89.8337C96.1161 89.8337 96.6847 89.4804 97.0517 88.7782C97.4187 88.0738 97.6044 86.9735 97.6044 85.4752C97.6044 83.9769 97.4209 82.89 97.0517 82.2147C96.6825 81.5393 96.1139 81.2016 95.3459 81.2016C94.578 81.2016 94.0207 81.5393 93.6492 82.2147C93.2754 82.89 93.0897 83.9769 93.0897 85.4752C93.0897 86.9735 93.2754 88.0738 93.6492 88.7782C94.023 89.4826 94.5893 89.8337 95.3459 89.8337Z" fill="#F47920"/>
<path d="M82.2683 91.4259C81.6453 91.4259 81.335 91.124 81.335 90.5202C81.335 89.9164 81.6453 89.648 82.2683 89.648H84.1689V82.0536L82.7259 82.9079C82.454 83.0644 82.2071 83.1024 81.9874 83.0242C81.7676 82.9459 81.6 82.8072 81.4867 82.6037C81.3735 82.4047 81.3395 82.1833 81.3848 81.944C81.4301 81.7048 81.5887 81.5035 81.8605 81.3469L84.2029 79.956C84.4294 79.8218 84.6559 79.7077 84.8824 79.6138C85.109 79.5177 85.3174 79.4707 85.5099 79.4707C85.7478 79.4707 85.9449 79.5333 86.1035 79.663C86.262 79.7927 86.3413 80.0007 86.3413 80.2914V89.6458H88.0743C88.6972 89.6458 89.0076 89.9365 89.0076 90.518C89.0076 91.0994 88.6972 91.4237 88.0743 91.4237H82.266L82.2683 91.4259Z" fill="#F47920"/>
<path d="M101.324 46H48.6736C44.9947 46 42 48.9564 42 52.5881V92.4119C42 96.0459 44.9947 99 48.6736 99H101.324C105.005 99 107.998 96.0436 107.998 92.4119V52.5881C107.998 48.9541 105.003 46 101.324 46ZM86.1578 51.7808H97.6452C98.7031 51.7808 99.5594 52.6284 99.5594 53.6705C99.5594 54.7126 98.7009 55.5601 97.6452 55.5601H86.1578C85.0999 55.5601 84.2436 54.7126 84.2436 53.6705C84.2436 52.6284 85.1022 51.7808 86.1578 51.7808ZM65.8198 51.338C67.1246 51.338 68.1825 52.3824 68.1825 53.6705C68.1825 54.9586 67.1246 56.0029 65.8198 56.0029C64.515 56.0029 63.4571 54.9586 63.4571 53.6705C63.4571 52.3824 64.515 51.338 65.8198 51.338ZM58.8426 51.338C60.1475 51.338 61.2054 52.3824 61.2054 53.6705C61.2054 54.9586 60.1475 56.0029 58.8426 56.0029C57.5378 56.0029 56.4799 54.9586 56.4799 53.6705C56.4799 52.3824 57.5378 51.338 58.8426 51.338ZM51.8655 51.338C53.1703 51.338 54.2282 52.3824 54.2282 53.6705C54.2282 54.9586 53.1703 56.0029 51.8655 56.0029C50.5606 56.0029 49.5027 54.9586 49.5027 53.6705C49.5027 52.3824 50.5606 51.338 51.8655 51.338ZM103.857 92.4119C103.857 93.7894 102.72 94.9121 101.324 94.9121H48.6736C47.2782 94.9121 46.141 93.7894 46.141 92.4119V61.3678H103.857V92.4119Z" fill="#F47920"/>
</g>
</g>
<defs>
<radialGradient id="paint0_radial_332_24029" cx="0" cy="0" r="1" gradientUnits="userSpaceOnUse" gradientTransform="translate(75.4361 76.8754) scale(84.6506 84.6506)">
<stop stop-color="#F93822"/>
<stop offset="1" stop-color="#F37721" stop-opacity="0.13"/>
</radialGradient>
<clipPath id="clip0_332_24029">
<rect width="150" height="150" fill="white"/>
</clipPath>
<clipPath id="clip1_332_24029">
<rect width="66" height="53" fill="white" transform="translate(42 46)"/>
</clipPath>
</defs>
</svg>
