<svg width="120" height="120" viewBox="0 0 120 120" fill="none" xmlns="http://www.w3.org/2000/svg">
<path d="M60 120C93.1371 120 120 93.1371 120 60C120 26.8629 93.1371 0 60 0C26.8629 0 0 26.8629 0 60C0 93.1371 26.8629 120 60 120Z" fill="url(#paint0_linear_325_22451)"/>
<g clip-path="url(#clip0_325_22451)">
<path d="M48.1281 66.0688C45.8622 67.603 43.1436 68.4995 40.2127 68.4995C37.2817 68.4995 34.5631 67.603 32.2973 66.0688C26.3117 69.0243 22.2 75.2247 22.2 82.3899V84.7877C22.2 86.5195 23.5768 87.922 25.292 87.922H48.1444V82.3404C48.1444 80.4132 49.2622 78.6508 51.01 77.8507C51.059 77.8343 51.0917 77.8178 51.1407 77.7848V76.7895C51.1407 74.2764 52.0461 71.9421 53.5512 70.1631C52.0298 68.483 50.1839 67.0782 48.1281 66.0664V66.0688Z" fill="white"/>
<path d="M40.2173 65.2374C46.2962 65.2374 51.2224 60.27 51.2224 54.1402C51.2224 48.0104 46.2962 43.043 40.2173 43.043C34.1384 43.043 29.21 48.0104 29.21 54.1402C29.21 60.27 34.1384 65.2374 40.2173 65.2374Z" fill="white"/>
<path d="M70.2734 80.8243C69.6364 80.5325 68.969 80.2713 68.2433 80.0266V76.7864C68.2433 72.932 65.1326 69.793 61.3103 69.793C57.4879 69.793 54.375 72.9297 54.375 76.7864V80.0266C53.6446 80.2737 52.9772 80.5349 52.3448 80.8243C51.7567 81.0926 51.3764 81.6855 51.3764 82.3373V93.3404C51.3764 94.2558 52.1138 95.0017 53.0239 95.0017H69.5921C70.5021 95.0017 71.2395 94.2581 71.2395 93.3404V82.3373C71.2395 81.6855 70.8592 81.0926 70.2711 80.8243H70.2734ZM63.1561 90.2438C63.1981 90.4061 63.1655 90.5779 63.0628 90.7097C62.9601 90.8438 62.8061 90.9191 62.6404 90.9191H59.9755C59.8075 90.9191 59.6558 90.8438 59.5531 90.7097C59.4528 90.5779 59.4178 90.4085 59.4621 90.2438L60.3209 86.9682C59.6091 86.6012 59.1191 85.8646 59.1191 85.0058C59.1191 83.7868 60.1015 82.7938 61.3126 82.7938C62.5237 82.7938 63.5062 83.7868 63.5062 85.0058C63.5062 85.8646 63.0138 86.6012 62.3044 86.9659L63.1631 90.2414L63.1561 90.2438ZM64.4186 79.1254C62.3534 78.8265 60.2649 78.8242 58.1997 79.1254V76.7864C58.1997 75.0592 59.5951 73.6521 61.3103 73.6521C63.0254 73.6521 64.4186 75.0592 64.4186 76.7864V79.1254Z" fill="white"/>
<path d="M93.8703 25H54.235C52.0648 25 50.3053 26.7742 50.3053 28.9626V41.3305C50.3053 43.5189 52.0648 45.2931 54.235 45.2931H58.4727L56.1928 55.0067C55.8825 56.3315 57.4576 57.2633 58.454 56.3456L70.4345 45.2931H93.8703C96.0405 45.2931 97.8 43.5189 97.8 41.3305V28.9626C97.8 26.7742 96.0405 25 93.8703 25ZM64.6869 36.3961C64.9576 36.5537 65.149 36.8055 65.2306 37.109C65.31 37.4126 65.2703 37.7303 65.114 38.0032C64.9063 38.3656 64.5189 38.5915 64.1012 38.5915C63.8982 38.5915 63.6975 38.535 63.5202 38.4315L61.3733 37.182V39.681C61.3733 40.3304 60.8506 40.8575 60.2065 40.8575C59.5625 40.8575 59.0397 40.3304 59.0397 39.681V37.182L56.8929 38.4315C56.7155 38.535 56.5125 38.5915 56.3095 38.5915C55.8941 38.5915 55.5067 38.3656 55.2991 38.0032C55.1427 37.7303 55.103 37.4126 55.1824 37.109C55.2641 36.8055 55.4577 36.5514 55.7261 36.3961L57.873 35.1466L55.7261 33.8971C55.4554 33.7394 55.2617 33.4853 55.1824 33.1817C55.103 32.8782 55.1427 32.5605 55.2991 32.2875C55.4554 32.0146 55.7051 31.8193 56.0085 31.7393C56.3095 31.6593 56.6245 31.6969 56.8952 31.8569L59.0421 33.1064V30.6051C59.0421 29.9556 59.5648 29.4285 60.2089 29.4285C60.8529 29.4285 61.3756 29.9556 61.3756 30.6051V33.1041L63.5225 31.8546C64.0779 31.5299 64.7943 31.7228 65.1163 32.2852C65.4383 32.8452 65.247 33.5676 64.6893 33.8924L62.5424 35.1419L64.6893 36.3914L64.6869 36.3961ZM78.5342 36.3961C78.8049 36.5537 78.9963 36.8055 79.0779 37.109C79.1573 37.4126 79.1176 37.7303 78.9613 38.0032C78.7536 38.3656 78.3662 38.5915 77.9485 38.5915C77.7455 38.5915 77.5448 38.535 77.3674 38.4315L75.2206 37.182V39.681C75.2206 40.3304 74.6979 40.8575 74.0538 40.8575C73.4097 40.8575 72.887 40.3304 72.887 39.681V37.182L70.7402 38.4315C70.5628 38.535 70.3598 38.5915 70.1591 38.5915C69.7414 38.5915 69.3564 38.3656 69.1463 38.0032C68.99 37.7303 68.9503 37.4126 69.0297 37.109C69.1113 36.8055 69.305 36.5514 69.5734 36.3961L71.7203 35.1466L69.5734 33.8971C69.3027 33.7394 69.109 33.4853 69.0297 33.1817C68.9503 32.8782 68.99 32.5605 69.1463 32.2875C69.4707 31.7252 70.1871 31.5322 70.7402 31.8569L72.887 33.1064V30.6074C72.887 29.958 73.4097 29.4309 74.0538 29.4309C74.6979 29.4309 75.2206 29.958 75.2206 30.6074V33.1064L77.3674 31.8569C77.9228 31.5322 78.6392 31.7252 78.9613 32.2875C79.2833 32.8476 79.0919 33.57 78.5342 33.8947L76.3874 35.1442L78.5342 36.3937V36.3961ZM92.3838 36.3961C92.6545 36.5537 92.8459 36.8055 92.9275 37.109C93.0069 37.4126 92.9672 37.7303 92.8109 38.0032C92.6032 38.3656 92.2158 38.5915 91.7981 38.5915C91.5951 38.5915 91.3944 38.535 91.2171 38.4315L89.0702 37.182V39.681C89.0702 40.3304 88.5475 40.8575 87.9034 40.8575C87.2594 40.8575 86.7366 40.3304 86.7366 39.681V37.182L84.5898 38.4315C84.4124 38.535 84.2094 38.5915 84.0087 38.5915C83.591 38.5915 83.206 38.3656 82.996 38.0032C82.8396 37.7303 82.7999 37.4126 82.8793 37.109C82.961 36.8055 83.1546 36.5514 83.423 36.3961L85.5699 35.1466L83.423 33.8971C83.1523 33.7394 82.9586 33.4853 82.8793 33.1817C82.7999 32.8782 82.8396 32.5605 82.996 32.2875C83.1523 32.0146 83.402 31.8193 83.7054 31.7393C84.0064 31.6593 84.3214 31.6969 84.5921 31.8569L86.739 33.1064V30.6074C86.739 29.958 87.2617 29.4309 87.9057 29.4309C88.5498 29.4309 89.0725 29.958 89.0725 30.6074V33.1064L91.2194 31.8569C91.7748 31.5322 92.4912 31.7252 92.8132 32.2875C93.1352 32.8476 92.9439 33.57 92.3862 33.8947L90.2393 35.1442L92.3862 36.3937L92.3838 36.3961Z" fill="white"/>
</g>
<defs>
<linearGradient id="paint0_linear_325_22451" x1="0.00279083" y1="60" x2="120" y2="60" gradientUnits="userSpaceOnUse">
<stop stop-color="#F47E20"/>
<stop offset="0.39" stop-color="#F15E2C"/>
<stop offset="0.77" stop-color="#EE4536"/>
<stop offset="1" stop-color="#EE3D3A"/>
</linearGradient>
<clipPath id="clip0_325_22451">
<rect width="75.6" height="70" fill="white" transform="translate(22.2 25)"/>
</clipPath>
</defs>
</svg>
