<svg width="105" height="105" viewBox="0 0 105 105" fill="none" xmlns="http://www.w3.org/2000/svg">
<path d="M52.543 104.516C81.1949 104.516 104.422 81.2887 104.422 52.6367C104.422 23.9848 81.1949 0.757812 52.543 0.757812C23.891 0.757812 0.664062 23.9848 0.664062 52.6367C0.664062 81.2887 23.891 104.516 52.543 104.516Z" fill="#F47E20"/>
<path d="M14.397 33.385C17.4142 28.8895 22.2899 26.6387 29.0061 26.6387C35.7223 26.6387 40.5981 28.8895 43.6152 33.385C46.6324 37.8806 48.147 44.0357 48.147 51.8441C48.147 59.6525 46.6384 65.9463 43.6152 70.4419C40.592 74.9374 35.7223 77.1882 29.0061 77.1882C22.2899 77.1882 17.4142 74.9374 14.397 70.4419C11.3738 65.9463 9.86523 59.749 9.86523 51.8441C9.86523 43.9391 11.3738 37.8806 14.397 33.385ZM35.2034 41.2478C34.2017 38.7737 32.1379 37.5367 29.0061 37.5367C25.8743 37.5367 23.8045 38.7737 22.8089 41.2478C21.8072 43.7219 21.3124 47.2519 21.3124 51.838C21.3124 54.9276 21.4934 57.4801 21.8554 59.5016C22.2175 61.5231 22.9537 63.1584 24.07 64.4075C25.1804 65.6567 26.8277 66.2782 29.0061 66.2782C31.1845 66.2782 32.8319 65.6567 33.9422 64.4075C35.0525 63.1584 35.7947 61.5231 36.1568 59.5016C36.5189 57.4801 36.6999 54.9276 36.6999 51.838C36.6999 47.2519 36.199 43.7219 35.2034 41.2478Z" fill="white"/>
<path d="M54.5493 68.5355V59.134L76.0738 28.3408H89.0838V58.4521H94.6716V68.5355H89.0838V77.3939H77.4375V68.5355H54.5493ZM78.2582 41.1517L66.8111 58.4521H78.2582V41.1517Z" fill="white"/>
</svg>
