<svg width="180" height="181" viewBox="0 0 180 181" fill="none" xmlns="http://www.w3.org/2000/svg">
<path d="M128.658 143.717C128.658 154.534 137.428 163.302 148.246 163.302C159.065 163.302 167.834 154.534 167.834 143.717C167.834 132.901 159.065 124.133 148.246 124.133C143.963 124.133 140 125.509 136.774 127.842C135.932 128.622 135.067 129.372 134.175 130.091C130.757 133.616 128.654 138.42 128.654 143.717H128.658Z" fill="#F47E20"/>
<path d="M102.177 39.5997C114.749 39.5997 126.256 44.1547 135.14 51.7078C135.352 51.8846 135.559 52.0653 135.767 52.2498C139.158 55.0558 143.506 56.7394 148.25 56.7394C159.069 56.7394 167.838 47.9716 167.838 37.155C167.838 31.8928 165.762 27.1187 162.386 23.6016C161.475 22.779 160.545 21.9795 159.603 21.1953C144.017 8.26843 124.007 0.5 102.177 0.5C52.4642 0.5 12.1622 40.7951 12.1622 90.5C12.1622 140.205 52.4642 180.5 102.177 180.5C123.995 180.5 144.002 172.739 159.584 159.824L159.534 159.728C156.343 161.98 152.452 163.303 148.25 163.303C137.432 163.303 128.662 154.535 128.662 143.718C128.662 138.421 130.765 133.617 134.183 130.092C125.441 137.164 114.307 141.4 102.185 141.4C74.0665 141.4 51.2762 118.61 51.2762 90.5C51.2762 62.3899 74.0703 39.5997 102.185 39.5997H102.177Z" fill="url(#paint0_linear_325_22053)"/>
<defs>
<linearGradient id="paint0_linear_325_22053" x1="89.9981" y1="0.5" x2="89.9981" y2="180.5" gradientUnits="userSpaceOnUse">
<stop stop-color="#F47E20" stop-opacity="0.13"/>
<stop offset="0.1" stop-color="#F47E20" stop-opacity="0.0256"/>
<stop offset="0.24" stop-color="#F47E20" stop-opacity="0.0576"/>
<stop offset="0.42" stop-color="#F47E20" stop-opacity="0.1444"/>
<stop offset="0.62" stop-color="#F47E20" stop-opacity="0.3136"/>
<stop offset="0.83" stop-color="#F47E20" stop-opacity="0.64"/>
<stop offset="1" stop-color="#F47E20"/>
</linearGradient>
</defs>
</svg>
