<svg width="105" height="105" viewBox="0 0 105 105" fill="none" xmlns="http://www.w3.org/2000/svg">
<path d="M52.543 104.516C81.1949 104.516 104.422 81.2887 104.422 52.6367C104.422 23.9848 81.1949 0.757812 52.543 0.757812C23.891 0.757812 0.664062 23.9848 0.664062 52.6367C0.664062 81.2887 23.891 104.516 52.543 104.516Z" fill="#F47E20"/>
<path d="M16.2417 33.6585C19.2589 29.1629 24.1346 26.9121 30.8508 26.9121C37.5671 26.9121 42.4428 29.1629 45.46 33.6585C48.4771 38.1541 49.9917 44.3091 49.9917 52.1175C49.9917 59.9259 48.4832 66.2197 45.46 70.7153C42.4368 75.2109 37.5671 77.4617 30.8508 77.4617C24.1346 77.4617 19.2589 75.2109 16.2417 70.7153C13.2185 66.2197 11.71 60.0225 11.71 52.1175C11.71 44.2125 13.2185 38.1541 16.2417 33.6585ZM37.0541 41.5212C36.0524 39.0472 33.9887 37.8101 30.8569 37.8101C27.7251 37.8101 25.6553 39.0472 24.6596 41.5212C23.6579 43.9953 23.1631 47.5254 23.1631 52.1115C23.1631 55.201 23.3441 57.7536 23.7062 59.7751C24.0683 61.7966 24.8045 63.4319 25.9208 64.681C27.0311 65.9301 28.6785 66.5516 30.8569 66.5516C33.0353 66.5516 34.6826 65.9301 35.793 64.681C36.9033 63.4319 37.6455 61.7966 38.0076 59.7751C38.3696 57.7536 38.5506 55.201 38.5506 52.1115C38.5506 47.5254 38.0498 43.9953 37.0541 41.5212Z" fill="white"/>
<path d="M91.1398 38.0819H69.8868V47.4834C70.792 46.4877 72.0652 45.6671 73.7005 45.0334C75.3359 44.3998 77.1039 44.08 79.0168 44.08C82.4202 44.08 85.2502 44.8524 87.495 46.3972C89.7458 47.942 91.3872 49.9393 92.4311 52.3893C93.475 54.8392 94 57.5003 94 60.3606C94 65.6769 92.5035 69.8888 89.5045 72.9965C86.5054 76.1102 82.2814 77.661 76.8324 77.661C73.1997 77.661 70.0437 77.0395 67.3645 75.7904C64.6853 74.5413 62.6155 72.8034 61.1673 70.5767C59.713 68.3501 58.9164 65.7855 58.7837 62.8769H70.1584C70.4299 64.2829 71.0877 65.4536 72.1316 66.3829C73.1756 67.3122 74.6057 67.7768 76.422 67.7768C78.5582 67.7768 80.1452 67.0949 81.1892 65.7312C82.2331 64.3674 82.7581 62.5511 82.7581 60.2822C82.7581 58.0133 82.215 56.3538 81.1228 55.1711C80.0306 53.9884 78.4435 53.397 76.3556 53.397C74.8109 53.397 73.5376 53.7711 72.5419 54.5194C71.5403 55.2676 70.8825 56.2573 70.5687 57.4822H59.3268V27.8477H91.1398V38.0638V38.0819Z" fill="white"/>
</svg>
