<svg width="120" height="120" viewBox="0 0 120 120" fill="none" xmlns="http://www.w3.org/2000/svg">
<path d="M60 120C93.1371 120 120 93.1371 120 60C120 26.8629 93.1371 0 60 0C26.8629 0 0 26.8629 0 60C0 93.1371 26.8629 120 60 120Z" fill="url(#paint0_linear_325_22344)"/>
<g clip-path="url(#clip0_325_22344)">
<path d="M55.4719 77.9728C53.8179 78.1148 52.1343 78.1721 50.5077 78.1721C43.3169 78.1721 35.3572 76.9704 30.6211 73.9355V82.3514C30.6211 86.0729 39.523 89.0781 50.5077 89.0781C52.3054 89.0781 54.046 88.9912 55.7001 88.8492C55.5564 88.277 55.4719 87.6751 55.4719 87.0753V77.9728Z" fill="white"/>
<path d="M60.6643 62.087C57.3837 62.6889 53.8728 62.9453 50.5077 62.9453C43.3169 62.9453 35.3572 61.7415 30.6211 58.7363V67.1521C30.6211 70.8737 39.523 73.8789 50.5077 73.8789C52.2188 73.8789 53.9024 73.7941 55.4719 73.65V70.9309C55.4719 67.6671 57.6689 64.8908 60.6643 64.0028V62.0849V62.087Z" fill="white"/>
<path d="M30.6211 43.5078V51.9236C30.6211 55.6451 39.523 58.6503 50.5077 58.6503C54.4727 58.6503 58.1822 58.2498 61.2938 57.5631C62.6627 53.5852 66.1166 50.5779 70.3668 49.8912V43.5078C65.6307 46.5427 57.671 47.7443 50.5098 47.7443C43.3486 47.7443 35.3572 46.5427 30.6211 43.5078Z" fill="white"/>
<path d="M50.4823 43.4577C61.4628 43.4577 70.3647 40.444 70.3647 36.7288C70.3647 33.0137 61.465 30 50.4823 30C39.4997 30 30.6 33.0137 30.6 36.7288C30.6 40.444 39.5018 43.4577 50.4823 43.4577Z" fill="white"/>
<path d="M86.4806 68.0077H84.2182V61.3191C84.2182 57.2903 80.9502 54.0117 76.9344 54.0117H72.2216C68.2058 54.0117 64.94 57.2903 64.94 61.3191V68.0077H62.6775C61.0657 68.0077 59.7581 69.3196 59.7581 70.9366V87.071C59.7581 88.688 61.0636 89.9999 62.6775 89.9999H86.4806C88.0924 89.9999 89.4 88.688 89.4 87.071V70.9366C89.4 69.3196 88.0924 68.0077 86.4806 68.0077ZM76.0388 79.1362V82.8874C76.0388 83.697 75.3839 84.3519 74.5791 84.3519C73.7742 84.3519 73.1194 83.697 73.1194 82.8874V79.1341C72.2427 78.6255 71.647 77.6845 71.647 76.5973C71.647 74.9718 72.9609 73.6536 74.5812 73.6536C76.2014 73.6536 77.5154 74.9697 77.5154 76.5973C77.5154 77.6866 76.9175 78.6255 76.0409 79.1362H76.0388ZM79.0046 68.0077H70.1535V61.3191C70.1535 60.1747 71.083 59.2422 72.2216 59.2422H76.9344C78.0752 59.2422 79.0046 60.1747 79.0046 61.3191V68.0077Z" fill="white"/>
</g>
<defs>
<linearGradient id="paint0_linear_325_22344" x1="0.00279083" y1="60" x2="120" y2="60" gradientUnits="userSpaceOnUse">
<stop stop-color="#F47E20"/>
<stop offset="0.39" stop-color="#F15E2C"/>
<stop offset="0.77" stop-color="#EE4536"/>
<stop offset="1" stop-color="#EE3D3A"/>
</linearGradient>
<clipPath id="clip0_325_22344">
<rect width="58.8" height="60" fill="white" transform="translate(30.6 30)"/>
</clipPath>
</defs>
</svg>
