<svg width="104" height="104" viewBox="0 0 104 104" fill="none" xmlns="http://www.w3.org/2000/svg">
<path d="M51.8789 103.758C80.5308 103.758 103.758 80.5308 103.758 51.8789C103.758 23.227 80.5308 0 51.8789 0C23.227 0 0 23.227 0 51.8789C0 80.5308 23.227 103.758 51.8789 103.758Z" fill="#F47E20"/>
<path d="M17.1104 32.4573C20.1276 27.9617 25.0033 25.7109 31.7195 25.7109C38.4357 25.7109 43.3114 27.9617 46.3286 32.4573C49.3458 36.9529 50.8604 43.1079 50.8604 50.9163C50.8604 58.7247 49.3518 65.0185 46.3286 69.5141C43.3054 74.0097 38.4357 76.2605 31.7195 76.2605C25.0033 76.2605 20.1276 74.0097 17.1104 69.5141C14.0872 65.0185 12.5786 58.8213 12.5786 50.9163C12.5786 43.0113 14.0872 36.9529 17.1104 32.4573ZM37.9228 40.32C36.9211 37.846 34.8573 36.6089 31.7255 36.6089C28.5937 36.6089 26.5239 37.846 25.5283 40.32C24.5266 42.7941 24.0318 46.3242 24.0318 50.9103C24.0318 53.9999 24.2128 56.5524 24.5749 58.5739C24.9369 60.5954 25.6731 62.2307 26.7895 63.4798C27.8998 64.7289 29.5471 65.3504 31.7255 65.3504C33.9039 65.3504 35.5513 64.7289 36.6616 63.4798C37.7719 62.2307 38.5142 60.5954 38.8762 58.5739C39.2383 56.5524 39.4193 53.9999 39.4193 50.9103C39.4193 46.3242 38.9185 42.7941 37.9228 40.32Z" fill="white"/>
<path d="M62.1746 29.5248C65.1737 26.8938 69.2348 25.5723 74.37 25.5723C77.7734 25.5723 80.694 26.1636 83.1258 27.3464C85.5516 28.5291 87.3921 30.1403 88.6412 32.1799C89.8903 34.2255 90.5118 36.5185 90.5118 39.059C90.5118 42.0581 89.7636 44.4959 88.261 46.3847C86.7645 48.2674 85.0146 49.5527 83.0172 50.2346V50.5061C85.6059 51.369 87.6516 52.7992 89.1481 54.7965C90.6446 56.7939 91.3989 59.3585 91.3989 62.4963C91.3989 65.3143 90.7532 67.8005 89.4558 69.9548C88.1584 72.115 86.2757 73.8047 83.8016 75.0296C81.3276 76.2546 78.3889 76.8701 74.9795 76.8701C69.5305 76.8701 65.1797 75.5305 61.9333 72.8512C58.6868 70.172 56.973 66.129 56.792 60.7283H68.1003C68.1426 62.7256 68.7158 64.3066 69.802 65.4652C70.8882 66.6238 72.4813 67.2031 74.5691 67.2031C76.3432 67.2031 77.713 66.6902 78.6906 65.6704C79.6681 64.6506 80.1569 63.2989 80.1569 61.6153C80.1569 59.4369 79.463 57.8559 78.0811 56.8784C76.6932 55.9008 74.4786 55.412 71.4373 55.412H69.2589V45.9442H71.4373C73.7545 45.9442 75.6251 45.5459 77.0553 44.7494C78.4854 43.9528 79.2035 42.5348 79.2035 40.4891C79.2035 38.8538 78.7509 37.5806 77.8397 36.6754C76.9285 35.7703 75.6794 35.3117 74.0924 35.3117C72.3666 35.3117 71.0813 35.8367 70.2425 36.8806C69.4037 37.9245 68.915 39.2219 68.7762 40.7607H57.4015C57.5825 35.903 59.1756 32.1557 62.1686 29.5187L62.1746 29.5248Z" fill="white"/>
</svg>
