<svg width="150" height="150" viewBox="0 0 150 150" fill="none" xmlns="http://www.w3.org/2000/svg">
<g clip-path="url(#clip0_332_24035)">
<path d="M74.5 0C33.0797 0 -0.5 33.5797 -0.5 75C-0.5 116.42 33.0797 150 74.5 150C115.92 150 149.5 116.423 149.5 75C149.5 33.5766 115.92 0 74.5 0ZM74.9105 129.271C44.7084 129.271 20.2257 104.789 20.2257 74.5864C20.2257 44.3842 44.7084 19.9015 74.9105 19.9015C105.113 19.9015 129.595 44.3842 129.595 74.5864C129.595 104.789 105.113 129.271 74.9105 129.271Z" fill="url(#paint0_radial_332_24035)"/>
<g clip-path="url(#clip1_332_24035)">
<path d="M99.0835 47.5H47.8488C44.2711 47.5 41.3596 50.3724 41.3596 53.902V92.6294C41.3596 96.159 44.2711 99.0314 47.8488 99.0314H89.1485L88.6604 95.0611H47.8488C46.4943 95.0611 45.3815 93.9657 45.3815 92.627V62.4348H101.551V85.9866L105.575 88.729V53.902C105.575 50.3724 102.664 47.5 99.086 47.5H99.0835ZM50.9628 57.2366C49.6962 57.2366 48.6517 56.2061 48.6517 54.9566C48.6517 53.707 49.6962 52.6982 50.9628 52.6982C52.2294 52.6982 53.2519 53.707 53.2519 54.9566C53.2519 56.2061 52.2294 57.2366 50.9628 57.2366ZM57.7399 57.2366C56.4733 57.2366 55.4508 56.2061 55.4508 54.9566C55.4508 53.707 56.4733 52.6982 57.7399 52.6982C59.0065 52.6982 60.051 53.707 60.051 54.9566C60.051 56.2061 59.0065 57.2366 57.7399 57.2366ZM64.5439 57.2366C63.2773 57.2366 62.2328 56.2061 62.2328 54.9566C62.2328 53.707 63.2773 52.6982 64.5439 52.6982C65.8105 52.6982 66.833 53.707 66.833 54.9566C66.833 56.2061 65.8105 57.2366 64.5439 57.2366ZM95.5058 56.7984H84.3237C83.3012 56.7984 82.4568 55.9654 82.4568 54.9566C82.4568 53.9477 83.3012 53.1147 84.3237 53.1147H95.5058C96.5284 53.1147 97.3728 53.9477 97.3728 54.9566C97.3728 55.9654 96.5284 56.7984 95.5058 56.7984Z" fill="#F47920"/>
<path d="M53.5911 88.9007H62.0595C63.4188 88.9007 64.5243 87.8101 64.5243 86.469V70.9684C64.5243 69.6273 63.4188 68.5391 62.0595 68.5391H53.5911C52.2318 68.5391 51.1287 69.6297 51.1287 70.9684V86.469C51.1287 87.8101 52.2342 88.9007 53.5911 88.9007Z" fill="#F47920"/>
<path d="M70.9769 72.5165H93.7951C94.9079 72.5165 95.8109 71.6257 95.8109 70.5278C95.8109 69.4299 94.9079 68.5391 93.7951 68.5391H70.9769C69.864 68.5391 68.9611 69.4299 68.9611 70.5278C68.9611 71.6257 69.864 72.5165 70.9769 72.5165Z" fill="#F47920"/>
<path d="M70.9769 80.7099H93.7951C94.9079 80.7099 95.8109 79.8191 95.8109 78.7212C95.8109 77.6233 94.9079 76.7324 93.7951 76.7324H70.9769C69.864 76.7324 68.9611 77.6233 68.9611 78.7212C68.9611 79.8191 69.864 80.7099 70.9769 80.7099Z" fill="#F47920"/>
<path d="M87.9258 88.9019H70.9671C69.8567 88.9019 68.9659 88.0038 68.9659 86.9059C68.9659 85.808 69.8543 84.9316 70.9671 84.9316H87.6598C87.5719 85.3698 87.5719 85.7864 87.6158 86.227L87.9258 88.9019Z" fill="#F47920"/>
<path d="M108.16 95.0446L93.1117 84.7542C92.321 84.2125 91.2546 84.8457 91.3668 85.7895L93.4998 103.729C93.6072 104.637 94.7249 105.027 95.3887 104.391L99.1787 100.753L102.351 105.966C102.669 106.488 103.354 106.657 103.884 106.344L105.619 105.316C106.149 105.003 106.319 104.326 106.002 103.804L102.83 98.5911L107.867 96.9997C108.748 96.7204 108.923 95.5647 108.162 95.0446H108.16Z" fill="#F47920"/>
</g>
</g>
<defs>
<radialGradient id="paint0_radial_332_24035" cx="0" cy="0" r="1" gradientUnits="userSpaceOnUse" gradientTransform="translate(75.4361 76.8754) scale(84.6506 84.6506)">
<stop stop-color="#F93822"/>
<stop offset="1" stop-color="#F37721" stop-opacity="0.13"/>
</radialGradient>
<clipPath id="clip0_332_24035">
<rect width="150" height="150" fill="white"/>
</clipPath>
<clipPath id="clip1_332_24035">
<rect width="67.2807" height="59" fill="white" transform="translate(41.3596 47.5)"/>
</clipPath>
</defs>
</svg>
