<svg width="120" height="120" viewBox="0 0 120 120" fill="none" xmlns="http://www.w3.org/2000/svg">
<path d="M60 120C93.1371 120 120 93.1371 120 60C120 26.8629 93.1371 0 60 0C26.8629 0 0 26.8629 0 60C0 93.1371 26.8629 120 60 120Z" fill="url(#paint0_linear_325_22354)"/>
<g clip-path="url(#clip0_325_22354)">
<path d="M88.6137 49.0996C87.9551 48.4654 87.0808 48.1772 86.1766 48.2925C85.059 48.4354 84.141 49.2864 83.7256 50.3379L80.1548 59.2254C80.3407 59.3546 80.5266 59.5137 80.6987 59.6866C82.6631 61.4738 83.1359 64.4117 81.9173 66.7892L81.7452 67.1213C80.1112 70.3198 78.2042 73.373 76.024 76.2394L74.3029 78.5293C74.0298 78.8891 73.6282 79.1335 73.1853 79.1912C72.7263 79.2488 72.2811 79.1335 71.9231 78.8591C71.549 78.5847 71.3218 78.1834 71.2644 77.736C71.2071 77.2748 71.3218 76.8275 71.5949 76.4677L73.417 74.0625C75.3815 71.4544 77.1302 68.6756 78.6218 65.7654L78.9087 65.2188C79.4388 64.1811 79.2093 62.9289 78.3487 62.1495C77.8462 61.6883 77.1875 61.4577 76.4991 61.4853C75.8106 61.543 75.1956 61.8451 74.7366 62.3501L64.8296 73.6889C63.7556 74.9273 63.0671 76.2533 62.9937 78.1534C62.9157 80.4595 62.7458 88.7543 62.6609 93.5348C62.6472 94.3396 63.292 94.9945 64.0952 94.9945H76.3614C77.1623 94.9945 77.8071 94.335 77.7957 93.5301L77.7337 89.5753L86.5208 80.6878C88.0538 79.1312 88.9442 77.0442 89.0016 74.8535L89.5455 51.3272C89.5592 50.4763 89.2288 49.6853 88.6137 49.095V49.0996Z" fill="white"/>
<path d="M55.1704 73.6928L45.2634 62.354C44.8044 61.849 44.1894 61.5469 43.5009 61.4892C42.8125 61.4616 42.1539 61.6922 41.6513 62.1534C40.7907 62.9305 40.5612 64.185 41.0913 65.2227L41.3782 65.7693C42.8699 68.6795 44.6186 71.4583 46.583 74.0664L48.4028 76.4716C48.6759 76.8314 48.7906 77.2787 48.7333 77.7399C48.6759 78.1873 48.4464 78.5886 48.0746 78.863C47.7166 79.1374 47.2714 79.2527 46.8125 79.1951C46.3673 79.1374 45.9657 78.893 45.6949 78.5332L43.9737 76.2433C41.7936 73.3769 39.8865 70.3214 38.2526 67.1252L38.0804 66.7932C36.8619 64.4156 37.3346 61.4754 39.299 59.6905C39.4711 59.5176 39.657 59.3585 39.8452 59.2293L36.2744 50.3418C35.859 49.2903 34.941 48.4393 33.8234 48.2964C32.9215 48.1811 32.0449 48.4693 31.3863 49.1035C30.7712 49.6938 30.4408 50.4848 30.4545 51.3357L30.9984 74.862C31.0558 77.0527 31.9439 79.1397 33.4792 80.6963L42.2686 89.5838L42.2066 93.5387C42.1929 94.3435 42.84 95.003 43.6409 95.003H55.9071C56.7103 95.003 57.3551 94.3481 57.3414 93.5433C57.2565 88.7629 57.0866 80.468 57.0086 78.162C56.9375 76.2618 56.249 74.9358 55.1727 73.6975L55.1704 73.6928Z" fill="white"/>
<path d="M76.7859 44.0549V33.2187C76.7859 32.3817 76.1227 31.6968 75.2897 31.6714C64.8204 31.3716 61.4745 26.0054 61.3253 25.7564C61.0522 25.2883 60.5496 25.0046 60.008 25C59.4802 25.0115 58.9524 25.2859 58.6701 25.7564C58.5324 25.987 55.1957 31.3716 44.7058 31.6737C43.8727 31.6991 43.2095 32.384 43.2095 33.2211V44.0572C43.2095 51.4111 47.0901 58.3662 53.3345 62.2011L59.1934 65.7986C59.4389 65.9508 59.7189 66.0269 59.9966 66.0269C60.2742 66.0269 60.5542 65.9508 60.7998 65.7986L66.6586 62.2011C72.903 58.3639 76.7836 51.4111 76.7836 44.0572L76.7859 44.0549ZM59.7602 51.7409C59.3517 52.1814 58.7803 52.4327 58.179 52.4327C57.5778 52.4327 57.0063 52.1837 56.5978 51.7409L51.4344 46.1695C50.622 45.2909 50.6702 43.9188 51.5422 43.1025C52.4166 42.2861 53.782 42.3345 54.5944 43.2108L58.1767 47.0781L65.3987 39.286C66.2111 38.4073 67.5766 38.3589 68.4509 39.1776C69.323 39.9939 69.3712 41.3683 68.5588 42.2446L59.7556 51.7409H59.7602Z" fill="white"/>
</g>
<defs>
<linearGradient id="paint0_linear_325_22354" x1="0.00279083" y1="60" x2="120" y2="60" gradientUnits="userSpaceOnUse">
<stop stop-color="#F47E20"/>
<stop offset="0.39" stop-color="#F15E2C"/>
<stop offset="0.77" stop-color="#EE4536"/>
<stop offset="1" stop-color="#EE3D3A"/>
</linearGradient>
<clipPath id="clip0_325_22354">
<rect width="59.0909" height="70" fill="white" transform="translate(30.4546 25)"/>
</clipPath>
</defs>
</svg>
