<svg width="120" height="120" viewBox="0 0 120 120" fill="none" xmlns="http://www.w3.org/2000/svg">
<path d="M60 120C93.1371 120 120 93.1371 120 60C120 26.8629 93.1371 0 60 0C26.8629 0 0 26.8629 0 60C0 93.1371 26.8629 120 60 120Z" fill="url(#paint0_linear_325_22419)"/>
<g clip-path="url(#clip0_325_22419)">
<path d="M54.836 58.6691C54.4085 57.852 54.1432 56.9362 54.1432 55.9488C54.1432 54.9614 54.4085 54.0456 54.836 53.2285L49.8857 48.252C48.2667 50.3946 47.2938 53.0557 47.2938 55.9488C47.2938 58.8419 48.2667 61.5005 49.8857 63.6432L54.836 58.6667V58.6691Z" fill="white"/>
<path d="M57.2927 50.76C58.1059 50.3305 59.0173 50.0639 60 50.0639C60.9827 50.0639 61.8941 50.3305 62.7073 50.76L67.6576 45.7835C65.5252 44.1592 62.8768 43.1816 60 43.1816C57.1232 43.1816 54.4748 44.1592 52.3424 45.7835L57.2927 50.76Z" fill="white"/>
<path d="M65.164 53.2299C65.5915 54.047 65.8568 54.9628 65.8568 55.9503C65.8568 56.9377 65.5915 57.8535 65.164 58.6706L70.1168 63.6471C71.7358 61.5044 72.7086 58.8434 72.7086 55.9527C72.7086 53.0621 71.7358 50.401 70.1168 48.2559L65.164 53.2324V53.2299Z" fill="white"/>
<path d="M62.7073 61.1387C61.8941 61.5682 60.9827 61.8348 60 61.8348C59.0173 61.8348 58.1059 61.5682 57.2927 61.1387L52.3424 66.1128C54.4748 67.7395 57.1232 68.7171 60 68.7171C62.8768 68.7171 65.5252 67.7395 67.6576 66.1128L62.7073 61.1387Z" fill="white"/>
<path d="M36.4327 77.3916H83.5673V34.5059H36.4327V77.394V77.3916ZM60 39.6873C68.9228 39.6873 76.1824 46.9818 76.1824 55.9475C76.1824 64.9132 68.9228 72.2077 60 72.2077C51.0772 72.2077 43.8176 64.9132 43.8176 55.9475C43.8176 46.9818 51.0772 39.6873 60 39.6873Z" fill="white"/>
<path d="M86.4638 25H33.5362C29.9101 25 26.9718 27.9524 26.9718 31.5959V92.0921C26.9718 93.6991 28.269 95.0025 29.8683 95.0025H38.5332C39.6092 95.0025 40.5968 94.4026 41.098 93.4448L44.5153 86.9008H75.4896L78.9069 93.4448C79.4081 94.4026 80.3957 95.0025 81.4717 95.0025H90.1366C91.7359 95.0025 93.0331 93.6991 93.0331 92.0921V31.5959C93.0331 27.9548 90.0948 25 86.4687 25H86.4638ZM87.0436 79.1397C87.0436 80.1049 86.2648 80.885 85.3067 80.885H34.6933C33.7327 80.885 32.9564 80.1024 32.9564 79.1397V32.7586C32.9564 31.7934 33.7352 31.0133 34.6933 31.0133H85.3042C86.2648 31.0133 87.0411 31.7959 87.0411 32.7586V79.1372L87.0436 79.1397Z" fill="white"/>
</g>
<defs>
<linearGradient id="paint0_linear_325_22419" x1="0.00279083" y1="60" x2="120" y2="60" gradientUnits="userSpaceOnUse">
<stop stop-color="#F47E20"/>
<stop offset="0.39" stop-color="#F15E2C"/>
<stop offset="0.77" stop-color="#EE4536"/>
<stop offset="1" stop-color="#EE3D3A"/>
</linearGradient>
<clipPath id="clip0_325_22419">
<rect width="66.0563" height="70" fill="white" transform="translate(26.9718 25)"/>
</clipPath>
</defs>
</svg>
