<svg width="105" height="105" viewBox="0 0 105 105" fill="none" xmlns="http://www.w3.org/2000/svg">
<path d="M52.543 104.516C81.1949 104.516 104.422 81.2887 104.422 52.6367C104.422 23.9848 81.1949 0.757812 52.543 0.757812C23.891 0.757812 0.664062 23.9848 0.664062 52.6367C0.664062 81.2887 23.891 104.516 52.543 104.516Z" fill="#F47E20"/>
<path d="M17.4371 34.5413C20.4542 30.0458 25.33 27.7949 32.0462 27.7949C38.7624 27.7949 43.6381 30.0458 46.6553 34.5413C49.6724 39.0369 51.1871 45.1919 51.1871 53.0003C51.1871 60.8087 49.6785 67.1025 46.6553 71.5981C43.6321 76.0937 38.7624 78.3445 32.0462 78.3445C25.33 78.3445 20.4542 76.0937 17.4371 71.5981C14.4139 67.1025 12.9053 60.9053 12.9053 53.0003C12.9053 45.0954 14.4139 39.0369 17.4371 34.5413ZM38.2434 42.404C37.2417 39.9299 35.178 38.693 32.0462 38.693C28.9143 38.693 26.8446 39.9299 25.8489 42.404C24.8472 44.8781 24.3524 48.4082 24.3524 52.9943C24.3524 56.0839 24.5334 58.6363 24.8955 60.6578C25.2575 62.6793 25.9937 64.3147 27.1101 65.5638C28.2204 66.8129 29.8678 67.4344 32.0462 67.4344C34.2246 67.4344 35.8719 66.8129 36.9822 65.5638C38.0926 64.3147 38.8348 62.6793 39.1968 60.6578C39.5589 58.6363 39.7399 56.0839 39.7399 52.9943C39.7399 48.4082 39.2391 44.8781 38.2434 42.404Z" fill="white"/>
<path d="M76.1207 69.3464C78.5284 69.3464 80.2301 68.2784 81.2318 66.1422C82.2274 64.0061 82.7283 60.5363 82.7283 55.7209C81.7266 57.1269 80.3688 58.2191 78.643 58.9915C76.9172 59.7639 74.9862 60.1501 72.8501 60.1501C69.9415 60.1501 67.3528 59.5467 65.0839 58.3459C62.815 57.145 61.0288 55.3468 59.7375 52.9632C58.4461 50.5796 57.7944 47.6832 57.7944 44.2798C57.7944 40.8764 58.4884 37.9921 59.8702 35.4939C61.2521 32.9956 63.2314 31.0647 65.7959 29.7009C68.3605 28.3372 71.3898 27.6553 74.8897 27.6553C81.6119 27.6553 86.3127 29.7432 88.9919 33.9249C91.6711 38.1007 93.0108 44.2557 93.0108 52.3839C93.0108 58.2855 92.4737 63.1612 91.4117 66.993C90.3436 70.8309 88.5514 73.7515 86.029 75.7488C83.5067 77.7462 80.0671 78.7479 75.7103 78.7479C72.2587 78.7479 69.32 78.0661 66.8882 76.7023C64.4563 75.3385 62.5978 73.5463 61.3004 71.3197C60.003 69.093 59.2668 66.643 59.0858 63.9638H69.851C70.5329 67.5542 72.6208 69.3464 76.1207 69.3464ZM80.0732 49.2159C81.2076 48.0573 81.7748 46.4824 81.7748 44.479C81.7748 42.3006 81.1835 40.617 80.0008 39.4403C78.818 38.2576 77.231 37.6662 75.2336 37.6662C73.2363 37.6662 71.6553 38.2696 70.4967 39.4705C69.3381 40.6773 68.7588 42.3187 68.7588 44.4066C68.7588 46.3617 69.3381 47.9366 70.4967 49.1435C71.6553 50.3504 73.3268 50.9478 75.5052 50.9478C77.412 50.9478 78.9327 50.3685 80.0671 49.2099L80.0732 49.2159Z" fill="white"/>
</svg>
